<svg width="620" height="271" viewBox="0 0 620 271" fill="none" xmlns="http://www.w3.org/2000/svg">
<g opacity="0.8" filter="url(#filter0_f_46_23)">
<circle cx="116.5" cy="116.5" r="50.5" fill="#8247E5"/>
</g>
<g filter="url(#filter1_dd_46_23)">
<circle cx="98.5" cy="98.5" r="42.5" stroke="#C4A0FF" stroke-width="3"/>
</g>
<path opacity="0.6" d="M126.5 64C126.5 64 352 -4.00015 620 270.5" stroke="#A95094" stroke-dasharray="4"/>
<g filter="url(#filter2_b_46_23)">
<circle cx="98.5" cy="98.5" r="34.5" fill="#8247E5"/>
</g>
<path d="M108 92.3C107.3 91.9 106.4 91.9 105.6 92.3L100 95.6L96.2 97.7L90.7 101C90 101.4 89.1 101.4 88.3 101L84 98.4C83.3 98 82.8 97.2 82.8 96.3V91.3C82.8 90.5 83.2 89.7 84 89.2L88.3 86.7C89 86.3 89.9 86.3 90.7 86.7L95 89.3C95.7 89.7 96.2 90.5 96.2 91.4V94.7L100 92.5V89.1C100 88.3 99.6 87.5 98.8 87L90.8 82.3C90.1 81.9 89.2 81.9 88.4 82.3L80.2 87.1C79.4 87.5 79 88.3 79 89.1V98.5C79 99.3 79.4 100.1 80.2 100.6L88.3 105.3C89 105.7 89.9 105.7 90.7 105.3L96.2 102.1L100 99.9L105.5 96.7C106.2 96.3 107.1 96.3 107.9 96.7L112.2 99.2C112.9 99.6 113.4 100.4 113.4 101.3V106.3C113.4 107.1 113 107.9 112.2 108.4L108 110.9C107.3 111.3 106.4 111.3 105.6 110.9L101.3 108.4C100.6 108 100.1 107.2 100.1 106.3V103.1L96.3 105.3V108.6C96.3 109.4 96.7 110.2 97.5 110.7L105.6 115.4C106.3 115.8 107.2 115.8 108 115.4L116.1 110.7C116.8 110.3 117.3 109.5 117.3 108.6V99.1C117.3 98.3 116.9 97.5 116.1 97L108 92.3Z" fill="white"/>
<defs>
<filter id="filter0_f_46_23" x="0.761238" y="0.761238" width="231.478" height="231.478" filterUnits="userSpaceOnUse" color-interpolation-filters="sRGB">
<feFlood flood-opacity="0" result="BackgroundImageFix"/>
<feBlend mode="normal" in="SourceGraphic" in2="BackgroundImageFix" result="shape"/>
<feGaussianBlur stdDeviation="32.6194" result="effect1_foregroundBlur_46_23"/>
</filter>
<filter id="filter1_dd_46_23" x="46.5" y="48.5" width="106" height="105" filterUnits="userSpaceOnUse" color-interpolation-filters="sRGB">
<feFlood flood-opacity="0" result="BackgroundImageFix"/>
<feColorMatrix in="SourceAlpha" type="matrix" values="0 0 0 0 0 0 0 0 0 0 0 0 0 0 0 0 0 0 127 0" result="hardAlpha"/>
<feOffset dx="6" dy="7"/>
<feGaussianBlur stdDeviation="2"/>
<feColorMatrix type="matrix" values="0 0 0 0 0.106979 0 0 0 0 0 0 0 0 0 0.286485 0 0 0 0.495809 0"/>
<feBlend mode="normal" in2="BackgroundImageFix" result="effect1_dropShadow_46_23"/>
<feColorMatrix in="SourceAlpha" type="matrix" values="0 0 0 0 0 0 0 0 0 0 0 0 0 0 0 0 0 0 127 0" result="hardAlpha"/>
<feOffset dy="2"/>
<feGaussianBlur stdDeviation="4"/>
<feColorMatrix type="matrix" values="0 0 0 0 0.743037 0 0 0 0 0.589898 0 0 0 0 1 0 0 0 1 0"/>
<feBlend mode="normal" in2="effect1_dropShadow_46_23" result="effect2_dropShadow_46_23"/>
<feBlend mode="normal" in="SourceGraphic" in2="effect2_dropShadow_46_23" result="shape"/>
</filter>
<filter id="filter2_b_46_23" x="36.8172" y="36.8172" width="123.366" height="123.366" filterUnits="userSpaceOnUse" color-interpolation-filters="sRGB">
<feFlood flood-opacity="0" result="BackgroundImageFix"/>
<feGaussianBlur in="BackgroundImage" stdDeviation="13.5914"/>
<feComposite in2="SourceAlpha" operator="in" result="effect1_backgroundBlur_46_23"/>
<feBlend mode="normal" in="SourceGraphic" in2="effect1_backgroundBlur_46_23" result="shape"/>
</filter>
</defs>
</svg>
