<svg width="1312" height="406" viewBox="0 0 1312 406" fill="none" xmlns="http://www.w3.org/2000/svg">
<mask id="mask0_0_12" style="mask-type:alpha" maskUnits="userSpaceOnUse" x="0" y="0" width="1304" height="406">
<rect width="1304" height="406" fill="white"/>
</mask>
<g mask="url(#mask0_0_12)">
<g filter="url(#filter0_b_0_12)">
<circle cx="640" cy="279" r="53" fill="white"/>
</g>
<mask id="mask1_0_12" style="mask-type:alpha" maskUnits="userSpaceOnUse" x="615" y="251" width="50" height="57">
<rect x="615.909" y="251.697" width="48.1818" height="56.2121" fill="white"/>
</mask>
<g mask="url(#mask1_0_12)">
<path d="M622.15 286.848C621.281 286.848 620.505 286.522 619.821 285.87C619.138 285.218 618.797 284.427 618.797 283.495V257.599C618.797 256.698 619.138 255.914 619.821 255.247C620.505 254.579 621.281 254.245 622.15 254.245H632.723C633.686 254.245 634.485 254.579 635.122 255.247C635.758 255.914 636.076 256.698 636.076 257.599V263.654L631.745 264.632V260.254C631.745 259.819 631.597 259.431 631.302 259.089C631.007 258.748 630.612 258.577 630.115 258.577H624.805C624.37 258.577 623.982 258.748 623.641 259.089C623.299 259.431 623.128 259.819 623.128 260.254V280.84C623.128 281.337 623.299 281.741 623.641 282.051C623.982 282.362 624.37 282.517 624.805 282.517H630.115C630.612 282.517 631.007 282.362 631.302 282.051C631.597 281.741 631.745 281.337 631.745 280.84V277.44L636.076 276.415V283.495C636.076 284.427 635.758 285.218 635.122 285.87C634.485 286.522 633.686 286.848 632.723 286.848H622.15Z" fill="#230F49"/>
<path d="M640.583 286.848V254.245H644.915L651.389 274.133L657.863 254.245H662.194V286.848H657.863V267.473L653.531 280.747H649.246L644.915 267.473V286.848H640.583Z" fill="#230F49"/>
<rect x="619.121" y="293.455" width="11.2424" height="11.2424" fill="#FFCF5E"/>
<rect x="635.182" y="293.455" width="11.2424" height="11.2424" fill="#FF7340"/>
<rect x="651.242" y="293.455" width="11.2424" height="11.2424" fill="#20C4FF"/>
</g>
<g opacity="0.5" filter="url(#filter1_f_0_12)">
<circle cx="159.5" cy="262.5" r="50.5" fill="#F3BA2F"/>
</g>
<g opacity="0.8" filter="url(#filter2_f_0_12)">
<circle cx="119.5" cy="128.5" r="50.5" fill="#8247E5"/>
</g>
<g filter="url(#filter3_dd_0_12)">
<circle cx="101.5" cy="110.5" r="42.5" stroke="#C4A0FF" stroke-width="3"/>
</g>
<g filter="url(#filter4_dd_0_12)">
<circle cx="141.5" cy="244.5" r="42.5" stroke="#FFEAB6" stroke-width="3"/>
</g>
<g opacity="0.622001" filter="url(#filter5_f_0_12)">
<circle cx="308.5" cy="297.5" r="50.5" fill="#E84142"/>
</g>
<g filter="url(#filter6_dd_0_12)">
<circle cx="290.5" cy="279.5" r="42.5" stroke="#FFB9BA" stroke-width="3"/>
</g>
<g opacity="0.2" filter="url(#filter7_f_0_12)">
<circle cx="268.5" cy="168.5" r="50.5" fill="white"/>
</g>
<g filter="url(#filter8_dd_0_12)">
<circle cx="250.5" cy="150.5" r="42.5" stroke="white" stroke-width="3"/>
</g>
<path opacity="0.6" d="M332 302C332 302 450.5 335 575 286" stroke="#A95094" stroke-dasharray="4"/>
<mask id="mask2_0_12" style="mask-type:alpha" maskUnits="userSpaceOnUse" x="412" y="290" width="64" height="30">
<rect x="412" y="290" width="64" height="30" fill="white"/>
</mask>
<g mask="url(#mask2_0_12)">
<path d="M332 302C332 302 450.5 335 575 286" stroke="#E84142"/>
</g>
<path opacity="0.6" d="M285 176C285 176 399.5 265 577 267.5" stroke="#A95094" stroke-dasharray="4"/>
<path opacity="0.6" d="M170.5 278.5C170.5 278.5 247.057 366.576 350 374C454 381.5 520 357 585 306" stroke="#A95094" stroke-dasharray="4"/>
<mask id="mask3_0_12" style="mask-type:alpha" maskUnits="userSpaceOnUse" x="181" y="310" width="64" height="30">
<rect x="181" y="310" width="64" height="30" fill="white"/>
</mask>
<g mask="url(#mask3_0_12)">
<path d="M170.5 278.5C170.5 278.5 247.057 366.576 350 374C454 381.5 520 357 585 306" stroke="#F3BA2F"/>
</g>
<mask id="mask4_0_12" style="mask-type:alpha" maskUnits="userSpaceOnUse" x="379" y="216" width="64" height="30">
<rect x="379" y="216" width="64" height="30" fill="white"/>
</mask>
<g mask="url(#mask4_0_12)">
<path d="M285 176C285 176 399.5 265 577 267.5" stroke="#BBBBBB"/>
</g>
<path opacity="0.6" d="M129.5 76C129.5 76 347.5 7.00002 585 252.5" stroke="#A95094" stroke-dasharray="4"/>
<mask id="mask5_0_12" style="mask-type:alpha" maskUnits="userSpaceOnUse" x="248" y="51" width="64" height="30">
<rect x="248" y="51" width="64" height="30" fill="white"/>
</mask>
<g mask="url(#mask5_0_12)">
<path d="M129.5 76C129.5 76 347.5 7.00002 585 252.5" stroke="#A875FF" stroke-linecap="round" stroke-linejoin="round"/>
</g>
<g opacity="0.6" filter="url(#filter9_f_0_12)">
<circle r="50.5" transform="matrix(-1 0 0 1 1007.5 297.5)" fill="#13B5EC"/>
</g>
<g opacity="0.6" filter="url(#filter10_f_0_12)">
<circle r="50.5" transform="matrix(-1 0 0 1 1156.5 262.5)" fill="#2C7DF7"/>
</g>
<g filter="url(#filter11_dd_0_12)">
<circle r="42.5" transform="matrix(-1 0 0 1 1138.5 244.5)" stroke="#ACCDFF" stroke-width="3"/>
</g>
<g filter="url(#filter12_dd_0_12)">
<circle r="42.5" transform="matrix(-1 0 0 1 989.5 279.5)" stroke="#B8EDFF" stroke-width="3"/>
</g>
<g opacity="0.2" filter="url(#filter13_f_0_12)">
<circle r="50.5" transform="matrix(-1 0 0 1 1047.5 168.5)" fill="white"/>
</g>
<g filter="url(#filter14_dd_0_12)">
<circle r="42.5" transform="matrix(-1 0 0 1 1029.5 150.5)" stroke="white" stroke-width="3"/>
</g>
<path opacity="0.6" d="M948 302C948 302 829.5 335 705 286" stroke="#A95094" stroke-dasharray="4"/>
<mask id="mask6_0_12" style="mask-type:alpha" maskUnits="userSpaceOnUse" x="815" y="286" width="64" height="30">
<rect width="64" height="30" transform="matrix(-1 0 0 1 879 286)" fill="white"/>
</mask>
<g mask="url(#mask6_0_12)">
<path d="M948 302C948 302 829.5 335 705 286" stroke="#13B5EC"/>
</g>
<path opacity="0.6" d="M1109.5 278.5C1109.5 278.5 1032.94 366.576 930 374C826 381.5 760 357 695 306" stroke="#A95094" stroke-dasharray="4"/>
<mask id="mask7_0_12" style="mask-type:alpha" maskUnits="userSpaceOnUse" x="1025" y="311" width="64" height="30">
<rect width="64" height="30" transform="matrix(-1 0 0 1 1089 311)" fill="white"/>
</mask>
<g mask="url(#mask7_0_12)">
<path d="M1109.5 278.5C1109.5 278.5 1032.94 366.576 930 374C826 381.5 760 357 695 306" stroke="#2C7DF7"/>
</g>
<path opacity="0.6" d="M995 176C995 176 880.5 265 703 267.5" stroke="#A95094" stroke-dasharray="4"/>
<mask id="mask8_0_12" style="mask-type:alpha" maskUnits="userSpaceOnUse" x="903" y="198" width="64" height="30">
<rect width="64" height="30" transform="matrix(-1 0 0 1 967 198)" fill="white"/>
</mask>
<g mask="url(#mask8_0_12)">
<path d="M995 176C995 176 880.5 265 703 267.5" stroke="#BBBBBB"/>
</g>
<path opacity="0.6" d="M1150.5 76C1150.5 76 932.5 7.00002 695 252.5" stroke="#A95094" stroke-dasharray="4"/>
<mask id="mask9_0_12" style="mask-type:alpha" maskUnits="userSpaceOnUse" x="768" y="139" width="64" height="30">
<rect width="64" height="30" transform="matrix(-1 0 0 1 832 139)" fill="white"/>
</mask>
<g mask="url(#mask9_0_12)">
<path d="M1150.5 76C1150.5 76 932.5 7 695 252.5" stroke="#F7931A"/>
</g>
<g filter="url(#filter15_b_0_12)">
<circle cx="101.5" cy="110.5" r="34.5" fill="#8247E5"/>
</g>
<path d="M111 104.3C110.3 103.9 109.4 103.9 108.6 104.3L103 107.6L99.2 109.7L93.7 113C93 113.4 92.1 113.4 91.3 113L87 110.4C86.3 110 85.8 109.2 85.8 108.3V103.3C85.8 102.5 86.2 101.7 87 101.2L91.3 98.7C92 98.3 92.9 98.3 93.7 98.7L98 101.3C98.7 101.7 99.2 102.5 99.2 103.4V106.7L103 104.5V101.1C103 100.3 102.6 99.5 101.8 99L93.8 94.3C93.1 93.9 92.2 93.9 91.4 94.3L83.2 99.1C82.4 99.5 82 100.3 82 101.1V110.5C82 111.3 82.4 112.1 83.2 112.6L91.3 117.3C92 117.7 92.9 117.7 93.7 117.3L99.2 114.1L103 111.9L108.5 108.7C109.2 108.3 110.1 108.3 110.9 108.7L115.2 111.2C115.9 111.6 116.4 112.4 116.4 113.3V118.3C116.4 119.1 116 119.9 115.2 120.4L111 122.9C110.3 123.3 109.4 123.3 108.6 122.9L104.3 120.4C103.6 120 103.1 119.2 103.1 118.3V115.1L99.3 117.3V120.6C99.3 121.4 99.7 122.2 100.5 122.7L108.6 127.4C109.3 127.8 110.2 127.8 111 127.4L119.1 122.7C119.8 122.3 120.3 121.5 120.3 120.6V111.1C120.3 110.3 119.9 109.5 119.1 109L111 104.3Z" fill="white"/>
<g opacity="0.6" filter="url(#filter16_f_0_12)">
<circle r="50.5" transform="matrix(-1 0 0 1 1196.5 128.5)" fill="#F7931A"/>
</g>
<g filter="url(#filter17_dd_0_12)">
<circle r="42.5" transform="matrix(-1 0 0 1 1178.5 110.5)" stroke="#FFD7A7" stroke-width="3"/>
</g>
<g filter="url(#filter18_b_0_12)">
<circle cx="1178.5" cy="109.5" r="34.5" fill="#F7931A"/>
</g>
<path fill-rule="evenodd" clip-rule="evenodd" d="M1191.92 105.678C1192.53 101.58 1189.46 99.3775 1185.26 97.908L1186.62 92.357L1183.29 91.515L1181.97 96.9199C1181.09 96.6983 1180.19 96.4896 1179.3 96.2826L1180.64 90.842L1177.31 90L1175.95 95.5493C1175.23 95.3819 1174.52 95.2165 1173.83 95.0422L1173.83 95.0247L1169.24 93.8611L1168.36 97.4702C1168.36 97.4702 1170.83 98.0449 1170.78 98.0802C1172.12 98.4218 1172.37 99.3276 1172.33 100.046L1170.77 106.37C1170.87 106.393 1170.99 106.428 1171.12 106.482L1171.02 106.458C1170.94 106.437 1170.86 106.415 1170.77 106.394L1168.59 115.253C1168.43 115.669 1168.01 116.293 1167.07 116.056C1167.1 116.105 1164.65 115.443 1164.65 115.443L1163 119.311L1167.33 120.407C1167.8 120.528 1168.27 120.652 1168.73 120.774L1168.73 120.775L1168.73 120.775C1169.06 120.86 1169.38 120.946 1169.7 121.029L1168.32 126.643L1171.65 127.485L1173.01 121.93C1173.92 122.181 1174.8 122.411 1175.66 122.629L1174.3 128.158L1177.63 129L1179 123.396C1184.67 124.486 1188.94 124.047 1190.73 118.835C1192.18 114.639 1190.66 112.218 1187.68 110.64C1189.85 110.131 1191.49 108.679 1191.93 105.679L1191.92 105.678L1191.92 105.678ZM1184.32 116.504C1183.38 120.354 1177.45 118.763 1174.74 118.034C1174.49 117.969 1174.27 117.91 1174.09 117.864L1175.91 110.425C1176.14 110.482 1176.42 110.546 1176.73 110.617C1179.54 111.257 1185.29 112.569 1184.33 116.504H1184.32ZM1177.3 107.165C1179.56 107.778 1184.49 109.117 1185.35 105.618H1185.35C1186.23 102.039 1181.43 100.96 1179.09 100.433C1178.83 100.374 1178.6 100.322 1178.41 100.273L1176.75 107.02C1176.91 107.059 1177.09 107.109 1177.3 107.165Z" fill="white"/>
<g filter="url(#filter19_b_0_12)">
<circle cx="141.5" cy="245.5" r="34.5" fill="#F3BA2F"/>
</g>
<path d="M133.926 242.388L141.5 234.815L149.077 242.392L153.484 237.985L141.5 226L129.519 237.981L133.926 242.388Z" fill="black"/>
<path d="M126.407 241.089L130.814 245.496L126.407 249.903L122 245.496L126.407 241.089Z" fill="black"/>
<path d="M133.926 248.604L141.5 256.178L149.077 248.601L153.487 253.005L153.484 253.008L141.5 264.993L129.519 253.012L129.513 253.006L133.926 248.604Z" fill="black"/>
<path d="M160.996 245.498L156.589 249.905L152.182 245.498L156.589 241.091L160.996 245.498Z" fill="black"/>
<path d="M145.968 245.494H145.97L141.498 241.022L138.193 244.327H138.193L137.814 244.707L137.03 245.49L137.024 245.496L137.03 245.503L141.498 249.971L145.97 245.499L145.972 245.496L145.968 245.494Z" fill="black"/>
<g filter="url(#filter20_b_0_12)">
<circle cx="1138.5" cy="244.5" r="34.5" fill="#2C7DF7"/>
</g>
<path d="M1142.73 264C1139.91 264 1137.86 263.33 1136.56 261.989C1135.36 260.854 1134.67 259.296 1134.62 257.656C1134.61 257.157 1134.73 256.664 1134.96 256.223C1135.19 255.843 1135.5 255.527 1135.89 255.309C1136.8 254.862 1137.86 254.862 1138.77 255.309C1139.16 255.527 1139.47 255.843 1139.69 256.223C1139.94 256.662 1140.06 257.156 1140.04 257.656C1140.07 258.252 1139.89 258.841 1139.55 259.331C1139.26 259.732 1138.85 260.029 1138.38 260.179C1138.84 260.761 1139.49 261.164 1140.23 261.319C1141.05 261.554 1141.9 261.675 1142.75 261.678C1143.88 261.688 1144.99 261.361 1145.93 260.74C1146.9 260.06 1147.63 259.087 1148 257.967C1148.47 256.634 1148.7 255.229 1148.68 253.817C1148.72 252.345 1148.47 250.88 1147.94 249.503C1147.54 248.401 1146.79 247.459 1145.8 246.822C1144.88 246.245 1143.81 245.943 1142.71 245.95C1141.76 246.03 1140.85 246.337 1140.04 246.846L1138.06 247.827V246.846L1146.96 235.05H1134.62V247.291C1134.59 248.174 1134.83 249.047 1135.3 249.795C1135.77 250.458 1136.56 250.831 1137.38 250.776C1138.12 250.762 1138.84 250.512 1139.42 250.064C1140.09 249.581 1140.67 248.992 1141.14 248.321C1141.18 248.203 1141.26 248.101 1141.36 248.028C1141.45 247.958 1141.55 247.919 1141.66 247.919C1141.88 247.938 1142.08 248.023 1142.24 248.162C1142.45 248.39 1142.56 248.686 1142.56 248.991C1142.53 249.196 1142.49 249.4 1142.44 249.6C1142.01 250.648 1141.27 251.549 1140.33 252.195C1139.45 252.781 1138.42 253.091 1137.36 253.086C1134.69 253.086 1132.84 252.566 1131.81 251.526C1130.74 250.365 1130.19 248.828 1130.28 247.26V235.05H1124V232.776H1130.31V227.59L1128.86 226.163V225H1133.05L1134.62 225.804V232.776L1150.93 232.727L1152.55 234.335L1142.55 244.255C1143.16 244.015 1143.79 243.863 1144.44 243.804C1145.72 243.86 1146.98 244.213 1148.09 244.834C1149.39 245.443 1150.48 246.405 1151.24 247.608C1151.92 248.626 1152.4 249.76 1152.66 250.953C1152.87 251.894 1152.99 252.854 1153 253.818C1153.01 255.657 1152.58 257.473 1151.77 259.125C1150.99 260.725 1149.68 262.015 1148.06 262.781C1146.41 263.588 1144.58 264.005 1142.73 264Z" fill="white"/>
<g filter="url(#filter21_b_0_12)">
<circle cx="290.5" cy="279.5" r="34.5" fill="#E84142"/>
</g>
<path fill-rule="evenodd" clip-rule="evenodd" d="M274.23 293H280.788C282.332 293 283.104 293 283.793 292.807C284.548 292.58 285.237 292.177 285.81 291.623C286.336 291.117 286.716 290.445 287.464 289.12L287.465 289.119L287.487 289.08L295.992 273.878C296.747 272.544 297.121 271.872 297.287 271.167C297.469 270.403 297.469 269.597 297.287 268.834C297.122 268.134 296.745 267.467 296 266.153L295.983 266.123L292.655 260.247C291.966 259.022 291.617 258.409 291.177 258.183C290.704 257.939 290.14 257.939 289.667 258.183C289.227 258.409 288.878 259.022 288.189 260.247L271.997 289.105C271.317 290.314 270.976 290.919 271.001 291.414C271.034 291.951 271.308 292.438 271.757 292.732C272.172 293 272.852 293 274.23 293ZM306.744 293H297.348C295.962 293 295.265 293 294.858 292.732C294.41 292.438 294.136 291.943 294.103 291.405C294.078 290.914 294.421 290.315 295.107 289.117L295.107 289.117L295.123 289.089L299.813 280.947C300.502 279.747 300.851 279.151 301.283 278.925C301.756 278.681 302.312 278.681 302.785 278.925C303.214 279.145 303.547 279.716 304.208 280.846L304.209 280.847L304.263 280.939L308.969 289.08L308.978 289.096C308.998 289.131 309.018 289.165 309.037 289.199L309.037 289.199C309.69 290.337 310.023 290.918 309.999 291.397C309.974 291.934 309.692 292.429 309.243 292.723C308.828 293 308.131 293 306.744 293Z" fill="white"/>
<g filter="url(#filter22_b_0_12)">
<circle cx="989.5" cy="278.5" r="34.5" fill="#13B5EC"/>
</g>
<path fill-rule="evenodd" clip-rule="evenodd" d="M991.4 272.523L998.6 268.407V276.638L991.4 272.523ZM998.6 290.161L989 295.648L979.4 290.161V280.558L989 286.045L998.6 280.558V290.161ZM979.4 268.407L986.6 272.523L979.4 276.638V268.407ZM990.2 274.482L997.4 278.598L990.2 282.714V274.482ZM987.8 282.714L980.6 278.598L987.8 274.482V282.714ZM997.4 266.447L989 271.151L980.6 266.447L989 261.548L997.4 266.447ZM977 265.663V291.337L989 298L1001 291.337V265.663L989 259L977 265.663Z" fill="white"/>
<g filter="url(#filter23_b_0_12)">
<circle cx="250.5" cy="150.5" r="34.5" fill="black"/>
</g>
<path d="M250.496 131L250.223 131.912V158.36L250.496 158.628L262.992 151.371L250.496 131Z" fill="#343434"/>
<path d="M250.496 131L238 151.371L250.496 158.628V145.791V131Z" fill="#BCBCBC"/>
<path d="M250.496 160.953L250.342 161.137V170.558L250.496 171L263 153.699L250.496 160.953Z" fill="#3C3C3B"/>
<path d="M250.496 171V160.953L238 153.699L250.496 171Z" fill="#BCBCBC"/>
<path d="M250.496 158.628L262.992 151.371L250.496 145.791V158.628Z" fill="#141414"/>
<path d="M238 151.371L250.496 158.628V145.791L238 151.371Z" fill="#393939"/>
<circle cx="1029.5" cy="149.5" r="34.5" fill="black"/>
<path d="M1039.44 134.687L1032.56 144.917C1032.08 145.613 1033 146.457 1033.66 145.87L1040.43 139.967C1040.62 139.82 1040.87 139.93 1040.87 140.187V158.63C1040.87 158.887 1040.54 158.997 1040.4 158.813L1019.89 134.247C1019.23 133.44 1018.27 133 1017.21 133H1016.48C1014.57 133 1013 134.577 1013 136.52V162.48C1013 164.423 1014.57 166 1016.52 166C1017.72 166 1018.86 165.377 1019.52 164.313L1026.41 154.083C1026.88 153.387 1025.97 152.543 1025.31 153.13L1018.53 158.997C1018.35 159.143 1018.09 159.033 1018.09 158.777V140.37C1018.09 140.113 1018.42 140.003 1018.57 140.187L1039.08 164.753C1039.74 165.56 1040.73 166 1041.75 166H1042.48C1044.43 166 1046 164.423 1046 162.48V136.52C1046 134.577 1044.43 133 1042.48 133C1041.24 133 1040.1 133.623 1039.44 134.687Z" fill="white"/>
<g filter="url(#filter24_b_0_12)">
<rect x="549" y="105" width="182" height="63" rx="31.5" fill="#86266E" fill-opacity="0.65"/>
</g>
<mask id="mask10_0_12" style="mask-type:alpha" maskUnits="userSpaceOnUse" x="617" y="120" width="46" height="33">
<rect x="617" y="120" width="46" height="33" fill="white"/>
</mask>
<g mask="url(#mask10_0_12)">
<path fill-rule="evenodd" clip-rule="evenodd" d="M622.097 122.257V134.64H627.404C627.746 134.64 628.041 134.516 628.288 134.268C628.536 134.021 628.66 133.72 628.66 133.366V123.531C628.66 123.177 628.536 122.876 628.288 122.628C628.041 122.381 627.746 122.257 627.404 122.257H622.097ZM626.395 132.995H623.742V123.902H626.395C626.561 123.902 626.708 123.964 626.838 124.088C626.967 124.212 627.032 124.362 627.032 124.539V132.358C627.032 132.535 626.967 132.685 626.838 132.809C626.708 132.933 626.561 132.995 626.395 132.995Z" fill="white"/>
<path fill-rule="evenodd" clip-rule="evenodd" d="M631.627 122.275L629.133 134.658H630.778L631.221 132.34H633.573L634.051 134.658H635.696L633.237 122.275H631.627ZM633.29 130.713H631.539L632.441 126.308L633.29 130.713Z" fill="white"/>
<path fill-rule="evenodd" clip-rule="evenodd" d="M636.523 122.257V134.64H638.168V128.608H641.83C642.172 128.608 642.47 128.484 642.724 128.236C642.977 127.989 643.104 127.688 643.104 127.334V123.531C643.104 123.177 642.977 122.876 642.724 122.628C642.47 122.381 642.172 122.257 641.83 122.257H636.523ZM640.822 126.963H638.168V123.902H640.822C640.999 123.902 641.149 123.964 641.273 124.088C641.397 124.212 641.459 124.356 641.459 124.521V126.326C641.459 126.503 641.397 126.653 641.273 126.777C641.149 126.901 640.999 126.963 640.822 126.963Z" fill="white"/>
<path fill-rule="evenodd" clip-rule="evenodd" d="M643.931 122.257V134.64H645.576V128.608H649.238C649.58 128.608 649.878 128.484 650.131 128.236C650.385 127.989 650.512 127.688 650.512 127.334V123.531C650.512 123.177 650.385 122.876 650.131 122.628C649.878 122.381 649.58 122.257 649.238 122.257H643.931ZM648.23 126.963H645.576V123.902H648.23C648.407 123.902 648.557 123.964 648.681 124.088C648.805 124.212 648.867 124.356 648.867 124.521V126.326C648.867 126.503 648.805 126.653 648.681 126.777C648.557 126.901 648.407 126.963 648.23 126.963Z" fill="white"/>
<path d="M652.577 134.64C652.223 134.64 651.923 134.516 651.675 134.268C651.427 134.021 651.304 133.72 651.304 133.366V130.624L652.949 130.996V132.358C652.949 132.535 653.011 132.685 653.135 132.809C653.258 132.933 653.403 132.995 653.568 132.995H655.585C655.761 132.995 655.912 132.933 656.036 132.809C656.159 132.685 656.221 132.535 656.221 132.358V129.245C656.221 129.068 656.159 128.917 656.036 128.793C655.912 128.67 655.761 128.608 655.585 128.608H652.577C652.223 128.608 651.923 128.484 651.675 128.236C651.427 127.989 651.304 127.688 651.304 127.334V123.531C651.304 123.177 651.427 122.876 651.675 122.628C651.923 122.381 652.223 122.257 652.577 122.257H656.593C656.947 122.257 657.247 122.381 657.495 122.628C657.743 122.876 657.867 123.177 657.867 123.531V125.441L656.221 125.052V124.539C656.221 124.362 656.159 124.212 656.036 124.088C655.912 123.964 655.761 123.902 655.585 123.902H653.568C653.403 123.902 653.258 123.964 653.135 124.088C653.011 124.212 652.949 124.362 652.949 124.539V126.326C652.949 126.503 653.011 126.653 653.135 126.777C653.258 126.901 653.403 126.963 653.568 126.963H656.593C656.947 126.963 657.247 127.086 657.495 127.334C657.743 127.582 657.867 127.882 657.867 128.236V133.366C657.867 133.72 657.743 134.021 657.495 134.268C657.247 134.516 656.947 134.64 656.593 134.64H652.577Z" fill="white"/>
<path d="M624.374 149.89L621.951 137.507H623.596L625.241 145.874L626.886 137.507H628.532L630.159 145.874L631.804 137.507H633.449L631.026 149.89H629.31L627.7 141.682L626.09 149.89H624.374Z" fill="white"/>
<path d="M634.1 149.89V137.507H640.68V139.134H635.745V142.213H639.035L638.664 143.858H635.745V148.245H640.68V149.89H634.1Z" fill="white"/>
<path fill-rule="evenodd" clip-rule="evenodd" d="M642.357 149.89V137.489H646.85C647.215 137.489 647.522 137.616 647.77 137.87C648.017 138.123 648.141 138.421 648.141 138.763V142.283C648.377 142.366 648.572 142.519 648.725 142.743C648.878 142.967 648.955 143.209 648.955 143.469V148.599C648.955 148.964 648.831 149.271 648.584 149.518C648.336 149.766 648.035 149.89 647.681 149.89H642.357ZM644.019 142.213H645.842C646.018 142.213 646.172 142.148 646.301 142.018C646.431 141.888 646.496 141.741 646.496 141.576V139.771C646.496 139.594 646.431 139.444 646.301 139.32C646.172 139.196 646.018 139.134 645.842 139.134H644.019V142.213ZM646.691 148.245H644.019V143.84H646.691C646.856 143.84 647 143.905 647.124 144.035C647.248 144.164 647.31 144.312 647.31 144.477V147.59C647.31 147.779 647.248 147.935 647.124 148.059C647 148.183 646.856 148.245 646.691 148.245Z" fill="white"/>
<path d="M652.082 149.89C651.728 149.89 651.427 149.766 651.18 149.518C650.932 149.271 650.808 148.97 650.808 148.616V146.299L652.453 146.688V147.608C652.453 147.785 652.515 147.935 652.639 148.059C652.763 148.183 652.913 148.245 653.09 148.245H655.107C655.272 148.245 655.419 148.183 655.549 148.059C655.679 147.935 655.744 147.785 655.744 147.608V144.495C655.744 144.318 655.679 144.167 655.549 144.043C655.419 143.92 655.272 143.858 655.107 143.858H653.479L653.851 142.213H655.107C655.272 142.213 655.419 142.151 655.549 142.027C655.679 141.903 655.744 141.753 655.744 141.576V139.771C655.744 139.606 655.679 139.462 655.549 139.338C655.419 139.214 655.272 139.152 655.107 139.152H653.037V139.134C652.872 139.146 652.733 139.214 652.621 139.338C652.509 139.462 652.453 139.606 652.453 139.771V141.452L650.808 141.08V138.763C650.808 138.421 650.932 138.126 651.18 137.878C651.427 137.631 651.728 137.507 652.082 137.507H656.115C656.457 137.507 656.752 137.631 657 137.878C657.247 138.126 657.371 138.421 657.371 138.763V142.584C657.371 142.761 657.348 142.914 657.3 143.044C657.348 143.174 657.371 143.321 657.371 143.486V148.616C657.371 148.97 657.247 149.271 657 149.518C656.752 149.766 656.457 149.89 656.115 149.89H652.082Z" fill="white"/>
</g>
<mask id="mask11_0_12" style="mask-type:alpha" maskUnits="userSpaceOnUse" x="569" y="120" width="33" height="33">
<rect x="569" y="120" width="33" height="33" fill="white"/>
</mask>
<g mask="url(#mask11_0_12)">
<path fill-rule="evenodd" clip-rule="evenodd" d="M591.283 120.626C591.283 122.221 590.595 123.817 589.624 124.966C588.592 126.241 586.808 127.188 585.39 127.188C585.227 127.188 585.065 127.166 584.965 127.147C584.946 127.07 584.905 126.826 584.905 126.583C584.905 124.966 585.737 123.371 586.627 122.362C587.761 121.05 589.642 120.059 591.223 120C591.264 120.181 591.283 120.405 591.283 120.626ZM596.857 130.674C596.896 130.648 596.923 130.631 596.935 130.621C594.829 127.612 591.63 127.531 590.739 127.531C589.377 127.531 588.157 128.012 587.132 128.417C586.39 128.711 585.749 128.964 585.23 128.964C584.657 128.964 584.001 128.7 583.268 128.405C582.344 128.033 581.299 127.612 580.147 127.612C576.26 127.612 572.31 130.824 572.31 136.881C572.31 140.657 573.769 144.636 575.575 147.197C577.134 149.378 578.491 151.154 580.434 151.154C581.356 151.154 582.031 150.868 582.742 150.567C583.53 150.234 584.361 149.883 585.618 149.883C586.888 149.883 587.647 150.213 588.379 150.531C589.06 150.827 589.718 151.113 590.742 151.113C592.867 151.113 594.264 149.197 595.601 147.278C597.101 145.097 597.729 142.956 597.748 142.857C597.626 142.816 593.554 141.181 593.554 136.557C593.554 132.834 596.33 131.019 596.857 130.674Z" fill="white"/>
</g>
<mask id="mask12_0_12" style="mask-type:alpha" maskUnits="userSpaceOnUse" x="678" y="120" width="33" height="33">
<rect x="678" y="120" width="33" height="33" fill="white"/>
</mask>
<g mask="url(#mask12_0_12)">
<path fill-rule="evenodd" clip-rule="evenodd" d="M699.918 121.447L698.636 123.845C699.924 124.517 700.954 125.453 701.725 126.655C702.496 127.858 702.881 129.173 702.881 130.6H686.17C686.17 129.172 686.556 127.858 687.326 126.655C688.097 125.453 689.133 124.517 690.434 123.845L689.151 121.447C689.067 121.289 689.097 121.167 689.241 121.081C689.398 121.008 689.518 121.045 689.603 121.191L690.903 123.608C692.047 123.095 693.258 122.838 694.535 122.838C695.811 122.838 697.022 123.095 698.166 123.608L699.467 121.191C699.551 121.045 699.671 121.007 699.828 121.081C699.973 121.167 700.003 121.289 699.918 121.447ZM690.722 127.544C690.915 127.544 691.081 127.473 691.219 127.333C691.357 127.192 691.427 127.025 691.427 126.829C691.427 126.634 691.358 126.467 691.219 126.326C691.081 126.186 690.915 126.116 690.722 126.116C690.53 126.116 690.367 126.186 690.235 126.326C690.102 126.467 690.036 126.634 690.036 126.829C690.036 127.025 690.102 127.192 690.235 127.333C690.367 127.473 690.529 127.544 690.722 127.544ZM698.834 127.333C698.701 127.473 698.539 127.544 698.347 127.544C698.153 127.544 697.988 127.473 697.849 127.333C697.711 127.192 697.642 127.025 697.642 126.829C697.642 126.634 697.711 126.467 697.849 126.326C697.988 126.186 698.153 126.116 698.347 126.116C698.539 126.116 698.701 126.186 698.834 126.326C698.967 126.467 699.033 126.634 699.033 126.829C699.033 127.025 698.967 127.192 698.834 127.333ZM682.358 131.46C682.719 131.094 683.158 130.911 683.676 130.911C684.182 130.911 684.616 131.094 684.977 131.46C685.339 131.826 685.519 132.266 685.519 132.778V140.65C685.519 141.176 685.341 141.621 684.986 141.987C684.631 142.353 684.194 142.536 683.676 142.536C683.158 142.536 682.719 142.353 682.358 141.987C681.996 141.62 681.816 141.176 681.816 140.65V132.778C681.816 132.266 681.996 131.826 682.358 131.46ZM686.242 143.451C686.242 144.013 686.434 144.488 686.82 144.879C687.205 145.269 687.675 145.464 688.229 145.464H689.566L689.584 149.62C689.584 150.145 689.765 150.591 690.126 150.957C690.487 151.323 690.921 151.506 691.427 151.506C691.944 151.506 692.384 151.323 692.746 150.957C693.107 150.591 693.287 150.145 693.287 149.62V145.465H695.781V149.62C695.781 150.145 695.961 150.591 696.322 150.957C696.684 151.323 697.123 151.506 697.641 151.506C698.159 151.506 698.599 151.323 698.96 150.957C699.321 150.591 699.502 150.145 699.502 149.62V145.465H700.857C701.399 145.465 701.862 145.269 702.248 144.879C702.633 144.489 702.826 144.013 702.826 143.451V131.259H686.242V143.451ZM704.092 131.451C704.453 131.092 704.886 130.911 705.392 130.911C705.91 130.911 706.35 131.092 706.711 131.451C707.073 131.812 707.253 132.254 707.253 132.778V140.65C707.253 141.176 707.073 141.62 706.711 141.987C706.35 142.353 705.91 142.536 705.392 142.536C704.887 142.536 704.453 142.353 704.092 141.987C703.73 141.62 703.55 141.176 703.55 140.65V132.778C703.55 132.254 703.73 131.812 704.092 131.451Z" fill="white"/>
</g>
<path d="M591 164C591 164 594 207.609 634 223" stroke="url(#paint0_linear_0_12)" stroke-linecap="round" stroke-linejoin="round" stroke-dasharray="4"/>
<path d="M645.18 223.467C644.922 223.566 644.633 223.437 644.533 223.18C644.434 222.922 644.563 222.633 644.82 222.533L645.18 223.467ZM646.699 221.779C646.953 221.672 647.246 221.792 647.353 222.046C647.46 222.301 647.34 222.594 647.085 222.701L646.699 221.779ZM650.792 221.014C650.544 221.136 650.244 221.034 650.122 220.787C650 220.539 650.102 220.239 650.35 220.117L650.792 221.014ZM653.891 218.235C654.13 218.098 654.436 218.181 654.573 218.42C654.71 218.66 654.627 218.965 654.388 219.103L653.891 218.235ZM657.855 216.968C657.625 217.12 657.315 217.057 657.163 216.826C657.01 216.596 657.074 216.286 657.304 216.134L657.855 216.968ZM660.574 213.818C660.794 213.652 661.107 213.695 661.274 213.915C661.441 214.135 661.398 214.449 661.178 214.615L660.574 213.818ZM664.343 212.05C664.134 212.231 663.819 212.208 663.638 212C663.457 211.791 663.48 211.475 663.689 211.294L664.343 212.05ZM666.639 208.57C666.836 208.376 667.152 208.378 667.346 208.575C667.54 208.772 667.538 209.088 667.341 209.282L666.639 208.57ZM670.153 206.331C669.969 206.537 669.652 206.554 669.447 206.37C669.241 206.186 669.223 205.87 669.407 205.664L670.153 206.331ZM671.986 202.595C672.157 202.378 672.471 202.341 672.688 202.512C672.905 202.683 672.942 202.997 672.771 203.214L671.986 202.595ZM675.196 199.942C675.038 200.168 674.727 200.224 674.5 200.066C674.273 199.909 674.218 199.597 674.375 199.37L675.196 199.942ZM676.575 196.007C676.719 195.771 677.027 195.697 677.262 195.842C677.498 195.986 677.571 196.294 677.427 196.53L676.575 196.007ZM679.455 193.007C679.324 193.25 679.021 193.341 678.778 193.21C678.535 193.079 678.444 192.775 678.575 192.532L679.455 193.007ZM680.391 188.941C680.509 188.691 680.807 188.584 681.057 188.702C681.307 188.82 681.413 189.118 681.295 189.368L680.391 188.941ZM682.936 185.653C682.831 185.909 682.539 186.03 682.283 185.925C682.028 185.82 681.906 185.528 682.011 185.273L682.936 185.653ZM683.451 181.509C683.543 181.249 683.829 181.113 684.089 181.205C684.349 181.297 684.485 181.583 684.393 181.843L683.451 181.509ZM685.658 177.975C685.579 178.24 685.3 178.39 685.035 178.31C684.771 178.231 684.621 177.952 684.7 177.688L685.658 177.975ZM685.763 173.81C685.83 173.542 686.101 173.378 686.369 173.445C686.637 173.511 686.8 173.782 686.734 174.05L685.763 173.81ZM687.614 170.076C687.561 170.347 687.299 170.524 687.028 170.472C686.757 170.419 686.58 170.156 686.632 169.885L687.614 170.076ZM687.285 165.934C687.321 165.661 687.572 165.468 687.846 165.505C688.12 165.541 688.312 165.792 688.276 166.066L687.285 165.934ZM644.82 222.533C645.456 222.289 646.082 222.037 646.699 221.779L647.085 222.701C646.459 222.963 645.824 223.219 645.18 223.467L644.82 222.533ZM650.35 220.117C651.57 219.517 652.75 218.888 653.891 218.235L654.388 219.103C653.228 219.766 652.03 220.404 650.792 221.014L650.35 220.117ZM657.304 216.134C658.436 215.386 659.525 214.613 660.574 213.818L661.178 214.615C660.112 215.423 659.005 216.208 657.855 216.968L657.304 216.134ZM663.689 211.294C664.716 210.406 665.698 209.496 666.639 208.57L667.341 209.282C666.385 210.223 665.387 211.148 664.343 212.05L663.689 211.294ZM669.407 205.664C670.311 204.654 671.169 203.629 671.986 202.595L672.771 203.214C671.942 204.264 671.07 205.305 670.153 206.331L669.407 205.664ZM674.375 199.37C675.153 198.253 675.885 197.13 676.575 196.007L677.427 196.53C676.728 197.669 675.985 198.808 675.196 199.942L674.375 199.37ZM678.575 192.532C679.226 191.326 679.831 190.127 680.391 188.941L681.295 189.368C680.727 190.57 680.115 191.785 679.455 193.007L678.575 192.532ZM682.011 185.273C682.539 183.989 683.017 182.731 683.451 181.509L684.393 181.843C683.955 183.08 683.471 184.354 682.936 185.653L682.011 185.273ZM684.7 177.688C685.11 176.323 685.462 175.025 685.763 173.81L686.734 174.05C686.429 175.28 686.073 176.594 685.658 177.975L684.7 177.688ZM686.632 169.885C686.946 168.271 687.152 166.93 687.285 165.934L688.276 166.066C688.141 167.079 687.932 168.441 687.614 170.076L686.632 169.885Z" fill="url(#paint1_linear_0_12)"/>
<path d="M640.5 160.5C640.695 177.878 640.305 203.122 640.5 220.5" stroke="url(#paint2_linear_0_12)" stroke-linecap="round" stroke-linejoin="round" stroke-dasharray="4"/>
<circle cx="640" cy="225" r="4" fill="#250A2C" stroke="white"/>
</g>
<defs>
<filter id="filter0_b_0_12" x="521.514" y="160.514" width="236.972" height="236.972" filterUnits="userSpaceOnUse" color-interpolation-filters="sRGB">
<feFlood flood-opacity="0" result="BackgroundImageFix"/>
<feGaussianBlur in="BackgroundImage" stdDeviation="32.7429"/>
<feComposite in2="SourceAlpha" operator="in" result="effect1_backgroundBlur_0_12"/>
<feBlend mode="normal" in="SourceGraphic" in2="effect1_backgroundBlur_0_12" result="shape"/>
</filter>
<filter id="filter1_f_0_12" x="43.7612" y="146.761" width="231.478" height="231.478" filterUnits="userSpaceOnUse" color-interpolation-filters="sRGB">
<feFlood flood-opacity="0" result="BackgroundImageFix"/>
<feBlend mode="normal" in="SourceGraphic" in2="BackgroundImageFix" result="shape"/>
<feGaussianBlur stdDeviation="32.6194" result="effect1_foregroundBlur_0_12"/>
</filter>
<filter id="filter2_f_0_12" x="3.76124" y="12.7612" width="231.478" height="231.478" filterUnits="userSpaceOnUse" color-interpolation-filters="sRGB">
<feFlood flood-opacity="0" result="BackgroundImageFix"/>
<feBlend mode="normal" in="SourceGraphic" in2="BackgroundImageFix" result="shape"/>
<feGaussianBlur stdDeviation="32.6194" result="effect1_foregroundBlur_0_12"/>
</filter>
<filter id="filter3_dd_0_12" x="49.5" y="60.5" width="106" height="105" filterUnits="userSpaceOnUse" color-interpolation-filters="sRGB">
<feFlood flood-opacity="0" result="BackgroundImageFix"/>
<feColorMatrix in="SourceAlpha" type="matrix" values="0 0 0 0 0 0 0 0 0 0 0 0 0 0 0 0 0 0 127 0" result="hardAlpha"/>
<feOffset dx="6" dy="7"/>
<feGaussianBlur stdDeviation="2"/>
<feColorMatrix type="matrix" values="0 0 0 0 0.106979 0 0 0 0 0 0 0 0 0 0.286485 0 0 0 0.495809 0"/>
<feBlend mode="normal" in2="BackgroundImageFix" result="effect1_dropShadow_0_12"/>
<feColorMatrix in="SourceAlpha" type="matrix" values="0 0 0 0 0 0 0 0 0 0 0 0 0 0 0 0 0 0 127 0" result="hardAlpha"/>
<feOffset dy="2"/>
<feGaussianBlur stdDeviation="4"/>
<feColorMatrix type="matrix" values="0 0 0 0 0.743037 0 0 0 0 0.589898 0 0 0 0 1 0 0 0 1 0"/>
<feBlend mode="normal" in2="effect1_dropShadow_0_12" result="effect2_dropShadow_0_12"/>
<feBlend mode="normal" in="SourceGraphic" in2="effect2_dropShadow_0_12" result="shape"/>
</filter>
<filter id="filter4_dd_0_12" x="89.5" y="194.5" width="106" height="105" filterUnits="userSpaceOnUse" color-interpolation-filters="sRGB">
<feFlood flood-opacity="0" result="BackgroundImageFix"/>
<feColorMatrix in="SourceAlpha" type="matrix" values="0 0 0 0 0 0 0 0 0 0 0 0 0 0 0 0 0 0 127 0" result="hardAlpha"/>
<feOffset dx="6" dy="7"/>
<feGaussianBlur stdDeviation="2"/>
<feColorMatrix type="matrix" values="0 0 0 0 0 0 0 0 0 0 0 0 0 0 0 0 0 0 0.495809 0"/>
<feBlend mode="normal" in2="BackgroundImageFix" result="effect1_dropShadow_0_12"/>
<feColorMatrix in="SourceAlpha" type="matrix" values="0 0 0 0 0 0 0 0 0 0 0 0 0 0 0 0 0 0 127 0" result="hardAlpha"/>
<feOffset dy="2"/>
<feGaussianBlur stdDeviation="4"/>
<feColorMatrix type="matrix" values="0 0 0 0 0.952941 0 0 0 0 0.729412 0 0 0 0 0.184314 0 0 0 1 0"/>
<feBlend mode="normal" in2="effect1_dropShadow_0_12" result="effect2_dropShadow_0_12"/>
<feBlend mode="normal" in="SourceGraphic" in2="effect2_dropShadow_0_12" result="shape"/>
</filter>
<filter id="filter5_f_0_12" x="192.761" y="181.761" width="231.478" height="231.478" filterUnits="userSpaceOnUse" color-interpolation-filters="sRGB">
<feFlood flood-opacity="0" result="BackgroundImageFix"/>
<feBlend mode="normal" in="SourceGraphic" in2="BackgroundImageFix" result="shape"/>
<feGaussianBlur stdDeviation="32.6194" result="effect1_foregroundBlur_0_12"/>
</filter>
<filter id="filter6_dd_0_12" x="238.5" y="229.5" width="106" height="105" filterUnits="userSpaceOnUse" color-interpolation-filters="sRGB">
<feFlood flood-opacity="0" result="BackgroundImageFix"/>
<feColorMatrix in="SourceAlpha" type="matrix" values="0 0 0 0 0 0 0 0 0 0 0 0 0 0 0 0 0 0 127 0" result="hardAlpha"/>
<feOffset dx="6" dy="7"/>
<feGaussianBlur stdDeviation="2"/>
<feColorMatrix type="matrix" values="0 0 0 0 0 0 0 0 0 0 0 0 0 0 0 0 0 0 0.495809 0"/>
<feBlend mode="normal" in2="BackgroundImageFix" result="effect1_dropShadow_0_12"/>
<feColorMatrix in="SourceAlpha" type="matrix" values="0 0 0 0 0 0 0 0 0 0 0 0 0 0 0 0 0 0 127 0" result="hardAlpha"/>
<feOffset dy="2"/>
<feGaussianBlur stdDeviation="4"/>
<feColorMatrix type="matrix" values="0 0 0 0 0.952941 0 0 0 0 0.729412 0 0 0 0 0.184314 0 0 0 1 0"/>
<feBlend mode="normal" in2="effect1_dropShadow_0_12" result="effect2_dropShadow_0_12"/>
<feBlend mode="normal" in="SourceGraphic" in2="effect2_dropShadow_0_12" result="shape"/>
</filter>
<filter id="filter7_f_0_12" x="152.761" y="52.7612" width="231.478" height="231.478" filterUnits="userSpaceOnUse" color-interpolation-filters="sRGB">
<feFlood flood-opacity="0" result="BackgroundImageFix"/>
<feBlend mode="normal" in="SourceGraphic" in2="BackgroundImageFix" result="shape"/>
<feGaussianBlur stdDeviation="32.6194" result="effect1_foregroundBlur_0_12"/>
</filter>
<filter id="filter8_dd_0_12" x="198.5" y="100.5" width="106" height="105" filterUnits="userSpaceOnUse" color-interpolation-filters="sRGB">
<feFlood flood-opacity="0" result="BackgroundImageFix"/>
<feColorMatrix in="SourceAlpha" type="matrix" values="0 0 0 0 0 0 0 0 0 0 0 0 0 0 0 0 0 0 127 0" result="hardAlpha"/>
<feOffset dx="6" dy="7"/>
<feGaussianBlur stdDeviation="2"/>
<feColorMatrix type="matrix" values="0 0 0 0 0 0 0 0 0 0 0 0 0 0 0 0 0 0 0.495809 0"/>
<feBlend mode="normal" in2="BackgroundImageFix" result="effect1_dropShadow_0_12"/>
<feColorMatrix in="SourceAlpha" type="matrix" values="0 0 0 0 0 0 0 0 0 0 0 0 0 0 0 0 0 0 127 0" result="hardAlpha"/>
<feOffset dy="2"/>
<feGaussianBlur stdDeviation="4"/>
<feColorMatrix type="matrix" values="0 0 0 0 1 0 0 0 0 1 0 0 0 0 1 0 0 0 1 0"/>
<feBlend mode="normal" in2="effect1_dropShadow_0_12" result="effect2_dropShadow_0_12"/>
<feBlend mode="normal" in="SourceGraphic" in2="effect2_dropShadow_0_12" result="shape"/>
</filter>
<filter id="filter9_f_0_12" x="891.761" y="181.761" width="231.478" height="231.478" filterUnits="userSpaceOnUse" color-interpolation-filters="sRGB">
<feFlood flood-opacity="0" result="BackgroundImageFix"/>
<feBlend mode="normal" in="SourceGraphic" in2="BackgroundImageFix" result="shape"/>
<feGaussianBlur stdDeviation="32.6194" result="effect1_foregroundBlur_0_12"/>
</filter>
<filter id="filter10_f_0_12" x="1040.76" y="146.761" width="231.478" height="231.478" filterUnits="userSpaceOnUse" color-interpolation-filters="sRGB">
<feFlood flood-opacity="0" result="BackgroundImageFix"/>
<feBlend mode="normal" in="SourceGraphic" in2="BackgroundImageFix" result="shape"/>
<feGaussianBlur stdDeviation="32.6194" result="effect1_foregroundBlur_0_12"/>
</filter>
<filter id="filter11_dd_0_12" x="1084.5" y="194.5" width="106" height="105" filterUnits="userSpaceOnUse" color-interpolation-filters="sRGB">
<feFlood flood-opacity="0" result="BackgroundImageFix"/>
<feColorMatrix in="SourceAlpha" type="matrix" values="0 0 0 0 0 0 0 0 0 0 0 0 0 0 0 0 0 0 127 0" result="hardAlpha"/>
<feOffset dx="-6" dy="7"/>
<feGaussianBlur stdDeviation="2"/>
<feColorMatrix type="matrix" values="0 0 0 0 0 0 0 0 0 0 0 0 0 0 0 0 0 0 0.495809 0"/>
<feBlend mode="normal" in2="BackgroundImageFix" result="effect1_dropShadow_0_12"/>
<feColorMatrix in="SourceAlpha" type="matrix" values="0 0 0 0 0 0 0 0 0 0 0 0 0 0 0 0 0 0 127 0" result="hardAlpha"/>
<feOffset dy="2"/>
<feGaussianBlur stdDeviation="4"/>
<feColorMatrix type="matrix" values="0 0 0 0 0.172549 0 0 0 0 0.490196 0 0 0 0 0.968627 0 0 0 1 0"/>
<feBlend mode="normal" in2="effect1_dropShadow_0_12" result="effect2_dropShadow_0_12"/>
<feBlend mode="normal" in="SourceGraphic" in2="effect2_dropShadow_0_12" result="shape"/>
</filter>
<filter id="filter12_dd_0_12" x="935.5" y="229.5" width="106" height="105" filterUnits="userSpaceOnUse" color-interpolation-filters="sRGB">
<feFlood flood-opacity="0" result="BackgroundImageFix"/>
<feColorMatrix in="SourceAlpha" type="matrix" values="0 0 0 0 0 0 0 0 0 0 0 0 0 0 0 0 0 0 127 0" result="hardAlpha"/>
<feOffset dx="-6" dy="7"/>
<feGaussianBlur stdDeviation="2"/>
<feColorMatrix type="matrix" values="0 0 0 0 0 0 0 0 0 0 0 0 0 0 0 0 0 0 0.495809 0"/>
<feBlend mode="normal" in2="BackgroundImageFix" result="effect1_dropShadow_0_12"/>
<feColorMatrix in="SourceAlpha" type="matrix" values="0 0 0 0 0 0 0 0 0 0 0 0 0 0 0 0 0 0 127 0" result="hardAlpha"/>
<feOffset dy="2"/>
<feGaussianBlur stdDeviation="4"/>
<feColorMatrix type="matrix" values="0 0 0 0 0.253852 0 0 0 0 0.810884 0 0 0 0 1 0 0 0 1 0"/>
<feBlend mode="normal" in2="effect1_dropShadow_0_12" result="effect2_dropShadow_0_12"/>
<feBlend mode="normal" in="SourceGraphic" in2="effect2_dropShadow_0_12" result="shape"/>
</filter>
<filter id="filter13_f_0_12" x="931.761" y="52.7612" width="231.478" height="231.478" filterUnits="userSpaceOnUse" color-interpolation-filters="sRGB">
<feFlood flood-opacity="0" result="BackgroundImageFix"/>
<feBlend mode="normal" in="SourceGraphic" in2="BackgroundImageFix" result="shape"/>
<feGaussianBlur stdDeviation="32.6194" result="effect1_foregroundBlur_0_12"/>
</filter>
<filter id="filter14_dd_0_12" x="975.5" y="100.5" width="106" height="105" filterUnits="userSpaceOnUse" color-interpolation-filters="sRGB">
<feFlood flood-opacity="0" result="BackgroundImageFix"/>
<feColorMatrix in="SourceAlpha" type="matrix" values="0 0 0 0 0 0 0 0 0 0 0 0 0 0 0 0 0 0 127 0" result="hardAlpha"/>
<feOffset dx="-6" dy="7"/>
<feGaussianBlur stdDeviation="2"/>
<feColorMatrix type="matrix" values="0 0 0 0 0 0 0 0 0 0 0 0 0 0 0 0 0 0 0.495809 0"/>
<feBlend mode="normal" in2="BackgroundImageFix" result="effect1_dropShadow_0_12"/>
<feColorMatrix in="SourceAlpha" type="matrix" values="0 0 0 0 0 0 0 0 0 0 0 0 0 0 0 0 0 0 127 0" result="hardAlpha"/>
<feOffset dy="2"/>
<feGaussianBlur stdDeviation="4"/>
<feColorMatrix type="matrix" values="0 0 0 0 1 0 0 0 0 1 0 0 0 0 1 0 0 0 1 0"/>
<feBlend mode="normal" in2="effect1_dropShadow_0_12" result="effect2_dropShadow_0_12"/>
<feBlend mode="normal" in="SourceGraphic" in2="effect2_dropShadow_0_12" result="shape"/>
</filter>
<filter id="filter15_b_0_12" x="39.8172" y="48.8172" width="123.366" height="123.366" filterUnits="userSpaceOnUse" color-interpolation-filters="sRGB">
<feFlood flood-opacity="0" result="BackgroundImageFix"/>
<feGaussianBlur in="BackgroundImage" stdDeviation="13.5914"/>
<feComposite in2="SourceAlpha" operator="in" result="effect1_backgroundBlur_0_12"/>
<feBlend mode="normal" in="SourceGraphic" in2="effect1_backgroundBlur_0_12" result="shape"/>
</filter>
<filter id="filter16_f_0_12" x="1080.76" y="12.7612" width="231.478" height="231.478" filterUnits="userSpaceOnUse" color-interpolation-filters="sRGB">
<feFlood flood-opacity="0" result="BackgroundImageFix"/>
<feBlend mode="normal" in="SourceGraphic" in2="BackgroundImageFix" result="shape"/>
<feGaussianBlur stdDeviation="32.6194" result="effect1_foregroundBlur_0_12"/>
</filter>
<filter id="filter17_dd_0_12" x="1124.5" y="60.5" width="106" height="105" filterUnits="userSpaceOnUse" color-interpolation-filters="sRGB">
<feFlood flood-opacity="0" result="BackgroundImageFix"/>
<feColorMatrix in="SourceAlpha" type="matrix" values="0 0 0 0 0 0 0 0 0 0 0 0 0 0 0 0 0 0 127 0" result="hardAlpha"/>
<feOffset dx="-6" dy="7"/>
<feGaussianBlur stdDeviation="2"/>
<feColorMatrix type="matrix" values="0 0 0 0 0 0 0 0 0 0 0 0 0 0 0 0 0 0 0.495809 0"/>
<feBlend mode="normal" in2="BackgroundImageFix" result="effect1_dropShadow_0_12"/>
<feColorMatrix in="SourceAlpha" type="matrix" values="0 0 0 0 0 0 0 0 0 0 0 0 0 0 0 0 0 0 127 0" result="hardAlpha"/>
<feOffset dy="2"/>
<feGaussianBlur stdDeviation="4"/>
<feColorMatrix type="matrix" values="0 0 0 0 0.968627 0 0 0 0 0.576471 0 0 0 0 0.101961 0 0 0 1 0"/>
<feBlend mode="normal" in2="effect1_dropShadow_0_12" result="effect2_dropShadow_0_12"/>
<feBlend mode="normal" in="SourceGraphic" in2="effect2_dropShadow_0_12" result="shape"/>
</filter>
<filter id="filter18_b_0_12" x="1116.82" y="47.8172" width="123.366" height="123.366" filterUnits="userSpaceOnUse" color-interpolation-filters="sRGB">
<feFlood flood-opacity="0" result="BackgroundImageFix"/>
<feGaussianBlur in="BackgroundImage" stdDeviation="13.5914"/>
<feComposite in2="SourceAlpha" operator="in" result="effect1_backgroundBlur_0_12"/>
<feBlend mode="normal" in="SourceGraphic" in2="effect1_backgroundBlur_0_12" result="shape"/>
</filter>
<filter id="filter19_b_0_12" x="79.8172" y="183.817" width="123.366" height="123.366" filterUnits="userSpaceOnUse" color-interpolation-filters="sRGB">
<feFlood flood-opacity="0" result="BackgroundImageFix"/>
<feGaussianBlur in="BackgroundImage" stdDeviation="13.5914"/>
<feComposite in2="SourceAlpha" operator="in" result="effect1_backgroundBlur_0_12"/>
<feBlend mode="normal" in="SourceGraphic" in2="effect1_backgroundBlur_0_12" result="shape"/>
</filter>
<filter id="filter20_b_0_12" x="1076.82" y="182.817" width="123.366" height="123.366" filterUnits="userSpaceOnUse" color-interpolation-filters="sRGB">
<feFlood flood-opacity="0" result="BackgroundImageFix"/>
<feGaussianBlur in="BackgroundImage" stdDeviation="13.5914"/>
<feComposite in2="SourceAlpha" operator="in" result="effect1_backgroundBlur_0_12"/>
<feBlend mode="normal" in="SourceGraphic" in2="effect1_backgroundBlur_0_12" result="shape"/>
</filter>
<filter id="filter21_b_0_12" x="228.817" y="217.817" width="123.366" height="123.366" filterUnits="userSpaceOnUse" color-interpolation-filters="sRGB">
<feFlood flood-opacity="0" result="BackgroundImageFix"/>
<feGaussianBlur in="BackgroundImage" stdDeviation="13.5914"/>
<feComposite in2="SourceAlpha" operator="in" result="effect1_backgroundBlur_0_12"/>
<feBlend mode="normal" in="SourceGraphic" in2="effect1_backgroundBlur_0_12" result="shape"/>
</filter>
<filter id="filter22_b_0_12" x="927.817" y="216.817" width="123.366" height="123.366" filterUnits="userSpaceOnUse" color-interpolation-filters="sRGB">
<feFlood flood-opacity="0" result="BackgroundImageFix"/>
<feGaussianBlur in="BackgroundImage" stdDeviation="13.5914"/>
<feComposite in2="SourceAlpha" operator="in" result="effect1_backgroundBlur_0_12"/>
<feBlend mode="normal" in="SourceGraphic" in2="effect1_backgroundBlur_0_12" result="shape"/>
</filter>
<filter id="filter23_b_0_12" x="188.817" y="88.8172" width="123.366" height="123.366" filterUnits="userSpaceOnUse" color-interpolation-filters="sRGB">
<feFlood flood-opacity="0" result="BackgroundImageFix"/>
<feGaussianBlur in="BackgroundImage" stdDeviation="13.5914"/>
<feComposite in2="SourceAlpha" operator="in" result="effect1_backgroundBlur_0_12"/>
<feBlend mode="normal" in="SourceGraphic" in2="effect1_backgroundBlur_0_12" result="shape"/>
</filter>
<filter id="filter24_b_0_12" x="508.226" y="64.2258" width="263.548" height="144.548" filterUnits="userSpaceOnUse" color-interpolation-filters="sRGB">
<feFlood flood-opacity="0" result="BackgroundImageFix"/>
<feGaussianBlur in="BackgroundImage" stdDeviation="20.3871"/>
<feComposite in2="SourceAlpha" operator="in" result="effect1_backgroundBlur_0_12"/>
<feBlend mode="normal" in="SourceGraphic" in2="effect1_backgroundBlur_0_12" result="shape"/>
</filter>
<linearGradient id="paint0_linear_0_12" x1="634" y1="223" x2="634" y2="164" gradientUnits="userSpaceOnUse">
<stop stop-color="white"/>
<stop offset="0.514733" stop-color="white" stop-opacity="0.903398"/>
<stop offset="1" stop-color="#390B34" stop-opacity="0.01"/>
</linearGradient>
<linearGradient id="paint1_linear_0_12" x1="645" y1="223" x2="645" y2="164" gradientUnits="userSpaceOnUse">
<stop stop-color="white"/>
<stop offset="0.514733" stop-color="white" stop-opacity="0.903398"/>
<stop offset="1" stop-color="#390B34" stop-opacity="0.01"/>
</linearGradient>
<linearGradient id="paint2_linear_0_12" x1="639.5" y1="221" x2="639.5" y2="176" gradientUnits="userSpaceOnUse">
<stop stop-color="white"/>
<stop offset="0.514733" stop-color="white" stop-opacity="0.903398"/>
<stop offset="1" stop-color="#390B34" stop-opacity="0.01"/>
</linearGradient>
</defs>
</svg>
