<svg width="233" height="233" viewBox="0 0 233 233" fill="none" xmlns="http://www.w3.org/2000/svg">
<g opacity="0.2" filter="url(#filter0_f_63_27)">
<circle r="50.5" transform="matrix(-1 0 0 1 116.5 116.5)" fill="white"/>
</g>
<g filter="url(#filter1_dd_63_27)">
<circle r="42.5" transform="matrix(-1 0 0 1 98.5 98.5)" stroke="white" stroke-width="3"/>
</g>
<circle cx="98.5" cy="97.5" r="34.5" fill="black"/>
<path d="M108.444 82.6867L101.558 92.9167C101.082 93.6133 101.998 94.4567 102.657 93.87L109.433 87.9667C109.616 87.82 109.872 87.93 109.872 88.1867V106.63C109.872 106.887 109.543 106.997 109.396 106.813L88.8857 82.2467C88.2264 81.44 87.2741 81 86.212 81H85.4795C83.5749 81 82 82.5767 82 84.52V110.48C82 112.423 83.5749 114 85.5161 114C86.7248 114 87.8602 113.377 88.5194 112.313L95.4051 102.083C95.8812 101.387 94.9656 100.543 94.3063 101.13L87.5305 106.997C87.3474 107.143 87.091 107.033 87.091 106.777V88.37C87.091 88.1133 87.4206 88.0033 87.5671 88.1867L108.078 112.753C108.737 113.56 109.726 114 110.751 114H111.484C113.425 114 115 112.423 115 110.48V84.52C115 82.5767 113.425 81 111.484 81C110.239 81 109.103 81.6233 108.444 82.6867Z" fill="white"/>
<defs>
<filter id="filter0_f_63_27" x="0.761238" y="0.761238" width="231.478" height="231.478" filterUnits="userSpaceOnUse" color-interpolation-filters="sRGB">
<feFlood flood-opacity="0" result="BackgroundImageFix"/>
<feBlend mode="normal" in="SourceGraphic" in2="BackgroundImageFix" result="shape"/>
<feGaussianBlur stdDeviation="32.6194" result="effect1_foregroundBlur_63_27"/>
</filter>
<filter id="filter1_dd_63_27" x="44.5" y="48.5" width="106" height="105" filterUnits="userSpaceOnUse" color-interpolation-filters="sRGB">
<feFlood flood-opacity="0" result="BackgroundImageFix"/>
<feColorMatrix in="SourceAlpha" type="matrix" values="0 0 0 0 0 0 0 0 0 0 0 0 0 0 0 0 0 0 127 0" result="hardAlpha"/>
<feOffset dx="-6" dy="7"/>
<feGaussianBlur stdDeviation="2"/>
<feColorMatrix type="matrix" values="0 0 0 0 0 0 0 0 0 0 0 0 0 0 0 0 0 0 0.495809 0"/>
<feBlend mode="normal" in2="BackgroundImageFix" result="effect1_dropShadow_63_27"/>
<feColorMatrix in="SourceAlpha" type="matrix" values="0 0 0 0 0 0 0 0 0 0 0 0 0 0 0 0 0 0 127 0" result="hardAlpha"/>
<feOffset dy="2"/>
<feGaussianBlur stdDeviation="4"/>
<feColorMatrix type="matrix" values="0 0 0 0 1 0 0 0 0 1 0 0 0 0 1 0 0 0 1 0"/>
<feBlend mode="normal" in2="effect1_dropShadow_63_27" result="effect2_dropShadow_63_27"/>
<feBlend mode="normal" in="SourceGraphic" in2="effect2_dropShadow_63_27" result="shape"/>
</filter>
</defs>
</svg>
