<svg width="1350" height="395" viewBox="0 0 1350 395" fill="none" xmlns="http://www.w3.org/2000/svg">
<mask id="mask0_0_1213" style="mask-type:alpha" maskUnits="userSpaceOnUse" x="0" y="0" width="1350" height="395">
<rect width="1350" height="395" fill="white"/>
</mask>
<g mask="url(#mask0_0_1213)">
<g filter="url(#filter0_b_0_1213)">
<circle cx="675" cy="268" r="53" fill="white"/>
</g>
<mask id="mask1_0_1213" style="mask-type:alpha" maskUnits="userSpaceOnUse" x="650" y="240" width="50" height="57">
<rect x="650.909" y="240.697" width="48.1818" height="56.2121" fill="white"/>
</mask>
<g mask="url(#mask1_0_1213)">
<path d="M657.15 275.849C656.281 275.849 655.505 275.523 654.821 274.871C654.138 274.218 653.797 273.427 653.797 272.495V246.599C653.797 245.699 654.138 244.915 654.821 244.247C655.505 243.579 656.281 243.246 657.15 243.246H667.723C668.685 243.246 669.485 243.579 670.122 244.247C670.758 244.915 671.076 245.699 671.076 246.599V252.654L666.745 253.632V249.254C666.745 248.819 666.597 248.431 666.302 248.089C666.007 247.748 665.611 247.577 665.115 247.577H659.805C659.37 247.577 658.982 247.748 658.641 248.089C658.299 248.431 658.128 248.819 658.128 249.254V269.84C658.128 270.337 658.299 270.741 658.641 271.051C658.982 271.362 659.37 271.517 659.805 271.517H665.115C665.611 271.517 666.007 271.362 666.302 271.051C666.597 270.741 666.745 270.337 666.745 269.84V266.44L671.076 265.416V272.495C671.076 273.427 670.758 274.218 670.122 274.871C669.485 275.523 668.685 275.849 667.723 275.849H657.15Z" fill="#230F49"/>
<path d="M675.583 275.849V243.246H679.915L686.389 263.133L692.863 243.246H697.194V275.849H692.863V256.473L688.531 269.747H684.246L679.915 256.473V275.849H675.583Z" fill="#230F49"/>
<rect x="654.121" y="282.455" width="11.2424" height="11.2424" fill="#FFCF5E"/>
<rect x="670.182" y="282.455" width="11.2424" height="11.2424" fill="#FF7340"/>
<rect x="686.242" y="282.455" width="11.2424" height="11.2424" fill="#20C4FF"/>
</g>
<g opacity="0.6" filter="url(#filter1_f_0_1213)">
<circle r="50.5" transform="matrix(-1 0 0 1 1042.5 286.5)" fill="#13B5EC"/>
</g>
<g opacity="0.6" filter="url(#filter2_f_0_1213)">
<circle r="50.5" transform="matrix(-1 0 0 1 1191.5 251.5)" fill="#2C7DF7"/>
</g>
<g filter="url(#filter3_dd_0_1213)">
<circle r="42.5" transform="matrix(-1 0 0 1 1173.5 233.5)" stroke="#ACCDFF" stroke-width="3"/>
</g>
<g filter="url(#filter4_dd_0_1213)">
<circle r="42.5" transform="matrix(-1 0 0 1 1024.5 268.5)" stroke="#B8EDFF" stroke-width="3"/>
</g>
<g opacity="0.2" filter="url(#filter5_f_0_1213)">
<circle r="50.5" transform="matrix(-1 0 0 1 1082.5 157.5)" fill="white"/>
</g>
<g filter="url(#filter6_dd_0_1213)">
<circle r="42.5" transform="matrix(-1 0 0 1 1064.5 139.5)" stroke="white" stroke-width="3"/>
</g>
<path opacity="0.6" d="M983 291C983 291 864.5 324 740 275" stroke="#A95094" stroke-dasharray="4"/>
<path opacity="0.6" d="M1144.5 267.5C1144.5 267.5 1067.94 355.576 965 363C861 370.5 795 346 730 295" stroke="#A95094" stroke-dasharray="4"/>
<path opacity="0.6" d="M1030 165C1030 165 915.5 254 738 256.5" stroke="#A95094" stroke-dasharray="4"/>
<g opacity="0.5" filter="url(#filter7_f_0_1213)">
<circle cx="194.5" cy="251.5" r="50.5" fill="#F3BA2F"/>
</g>
<g filter="url(#filter8_dd_0_1213)">
<circle cx="176.5" cy="233.5" r="42.5" stroke="#FFEAB6" stroke-width="3"/>
</g>
<path opacity="0.6" d="M205.5 267.5C205.5 267.5 282.057 355.576 385 363C486.5 377.5 577.5 336 652 269.5" stroke="#A95094" stroke-dasharray="4"/>
<g opacity="0.622001" filter="url(#filter9_f_0_1213)">
<circle cx="343.5" cy="286.5" r="50.5" fill="#E84142"/>
</g>
<g filter="url(#filter10_dd_0_1213)">
<circle cx="325.5" cy="268.5" r="42.5" stroke="#FFB9BA" stroke-width="3"/>
</g>
<path opacity="0.6" d="M367 291C367 291 534.5 329.5 648.5 254.5" stroke="#A95094" stroke-dasharray="4"/>
<g filter="url(#filter11_b_0_1213)">
<circle cx="325.5" cy="268.5" r="34.5" fill="#E84142"/>
</g>
<path fill-rule="evenodd" clip-rule="evenodd" d="M309.23 282H315.788C317.332 282 318.104 282 318.793 281.807C319.548 281.58 320.237 281.177 320.81 280.623C321.336 280.117 321.716 279.445 322.464 278.12L322.465 278.119L322.487 278.08L330.992 262.878C331.747 261.544 332.121 260.872 332.287 260.167C332.469 259.403 332.469 258.597 332.287 257.834C332.122 257.134 331.745 256.467 331 255.153L330.983 255.123L327.655 249.247C326.966 248.022 326.617 247.409 326.177 247.183C325.704 246.939 325.14 246.939 324.667 247.183C324.227 247.409 323.878 248.022 323.189 249.247L306.997 278.105C306.317 279.314 305.976 279.919 306.001 280.414C306.034 280.951 306.308 281.438 306.757 281.732C307.172 282 307.852 282 309.23 282ZM341.744 282H332.348C330.962 282 330.265 282 329.858 281.732C329.41 281.438 329.136 280.943 329.103 280.405C329.078 279.914 329.421 279.315 330.107 278.117L330.107 278.117L330.123 278.089L334.813 269.947C335.502 268.747 335.851 268.151 336.283 267.925C336.756 267.681 337.312 267.681 337.785 267.925C338.214 268.145 338.547 268.716 339.208 269.846L339.209 269.847L339.263 269.939L343.969 278.08L343.978 278.096C343.998 278.131 344.018 278.165 344.037 278.199L344.037 278.199C344.69 279.337 345.023 279.918 344.999 280.397C344.974 280.934 344.692 281.429 344.243 281.723C343.828 282 343.131 282 341.744 282Z" fill="white"/>
<g filter="url(#filter12_b_0_1213)">
<circle cx="176.5" cy="234.5" r="34.5" fill="#F3BA2F"/>
</g>
<path d="M168.926 231.388L176.5 223.815L184.077 231.392L188.484 226.985L176.5 215L164.519 226.981L168.926 231.388Z" fill="black"/>
<path d="M161.407 230.089L165.814 234.496L161.407 238.903L157 234.496L161.407 230.089Z" fill="black"/>
<path d="M168.926 237.605L176.5 245.178L184.077 237.601L188.487 242.005L188.484 242.008L176.5 253.993L164.519 242.012L164.513 242.006L168.926 237.605Z" fill="black"/>
<path d="M195.996 234.498L191.589 238.905L187.182 234.498L191.589 230.091L195.996 234.498Z" fill="black"/>
<path d="M180.968 234.494H180.97L176.498 230.022L173.193 233.327H173.193L172.814 233.707L172.03 234.49V234.49L172.024 234.496L172.03 234.503L176.498 238.971L180.97 234.499L180.972 234.496L180.968 234.494Z" fill="black"/>
<g filter="url(#filter13_b_0_1213)">
<circle cx="1173.5" cy="233.5" r="34.5" fill="#2C7DF7"/>
</g>
<path d="M1177.73 253C1174.91 253 1172.86 252.33 1171.56 250.989C1170.36 249.854 1169.67 248.296 1169.62 246.656C1169.61 246.157 1169.73 245.664 1169.96 245.223C1170.19 244.843 1170.5 244.527 1170.89 244.309C1171.8 243.862 1172.86 243.862 1173.77 244.309C1174.16 244.527 1174.47 244.843 1174.69 245.223C1174.94 245.662 1175.06 246.156 1175.04 246.656C1175.07 247.252 1174.89 247.841 1174.55 248.331C1174.26 248.732 1173.85 249.029 1173.38 249.179C1173.84 249.761 1174.49 250.164 1175.23 250.319C1176.05 250.554 1176.9 250.675 1177.75 250.678C1178.88 250.688 1179.99 250.361 1180.93 249.74C1181.9 249.06 1182.63 248.087 1183 246.967C1183.47 245.634 1183.7 244.229 1183.68 242.817C1183.72 241.345 1183.47 239.88 1182.94 238.503C1182.54 237.401 1181.79 236.459 1180.8 235.822C1179.88 235.245 1178.81 234.943 1177.71 234.95C1176.76 235.03 1175.85 235.337 1175.04 235.846L1173.06 236.827V235.846L1181.96 224.05H1169.62V236.291C1169.59 237.174 1169.83 238.047 1170.3 238.795C1170.77 239.458 1171.56 239.831 1172.38 239.776C1173.12 239.762 1173.84 239.512 1174.42 239.064C1175.09 238.581 1175.67 237.992 1176.14 237.321C1176.18 237.203 1176.26 237.101 1176.36 237.028C1176.45 236.958 1176.55 236.919 1176.66 236.919C1176.88 236.938 1177.08 237.023 1177.24 237.162C1177.45 237.39 1177.56 237.686 1177.56 237.991C1177.53 238.196 1177.49 238.4 1177.44 238.6C1177.01 239.648 1176.27 240.549 1175.33 241.195C1174.45 241.781 1173.42 242.091 1172.36 242.086C1169.69 242.086 1167.84 241.566 1166.81 240.526C1165.74 239.365 1165.19 237.828 1165.28 236.26V224.05H1159V221.776H1165.31V216.59L1163.86 215.163V214H1168.05L1169.62 214.804V221.776L1185.93 221.727L1187.55 223.335L1177.55 233.255C1178.16 233.015 1178.79 232.863 1179.44 232.804C1180.72 232.86 1181.98 233.213 1183.09 233.834C1184.39 234.443 1185.48 235.405 1186.24 236.608C1186.92 237.626 1187.4 238.76 1187.66 239.953C1187.87 240.894 1187.99 241.854 1188 242.818C1188.01 244.657 1187.58 246.473 1186.77 248.125C1185.99 249.725 1184.68 251.015 1183.06 251.781C1181.41 252.588 1179.58 253.005 1177.73 253V253Z" fill="white"/>
<circle cx="1064.5" cy="138.5" r="34.5" fill="black"/>
<path d="M1074.44 123.687L1067.56 133.917C1067.08 134.613 1068 135.457 1068.66 134.87L1075.43 128.967C1075.62 128.82 1075.87 128.93 1075.87 129.187V147.63C1075.87 147.887 1075.54 147.997 1075.4 147.813L1054.89 123.247C1054.23 122.44 1053.27 122 1052.21 122H1051.48C1049.57 122 1048 123.577 1048 125.52V151.48C1048 153.423 1049.57 155 1051.52 155C1052.72 155 1053.86 154.377 1054.52 153.313L1061.41 143.083C1061.88 142.387 1060.97 141.543 1060.31 142.13L1053.53 147.997C1053.35 148.143 1053.09 148.033 1053.09 147.777V129.37C1053.09 129.113 1053.42 129.003 1053.57 129.187L1074.08 153.753C1074.74 154.56 1075.73 155 1076.75 155H1077.48C1079.43 155 1081 153.423 1081 151.48V125.52C1081 123.577 1079.43 122 1077.48 122C1076.24 122 1075.1 122.623 1074.44 123.687Z" fill="white"/>
<g filter="url(#filter14_b_0_1213)">
<circle cx="1024.5" cy="267.5" r="34.5" fill="#13B5EC"/>
</g>
<path fill-rule="evenodd" clip-rule="evenodd" d="M1026.4 261.523L1033.6 257.407V265.638L1026.4 261.523ZM1033.6 279.161L1024 284.648L1014.4 279.161V269.558L1024 275.045L1033.6 269.558V279.161ZM1014.4 257.407L1021.6 261.523L1014.4 265.638V257.407ZM1025.2 263.482L1032.4 267.598L1025.2 271.714V263.482ZM1022.8 271.714L1015.6 267.598L1022.8 263.482V271.714ZM1032.4 255.447L1024 260.151L1015.6 255.447L1024 250.548L1032.4 255.447ZM1012 254.663V280.337L1024 287L1036 280.337V254.663L1024 248L1012 254.663Z" fill="white"/>
<circle cx="675" cy="214" r="4" fill="#250A2C" stroke="white"/>
<g opacity="0.2" filter="url(#filter15_f_0_1213)">
<circle cx="303.5" cy="157.5" r="50.5" fill="white"/>
</g>
<g filter="url(#filter16_dd_0_1213)">
<circle cx="285.5" cy="139.5" r="42.5" stroke="white" stroke-width="3"/>
</g>
<path opacity="0.6" d="M320 165C320 165 484 258 661.5 260.5" stroke="#A95094" stroke-dasharray="4"/>
<g filter="url(#filter17_b_0_1213)">
<circle cx="285.5" cy="139.5" r="34.5" fill="black"/>
</g>
<path d="M285.496 120L285.223 120.912V147.36L285.496 147.628L297.992 140.371L285.496 120Z" fill="#343434"/>
<path d="M285.496 120L273 140.371L285.496 147.628V134.791V120Z" fill="#BCBCBC"/>
<path d="M285.496 149.953L285.342 150.137V159.558L285.496 160L298 142.699L285.496 149.953Z" fill="#3C3C3B"/>
<path d="M285.496 160V149.953L273 142.699L285.496 160Z" fill="#BCBCBC"/>
<path d="M285.496 147.628L297.992 140.371L285.496 134.791V147.628Z" fill="#141414"/>
<path d="M273 140.371L285.496 147.628V134.791L273 140.371Z" fill="#393939"/>
<g opacity="0.8" filter="url(#filter18_f_0_1213)">
<circle cx="154.5" cy="117.5" r="50.5" fill="#8247E5"/>
</g>
<g filter="url(#filter19_dd_0_1213)">
<circle cx="136.5" cy="99.5" r="42.5" stroke="#C4A0FF" stroke-width="3"/>
</g>
<path opacity="0.6" d="M164.5 65C164.5 65 390 -3.00015 658 271.5" stroke="#A95094" stroke-dasharray="4"/>
<g filter="url(#filter20_b_0_1213)">
<circle cx="136.5" cy="99.5" r="34.5" fill="#8247E5"/>
</g>
<path d="M146 93.3C145.3 92.9 144.4 92.9 143.6 93.3L138 96.6L134.2 98.7L128.7 102C128 102.4 127.1 102.4 126.3 102L122 99.4C121.3 99 120.8 98.2 120.8 97.3V92.3C120.8 91.5 121.2 90.7 122 90.2L126.3 87.7C127 87.3 127.9 87.3 128.7 87.7L133 90.3C133.7 90.7 134.2 91.5 134.2 92.4V95.7L138 93.5V90.1C138 89.3 137.6 88.5 136.8 88L128.8 83.3C128.1 82.9 127.2 82.9 126.4 83.3L118.2 88.1C117.4 88.5 117 89.3 117 90.1V99.5C117 100.3 117.4 101.1 118.2 101.6L126.3 106.3C127 106.7 127.9 106.7 128.7 106.3L134.2 103.1L138 100.9L143.5 97.7C144.2 97.3 145.1 97.3 145.9 97.7L150.2 100.2C150.9 100.6 151.4 101.4 151.4 102.3V107.3C151.4 108.1 151 108.9 150.2 109.4L146 111.9C145.3 112.3 144.4 112.3 143.6 111.9L139.3 109.4C138.6 109 138.1 108.2 138.1 107.3V104.1L134.3 106.3V109.6C134.3 110.4 134.7 111.2 135.5 111.7L143.6 116.4C144.3 116.8 145.2 116.8 146 116.4L154.1 111.7C154.8 111.3 155.3 110.5 155.3 109.6V100.1C155.3 99.3 154.9 98.5 154.1 98L146 93.3Z" fill="white"/>
<g filter="url(#filter21_dd_0_1213)">
<circle r="42.5" transform="matrix(-1 0 0 1 1213.5 99.5)" stroke="#FFD7A7" stroke-width="3"/>
</g>
<path opacity="0.6" d="M1185.5 64.9999C1185.5 64.9999 967.5 -4.00011 730 241.5" stroke="#A95094" stroke-dasharray="4"/>
<g filter="url(#filter22_b_0_1213)">
<circle cx="1213.5" cy="98.5" r="34.5" fill="#F7931A"/>
</g>
<path fill-rule="evenodd" clip-rule="evenodd" d="M1226.92 94.6784C1227.53 90.5804 1224.46 88.3775 1220.26 86.908L1221.62 81.357L1218.29 80.515L1216.97 85.9199C1216.09 85.6983 1215.19 85.4896 1214.3 85.2826L1215.64 79.842L1212.31 79L1210.95 84.5493C1210.23 84.3819 1209.52 84.2165 1208.83 84.0422L1208.83 84.0247L1204.24 82.8611L1203.36 86.4702C1203.36 86.4702 1205.83 87.0449 1205.78 87.0802C1207.12 87.4218 1207.37 88.3276 1207.33 89.0455L1205.77 95.3695C1205.87 95.3935 1205.99 95.4281 1206.12 95.4823L1206.02 95.4578C1205.94 95.4369 1205.86 95.4152 1205.77 95.3939L1203.59 104.253C1203.43 104.669 1203.01 105.293 1202.07 105.056C1202.1 105.105 1199.65 104.443 1199.65 104.443L1198 108.311L1202.33 109.407C1202.8 109.528 1203.27 109.652 1203.73 109.774L1203.73 109.775L1203.73 109.775C1204.06 109.86 1204.38 109.946 1204.7 110.029L1203.32 115.643L1206.65 116.485L1208.01 110.93C1208.92 111.181 1209.8 111.411 1210.66 111.629L1209.3 117.158L1212.63 118L1214 112.396C1219.67 113.486 1223.94 113.047 1225.73 107.835C1227.18 103.639 1225.66 101.218 1222.68 99.64C1224.85 99.1308 1226.49 97.6786 1226.93 94.6788L1226.92 94.6781L1226.92 94.6784ZM1219.32 105.504C1218.38 109.354 1212.45 107.763 1209.74 107.034C1209.49 106.969 1209.27 106.91 1209.09 106.864L1210.91 99.4249C1211.14 99.4825 1211.42 99.5456 1211.73 99.6172C1214.54 100.257 1220.29 101.569 1219.33 105.504H1219.32ZM1212.3 96.1648C1214.56 96.7783 1219.49 98.1165 1220.35 94.6176H1220.35C1221.23 91.0389 1216.43 89.96 1214.09 89.4331C1213.83 89.3738 1213.6 89.3215 1213.41 89.2734L1211.75 96.0198C1211.91 96.0594 1212.09 96.1091 1212.3 96.1648Z" fill="white"/>
</g>
<defs>
<filter id="filter0_b_0_1213" x="556.514" y="149.514" width="236.972" height="236.972" filterUnits="userSpaceOnUse" color-interpolation-filters="sRGB">
<feFlood flood-opacity="0" result="BackgroundImageFix"/>
<feGaussianBlur in="BackgroundImage" stdDeviation="32.7429"/>
<feComposite in2="SourceAlpha" operator="in" result="effect1_backgroundBlur_0_1213"/>
<feBlend mode="normal" in="SourceGraphic" in2="effect1_backgroundBlur_0_1213" result="shape"/>
</filter>
<filter id="filter1_f_0_1213" x="926.761" y="170.761" width="231.478" height="231.478" filterUnits="userSpaceOnUse" color-interpolation-filters="sRGB">
<feFlood flood-opacity="0" result="BackgroundImageFix"/>
<feBlend mode="normal" in="SourceGraphic" in2="BackgroundImageFix" result="shape"/>
<feGaussianBlur stdDeviation="32.6194" result="effect1_foregroundBlur_0_1213"/>
</filter>
<filter id="filter2_f_0_1213" x="1075.76" y="135.761" width="231.478" height="231.478" filterUnits="userSpaceOnUse" color-interpolation-filters="sRGB">
<feFlood flood-opacity="0" result="BackgroundImageFix"/>
<feBlend mode="normal" in="SourceGraphic" in2="BackgroundImageFix" result="shape"/>
<feGaussianBlur stdDeviation="32.6194" result="effect1_foregroundBlur_0_1213"/>
</filter>
<filter id="filter3_dd_0_1213" x="1119.5" y="183.5" width="106" height="105" filterUnits="userSpaceOnUse" color-interpolation-filters="sRGB">
<feFlood flood-opacity="0" result="BackgroundImageFix"/>
<feColorMatrix in="SourceAlpha" type="matrix" values="0 0 0 0 0 0 0 0 0 0 0 0 0 0 0 0 0 0 127 0" result="hardAlpha"/>
<feOffset dx="-6" dy="7"/>
<feGaussianBlur stdDeviation="2"/>
<feColorMatrix type="matrix" values="0 0 0 0 0 0 0 0 0 0 0 0 0 0 0 0 0 0 0.495809 0"/>
<feBlend mode="normal" in2="BackgroundImageFix" result="effect1_dropShadow_0_1213"/>
<feColorMatrix in="SourceAlpha" type="matrix" values="0 0 0 0 0 0 0 0 0 0 0 0 0 0 0 0 0 0 127 0" result="hardAlpha"/>
<feOffset dy="2"/>
<feGaussianBlur stdDeviation="4"/>
<feColorMatrix type="matrix" values="0 0 0 0 0.172549 0 0 0 0 0.490196 0 0 0 0 0.968627 0 0 0 1 0"/>
<feBlend mode="normal" in2="effect1_dropShadow_0_1213" result="effect2_dropShadow_0_1213"/>
<feBlend mode="normal" in="SourceGraphic" in2="effect2_dropShadow_0_1213" result="shape"/>
</filter>
<filter id="filter4_dd_0_1213" x="970.5" y="218.5" width="106" height="105" filterUnits="userSpaceOnUse" color-interpolation-filters="sRGB">
<feFlood flood-opacity="0" result="BackgroundImageFix"/>
<feColorMatrix in="SourceAlpha" type="matrix" values="0 0 0 0 0 0 0 0 0 0 0 0 0 0 0 0 0 0 127 0" result="hardAlpha"/>
<feOffset dx="-6" dy="7"/>
<feGaussianBlur stdDeviation="2"/>
<feColorMatrix type="matrix" values="0 0 0 0 0 0 0 0 0 0 0 0 0 0 0 0 0 0 0.495809 0"/>
<feBlend mode="normal" in2="BackgroundImageFix" result="effect1_dropShadow_0_1213"/>
<feColorMatrix in="SourceAlpha" type="matrix" values="0 0 0 0 0 0 0 0 0 0 0 0 0 0 0 0 0 0 127 0" result="hardAlpha"/>
<feOffset dy="2"/>
<feGaussianBlur stdDeviation="4"/>
<feColorMatrix type="matrix" values="0 0 0 0 0.253852 0 0 0 0 0.810884 0 0 0 0 1 0 0 0 1 0"/>
<feBlend mode="normal" in2="effect1_dropShadow_0_1213" result="effect2_dropShadow_0_1213"/>
<feBlend mode="normal" in="SourceGraphic" in2="effect2_dropShadow_0_1213" result="shape"/>
</filter>
<filter id="filter5_f_0_1213" x="966.761" y="41.7612" width="231.478" height="231.478" filterUnits="userSpaceOnUse" color-interpolation-filters="sRGB">
<feFlood flood-opacity="0" result="BackgroundImageFix"/>
<feBlend mode="normal" in="SourceGraphic" in2="BackgroundImageFix" result="shape"/>
<feGaussianBlur stdDeviation="32.6194" result="effect1_foregroundBlur_0_1213"/>
</filter>
<filter id="filter6_dd_0_1213" x="1010.5" y="89.5" width="106" height="105" filterUnits="userSpaceOnUse" color-interpolation-filters="sRGB">
<feFlood flood-opacity="0" result="BackgroundImageFix"/>
<feColorMatrix in="SourceAlpha" type="matrix" values="0 0 0 0 0 0 0 0 0 0 0 0 0 0 0 0 0 0 127 0" result="hardAlpha"/>
<feOffset dx="-6" dy="7"/>
<feGaussianBlur stdDeviation="2"/>
<feColorMatrix type="matrix" values="0 0 0 0 0 0 0 0 0 0 0 0 0 0 0 0 0 0 0.495809 0"/>
<feBlend mode="normal" in2="BackgroundImageFix" result="effect1_dropShadow_0_1213"/>
<feColorMatrix in="SourceAlpha" type="matrix" values="0 0 0 0 0 0 0 0 0 0 0 0 0 0 0 0 0 0 127 0" result="hardAlpha"/>
<feOffset dy="2"/>
<feGaussianBlur stdDeviation="4"/>
<feColorMatrix type="matrix" values="0 0 0 0 1 0 0 0 0 1 0 0 0 0 1 0 0 0 1 0"/>
<feBlend mode="normal" in2="effect1_dropShadow_0_1213" result="effect2_dropShadow_0_1213"/>
<feBlend mode="normal" in="SourceGraphic" in2="effect2_dropShadow_0_1213" result="shape"/>
</filter>
<filter id="filter7_f_0_1213" x="78.7612" y="135.761" width="231.478" height="231.478" filterUnits="userSpaceOnUse" color-interpolation-filters="sRGB">
<feFlood flood-opacity="0" result="BackgroundImageFix"/>
<feBlend mode="normal" in="SourceGraphic" in2="BackgroundImageFix" result="shape"/>
<feGaussianBlur stdDeviation="32.6194" result="effect1_foregroundBlur_0_1213"/>
</filter>
<filter id="filter8_dd_0_1213" x="124.5" y="183.5" width="106" height="105" filterUnits="userSpaceOnUse" color-interpolation-filters="sRGB">
<feFlood flood-opacity="0" result="BackgroundImageFix"/>
<feColorMatrix in="SourceAlpha" type="matrix" values="0 0 0 0 0 0 0 0 0 0 0 0 0 0 0 0 0 0 127 0" result="hardAlpha"/>
<feOffset dx="6" dy="7"/>
<feGaussianBlur stdDeviation="2"/>
<feColorMatrix type="matrix" values="0 0 0 0 0 0 0 0 0 0 0 0 0 0 0 0 0 0 0.495809 0"/>
<feBlend mode="normal" in2="BackgroundImageFix" result="effect1_dropShadow_0_1213"/>
<feColorMatrix in="SourceAlpha" type="matrix" values="0 0 0 0 0 0 0 0 0 0 0 0 0 0 0 0 0 0 127 0" result="hardAlpha"/>
<feOffset dy="2"/>
<feGaussianBlur stdDeviation="4"/>
<feColorMatrix type="matrix" values="0 0 0 0 0.952941 0 0 0 0 0.729412 0 0 0 0 0.184314 0 0 0 1 0"/>
<feBlend mode="normal" in2="effect1_dropShadow_0_1213" result="effect2_dropShadow_0_1213"/>
<feBlend mode="normal" in="SourceGraphic" in2="effect2_dropShadow_0_1213" result="shape"/>
</filter>
<filter id="filter9_f_0_1213" x="227.761" y="170.761" width="231.478" height="231.478" filterUnits="userSpaceOnUse" color-interpolation-filters="sRGB">
<feFlood flood-opacity="0" result="BackgroundImageFix"/>
<feBlend mode="normal" in="SourceGraphic" in2="BackgroundImageFix" result="shape"/>
<feGaussianBlur stdDeviation="32.6194" result="effect1_foregroundBlur_0_1213"/>
</filter>
<filter id="filter10_dd_0_1213" x="273.5" y="218.5" width="106" height="105" filterUnits="userSpaceOnUse" color-interpolation-filters="sRGB">
<feFlood flood-opacity="0" result="BackgroundImageFix"/>
<feColorMatrix in="SourceAlpha" type="matrix" values="0 0 0 0 0 0 0 0 0 0 0 0 0 0 0 0 0 0 127 0" result="hardAlpha"/>
<feOffset dx="6" dy="7"/>
<feGaussianBlur stdDeviation="2"/>
<feColorMatrix type="matrix" values="0 0 0 0 0 0 0 0 0 0 0 0 0 0 0 0 0 0 0.495809 0"/>
<feBlend mode="normal" in2="BackgroundImageFix" result="effect1_dropShadow_0_1213"/>
<feColorMatrix in="SourceAlpha" type="matrix" values="0 0 0 0 0 0 0 0 0 0 0 0 0 0 0 0 0 0 127 0" result="hardAlpha"/>
<feOffset dy="2"/>
<feGaussianBlur stdDeviation="4"/>
<feColorMatrix type="matrix" values="0 0 0 0 0.952941 0 0 0 0 0.729412 0 0 0 0 0.184314 0 0 0 1 0"/>
<feBlend mode="normal" in2="effect1_dropShadow_0_1213" result="effect2_dropShadow_0_1213"/>
<feBlend mode="normal" in="SourceGraphic" in2="effect2_dropShadow_0_1213" result="shape"/>
</filter>
<filter id="filter11_b_0_1213" x="263.817" y="206.817" width="123.366" height="123.366" filterUnits="userSpaceOnUse" color-interpolation-filters="sRGB">
<feFlood flood-opacity="0" result="BackgroundImageFix"/>
<feGaussianBlur in="BackgroundImage" stdDeviation="13.5914"/>
<feComposite in2="SourceAlpha" operator="in" result="effect1_backgroundBlur_0_1213"/>
<feBlend mode="normal" in="SourceGraphic" in2="effect1_backgroundBlur_0_1213" result="shape"/>
</filter>
<filter id="filter12_b_0_1213" x="114.817" y="172.817" width="123.366" height="123.366" filterUnits="userSpaceOnUse" color-interpolation-filters="sRGB">
<feFlood flood-opacity="0" result="BackgroundImageFix"/>
<feGaussianBlur in="BackgroundImage" stdDeviation="13.5914"/>
<feComposite in2="SourceAlpha" operator="in" result="effect1_backgroundBlur_0_1213"/>
<feBlend mode="normal" in="SourceGraphic" in2="effect1_backgroundBlur_0_1213" result="shape"/>
</filter>
<filter id="filter13_b_0_1213" x="1111.82" y="171.817" width="123.366" height="123.366" filterUnits="userSpaceOnUse" color-interpolation-filters="sRGB">
<feFlood flood-opacity="0" result="BackgroundImageFix"/>
<feGaussianBlur in="BackgroundImage" stdDeviation="13.5914"/>
<feComposite in2="SourceAlpha" operator="in" result="effect1_backgroundBlur_0_1213"/>
<feBlend mode="normal" in="SourceGraphic" in2="effect1_backgroundBlur_0_1213" result="shape"/>
</filter>
<filter id="filter14_b_0_1213" x="962.817" y="205.817" width="123.366" height="123.366" filterUnits="userSpaceOnUse" color-interpolation-filters="sRGB">
<feFlood flood-opacity="0" result="BackgroundImageFix"/>
<feGaussianBlur in="BackgroundImage" stdDeviation="13.5914"/>
<feComposite in2="SourceAlpha" operator="in" result="effect1_backgroundBlur_0_1213"/>
<feBlend mode="normal" in="SourceGraphic" in2="effect1_backgroundBlur_0_1213" result="shape"/>
</filter>
<filter id="filter15_f_0_1213" x="187.761" y="41.7612" width="231.478" height="231.478" filterUnits="userSpaceOnUse" color-interpolation-filters="sRGB">
<feFlood flood-opacity="0" result="BackgroundImageFix"/>
<feBlend mode="normal" in="SourceGraphic" in2="BackgroundImageFix" result="shape"/>
<feGaussianBlur stdDeviation="32.6194" result="effect1_foregroundBlur_0_1213"/>
</filter>
<filter id="filter16_dd_0_1213" x="233.5" y="89.5" width="106" height="105" filterUnits="userSpaceOnUse" color-interpolation-filters="sRGB">
<feFlood flood-opacity="0" result="BackgroundImageFix"/>
<feColorMatrix in="SourceAlpha" type="matrix" values="0 0 0 0 0 0 0 0 0 0 0 0 0 0 0 0 0 0 127 0" result="hardAlpha"/>
<feOffset dx="6" dy="7"/>
<feGaussianBlur stdDeviation="2"/>
<feColorMatrix type="matrix" values="0 0 0 0 0 0 0 0 0 0 0 0 0 0 0 0 0 0 0.495809 0"/>
<feBlend mode="normal" in2="BackgroundImageFix" result="effect1_dropShadow_0_1213"/>
<feColorMatrix in="SourceAlpha" type="matrix" values="0 0 0 0 0 0 0 0 0 0 0 0 0 0 0 0 0 0 127 0" result="hardAlpha"/>
<feOffset dy="2"/>
<feGaussianBlur stdDeviation="4"/>
<feColorMatrix type="matrix" values="0 0 0 0 1 0 0 0 0 1 0 0 0 0 1 0 0 0 1 0"/>
<feBlend mode="normal" in2="effect1_dropShadow_0_1213" result="effect2_dropShadow_0_1213"/>
<feBlend mode="normal" in="SourceGraphic" in2="effect2_dropShadow_0_1213" result="shape"/>
</filter>
<filter id="filter17_b_0_1213" x="223.817" y="77.8172" width="123.366" height="123.366" filterUnits="userSpaceOnUse" color-interpolation-filters="sRGB">
<feFlood flood-opacity="0" result="BackgroundImageFix"/>
<feGaussianBlur in="BackgroundImage" stdDeviation="13.5914"/>
<feComposite in2="SourceAlpha" operator="in" result="effect1_backgroundBlur_0_1213"/>
<feBlend mode="normal" in="SourceGraphic" in2="effect1_backgroundBlur_0_1213" result="shape"/>
</filter>
<filter id="filter18_f_0_1213" x="38.7612" y="1.76124" width="231.478" height="231.478" filterUnits="userSpaceOnUse" color-interpolation-filters="sRGB">
<feFlood flood-opacity="0" result="BackgroundImageFix"/>
<feBlend mode="normal" in="SourceGraphic" in2="BackgroundImageFix" result="shape"/>
<feGaussianBlur stdDeviation="32.6194" result="effect1_foregroundBlur_0_1213"/>
</filter>
<filter id="filter19_dd_0_1213" x="84.5" y="49.5" width="106" height="105" filterUnits="userSpaceOnUse" color-interpolation-filters="sRGB">
<feFlood flood-opacity="0" result="BackgroundImageFix"/>
<feColorMatrix in="SourceAlpha" type="matrix" values="0 0 0 0 0 0 0 0 0 0 0 0 0 0 0 0 0 0 127 0" result="hardAlpha"/>
<feOffset dx="6" dy="7"/>
<feGaussianBlur stdDeviation="2"/>
<feColorMatrix type="matrix" values="0 0 0 0 0.106979 0 0 0 0 0 0 0 0 0 0.286485 0 0 0 0.495809 0"/>
<feBlend mode="normal" in2="BackgroundImageFix" result="effect1_dropShadow_0_1213"/>
<feColorMatrix in="SourceAlpha" type="matrix" values="0 0 0 0 0 0 0 0 0 0 0 0 0 0 0 0 0 0 127 0" result="hardAlpha"/>
<feOffset dy="2"/>
<feGaussianBlur stdDeviation="4"/>
<feColorMatrix type="matrix" values="0 0 0 0 0.743037 0 0 0 0 0.589898 0 0 0 0 1 0 0 0 1 0"/>
<feBlend mode="normal" in2="effect1_dropShadow_0_1213" result="effect2_dropShadow_0_1213"/>
<feBlend mode="normal" in="SourceGraphic" in2="effect2_dropShadow_0_1213" result="shape"/>
</filter>
<filter id="filter20_b_0_1213" x="74.8172" y="37.8172" width="123.366" height="123.366" filterUnits="userSpaceOnUse" color-interpolation-filters="sRGB">
<feFlood flood-opacity="0" result="BackgroundImageFix"/>
<feGaussianBlur in="BackgroundImage" stdDeviation="13.5914"/>
<feComposite in2="SourceAlpha" operator="in" result="effect1_backgroundBlur_0_1213"/>
<feBlend mode="normal" in="SourceGraphic" in2="effect1_backgroundBlur_0_1213" result="shape"/>
</filter>
<filter id="filter21_dd_0_1213" x="1159.5" y="49.5" width="106" height="105" filterUnits="userSpaceOnUse" color-interpolation-filters="sRGB">
<feFlood flood-opacity="0" result="BackgroundImageFix"/>
<feColorMatrix in="SourceAlpha" type="matrix" values="0 0 0 0 0 0 0 0 0 0 0 0 0 0 0 0 0 0 127 0" result="hardAlpha"/>
<feOffset dx="-6" dy="7"/>
<feGaussianBlur stdDeviation="2"/>
<feColorMatrix type="matrix" values="0 0 0 0 0 0 0 0 0 0 0 0 0 0 0 0 0 0 0.495809 0"/>
<feBlend mode="normal" in2="BackgroundImageFix" result="effect1_dropShadow_0_1213"/>
<feColorMatrix in="SourceAlpha" type="matrix" values="0 0 0 0 0 0 0 0 0 0 0 0 0 0 0 0 0 0 127 0" result="hardAlpha"/>
<feOffset dy="2"/>
<feGaussianBlur stdDeviation="4"/>
<feColorMatrix type="matrix" values="0 0 0 0 0.968627 0 0 0 0 0.576471 0 0 0 0 0.101961 0 0 0 1 0"/>
<feBlend mode="normal" in2="effect1_dropShadow_0_1213" result="effect2_dropShadow_0_1213"/>
<feBlend mode="normal" in="SourceGraphic" in2="effect2_dropShadow_0_1213" result="shape"/>
</filter>
<filter id="filter22_b_0_1213" x="1151.82" y="36.8172" width="123.366" height="123.366" filterUnits="userSpaceOnUse" color-interpolation-filters="sRGB">
<feFlood flood-opacity="0" result="BackgroundImageFix"/>
<feGaussianBlur in="BackgroundImage" stdDeviation="13.5914"/>
<feComposite in2="SourceAlpha" operator="in" result="effect1_backgroundBlur_0_1213"/>
<feBlend mode="normal" in="SourceGraphic" in2="effect1_backgroundBlur_0_1213" result="shape"/>
</filter>
</defs>
</svg>
