<svg width="168" height="168" viewBox="0 0 168 168" fill="none" xmlns="http://www.w3.org/2000/svg">
<g opacity="0.5" filter="url(#filter0_f_46_26)">
<circle cx="83.8018" cy="83.8017" r="18.1982" fill="#F3BA2F"/>
</g>
<g filter="url(#filter1_dd_46_26)">
<circle cx="77.3153" cy="77.3153" r="15.3153" stroke="#FFEAB6" stroke-width="3"/>
</g>
<g filter="url(#filter2_b_46_26)">
<circle cx="77.3153" cy="77.6756" r="12.4324" fill="#F3BA2F"/>
</g>
<path d="M74.5859 76.5543L77.3152 73.8251L80.0459 76.5558L81.634 74.9677L77.3152 70.6487L72.9979 74.9662L74.5859 76.5543Z" fill="black"/>
<path d="M71.8764 76.0862L73.4644 77.6743L71.8763 79.2624L70.2882 77.6743L71.8764 76.0862Z" fill="black"/>
<path d="M74.586 78.7945L77.3152 81.5237L80.0458 78.7932L81.6348 80.3804L81.634 80.3813L77.3152 84.7002L72.9978 80.3828L72.9955 80.3805L74.586 78.7945Z" fill="black"/>
<path d="M84.3409 77.6748L82.7528 79.263L81.1647 77.6749L82.7528 76.0867L84.3409 77.6748Z" fill="black"/>
<path d="M78.9254 77.6735H78.9261L77.3146 76.062L76.1237 77.253H76.1236L75.9868 77.3898L75.7046 77.6721V77.6721L75.7023 77.6743L75.7046 77.6766L77.3146 79.2867L78.9261 77.6752L78.9269 77.6743L78.9254 77.6735Z" fill="black"/>
<defs>
<filter id="filter0_f_46_26" x="0.364876" y="0.364754" width="166.874" height="166.874" filterUnits="userSpaceOnUse" color-interpolation-filters="sRGB">
<feFlood flood-opacity="0" result="BackgroundImageFix"/>
<feBlend mode="normal" in="SourceGraphic" in2="BackgroundImageFix" result="shape"/>
<feGaussianBlur stdDeviation="32.6194" result="effect1_foregroundBlur_46_26"/>
</filter>
<filter id="filter1_dd_46_26" x="52.5" y="54.5" width="51.6306" height="50.6306" filterUnits="userSpaceOnUse" color-interpolation-filters="sRGB">
<feFlood flood-opacity="0" result="BackgroundImageFix"/>
<feColorMatrix in="SourceAlpha" type="matrix" values="0 0 0 0 0 0 0 0 0 0 0 0 0 0 0 0 0 0 127 0" result="hardAlpha"/>
<feOffset dx="6" dy="7"/>
<feGaussianBlur stdDeviation="2"/>
<feColorMatrix type="matrix" values="0 0 0 0 0 0 0 0 0 0 0 0 0 0 0 0 0 0 0.495809 0"/>
<feBlend mode="normal" in2="BackgroundImageFix" result="effect1_dropShadow_46_26"/>
<feColorMatrix in="SourceAlpha" type="matrix" values="0 0 0 0 0 0 0 0 0 0 0 0 0 0 0 0 0 0 127 0" result="hardAlpha"/>
<feOffset dy="2"/>
<feGaussianBlur stdDeviation="4"/>
<feColorMatrix type="matrix" values="0 0 0 0 0.952941 0 0 0 0 0.729412 0 0 0 0 0.184314 0 0 0 1 0"/>
<feBlend mode="normal" in2="effect1_dropShadow_46_26" result="effect2_dropShadow_46_26"/>
<feBlend mode="normal" in="SourceGraphic" in2="effect2_dropShadow_46_26" result="shape"/>
</filter>
<filter id="filter2_b_46_26" x="37.7001" y="38.0603" width="79.2305" height="79.2304" filterUnits="userSpaceOnUse" color-interpolation-filters="sRGB">
<feFlood flood-opacity="0" result="BackgroundImageFix"/>
<feGaussianBlur in="BackgroundImage" stdDeviation="13.5914"/>
<feComposite in2="SourceAlpha" operator="in" result="effect1_backgroundBlur_46_26"/>
<feBlend mode="normal" in="SourceGraphic" in2="effect1_backgroundBlur_46_26" result="shape"/>
</filter>
</defs>
</svg>
