<svg width="224" height="233" viewBox="0 0 224 233" fill="none" xmlns="http://www.w3.org/2000/svg">
<g opacity="0.6" filter="url(#filter0_f_7_2)">
<circle r="50.5" transform="matrix(-1 0 0 1 116.5 116.5)" fill="#F7931A"/>
</g>
<g filter="url(#filter1_dd_7_2)">
<circle r="42.5" transform="matrix(-1 0 0 1 98.5 98.5)" stroke="#FFD7A7" stroke-width="3"/>
</g>
<g filter="url(#filter2_b_7_2)">
<circle cx="98.5" cy="97.5" r="34.5" fill="#F7931A"/>
</g>
<path fill-rule="evenodd" clip-rule="evenodd" d="M111.924 93.6784C112.528 89.5804 109.457 87.3775 105.257 85.908L106.62 80.357L103.293 79.515L101.967 84.9199C101.093 84.6983 100.195 84.4896 99.3025 84.2826L100.638 78.842L97.3143 78L95.9512 83.5493C95.2276 83.3819 94.517 83.2165 93.8274 83.0422L93.8313 83.0247L89.2446 81.8611L88.3598 85.4702C88.3598 85.4702 90.8275 86.0449 90.7755 86.0802C92.1223 86.4218 92.3659 87.3276 92.3254 88.0455L90.7737 94.3695C90.8664 94.3935 90.9867 94.4281 91.1195 94.4823L91.0228 94.4578C90.9408 94.4369 90.8555 94.4152 90.7679 94.3939L88.5928 103.253C88.4282 103.669 88.0104 104.293 87.0688 104.056C87.1021 104.105 84.6513 103.443 84.6513 103.443L83 107.311L87.3283 108.407C87.8022 108.528 88.2704 108.652 88.7339 108.774L88.7343 108.775L88.7344 108.775C89.0584 108.86 89.3801 108.946 89.6997 109.029L88.3233 114.643L91.6456 115.485L93.0086 109.93C93.9162 110.181 94.797 110.411 95.6592 110.629L94.3008 116.158L97.627 117L99.0032 111.396C104.675 112.486 108.94 112.047 110.735 106.835C112.181 102.639 110.663 100.218 107.679 98.64C109.852 98.1308 111.489 96.6786 111.925 93.6788L111.924 93.6781L111.924 93.6784ZM104.325 104.504C103.382 108.354 97.4505 106.763 94.7366 106.034C94.4925 105.969 94.2744 105.91 94.0883 105.864L95.9148 98.4249C96.1416 98.4825 96.4187 98.5456 96.7326 98.6172C99.5398 99.2572 105.291 100.569 104.325 104.504H104.325ZM97.2957 95.1648C99.5583 95.7783 104.494 97.1165 105.354 93.6176H105.354C106.232 90.0389 101.435 88.96 99.0922 88.4331C98.8287 88.3738 98.5962 88.3215 98.4063 88.2734L96.7504 95.0198C96.9067 95.0594 97.0902 95.1091 97.2957 95.1648Z" fill="white"/>
<defs>
<filter id="filter0_f_7_2" x="0.761238" y="0.761238" width="231.478" height="231.478" filterUnits="userSpaceOnUse" color-interpolation-filters="sRGB">
<feFlood flood-opacity="0" result="BackgroundImageFix"/>
<feBlend mode="normal" in="SourceGraphic" in2="BackgroundImageFix" result="shape"/>
<feGaussianBlur stdDeviation="32.6194" result="effect1_foregroundBlur_7_2"/>
</filter>
<filter id="filter1_dd_7_2" x="44.5" y="48.5" width="106" height="105" filterUnits="userSpaceOnUse" color-interpolation-filters="sRGB">
<feFlood flood-opacity="0" result="BackgroundImageFix"/>
<feColorMatrix in="SourceAlpha" type="matrix" values="0 0 0 0 0 0 0 0 0 0 0 0 0 0 0 0 0 0 127 0" result="hardAlpha"/>
<feOffset dx="-6" dy="7"/>
<feGaussianBlur stdDeviation="2"/>
<feColorMatrix type="matrix" values="0 0 0 0 0 0 0 0 0 0 0 0 0 0 0 0 0 0 0.495809 0"/>
<feBlend mode="normal" in2="BackgroundImageFix" result="effect1_dropShadow_7_2"/>
<feColorMatrix in="SourceAlpha" type="matrix" values="0 0 0 0 0 0 0 0 0 0 0 0 0 0 0 0 0 0 127 0" result="hardAlpha"/>
<feOffset dy="2"/>
<feGaussianBlur stdDeviation="4"/>
<feColorMatrix type="matrix" values="0 0 0 0 0.968627 0 0 0 0 0.576471 0 0 0 0 0.101961 0 0 0 1 0"/>
<feBlend mode="normal" in2="effect1_dropShadow_7_2" result="effect2_dropShadow_7_2"/>
<feBlend mode="normal" in="SourceGraphic" in2="effect2_dropShadow_7_2" result="shape"/>
</filter>
<filter id="filter2_b_7_2" x="36.8172" y="35.8172" width="123.366" height="123.366" filterUnits="userSpaceOnUse" color-interpolation-filters="sRGB">
<feFlood flood-opacity="0" result="BackgroundImageFix"/>
<feGaussianBlur in="BackgroundImage" stdDeviation="13.5914"/>
<feComposite in2="SourceAlpha" operator="in" result="effect1_backgroundBlur_7_2"/>
<feBlend mode="normal" in="SourceGraphic" in2="effect1_backgroundBlur_7_2" result="shape"/>
</filter>
</defs>
</svg>
