<svg width="233" height="233" viewBox="0 0 233 233" fill="none" xmlns="http://www.w3.org/2000/svg">
<g opacity="0.6" filter="url(#filter0_f_63_29)">
<circle r="50.5" transform="matrix(-1 0 0 1 116.5 116.5)" fill="#2C7DF7"/>
</g>
<g filter="url(#filter1_dd_63_29)">
<circle r="42.5" transform="matrix(-1 0 0 1 98.5 98.5)" stroke="#ACCDFF" stroke-width="3"/>
</g>
<g filter="url(#filter2_b_63_29)">
<circle cx="98.5" cy="98.5" r="34.5" fill="#2C7DF7"/>
</g>
<path d="M102.732 118C99.9144 118 97.8577 117.33 96.5621 115.989C95.3619 114.854 94.6654 113.296 94.6249 111.656C94.6103 111.157 94.7272 110.664 94.9642 110.223C95.1853 109.843 95.5046 109.527 95.8896 109.309C96.7968 108.862 97.8638 108.862 98.771 109.309C99.1553 109.527 99.4732 109.843 99.6912 110.223C99.935 110.662 100.056 111.156 100.043 111.656C100.068 112.252 99.8945 112.841 99.5491 113.331C99.2612 113.732 98.8498 114.029 98.3764 114.179C98.8393 114.761 99.4943 115.164 100.227 115.319C101.047 115.554 101.897 115.675 102.751 115.678C103.881 115.688 104.989 115.361 105.928 114.74C106.903 114.06 107.63 113.087 108.002 111.967C108.472 110.634 108.702 109.229 108.68 107.817C108.718 106.345 108.467 104.88 107.94 103.503C107.543 102.401 106.791 101.459 105.799 100.822C104.877 100.245 103.806 99.9427 102.714 99.9503C101.763 100.03 100.846 100.337 100.043 100.846L98.0616 101.827V100.846L106.965 89.0499H94.6249V101.291C94.59 102.174 94.8266 103.047 95.3036 103.795C95.773 104.458 96.5594 104.831 97.3767 104.776C98.1191 104.762 98.8371 104.512 99.4249 104.064C100.091 103.581 100.671 102.992 101.14 102.321C101.183 102.203 101.26 102.101 101.363 102.028C101.446 101.958 101.552 101.919 101.661 101.919C101.875 101.938 102.078 102.023 102.241 102.162C102.447 102.39 102.559 102.686 102.556 102.991C102.532 103.196 102.495 103.4 102.444 103.6C102.006 104.648 101.271 105.549 100.328 106.195C99.4519 106.781 98.4171 107.091 97.3593 107.086C94.6876 107.086 92.8367 106.566 91.8067 105.526C90.7371 104.365 90.1857 102.828 90.2765 101.26V89.0499H84V86.7755H90.3057V81.5897L88.862 80.1629V79H93.0513L94.6249 79.8045V86.7755L110.926 86.7265L112.549 88.3353L102.553 98.2552C103.157 98.0153 103.793 97.8634 104.441 97.8042C105.724 97.8597 106.975 98.2125 108.095 98.8342C109.39 99.4425 110.483 100.405 111.241 101.608C111.921 102.626 112.403 103.76 112.661 104.953C112.873 105.894 112.986 106.854 113 107.818C113.007 109.657 112.584 111.473 111.766 113.125C110.99 114.725 109.684 116.015 108.064 116.781C106.406 117.588 104.581 118.005 102.732 118V118Z" fill="white"/>
<defs>
<filter id="filter0_f_63_29" x="0.761238" y="0.761238" width="231.478" height="231.478" filterUnits="userSpaceOnUse" color-interpolation-filters="sRGB">
<feFlood flood-opacity="0" result="BackgroundImageFix"/>
<feBlend mode="normal" in="SourceGraphic" in2="BackgroundImageFix" result="shape"/>
<feGaussianBlur stdDeviation="32.6194" result="effect1_foregroundBlur_63_29"/>
</filter>
<filter id="filter1_dd_63_29" x="44.5" y="48.5" width="106" height="105" filterUnits="userSpaceOnUse" color-interpolation-filters="sRGB">
<feFlood flood-opacity="0" result="BackgroundImageFix"/>
<feColorMatrix in="SourceAlpha" type="matrix" values="0 0 0 0 0 0 0 0 0 0 0 0 0 0 0 0 0 0 127 0" result="hardAlpha"/>
<feOffset dx="-6" dy="7"/>
<feGaussianBlur stdDeviation="2"/>
<feColorMatrix type="matrix" values="0 0 0 0 0 0 0 0 0 0 0 0 0 0 0 0 0 0 0.495809 0"/>
<feBlend mode="normal" in2="BackgroundImageFix" result="effect1_dropShadow_63_29"/>
<feColorMatrix in="SourceAlpha" type="matrix" values="0 0 0 0 0 0 0 0 0 0 0 0 0 0 0 0 0 0 127 0" result="hardAlpha"/>
<feOffset dy="2"/>
<feGaussianBlur stdDeviation="4"/>
<feColorMatrix type="matrix" values="0 0 0 0 0.172549 0 0 0 0 0.490196 0 0 0 0 0.968627 0 0 0 1 0"/>
<feBlend mode="normal" in2="effect1_dropShadow_63_29" result="effect2_dropShadow_63_29"/>
<feBlend mode="normal" in="SourceGraphic" in2="effect2_dropShadow_63_29" result="shape"/>
</filter>
<filter id="filter2_b_63_29" x="36.8172" y="36.8172" width="123.366" height="123.366" filterUnits="userSpaceOnUse" color-interpolation-filters="sRGB">
<feFlood flood-opacity="0" result="BackgroundImageFix"/>
<feGaussianBlur in="BackgroundImage" stdDeviation="13.5914"/>
<feComposite in2="SourceAlpha" operator="in" result="effect1_backgroundBlur_63_29"/>
<feBlend mode="normal" in="SourceGraphic" in2="effect1_backgroundBlur_63_29" result="shape"/>
</filter>
</defs>
</svg>
