<svg width="460" height="307" viewBox="0 0 460 307" fill="none" xmlns="http://www.w3.org/2000/svg">
<g id="cm_scheme">
<g id="scheme">
<circle id="Oval" opacity="0.6" cx="330.5" cy="88.5" r="88.5" stroke="#5EAE45" stroke-dasharray="4.79"/>
<circle id="Oval_2" opacity="0.6" cx="241.5" cy="177.5" r="88.5" stroke="#E84142" stroke-dasharray="4.79"/>
<circle id="Oval_3" opacity="0.6" cx="129.5" cy="88.5" r="88.5" stroke="#1CCEFF" stroke-dasharray="4.79"/>
<g id="Group 4">
<ellipse id="Oval_4" cx="241.979" cy="88.7422" rx="63.4896" ry="63.5586" fill="url(#paint0_linear_0_999)"/>
<g id="logo">
<mask id="mask0_0_999" style="mask-type:alpha" maskUnits="userSpaceOnUse" x="213" y="55" width="58" height="69">
<rect id="Mask" x="213.12" y="55.9999" width="57.7178" height="67.4106" fill="white"/>
</mask>
<g mask="url(#mask0_0_999)">
<g id="Group">
<g id="CM">
<path id="Path" d="M220.597 98.1257C219.555 98.1257 218.625 97.7351 217.807 96.954C216.989 96.1729 216.58 95.2244 216.58 94.1085V63.0871C216.58 62.0084 216.989 61.0692 217.807 60.2695C218.625 59.4698 219.555 59.07 220.597 59.07H233.262C234.415 59.07 235.373 59.4698 236.135 60.2695C236.898 61.0692 237.279 62.0084 237.279 63.0871V70.3403L232.09 71.512V66.2674C232.09 65.7466 231.914 65.2817 231.56 64.8725C231.207 64.4634 230.733 64.2588 230.138 64.2588H223.777C223.256 64.2588 222.791 64.4634 222.382 64.8725C221.973 65.2817 221.768 65.7466 221.768 66.2674V90.9283C221.768 91.5234 221.973 92.0069 222.382 92.3789C222.791 92.7509 223.256 92.9368 223.777 92.9368H230.138C230.733 92.9368 231.207 92.7509 231.56 92.3789C231.914 92.0069 232.09 91.5234 232.09 90.9283V86.8553L237.279 85.6278V94.1085C237.279 95.2244 236.898 96.1729 236.135 96.954C235.373 97.7351 234.415 98.1257 233.262 98.1257H220.597Z" fill="white"/>
<path id="Path_2" d="M242.678 98.1257V59.07H247.866L255.622 82.8939L263.377 59.07H268.566V98.1257H263.377V74.9154L258.188 90.8167H253.055L247.866 74.9154V98.1257H242.678Z" fill="white"/>
</g>
<rect id="Rectangle" x="216.968" y="106.076" width="13.4675" height="13.4821" fill="#FFCF5E"/>
</g>
<rect id="Rectangle_2" x="236.208" y="106.076" width="13.4675" height="13.4821" fill="#FF7340"/>
<rect id="Rectangle_3" x="255.447" y="106.076" width="13.4675" height="13.4821" fill="#20C4FF"/>
</g>
</g>
</g>
<g id="Group 3">
<ellipse id="Oval_5" cx="418.672" cy="88.1426" rx="41.3281" ry="41.373" fill="#5EAE45"/>
<g id="Font_Awesome_5_brands_node">
<path id="Shape" fill-rule="evenodd" clip-rule="evenodd" d="M434.427 88.8722V72.1424C434.427 71.8864 434.284 71.6493 434.065 71.5355L430.58 69.6007C430.342 69.468 430.055 69.6387 430.055 69.9042V78.8191C430.055 78.9993 429.845 79.1226 429.683 79.0278L428.222 78.1932C428.003 78.0699 427.736 78.0699 427.516 78.1932L421.664 81.5505C421.445 81.6738 421.311 81.9109 421.311 82.1575V88.8722C421.311 89.1187 421.445 89.3558 421.664 89.4791L427.516 92.8365C427.736 92.9597 428.003 92.9597 428.222 92.8365L434.074 89.4791C434.294 89.3558 434.427 89.1187 434.427 88.8722ZM402.429 81.9773C402.429 81.7212 402.296 81.4936 402.076 81.3703L396.225 78.0225C396.129 77.9656 396.015 77.9371 395.9 77.9277H395.843C395.728 77.9277 395.623 77.9656 395.518 78.0225L389.676 81.3703C389.457 81.4936 389.323 81.7307 389.323 81.9773L389.332 90.9871C389.332 91.1104 389.399 91.2242 389.504 91.2906C389.609 91.357 389.743 91.357 389.857 91.2906L393.332 89.3084C393.552 89.1756 393.685 88.948 393.685 88.7014V84.4906C393.685 84.244 393.819 84.0069 394.039 83.8836L395.518 83.0395C395.633 82.9731 395.747 82.9447 395.871 82.9447C395.995 82.9447 396.12 82.9731 396.225 83.0395L397.704 83.8836C397.924 84.0069 398.057 84.244 398.057 84.4906V88.7014C398.057 88.948 398.191 89.1851 398.411 89.3084L401.885 91.2906C401.99 91.357 402.133 91.357 402.238 91.2906C402.343 91.2337 402.41 91.1104 402.41 90.9871L402.429 81.9773ZM418.934 106.579C419.116 106.674 419.316 106.73 419.517 106.73C419.727 106.73 419.927 106.674 420.089 106.569L425.607 103.402C425.97 103.202 426.189 102.814 426.189 102.406V96.08C426.189 95.6722 425.96 95.2928 425.607 95.0842L420.089 91.9165C419.746 91.7173 419.287 91.7173 418.934 91.9165L413.417 95.0842C413.054 95.2833 412.834 95.6722 412.834 96.08V102.406C412.834 102.814 413.064 103.193 413.417 103.402L414.868 104.227C415.565 104.568 415.822 104.568 416.137 104.568C417.178 104.568 417.77 103.952 417.77 102.861V96.6111C417.77 96.5162 417.693 96.4498 417.607 96.4498H416.911C416.815 96.4498 416.748 96.5257 416.748 96.6111V102.861C416.748 103.335 416.242 103.819 415.421 103.411L413.913 102.548C413.865 102.52 413.827 102.463 413.827 102.406V96.08C413.827 96.0231 413.856 95.9567 413.913 95.9282L419.431 92.7701C419.488 92.7416 419.555 92.7416 419.602 92.7701L425.12 95.9282C425.177 95.9567 425.206 96.0136 425.206 96.08V102.406C425.206 102.472 425.168 102.529 425.12 102.558L419.602 105.725C419.555 105.754 419.478 105.754 419.431 105.725L418.018 104.891C417.98 104.872 417.922 104.862 417.884 104.881C417.493 105.109 417.416 105.137 417.054 105.26C416.958 105.289 416.825 105.346 417.101 105.498L418.934 106.579ZM421.473 98.7639C423.173 98.9916 423.974 99.3045 423.974 100.49C423.974 101.685 422.972 102.368 421.206 102.368C418.791 102.368 418.285 101.268 418.285 100.348C418.285 100.253 418.361 100.187 418.447 100.187H419.163C419.249 100.187 419.316 100.243 419.326 100.319C419.431 101.04 419.755 101.4 421.216 101.4C422.38 101.4 422.877 101.144 422.877 100.528C422.877 100.177 422.734 99.921 420.929 99.7408C419.421 99.589 418.486 99.2666 418.486 98.0621C418.486 96.962 419.421 96.2981 420.996 96.2981C422.762 96.2981 423.631 96.9051 423.745 98.2139C423.755 98.2613 423.736 98.2992 423.707 98.3372C423.679 98.3656 423.64 98.3846 423.593 98.3846H422.877C422.8 98.3846 422.743 98.3372 422.724 98.2613C422.552 97.5026 422.132 97.256 420.996 97.256C419.727 97.256 419.583 97.6922 419.583 98.0242C419.583 98.4225 419.755 98.5363 421.473 98.7639ZM429.177 95.7385C429.177 96.3171 428.7 96.7913 428.117 96.7913C427.535 96.7913 427.058 96.3171 427.058 95.7385C427.058 95.1411 427.554 94.6858 428.117 94.6858C428.69 94.6763 429.177 95.1411 429.177 95.7385ZM428.108 94.8565C428.604 94.8565 429.005 95.2454 429.005 95.7385C429.005 96.2222 428.604 96.6206 428.108 96.63C427.621 96.63 427.22 96.2317 427.22 95.7385C427.22 95.2454 427.621 94.8565 428.108 94.8565ZM428.576 96.3266H428.327C428.318 96.2696 428.28 95.9662 428.28 95.9567C428.261 95.8903 428.242 95.8524 428.156 95.8524H427.946V96.3266H427.716V95.1411H428.127C428.27 95.1411 428.547 95.1411 428.547 95.454C428.547 95.6722 428.404 95.7196 428.318 95.748C428.471 95.757 428.488 95.8502 428.514 95.988L428.518 96.0136C428.528 96.1084 428.547 96.2696 428.576 96.3266ZM428.136 95.3307C428.194 95.3307 428.308 95.3307 428.308 95.492C428.308 95.5584 428.28 95.6627 428.127 95.6627H427.946V95.3307H428.136ZM430.036 84.3673C430.036 84.3009 429.998 84.244 429.95 84.2155L427.946 83.0585C427.888 83.03 427.821 83.03 427.764 83.0585L425.76 84.2155C425.702 84.244 425.674 84.3009 425.674 84.3673V86.6719C425.674 86.7383 425.712 86.7952 425.76 86.8236L427.764 87.9712C427.821 87.9996 427.888 87.9996 427.936 87.9712L429.941 86.8236C429.998 86.7952 430.027 86.7383 430.027 86.6719V84.3673H430.036ZM450.417 83.6939C450.417 83.9405 450.283 84.1776 450.063 84.3009L446.56 86.321C446.321 86.4537 446.026 86.283 446.026 86.0175V84.3673C446.026 84.244 445.949 84.1302 445.844 84.0638L444.011 83.0111C443.906 82.9447 443.763 82.9447 443.658 83.0111L441.825 84.0638C441.711 84.1302 441.644 84.244 441.644 84.3673V86.4727C441.644 86.596 441.711 86.7098 441.825 86.7762L447.715 90.1335C447.954 90.2663 447.954 90.6077 447.715 90.7405L444.202 92.6847C443.983 92.808 443.715 92.808 443.505 92.6847L437.692 89.3938C437.472 89.2705 437.339 89.0429 437.339 88.7868V82.0721C437.339 81.8256 437.472 81.5885 437.692 81.4652L443.544 78.1079C443.763 77.9846 444.03 77.9846 444.25 78.1079L450.063 81.4652C450.283 81.5885 450.417 81.8256 450.417 82.0721V83.6939ZM442.684 84.6328C442.646 84.6613 442.618 84.6992 442.618 84.7466V86.0364C442.618 86.0839 442.646 86.1313 442.684 86.1503L443.811 86.7952C443.849 86.8236 443.906 86.8236 443.945 86.7952L445.071 86.1503C445.109 86.1218 445.138 86.0839 445.138 86.0364V84.7466C445.138 84.6992 445.109 84.6518 445.071 84.6328L443.945 83.9879C443.906 83.9595 443.849 83.9595 443.811 83.9879L442.684 84.6328ZM418.419 82.0816V88.7583C418.419 88.8153 418.409 88.8722 418.4 88.9196C418.352 89.1093 418.228 89.2705 418.056 89.3653L412.233 92.7037C412.023 92.827 411.756 92.8365 411.527 92.7037L405.685 89.3653C405.484 89.2515 405.303 89.0239 405.303 88.7583V82.0816C405.303 81.8256 405.455 81.598 405.675 81.4747L411.508 78.1363C411.737 78.0035 412.013 78.0225 412.214 78.1363L418.046 81.4747C418.266 81.598 418.419 81.8351 418.419 82.0816ZM411.337 76.9191L411.25 76.9791H411.37L411.337 76.9191ZM418.569 89.1959L418.617 89.2798L418.569 89.3038V89.1959Z" fill="white"/>
</g>
</g>
<g id="Group 3_2">
<ellipse id="Oval_6" cx="242.578" cy="265.627" rx="41.3281" ry="41.373" fill="#E84142"/>
<g id="e53c658507c0bd04c385200bc5c1d770">
<path id="Path_3" d="M252.328 258.154L252.269 258.198C252.258 258.209 251.971 258.424 251.82 258.545L251.137 259.101L252.004 259.239C252.058 259.25 252.139 259.255 252.258 259.266C253.742 259.398 254.624 259.663 254.868 260.054C255.295 260.731 255.268 261.491 254.786 262.13C254.24 262.857 253.541 263.485 252.745 264.167C252.41 264.459 252.009 264.702 251.587 264.966C251.381 265.093 251.164 265.225 250.948 265.374L249.719 266.183L251.181 266.089C253.103 265.968 255.756 264.514 256.865 262.978C257.548 262.031 257.737 260.874 257.364 259.877C257.012 258.925 256.205 258.247 255.155 258.01L255.117 258.005C254.786 257.966 254.451 257.944 254.11 257.944C253.108 257.944 252.421 258.126 252.393 258.132L252.328 258.154Z" fill="white"/>
<path id="Path_4" d="M241.706 257.658C242.047 257.983 242.399 258.324 242.729 258.666L242.968 258.914L243.282 258.666C243.33 258.627 243.379 258.589 243.433 258.545L243.715 258.324L243.52 258.021C243.309 257.702 243.103 257.383 242.892 257.063C242.432 256.358 241.955 255.631 241.495 254.91C240.201 252.872 240.331 251.187 241.923 249.441C242.459 248.852 243.087 248.312 243.693 247.789C243.91 247.602 244.132 247.409 244.348 247.216C246.059 245.696 247.716 243.945 248.284 241.461C248.663 239.798 248.338 238.399 247.315 237.292L246.346 236.246L246.655 237.645C247.142 239.831 246.541 241.737 244.825 243.46C244.478 243.807 244.099 244.138 243.725 244.457C243.455 244.689 243.179 244.925 242.913 245.173C242.545 245.52 242.161 245.867 241.793 246.203C240.71 247.194 239.589 248.219 238.56 249.304C237.705 250.201 237.543 251.44 238.079 252.878C238.837 254.893 240.298 256.298 241.706 257.658Z" fill="white"/>
<path id="Path_5" d="M237.261 262.361H237.288C237.331 262.361 237.369 262.361 237.413 262.367L237.034 262.559C236.546 262.807 235.518 263.672 235.615 264.625C235.686 265.313 236.297 265.809 237.429 266.106C238.441 266.37 239.697 266.503 241.159 266.503C245.296 266.503 249.876 265.434 249.919 265.423L250.217 265.352V265.043C250.217 264.905 250.217 264.79 249.237 263.507L249.085 263.308L248.842 263.369C248.804 263.38 245.101 264.272 239.952 264.272C239.573 264.272 239.194 264.267 238.82 264.256C238.138 264.239 237.678 264.079 237.516 263.815C237.342 263.518 237.543 263.088 237.543 263.088L237.905 262.372C237.976 262.372 238.041 262.372 238.111 262.372C244.37 262.372 251.105 260.439 251.175 260.423L251.04 259.657C250.986 259.663 248.143 259.888 245.225 260.109C245.469 259.855 245.712 259.619 245.951 259.393C246.492 258.87 247.001 258.374 247.407 257.796C248.214 256.634 248.192 255.362 247.353 254.205C247.044 253.781 246.741 253.318 246.357 252.702C245.62 251.512 245.653 250.807 246.492 249.81C247.017 249.182 247.667 248.577 248.49 247.949C249.177 247.42 249.914 246.936 250.693 246.418C251.045 246.181 251.414 245.939 251.792 245.685L253.119 244.782L251.533 244.969C251.424 244.98 251.338 244.986 251.262 244.991C251.116 245.003 250.986 245.008 250.856 245.069C250.406 245.272 249.946 245.476 249.497 245.674C248.327 246.192 247.115 246.721 245.978 247.371C245.128 247.861 244.299 248.648 243.655 249.59C242.377 251.451 242.594 253.473 244.321 255.764C245.501 257.333 245.518 257.586 244.538 259.217C244.451 259.36 244.473 259.486 244.489 259.619C244.5 259.685 244.511 259.773 244.527 259.91L244.554 260.158C241.95 260.351 239.454 260.533 238.983 260.533H238.961C237.196 260.489 236.666 260.29 236.514 260.197C236.595 260.098 236.844 259.861 237.575 259.508C238.127 259.239 238.658 259.046 238.68 259.035L238.961 258.93L238.902 258.275H238.55C238.43 258.275 237.099 258.627 236.021 259.002C233.699 259.811 233.363 260.373 233.341 260.819C233.303 261.623 234.44 262.075 237.261 262.361Z" fill="white"/>
<path id="Path_6" d="M240.011 275.05C236.563 275.05 234.787 274.576 234.771 274.571L234.597 274.521C235.128 274.538 235.696 274.549 236.303 274.549C239.8 274.549 244.581 274.235 250.509 273.612H250.52C253.834 273.155 255.29 272.026 255.539 271.129C255.653 270.732 255.544 270.363 255.247 270.115L254.635 269.598L254.613 270.385C254.494 270.6 253.498 271.14 250.504 271.723C248.441 272.125 245.945 272.445 244.44 272.5C243.893 272.522 243.314 272.527 242.718 272.527C240.672 272.527 238.587 272.412 236.568 272.296C236.092 272.269 235.61 272.241 235.133 272.219H235.128C233.439 272.158 233.271 271.828 233.271 271.828C233.265 271.784 233.352 271.547 233.888 271.151C234.321 270.831 234.852 270.556 235.182 270.424L236.514 269.9L235.101 269.669C234.863 269.631 234.576 269.609 234.262 269.609C232.876 269.609 230.293 270.027 229.243 271.156C228.929 271.492 228.783 271.867 228.804 272.263C228.804 272.274 228.804 272.302 228.804 272.318C228.799 272.511 228.788 272.907 229.156 273.298C229.746 273.915 231.176 274.301 233.504 274.455L234.413 275.237C234.494 275.309 236.508 276.988 241.213 276.988C242.681 276.988 244.272 276.823 245.945 276.493C248.809 275.931 254.148 274.361 257.234 273.001L256.974 272.263C249.183 274.571 243.449 275.05 240.011 275.05Z" fill="white"/>
<path id="Path_7" d="M245.648 267.769C244.44 268.028 243.292 268.16 242.242 268.16C239.557 268.16 238.187 267.312 237.83 267.053L237.581 266.872L235.821 268.425L236.14 268.722C236.216 268.794 238.095 270.501 242.513 270.501C244.57 270.501 246.866 270.126 249.324 269.388L250.704 268.975L245.734 267.753L245.648 267.769Z" fill="white"/>
<path id="Shape_2" fill-rule="evenodd" clip-rule="evenodd" d="M230.304 289.187C230.618 289.572 230.867 289.881 231.132 290.211C233.157 289.192 233.747 288.283 233.764 286.108C233.78 283.886 233.778 281.66 233.776 279.436C233.775 278.695 233.774 277.955 233.774 277.214C233.774 277.087 233.765 276.96 233.755 276.832C233.751 276.765 233.746 276.698 233.742 276.63H231.993V277.517C231.992 278.184 231.989 278.85 231.986 279.516C231.978 281.513 231.97 283.509 231.999 285.508C232.02 287.028 231.89 288.432 230.304 289.187ZM252.128 280.551C253.52 280.491 253.904 280.953 253.796 282.336C253.462 282.415 253.133 282.485 252.81 282.554L252.81 282.554C252.061 282.713 251.34 282.866 250.656 283.123C249.605 283.514 249.14 284.709 249.394 285.882C249.616 286.918 250.379 287.567 251.576 287.468C252.159 287.423 252.73 287.245 253.297 287.069C253.556 286.988 253.814 286.908 254.072 286.841C254.154 287.5 254.535 287.434 254.941 287.364C255.122 287.332 255.307 287.3 255.474 287.331C255.474 286.703 255.479 286.082 255.483 285.466V285.466V285.466V285.465V285.465C255.493 284.043 255.503 282.645 255.458 281.251C255.425 280.237 254.787 279.621 253.807 279.384C252.404 279.042 251.089 279.389 249.73 279.89C249.78 280.1 249.826 280.298 249.87 280.485L249.87 280.486L249.87 280.488L249.87 280.489L249.871 280.491C249.903 280.627 249.933 280.757 249.963 280.882C250.211 280.843 250.451 280.798 250.686 280.754C251.18 280.662 251.652 280.574 252.128 280.551ZM253.155 283.68L253.155 283.68C253.371 283.653 253.595 283.626 253.828 283.591C253.828 283.993 253.828 284.192 253.823 284.39C253.834 285.618 253.617 285.899 252.469 286.185C251.782 286.35 251.219 286.048 251.024 285.392C250.84 284.775 251.17 284.065 251.798 283.905C252.231 283.795 252.674 283.74 253.155 283.68ZM240.953 287.32H239.773C239.751 287.258 239.728 287.195 239.705 287.131L239.705 287.13L239.705 287.13C239.656 286.994 239.605 286.851 239.546 286.697C239.517 286.701 239.488 286.702 239.461 286.702H239.461H239.461H239.461C239.412 286.703 239.368 286.704 239.34 286.725C238.642 287.248 237.884 287.545 237.001 287.501C235.891 287.446 235.193 286.967 234.917 286.031C234.608 284.963 234.944 283.768 235.891 283.283C236.449 282.995 237.08 282.85 237.709 282.706L237.709 282.706C237.898 282.663 238.087 282.62 238.274 282.572C238.502 282.514 238.744 282.508 238.984 282.502H238.984C239.085 282.499 239.186 282.496 239.286 282.49C239.465 281.036 239.031 280.513 237.683 280.54C237.315 280.546 236.947 280.606 236.584 280.673C236.335 280.719 236.091 280.783 235.847 280.848C235.741 280.877 235.635 280.905 235.529 280.931C235.144 279.913 235.123 279.813 236.075 279.61C237.045 279.4 238.068 279.279 239.048 279.351C240.266 279.439 240.861 280.045 240.937 281.273C241.017 282.541 241.014 283.816 241.011 285.091V285.091V285.091V285.091C241.01 285.627 241.008 286.162 241.013 286.697C241.013 286.831 240.997 286.961 240.979 287.098L240.979 287.098L240.979 287.098L240.979 287.098C240.97 287.169 240.961 287.242 240.953 287.32ZM238.641 283.689L238.641 283.689C238.854 283.664 239.069 283.639 239.286 283.608C239.513 285.546 239.41 285.811 237.851 286.207C237.223 286.361 236.709 286.003 236.552 285.398C236.373 284.731 236.666 284.065 237.304 283.905C237.734 283.796 238.181 283.743 238.641 283.689ZM241.896 279.488C241.933 279.468 241.959 279.453 241.977 279.441C242.005 279.425 242.018 279.417 242.031 279.417C243.703 279.362 243.704 279.367 244.155 280.969L244.169 281.019C244.457 282.031 244.764 283.039 245.071 284.047L245.071 284.047C245.197 284.461 245.323 284.874 245.447 285.288C245.48 285.293 245.513 285.298 245.547 285.304L245.547 285.304C245.581 285.31 245.615 285.315 245.648 285.321C246.119 283.371 246.59 281.421 247.071 279.439H248.777C248.652 279.918 248.534 280.39 248.416 280.857L248.416 280.857C248.156 281.893 247.902 282.901 247.607 283.9C247.448 284.442 247.244 284.97 247.039 285.498L247.039 285.498L247.039 285.498C246.883 285.903 246.726 286.308 246.59 286.719C246.416 287.248 246.108 287.441 245.593 287.358C245.523 287.347 245.442 287.342 245.371 287.358C244.538 287.534 244.159 287.165 243.931 286.339C243.478 284.675 242.973 283.022 242.464 281.357L242.464 281.357L242.464 281.357C242.274 280.736 242.084 280.114 241.896 279.488Z" fill="white"/>
</g>
</g>
<g id="Group 3_3">
<ellipse id="Oval_7" cx="41.3281" cy="88.1426" rx="41.3281" ry="41.373" fill="#1CCEFF"/>
<g id="React Logo">
<ellipse id="Oval_8" cx="41.3281" cy="88.1426" rx="3.90684" ry="3.91186" fill="white"/>
<g id="Group_2">
<ellipse id="Oval_9" cx="41.3282" cy="88.1426" rx="20.9635" ry="8.01454" stroke="white" stroke-width="1.91667"/>
<ellipse id="Oval_10" cx="41.3281" cy="88.1426" rx="20.9837" ry="8.00684" transform="rotate(60 41.3281 88.1426)" stroke="white" stroke-width="1.91667"/>
<ellipse id="Oval_11" cx="41.3282" cy="88.1426" rx="20.9837" ry="8.00684" transform="rotate(120 41.3282 88.1426)" stroke="white" stroke-width="1.91667"/>
</g>
</g>
</g>
</g>
</g>
<defs>
<linearGradient id="paint0_linear_0_999" x1="178.49" y1="25.1836" x2="178.49" y2="152.301" gradientUnits="userSpaceOnUse">
<stop stop-color="#601870"/>
<stop offset="1" stop-color="#130A36"/>
</linearGradient>
</defs>
</svg>
