<svg width="436" height="433" viewBox="0 0 436 433" fill="none" xmlns="http://www.w3.org/2000/svg">
<circle opacity="0.6" cx="214.5" cy="129.5" r="88.5" stroke="#1CCEFF" stroke-dasharray="4.79"/>
<circle opacity="0.6" cx="213.609" cy="302.333" r="88.5" transform="rotate(-0.0325346 213.609 302.333)" stroke="#5EAE45" stroke-dasharray="4.79"/>
<path d="M215.516 432.46C238.341 432.46 256.844 413.937 256.844 391.087C256.844 368.237 238.341 349.714 215.516 349.714C192.691 349.714 174.188 368.237 174.188 391.087C174.188 413.937 192.691 432.46 215.516 432.46Z" fill="#5EAE45"/>
<path d="M216.361 409.675C216.16 409.675 215.96 409.618 215.778 409.523L213.946 408.442C213.669 408.29 213.802 408.233 213.898 408.205C214.261 408.081 214.337 408.053 214.728 407.825C214.767 407.806 214.824 407.816 214.862 407.835L216.275 408.67C216.322 408.698 216.399 408.698 216.447 408.67L221.964 405.502C222.012 405.473 222.05 405.417 222.05 405.35V399.024C222.05 398.958 222.021 398.901 221.964 398.873L216.447 395.714C216.399 395.686 216.332 395.686 216.275 395.714L210.757 398.873C210.7 398.901 210.671 398.967 210.671 399.024V405.35C210.671 405.407 210.709 405.464 210.757 405.492L212.265 406.355C213.086 406.763 213.592 406.28 213.592 405.805V399.555C213.592 399.47 213.659 399.394 213.755 399.394H214.451C214.537 399.394 214.614 399.461 214.614 399.555V405.805C214.614 406.896 214.022 407.512 212.981 407.512C212.666 407.512 212.409 407.512 211.712 407.171L210.261 406.346C209.908 406.137 209.679 405.758 209.679 405.35V399.024C209.679 398.616 209.898 398.228 210.261 398.028L215.778 394.861C216.132 394.662 216.59 394.662 216.933 394.861L222.451 398.028C222.804 398.237 223.033 398.616 223.033 399.024V405.35C223.033 405.758 222.814 406.147 222.451 406.346L216.933 409.514C216.771 409.618 216.571 409.675 216.361 409.675ZM220.819 403.434C220.819 402.249 220.017 401.936 218.318 401.708C216.599 401.481 216.427 401.367 216.427 400.969C216.427 400.637 216.571 400.2 217.84 400.2C218.976 400.2 219.396 400.447 219.568 401.206C219.587 401.281 219.644 401.329 219.721 401.329H220.437C220.484 401.329 220.523 401.31 220.551 401.281C220.58 401.244 220.599 401.206 220.59 401.158C220.475 399.849 219.606 399.242 217.84 399.242C216.265 399.242 215.33 399.906 215.33 401.006C215.33 402.211 216.265 402.533 217.773 402.685C219.578 402.865 219.721 403.121 219.721 403.472C219.721 404.089 219.224 404.345 218.06 404.345C216.599 404.345 216.275 403.984 216.17 403.264C216.16 403.188 216.093 403.131 216.007 403.131H215.292C215.206 403.131 215.129 403.197 215.129 403.292C215.129 404.212 215.635 405.312 218.05 405.312C219.816 405.312 220.819 404.629 220.819 403.434ZM226.021 398.683C226.021 399.261 225.544 399.736 224.962 399.736C224.379 399.736 223.902 399.261 223.902 398.683C223.902 398.085 224.398 397.63 224.962 397.63C225.534 397.621 226.021 398.085 226.021 398.683ZM225.849 398.683C225.849 398.19 225.448 397.801 224.952 397.801C224.465 397.801 224.064 398.19 224.064 398.683C224.064 399.176 224.465 399.574 224.952 399.574C225.448 399.565 225.849 399.167 225.849 398.683ZM225.42 399.271H225.172C225.162 399.214 225.124 398.911 225.124 398.901C225.105 398.835 225.086 398.797 225 398.797H224.79V399.271H224.561V398.085H224.971C225.114 398.085 225.391 398.085 225.391 398.398C225.391 398.616 225.248 398.664 225.162 398.692C225.324 398.702 225.334 398.806 225.362 398.958C225.372 399.053 225.391 399.214 225.42 399.271ZM225.152 398.436C225.152 398.275 225.038 398.275 224.981 398.275H224.79V398.607H224.971C225.124 398.607 225.152 398.503 225.152 398.436ZM199.274 384.922C199.274 384.666 199.14 384.438 198.92 384.315L193.069 380.967C192.973 380.91 192.859 380.881 192.744 380.872H192.687C192.572 380.872 192.467 380.91 192.362 380.967L186.52 384.315C186.301 384.438 186.167 384.675 186.167 384.922L186.177 393.931C186.177 394.055 186.243 394.169 186.348 394.235C186.453 394.301 186.587 394.301 186.702 394.235L190.176 392.253C190.396 392.12 190.529 391.892 190.529 391.646V387.435C190.529 387.188 190.663 386.951 190.883 386.828L192.362 385.984C192.477 385.917 192.591 385.889 192.715 385.889C192.84 385.889 192.964 385.917 193.069 385.984L194.548 386.828C194.768 386.951 194.901 387.188 194.901 387.435V391.646C194.901 391.892 195.035 392.129 195.255 392.253L198.729 394.235C198.834 394.301 198.978 394.301 199.083 394.235C199.188 394.178 199.254 394.055 199.254 393.931L199.274 384.922ZM231.271 375.087V391.816C231.271 392.063 231.138 392.3 230.918 392.423L225.067 395.781C224.847 395.904 224.58 395.904 224.36 395.781L218.508 392.423C218.289 392.3 218.155 392.063 218.155 391.816V385.102C218.155 384.855 218.289 384.618 218.508 384.495L224.36 381.138C224.58 381.014 224.847 381.014 225.067 381.138L226.527 381.972C226.689 382.067 226.899 381.944 226.899 381.763V372.849C226.899 372.583 227.186 372.412 227.424 372.545L230.909 374.48C231.128 374.594 231.271 374.831 231.271 375.087ZM226.88 387.312C226.88 387.245 226.842 387.188 226.794 387.16L224.79 386.003C224.732 385.974 224.666 385.974 224.608 386.003L222.604 387.16C222.546 387.188 222.518 387.245 222.518 387.312V389.616C222.518 389.683 222.556 389.74 222.604 389.768L224.608 390.916C224.666 390.944 224.732 390.944 224.78 390.916L226.785 389.768C226.842 389.74 226.871 389.683 226.871 389.616V387.312H226.88ZM246.908 387.245C247.127 387.122 247.261 386.885 247.261 386.638V385.016C247.261 384.77 247.127 384.533 246.908 384.41L241.094 381.052C240.875 380.929 240.607 380.929 240.388 381.052L234.536 384.41C234.317 384.533 234.183 384.77 234.183 385.016V391.731C234.183 391.987 234.317 392.215 234.536 392.338L240.35 395.629C240.56 395.752 240.827 395.752 241.046 395.629L244.559 393.685C244.798 393.552 244.798 393.211 244.559 393.078L238.669 389.721C238.555 389.654 238.488 389.54 238.488 389.417V387.312C238.488 387.188 238.555 387.075 238.669 387.008L240.502 385.955C240.607 385.889 240.75 385.889 240.855 385.955L242.688 387.008C242.793 387.075 242.87 387.188 242.87 387.312V388.962C242.87 389.227 243.166 389.398 243.404 389.265L246.908 387.245ZM239.529 387.577C239.49 387.606 239.462 387.644 239.462 387.691V388.981C239.462 389.028 239.49 389.076 239.529 389.095L240.655 389.74C240.693 389.768 240.75 389.768 240.789 389.74L241.915 389.095C241.953 389.066 241.982 389.028 241.982 388.981V387.691C241.982 387.644 241.953 387.596 241.915 387.577L240.789 386.932C240.75 386.904 240.693 386.904 240.655 386.932L239.529 387.577ZM215.263 391.703V385.026C215.263 384.779 215.11 384.542 214.891 384.419L209.058 381.081C208.858 380.967 208.581 380.948 208.352 381.081L202.519 384.419C202.3 384.542 202.147 384.77 202.147 385.026V391.703C202.147 391.968 202.328 392.196 202.529 392.31L208.371 395.648C208.6 395.781 208.867 395.771 209.077 395.648L214.9 392.31C215.072 392.215 215.196 392.054 215.244 391.864C215.253 391.816 215.263 391.76 215.263 391.703ZM208.181 379.863L208.094 379.923H208.214L208.181 379.863ZM215.461 392.224L215.413 392.14V392.248L215.461 392.224Z" fill="white"/>
<circle opacity="0.6" cx="129.5" cy="214.5" r="88.5" stroke="#E84142" stroke-dasharray="4.79"/>
<path d="M41.3281 244.746C64.153 244.746 82.6562 226.223 82.6562 203.373C82.6562 180.523 64.153 162 41.3281 162C18.5032 162 0 180.523 0 203.373C0 226.223 18.5032 244.746 41.3281 244.746Z" fill="#E84142"/>
<path d="M51.0788 195.9L51.0193 195.944C51.0084 195.955 50.7215 196.17 50.5699 196.291L49.8877 196.847L50.754 196.985C50.8081 196.996 50.8893 197.001 51.0084 197.012C52.4919 197.144 53.3744 197.409 53.618 197.8C54.0458 198.477 54.0187 199.237 53.5368 199.876C52.99 200.603 52.2916 201.231 51.4957 201.914C51.16 202.205 50.7594 202.448 50.3371 202.712C50.1314 202.839 49.9148 202.971 49.6982 203.12L48.4692 203.929L49.931 203.836C51.853 203.714 54.506 202.26 55.6158 200.724C56.298 199.777 56.4875 198.62 56.1139 197.623C55.762 196.671 54.9553 195.993 53.905 195.757L53.8671 195.751C53.5368 195.712 53.2012 195.69 52.8601 195.69C51.8585 195.69 51.1709 195.872 51.1438 195.878L51.0788 195.9Z" fill="white"/>
<path d="M40.4563 195.404C40.7974 195.729 41.1493 196.07 41.4795 196.412L41.7178 196.66L42.0318 196.412C42.0805 196.373 42.1292 196.335 42.1834 196.291L42.4649 196.07L42.27 195.768C42.0589 195.448 41.8531 195.129 41.642 194.809C41.1818 194.104 40.7053 193.377 40.2451 192.656C38.9512 190.618 39.0811 188.933 40.6728 187.187C41.2088 186.598 41.8369 186.058 42.4433 185.535C42.6598 185.348 42.8818 185.155 43.0984 184.962C44.8092 183.443 46.4659 181.691 47.0344 179.207C47.4134 177.544 47.0885 176.145 46.0653 175.039L45.0962 173.992L45.4048 175.391C45.892 177.577 45.2911 179.483 43.5748 181.207C43.2283 181.554 42.8493 181.884 42.4757 182.203C42.205 182.435 41.9289 182.672 41.6636 182.919C41.2955 183.266 40.9111 183.613 40.5429 183.949C39.4601 184.94 38.3394 185.965 37.3107 187.05C36.4553 187.947 36.2928 189.186 36.8288 190.624C37.5868 192.639 39.0486 194.044 40.4563 195.404Z" fill="white"/>
<path d="M36.0111 200.107H36.0381C36.0814 200.107 36.1193 200.107 36.1626 200.113L35.7837 200.305C35.2964 200.553 34.2677 201.418 34.3652 202.371C34.4356 203.059 35.0473 203.555 36.1789 203.852C37.1913 204.116 38.4474 204.249 39.9092 204.249C44.0456 204.249 48.6259 203.18 48.6692 203.169L48.967 203.098V202.789C48.967 202.652 48.967 202.536 47.987 201.253L47.8354 201.054L47.5918 201.115C47.5539 201.126 43.8507 202.018 38.7019 202.018C38.3229 202.018 37.9439 202.013 37.5703 202.002C36.8881 201.985 36.4279 201.825 36.2655 201.561C36.0923 201.264 36.2926 200.834 36.2926 200.834L36.6553 200.118C36.7257 200.118 36.7907 200.118 36.8611 200.118C43.1198 200.118 49.8549 198.185 49.9253 198.169L49.7899 197.403C49.7358 197.409 46.8934 197.635 43.9752 197.855C44.2188 197.601 44.4625 197.365 44.7007 197.139C45.2421 196.616 45.751 196.12 46.1571 195.542C46.9638 194.38 46.9421 193.108 46.1029 191.951C45.7943 191.527 45.4911 191.064 45.1067 190.448C44.3704 189.258 44.4029 188.553 45.2421 187.556C45.7673 186.929 46.4169 186.323 47.2399 185.695C47.9275 185.166 48.6638 184.682 49.4434 184.164C49.7953 183.927 50.1635 183.685 50.5425 183.431L51.8689 182.528L50.2826 182.716C50.1743 182.727 50.0877 182.732 50.0119 182.738C49.8657 182.749 49.7358 182.754 49.6059 182.815C49.1565 183.018 48.6963 183.222 48.2469 183.42C47.0775 183.938 45.8647 184.467 44.7277 185.117C43.8777 185.607 43.0494 186.394 42.4051 187.336C41.1274 189.198 41.3439 191.219 43.071 193.51C44.2513 195.079 44.2676 195.333 43.2876 196.963C43.201 197.106 43.2226 197.232 43.2389 197.365C43.2497 197.431 43.2605 197.519 43.2768 197.657L43.3038 197.904C40.6997 198.097 38.2038 198.279 37.7327 198.279H37.7111C35.9461 198.235 35.4155 198.037 35.2639 197.943C35.3451 197.844 35.5942 197.607 36.3251 197.255C36.8773 196.985 37.4079 196.792 37.4295 196.781L37.7111 196.676L37.6515 196.021H37.2996C37.1805 196.021 35.8486 196.373 34.7712 196.748C32.4486 197.557 32.1129 198.119 32.0912 198.565C32.0533 199.369 33.1903 199.821 36.0111 200.107Z" fill="white"/>
<path d="M38.7615 212.796C35.3127 212.796 33.5369 212.322 33.5207 212.317L33.3474 212.267C33.878 212.284 34.4465 212.295 35.0529 212.295C38.5504 212.295 43.331 211.981 49.2595 211.358H49.2703C52.5837 210.901 54.0401 209.772 54.2892 208.875C54.4029 208.478 54.2946 208.109 53.9968 207.861L53.385 207.344L53.3633 208.131C53.2442 208.346 52.248 208.886 49.254 209.47C47.1913 209.872 44.6954 210.191 43.1903 210.246C42.6434 210.268 42.0641 210.274 41.4686 210.274C39.422 210.274 37.3376 210.158 35.3182 210.042C34.8417 210.015 34.3599 209.987 33.8834 209.965H33.878C32.1888 209.905 32.021 209.574 32.021 209.574C32.0156 209.53 32.1022 209.293 32.6382 208.897C33.0713 208.577 33.6019 208.302 33.9321 208.17L35.264 207.647L33.8509 207.415C33.6127 207.377 33.3258 207.355 33.0118 207.355C31.6257 207.355 29.0432 207.773 27.9929 208.902C27.6789 209.238 27.5327 209.613 27.5543 210.009C27.5543 210.02 27.5543 210.048 27.5543 210.064C27.5489 210.257 27.5381 210.654 27.9063 211.045C28.4964 211.661 29.9257 212.047 32.2538 212.201L33.1633 212.983C33.2446 213.055 35.2586 214.734 39.9635 214.734C41.4307 214.734 43.0224 214.569 44.6954 214.239C47.5594 213.677 52.8977 212.107 55.9838 210.747L55.7239 210.009C47.933 212.317 42.1995 212.796 38.7615 212.796Z" fill="white"/>
<path d="M44.3974 205.515C43.19 205.774 42.0423 205.906 40.9919 205.906C38.3065 205.906 36.9368 205.058 36.5794 204.799L36.3304 204.618L34.5708 206.171L34.8902 206.468C34.966 206.54 36.8447 208.247 41.2626 208.247C43.32 208.247 45.6156 207.872 48.0736 207.134L49.4542 206.721L44.484 205.499L44.3974 205.515Z" fill="white"/>
<path d="M52.546 220.082C52.6542 218.699 52.2698 218.237 50.8784 218.297C50.1746 218.33 49.4816 218.507 48.7128 218.628C48.6424 218.33 48.5666 218 48.48 217.636C49.8389 217.135 51.1545 216.788 52.5568 217.13C53.5367 217.367 54.1756 217.983 54.2081 218.997C54.2731 220.996 54.2243 223 54.2243 225.077C53.6829 224.978 52.9412 225.539 52.8221 224.587C51.9991 224.801 51.1762 225.148 50.3262 225.214C49.1297 225.313 48.3663 224.664 48.1443 223.628C47.8898 222.455 48.3555 221.26 49.4058 220.869C50.3857 220.5 51.4415 220.346 52.546 220.082ZM52.5785 221.337C51.8259 221.447 51.1762 221.491 50.5482 221.651C49.9201 221.811 49.5899 222.521 49.774 223.138C49.9689 223.793 50.5319 224.096 51.2195 223.931C52.3673 223.645 52.5839 223.364 52.573 222.136C52.5785 221.938 52.5785 221.739 52.5785 221.337ZM39.7037 225.066C39.2977 225.066 38.9295 225.066 38.5235 225.066C38.4531 224.873 38.3827 224.669 38.2961 224.443C38.2149 224.454 38.1336 224.438 38.0903 224.471C37.3919 224.994 36.6339 225.291 35.7514 225.247C34.6415 225.192 33.9431 224.713 33.667 223.777C33.3584 222.709 33.6941 221.514 34.6415 221.029C35.367 220.654 36.217 220.522 37.0238 220.318C37.3486 220.236 37.7005 220.258 38.0362 220.236C38.2149 218.782 37.7817 218.259 36.4336 218.286C36.0655 218.292 35.6973 218.352 35.3346 218.418C34.9772 218.485 34.6307 218.589 34.2788 218.677C33.8944 217.659 33.8727 217.559 34.8256 217.356C35.7948 217.146 36.818 217.025 37.798 217.097C39.0161 217.185 39.6117 217.791 39.6875 219.019C39.8012 220.82 39.747 222.631 39.7633 224.443C39.7633 224.647 39.7254 224.84 39.7037 225.066ZM38.0362 221.354C37.3486 221.453 36.6827 221.491 36.0546 221.651C35.4158 221.811 35.1234 222.477 35.3021 223.144C35.4591 223.749 35.9734 224.107 36.6015 223.953C38.1607 223.557 38.2636 223.292 38.0362 221.354ZM40.6458 217.234C40.7378 217.185 40.7595 217.163 40.7811 217.163C42.4703 217.108 42.4541 217.113 42.9197 218.765C43.3258 220.192 43.7697 221.613 44.1974 223.034C44.2624 223.045 44.3328 223.056 44.3978 223.067C44.8688 221.117 45.3398 219.167 45.8217 217.185C46.2927 217.185 46.8233 217.185 47.5271 217.185C47.1265 218.727 46.7854 220.197 46.3577 221.646C46.0761 222.604 45.6538 223.518 45.3398 224.465C45.1666 224.994 44.858 225.187 44.3436 225.104C44.2732 225.093 44.192 225.088 44.1216 225.104C43.2879 225.28 42.9089 224.911 42.6815 224.085C42.0589 221.8 41.3388 219.536 40.6458 217.234ZM29.8826 227.957C29.6173 227.626 29.3682 227.318 29.0542 226.933C30.6405 226.178 30.7705 224.774 30.7488 223.254C30.7109 220.588 30.738 217.928 30.7434 215.263C30.7434 214.988 30.7434 214.718 30.7434 214.376C31.3498 214.376 31.8966 214.376 32.4922 214.376C32.503 214.574 32.5246 214.767 32.5246 214.96C32.5246 217.923 32.5355 220.891 32.5138 223.854C32.4976 226.029 31.9074 226.938 29.8826 227.957Z" fill="white"/>
<circle opacity="0.6" r="88.5" transform="matrix(-1 0 0 1 306.5 214.5)" stroke="#E84142" stroke-dasharray="4.79"/>
<path d="M394.672 244.746C371.847 244.746 353.344 226.223 353.344 203.373C353.344 180.523 371.847 162 394.672 162C417.497 162 436 180.523 436 203.373C436 226.223 417.497 244.746 394.672 244.746Z" fill="#E84142"/>
<path d="M384.921 195.9L384.981 195.944C384.992 195.955 385.278 196.17 385.43 196.291L386.112 196.847L385.246 196.985C385.192 196.996 385.111 197.001 384.992 197.012C383.508 197.144 382.626 197.409 382.382 197.8C381.954 198.477 381.981 199.237 382.463 199.876C383.01 200.603 383.708 201.231 384.504 201.914C384.84 202.205 385.241 202.448 385.663 202.712C385.869 202.839 386.085 202.971 386.302 203.12L387.531 203.929L386.069 203.836C384.147 203.714 381.494 202.26 380.384 200.724C379.702 199.777 379.512 198.62 379.886 197.623C380.238 196.671 381.045 195.993 382.095 195.757L382.133 195.751C382.463 195.712 382.799 195.69 383.14 195.69C384.142 195.69 384.829 195.872 384.856 195.878L384.921 195.9Z" fill="white"/>
<path d="M395.544 195.404C395.203 195.729 394.851 196.07 394.52 196.412L394.282 196.66L393.968 196.412C393.919 196.373 393.871 196.335 393.817 196.291L393.535 196.07L393.73 195.768C393.941 195.448 394.147 195.129 394.358 194.809C394.818 194.104 395.295 193.377 395.755 192.656C397.049 190.618 396.919 188.933 395.327 187.187C394.791 186.598 394.163 186.058 393.557 185.535C393.34 185.348 393.118 185.155 392.902 184.962C391.191 183.443 389.534 181.691 388.966 179.207C388.587 177.544 388.911 176.145 389.935 175.039L390.904 173.992L390.595 175.391C390.108 177.577 390.709 179.483 392.425 181.207C392.772 181.554 393.151 181.884 393.524 182.203C393.795 182.435 394.071 182.672 394.336 182.919C394.705 183.266 395.089 183.613 395.457 183.949C396.54 184.94 397.661 185.965 398.689 187.05C399.545 187.947 399.707 189.186 399.171 190.624C398.413 192.639 396.951 194.044 395.544 195.404Z" fill="white"/>
<path d="M399.989 200.107H399.962C399.919 200.107 399.881 200.107 399.837 200.113L400.216 200.305C400.704 200.553 401.732 201.418 401.635 202.371C401.564 203.059 400.953 203.555 399.821 203.852C398.809 204.116 397.553 204.249 396.091 204.249C391.954 204.249 387.374 203.18 387.331 203.169L387.033 203.098V202.789C387.033 202.652 387.033 202.536 388.013 201.253L388.165 201.054L388.408 201.115C388.446 201.126 392.149 202.018 397.298 202.018C397.677 202.018 398.056 202.013 398.43 202.002C399.112 201.985 399.572 201.825 399.734 201.561C399.908 201.264 399.707 200.834 399.707 200.834L399.345 200.118C399.274 200.118 399.209 200.118 399.139 200.118C392.88 200.118 386.145 198.185 386.075 198.169L386.21 197.403C386.264 197.409 389.107 197.635 392.025 197.855C391.781 197.601 391.538 197.365 391.299 197.139C390.758 196.616 390.249 196.12 389.843 195.542C389.036 194.38 389.058 193.108 389.897 191.951C390.206 191.527 390.509 191.064 390.893 190.448C391.63 189.258 391.597 188.553 390.758 187.556C390.233 186.929 389.583 186.323 388.76 185.695C388.073 185.166 387.336 184.682 386.557 184.164C386.205 183.927 385.836 183.685 385.458 183.431L384.131 182.528L385.717 182.716C385.826 182.727 385.912 182.732 385.988 182.738C386.134 182.749 386.264 182.754 386.394 182.815C386.844 183.018 387.304 183.222 387.753 183.42C388.923 183.938 390.135 184.467 391.272 185.117C392.122 185.607 392.951 186.394 393.595 187.336C394.873 189.198 394.656 191.219 392.929 193.51C391.749 195.079 391.732 195.333 392.712 196.963C392.799 197.106 392.777 197.232 392.761 197.365C392.75 197.431 392.739 197.519 392.723 197.657L392.696 197.904C395.3 198.097 397.796 198.279 398.267 198.279H398.289C400.054 198.235 400.584 198.037 400.736 197.943C400.655 197.844 400.406 197.607 399.675 197.255C399.123 196.985 398.592 196.792 398.57 196.781L398.289 196.676L398.348 196.021H398.7C398.82 196.021 400.151 196.373 401.229 196.748C403.551 197.557 403.887 198.119 403.909 198.565C403.947 199.369 402.81 199.821 399.989 200.107Z" fill="white"/>
<path d="M397.238 212.796C400.687 212.796 402.463 212.322 402.479 212.317L402.653 212.267C402.122 212.284 401.554 212.295 400.947 212.295C397.45 212.295 392.669 211.981 386.741 211.358H386.73C383.416 210.901 381.96 209.772 381.711 208.875C381.597 208.478 381.705 208.109 382.003 207.861L382.615 207.344L382.637 208.131C382.756 208.346 383.752 208.886 386.746 209.47C388.809 209.872 391.305 210.191 392.81 210.246C393.357 210.268 393.936 210.274 394.531 210.274C396.578 210.274 398.662 210.158 400.682 210.042C401.158 210.015 401.64 209.987 402.117 209.965H402.122C403.811 209.905 403.979 209.574 403.979 209.574C403.984 209.53 403.898 209.293 403.362 208.897C402.929 208.577 402.398 208.302 402.068 208.17L400.736 207.647L402.149 207.415C402.387 207.377 402.674 207.355 402.988 207.355C404.374 207.355 406.957 207.773 408.007 208.902C408.321 209.238 408.467 209.613 408.446 210.009C408.446 210.02 408.446 210.048 408.446 210.064C408.451 210.257 408.462 210.654 408.094 211.045C407.504 211.661 406.074 212.047 403.746 212.201L402.837 212.983C402.755 213.055 400.741 214.734 396.037 214.734C394.569 214.734 392.978 214.569 391.305 214.239C388.441 213.677 383.102 212.107 380.016 210.747L380.276 210.009C388.067 212.317 393.801 212.796 397.238 212.796Z" fill="white"/>
<path d="M391.603 205.515C392.81 205.774 393.958 205.906 395.008 205.906C397.693 205.906 399.063 205.058 399.421 204.799L399.67 204.618L401.429 206.171L401.11 206.468C401.034 206.54 399.155 208.247 394.737 208.247C392.68 208.247 390.384 207.872 387.926 207.134L386.546 206.721L391.516 205.499L391.603 205.515Z" fill="white"/>
<path d="M383.454 220.082C383.346 218.699 383.73 218.237 385.122 218.297C385.825 218.33 386.518 218.507 387.287 218.628C387.358 218.33 387.433 218 387.52 217.636C386.161 217.135 384.845 216.788 383.443 217.13C382.463 217.367 381.824 217.983 381.792 218.997C381.727 220.996 381.776 223 381.776 225.077C382.317 224.978 383.059 225.539 383.178 224.587C384.001 224.801 384.824 225.148 385.674 225.214C386.87 225.313 387.634 224.664 387.856 223.628C388.11 222.455 387.645 221.26 386.594 220.869C385.614 220.5 384.559 220.346 383.454 220.082ZM383.422 221.337C384.174 221.447 384.824 221.491 385.452 221.651C386.08 221.811 386.41 222.521 386.226 223.138C386.031 223.793 385.468 224.096 384.78 223.931C383.633 223.645 383.416 223.364 383.427 222.136C383.422 221.938 383.422 221.739 383.422 221.337ZM396.296 225.066C396.702 225.066 397.07 225.066 397.477 225.066C397.547 224.873 397.617 224.669 397.704 224.443C397.785 224.454 397.866 224.438 397.91 224.471C398.608 224.994 399.366 225.291 400.249 225.247C401.358 225.192 402.057 224.713 402.333 223.777C402.642 222.709 402.306 221.514 401.358 221.029C400.633 220.654 399.783 220.522 398.976 220.318C398.651 220.236 398.299 220.258 397.964 220.236C397.785 218.782 398.218 218.259 399.566 218.286C399.935 218.292 400.303 218.352 400.665 218.418C401.023 218.485 401.369 218.589 401.721 218.677C402.106 217.659 402.127 217.559 401.174 217.356C400.205 217.146 399.182 217.025 398.202 217.097C396.984 217.185 396.388 217.791 396.313 219.019C396.199 220.82 396.253 222.631 396.237 224.443C396.237 224.647 396.275 224.84 396.296 225.066ZM397.964 221.354C398.651 221.453 399.317 221.491 399.945 221.651C400.584 221.811 400.877 222.477 400.698 223.144C400.541 223.749 400.027 224.107 399.399 223.953C397.839 223.557 397.736 223.292 397.964 221.354ZM395.354 217.234C395.262 217.185 395.241 217.163 395.219 217.163C393.53 217.108 393.546 217.113 393.08 218.765C392.674 220.192 392.23 221.613 391.803 223.034C391.738 223.045 391.667 223.056 391.602 223.067C391.131 221.117 390.66 219.167 390.178 217.185C389.707 217.185 389.177 217.185 388.473 217.185C388.874 218.727 389.215 220.197 389.642 221.646C389.924 222.604 390.346 223.518 390.66 224.465C390.833 224.994 391.142 225.187 391.656 225.104C391.727 225.093 391.808 225.088 391.878 225.104C392.712 225.28 393.091 224.911 393.319 224.085C393.941 221.8 394.661 219.536 395.354 217.234ZM406.117 227.957C406.383 227.626 406.632 227.318 406.946 226.933C405.359 226.178 405.23 224.774 405.251 223.254C405.289 220.588 405.262 217.928 405.257 215.263C405.257 214.988 405.257 214.718 405.257 214.376C404.65 214.376 404.103 214.376 403.508 214.376C403.497 214.574 403.475 214.767 403.475 214.96C403.475 217.923 403.465 220.891 403.486 223.854C403.502 226.029 404.093 226.938 406.117 227.957Z" fill="white"/>
<ellipse cx="214.328" cy="41.373" rx="41.3281" ry="41.373" fill="#1CCEFF"/>
<ellipse cx="214.328" cy="41.373" rx="3.90684" ry="3.91186" fill="white"/>
<ellipse cx="214.328" cy="41.3732" rx="20.9635" ry="8.01454" stroke="white" stroke-width="1.91667"/>
<ellipse cx="214.328" cy="41.3731" rx="20.9837" ry="8.00684" transform="rotate(60 214.328 41.3731)" stroke="white" stroke-width="1.91667"/>
<ellipse cx="214.328" cy="41.3731" rx="20.9837" ry="8.00684" transform="rotate(120 214.328 41.3731)" stroke="white" stroke-width="1.91667"/>
</svg>
