<svg width="40" height="33" viewBox="0 0 40 33" fill="none" xmlns="http://www.w3.org/2000/svg">
<g id="brackets_yellow">
<rect id="Rectangle" width="40" height="33" rx="10" fill="url(#paint0_linear_0_1130)"/>
<g id="{/}">
<path id="Path" d="M14.5799 23.5399C14.0293 23.5399 13.5556 23.4489 13.1589 23.2669C12.7623 23.0849 12.4613 22.8189 12.2559 22.4689C12.0506 22.1189 11.9619 21.7012 11.9899 21.2159L12.1299 18.9199C12.1579 18.4252 12.0833 18.0682 11.9059 17.8489C11.7286 17.6295 11.3366 17.5199 10.7299 17.5199H9.18994V16.3999H10.7299C11.3366 16.3999 11.7286 16.2902 11.9059 16.0709C12.0833 15.8515 12.1579 15.4945 12.1299 14.9999L11.9899 12.7039C11.9619 12.2092 12.0506 11.7892 12.2559 11.4439C12.4613 11.0985 12.7623 10.8349 13.1589 10.6529C13.5556 10.4709 14.0293 10.3799 14.5799 10.3799H15.2099V11.4999H14.5799C14.1413 11.4999 13.8053 11.6002 13.5719 11.8009C13.3386 12.0015 13.2313 12.3025 13.2499 12.7039L13.3899 14.9999C13.4273 15.6065 13.2826 16.0895 12.9559 16.4489C12.6293 16.8082 12.1673 16.9879 11.5699 16.9879V16.9179C12.1579 16.9179 12.6176 17.0999 12.9489 17.4639C13.2803 17.8279 13.4273 18.3132 13.3899 18.9199L13.2499 21.2159C13.2313 21.6172 13.3386 21.9182 13.5719 22.1189C13.8053 22.3195 14.1413 22.4199 14.5799 22.4199H15.2099V23.5399H14.5799Z" fill="white"/>
<path id="Path_2" d="M16.95 23.5399L21.92 10.3799H23.25L18.28 23.5399H16.95Z" fill="white"/>
<path id="Path_3" d="M24.99 23.5399V22.4199H25.62C26.0587 22.4199 26.3947 22.3195 26.628 22.1189C26.8613 21.9182 26.9687 21.6172 26.95 21.2159L26.81 18.9199C26.7727 18.3132 26.9197 17.8279 27.251 17.4639C27.5823 17.0999 28.042 16.9179 28.63 16.9179V16.9879C28.0327 16.9879 27.5707 16.8082 27.244 16.4489C26.9173 16.0895 26.7727 15.6065 26.81 14.9999L26.95 12.7039C26.9687 12.3025 26.8613 12.0015 26.628 11.8009C26.3947 11.6002 26.0587 11.4999 25.62 11.4999H24.99V10.3799H25.62C26.1707 10.3799 26.6443 10.4709 27.041 10.6529C27.4377 10.8349 27.7387 11.0985 27.944 11.4439C28.1493 11.7892 28.238 12.2092 28.21 12.7039L28.07 14.9999C28.042 15.4945 28.1167 15.8515 28.294 16.0709C28.4713 16.2902 28.8633 16.3999 29.47 16.3999H31.01V17.5199H29.47C28.8727 17.5199 28.483 17.6295 28.301 17.8489C28.119 18.0682 28.042 18.4252 28.07 18.9199L28.21 21.2159C28.238 21.7012 28.1493 22.1189 27.944 22.4689C27.7387 22.8189 27.4377 23.0849 27.041 23.2669C26.6443 23.4489 26.1707 23.5399 25.62 23.5399H24.99Z" fill="white"/>
</g>
</g>
<defs>
<linearGradient id="paint0_linear_0_1130" x1="-7.04476" y1="0" x2="-7.04476" y2="44.6238" gradientUnits="userSpaceOnUse">
<stop stop-color="#FFCF5E"/>
<stop offset="1" stop-color="#FFB55E"/>
</linearGradient>
</defs>
</svg>
