<svg width="48" height="40" viewBox="0 0 48 40" fill="none" xmlns="http://www.w3.org/2000/svg">
<g id="brackets_blue">
<rect id="Rectangle" width="48" height="40" rx="12" fill="url(#paint0_linear_0_1124)"/>
<g id="{/}">
<path id="Path" d="M18.12 28.1682C17.4907 28.1682 16.9494 28.0642 16.496 27.8562C16.0427 27.6482 15.6987 27.3442 15.464 26.9442C15.2294 26.5442 15.128 26.0668 15.16 25.5122L15.32 22.8882C15.352 22.3228 15.2667 21.9148 15.064 21.6642C14.8614 21.4135 14.4134 21.2882 13.72 21.2882H11.96V20.0082H13.72C14.4134 20.0082 14.8614 19.8828 15.064 19.6322C15.2667 19.3815 15.352 18.9735 15.32 18.4082L15.16 15.7842C15.128 15.2188 15.2294 14.7388 15.464 14.3442C15.6987 13.9495 16.0427 13.6482 16.496 13.4402C16.9494 13.2322 17.4907 13.1282 18.12 13.1282H18.84V14.4082H18.12C17.6187 14.4082 17.2347 14.5228 16.968 14.7522C16.7014 14.9815 16.5787 15.3255 16.6 15.7842L16.76 18.4082C16.8027 19.1015 16.6374 19.6535 16.264 20.0642C15.8907 20.4748 15.3627 20.6802 14.68 20.6802V20.6002C15.352 20.6002 15.8774 20.8082 16.256 21.2242C16.6347 21.6402 16.8027 22.1948 16.76 22.8882L16.6 25.5122C16.5787 25.9708 16.7014 26.3148 16.968 26.5442C17.2347 26.7735 17.6187 26.8882 18.12 26.8882H18.84V28.1682H18.12Z" fill="white"/>
<path id="Path_2" d="M20.9 28.1682L26.58 13.1282H28.1L22.42 28.1682H20.9Z" fill="white"/>
<path id="Path_3" d="M30.16 28.1682V26.8882H30.88C31.3814 26.8882 31.7654 26.7735 32.032 26.5442C32.2987 26.3148 32.4214 25.9708 32.4 25.5122L32.24 22.8882C32.1974 22.1948 32.3654 21.6402 32.744 21.2242C33.1227 20.8082 33.648 20.6002 34.32 20.6002V20.6802C33.6374 20.6802 33.1094 20.4748 32.736 20.0642C32.3627 19.6535 32.1974 19.1015 32.24 18.4082L32.4 15.7842C32.4214 15.3255 32.2987 14.9815 32.032 14.7522C31.7654 14.5228 31.3814 14.4082 30.88 14.4082H30.16V13.1282H30.88C31.5094 13.1282 32.0507 13.2322 32.504 13.4402C32.9574 13.6482 33.3014 13.9495 33.536 14.3442C33.7707 14.7388 33.872 15.2188 33.84 15.7842L33.68 18.4082C33.648 18.9735 33.7334 19.3815 33.936 19.6322C34.1387 19.8828 34.5867 20.0082 35.28 20.0082H37.04V21.2882H35.28C34.5974 21.2882 34.152 21.4135 33.944 21.6642C33.736 21.9148 33.648 22.3228 33.68 22.8882L33.84 25.5122C33.872 26.0668 33.7707 26.5442 33.536 26.9442C33.3014 27.3442 32.9574 27.6482 32.504 27.8562C32.0507 28.0642 31.5094 28.1682 30.88 28.1682H30.16Z" fill="white"/>
</g>
</g>
<defs>
<linearGradient id="paint0_linear_0_1124" x1="0" y1="0" x2="0" y2="40" gradientUnits="userSpaceOnUse">
<stop stop-color="#009FFA"/>
<stop offset="1" stop-color="#0066F3"/>
</linearGradient>
</defs>
</svg>
