<svg width="400" height="220" viewBox="0 0 400 220" fill="none" xmlns="http://www.w3.org/2000/svg">
<g id="sql">
<path id="300k" d="M28.468 35.12C27.94 35.12 27.476 35.016 27.076 34.808C26.684 34.592 26.38 34.296 26.164 33.92C25.948 33.544 25.84 33.104 25.84 32.6H26.92C26.92 33.088 27.056 33.472 27.328 33.752C27.608 34.024 27.992 34.16 28.48 34.16C28.976 34.16 29.36 34.016 29.632 33.728C29.904 33.44 30.04 33.064 30.04 32.6V31.976C30.04 31.48 29.904 31.096 29.632 30.824C29.36 30.552 28.976 30.416 28.48 30.416H27.58V29.336L29.752 27.224H26.2V26.24H30.844V27.32L28.504 29.588V29.456C29.304 29.456 29.94 29.684 30.412 30.14C30.884 30.596 31.12 31.208 31.12 31.976V32.6C31.12 33.104 31.008 33.544 30.784 33.92C30.568 34.296 30.26 34.592 29.86 34.808C29.46 35.016 28.996 35.12 28.468 35.12ZM35.7953 35.12C35.2593 35.12 34.7913 35.016 34.3913 34.808C33.9993 34.592 33.6953 34.292 33.4793 33.908C33.2633 33.516 33.1553 33.06 33.1553 32.54V28.7C33.1553 28.172 33.2633 27.716 33.4793 27.332C33.6953 26.948 33.9993 26.652 34.3913 26.444C34.7913 26.228 35.2593 26.12 35.7953 26.12C36.3393 26.12 36.8073 26.228 37.1993 26.444C37.5913 26.652 37.8953 26.948 38.1113 27.332C38.3273 27.716 38.4353 28.172 38.4353 28.7V32.54C38.4353 33.06 38.3273 33.516 38.1113 33.908C37.8953 34.292 37.5873 34.592 37.1873 34.808C36.7953 35.016 36.3313 35.12 35.7953 35.12ZM35.7953 34.196C36.2753 34.196 36.6593 34.044 36.9473 33.74C37.2433 33.428 37.3913 33.028 37.3913 32.54V28.7C37.3913 28.212 37.2433 27.816 36.9473 27.512C36.6593 27.2 36.2753 27.044 35.7953 27.044C35.3153 27.044 34.9273 27.2 34.6313 27.512C34.3433 27.816 34.1993 28.212 34.1993 28.7V32.54C34.1993 33.028 34.3433 33.428 34.6313 33.74C34.9273 34.044 35.3153 34.196 35.7953 34.196ZM35.7953 31.328C35.5793 31.328 35.4033 31.26 35.2673 31.124C35.1393 30.988 35.0753 30.808 35.0753 30.584C35.0753 30.368 35.1393 30.196 35.2673 30.068C35.4033 29.932 35.5793 29.864 35.7953 29.864C36.0113 29.864 36.1833 29.932 36.3113 30.068C36.4473 30.196 36.5153 30.368 36.5153 30.584C36.5153 30.808 36.4473 30.988 36.3113 31.124C36.1833 31.26 36.0113 31.328 35.7953 31.328ZM42.9906 35.12C42.4546 35.12 41.9866 35.016 41.5866 34.808C41.1946 34.592 40.8906 34.292 40.6746 33.908C40.4586 33.516 40.3506 33.06 40.3506 32.54V28.7C40.3506 28.172 40.4586 27.716 40.6746 27.332C40.8906 26.948 41.1946 26.652 41.5866 26.444C41.9866 26.228 42.4546 26.12 42.9906 26.12C43.5346 26.12 44.0026 26.228 44.3946 26.444C44.7866 26.652 45.0906 26.948 45.3066 27.332C45.5226 27.716 45.6306 28.172 45.6306 28.7V32.54C45.6306 33.06 45.5226 33.516 45.3066 33.908C45.0906 34.292 44.7826 34.592 44.3826 34.808C43.9906 35.016 43.5266 35.12 42.9906 35.12ZM42.9906 34.196C43.4706 34.196 43.8546 34.044 44.1426 33.74C44.4386 33.428 44.5866 33.028 44.5866 32.54V28.7C44.5866 28.212 44.4386 27.816 44.1426 27.512C43.8546 27.2 43.4706 27.044 42.9906 27.044C42.5106 27.044 42.1226 27.2 41.8266 27.512C41.5386 27.816 41.3946 28.212 41.3946 28.7V32.54C41.3946 33.028 41.5386 33.428 41.8266 33.74C42.1226 34.044 42.5106 34.196 42.9906 34.196ZM42.9906 31.328C42.7746 31.328 42.5986 31.26 42.4626 31.124C42.3346 30.988 42.2706 30.808 42.2706 30.584C42.2706 30.368 42.3346 30.196 42.4626 30.068C42.5986 29.932 42.7746 29.864 42.9906 29.864C43.2066 29.864 43.3786 29.932 43.5066 30.068C43.6426 30.196 43.7106 30.368 43.7106 30.584C43.7106 30.808 43.6426 30.988 43.5066 31.124C43.3786 31.26 43.2066 31.328 42.9906 31.328ZM47.6899 35V26.24H48.7699V29.996H50.0659L52.0099 26.24H53.1859L51.0139 30.452L53.3059 35H52.0699L50.0299 30.944H48.7699V35H47.6899Z" fill="#FFCB5E"/>
<path id="Rectangle" d="M63 130.368L64.6553 111.28L66.1447 126.064L68.5867 120.188L70.8627 124.514L74.1571 115.097L77.0701 84.0469L79.1392 93.7184L81.4153 91.1733L83.8982 94.2274L85.3466 64.9585L86.5881 86.8466L87.8296 84.0469L88.6572 88.3736L89.8987 116.625L91.1402 113.825L91.7609 107.462L93.2093 110.007L95.4853 102.881L97.5545 105.681L99.2098 102.881L100.865 91.1733L102.934 110.516L105.003 112.807L105.624 100.845L109.607 111.342L110.944 107.462L114.728 150.984L118.867 141.058L122.384 138.258L125.714 110.351L129.005 114.079L131.488 120.188L133.764 118.152L137.282 121.46L139.765 119.679L143.282 121.46L145.765 136.986L148.455 129.859L150.528 135.204L152.385 132.913L155.171 122.733L156.797 127.823L158.654 120.188L160.511 113.825L161.036 89.6937L162.833 100.845L163.762 97.0271L164.923 86.5921L167.012 73.8664L170.263 80.7383L174.13 54.0767L175.835 59.1047L177.46 64.9585L178.853 61.9043L183.496 47.6516L188.604 39.2527L190.355 25L192.107 29.173L193.858 44.2758L195.61 39.1552L197.361 52.748L199.98 50.7058L200.864 60.8202L202.615 53.4374L204.391 47.6516L206.118 74.2627L207.858 66.7003L209.621 72.5747L211.357 72.5939L213.214 66.7401L214.839 61.9043L216.697 79.4657L218.378 95.3393L220.179 92.9549L221.804 97.7906L223.662 95.7545L225.384 115.097L227.144 111.28L228.887 123.177L230.627 120.188L232.389 131.895L234.141 127.981L235.967 105.681L237.644 120.266L239.395 118.008L241.074 126.042L242.898 115.097L244.557 116.879L246.401 115.097L248.039 110.262L249.904 121.21L251.754 117.388L253.406 130.065L255.237 130.114L256.909 137.831L258.719 132.913L260.412 143.074L262.202 157.092L263.915 151.947L265.684 143.094L267.418 158.926L269.271 153.361L271.024 157.092L272.649 157.347L274.423 164.309L276.132 166L277.926 157.414L279.615 158.874L281.429 150.685L283.181 147.166L284.954 138.767L286.683 151.701L288.437 149.711L290.186 157.127L291.92 153.274L293.689 161.419L295.402 164.218L297.259 147.166L298.932 148.211L300.742 135.204L302.446 125.117L304.225 127.823L305.949 117.433L307.707 107.971L309.452 110.442L311.203 107.462L313.047 130.368L314.706 111.727L316.53 105.681L318.209 115.097L320.012 111.789L321.712 115.097L323.495 85.574L325.215 108.031L326.977 94.7365L328.717 97.8534L330.46 100.845L332.317 102.626L333.972 86.7144L335.723 84.0469L337.425 76.6661L339.226 90.1678L340.907 98.2996L342.729 95.7967L344.39 123.242L346.232 100.845H347.873L349.73 102.881L351.486 95.2752L353.212 89.6462L354.989 94.2274H356.74L358.487 91.1717L360.178 100.845L361.994 106.996L363.66 105.681L365.497 112.584L367.143 107.971L369 115.097" stroke="#FFCB5E" stroke-linecap="round" stroke-linejoin="round"/>
<g id="Group 5" clip-path="url(#clip0_0_1174)">
<rect id="Rectangle_2" x="180" y="61" width="80" height="30" rx="5" fill="white"/>
<path id="284,63k" d="M192.748 83V81.252L196.985 76.749C197.707 75.9763 198.233 75.2923 198.562 74.697C198.891 74.089 199.056 73.5063 199.056 72.949C199.056 72.1763 198.841 71.5683 198.41 71.125C197.992 70.6817 197.416 70.46 196.681 70.46C195.87 70.46 195.231 70.688 194.762 71.144C194.306 71.6 194.078 72.227 194.078 73.025H192.368C192.393 72.189 192.583 71.467 192.938 70.859C193.305 70.2383 193.806 69.7633 194.439 69.434C195.085 69.1047 195.832 68.94 196.681 68.94C197.517 68.94 198.239 69.1047 198.847 69.434C199.468 69.7507 199.943 70.2067 200.272 70.802C200.601 71.3973 200.766 72.1067 200.766 72.93C200.766 73.7153 200.557 74.4943 200.139 75.267C199.721 76.0397 199.037 76.92 198.087 77.908L194.667 81.442H200.994V83H192.748ZM208.093 83.19C207.244 83.19 206.503 83.0443 205.87 82.753C205.249 82.449 204.768 82.0183 204.426 81.461C204.084 80.9037 203.913 80.2513 203.913 79.504C203.913 78.6807 204.134 77.9713 204.578 77.376C205.034 76.7807 205.749 76.2487 206.725 75.78L208.568 74.887C209.125 74.621 209.556 74.2727 209.86 73.842C210.164 73.4113 210.316 72.9363 210.316 72.417C210.316 71.809 210.113 71.3277 209.708 70.973C209.315 70.6183 208.777 70.441 208.093 70.441C207.409 70.441 206.864 70.6247 206.459 70.992C206.066 71.3467 205.87 71.828 205.87 72.436C205.87 72.9427 206.015 73.4113 206.307 73.842C206.611 74.2727 207.022 74.6147 207.542 74.868L209.385 75.742C210.398 76.2107 211.133 76.749 211.589 77.357C212.045 77.9523 212.273 78.668 212.273 79.504C212.273 80.6313 211.893 81.5307 211.133 82.202C210.385 82.8607 209.372 83.19 208.093 83.19ZM208.093 81.67C208.865 81.67 209.473 81.4737 209.917 81.081C210.373 80.6757 210.601 80.1373 210.601 79.466C210.601 78.9213 210.455 78.4273 210.164 77.984C209.872 77.5407 209.454 77.186 208.91 76.92L207.086 76.027C206.072 75.533 205.338 75.001 204.882 74.431C204.426 73.861 204.198 73.177 204.198 72.379C204.198 71.6697 204.356 71.0553 204.673 70.536C204.989 70.0167 205.439 69.6177 206.022 69.339C206.604 69.0603 207.295 68.921 208.093 68.921C208.891 68.921 209.581 69.0603 210.164 69.339C210.746 69.6177 211.196 70.0167 211.513 70.536C211.829 71.0553 211.988 71.6697 211.988 72.379C211.988 73.177 211.76 73.861 211.304 74.431C210.848 74.9883 210.094 75.5267 209.043 76.046L207.219 76.939C206.699 77.1923 206.294 77.5407 206.003 77.984C205.724 78.4147 205.585 78.896 205.585 79.428C205.585 80.112 205.806 80.6567 206.25 81.062C206.706 81.4673 207.32 81.67 208.093 81.67ZM221.575 83V79.96H215.305V77.281L220.796 69.13H222.658L217.015 77.642V78.402H221.575V75.02H223.285V83H221.575ZM228.313 86.04L229.833 80.131H232.303L229.833 86.04H228.313ZM242.289 83.19C241.403 83.19 240.624 83.0063 239.952 82.639C239.294 82.259 238.781 81.7333 238.413 81.062C238.046 80.3907 237.862 79.6117 237.862 78.725C237.862 78.0283 237.957 77.3443 238.147 76.673C238.35 76.0017 238.648 75.3557 239.04 74.735L242.517 69.13H244.417L240.484 75.438L240.56 75.495C240.801 75.1403 241.13 74.868 241.548 74.678C241.966 74.488 242.435 74.393 242.954 74.393C243.714 74.393 244.373 74.5703 244.93 74.925C245.488 75.2797 245.918 75.78 246.222 76.426C246.526 77.072 246.678 77.8383 246.678 78.725C246.678 79.6117 246.495 80.3907 246.127 81.062C245.76 81.7333 245.247 82.259 244.588 82.639C243.942 83.0063 243.176 83.19 242.289 83.19ZM242.27 81.67C243.081 81.67 243.733 81.404 244.227 80.872C244.721 80.3273 244.968 79.6117 244.968 78.725C244.968 77.8383 244.721 77.129 244.227 76.597C243.733 76.0523 243.081 75.78 242.27 75.78C241.46 75.78 240.807 76.0523 240.313 76.597C239.819 77.129 239.572 77.8383 239.572 78.725C239.572 79.6117 239.819 80.3273 240.313 80.872C240.807 81.404 241.46 81.67 242.27 81.67ZM253.454 83.19C252.618 83.19 251.883 83.0253 251.25 82.696C250.629 82.354 250.148 81.8853 249.806 81.29C249.464 80.6947 249.293 79.998 249.293 79.2H251.003C251.003 79.9727 251.218 80.5807 251.649 81.024C252.092 81.4547 252.7 81.67 253.473 81.67C254.258 81.67 254.866 81.442 255.297 80.986C255.728 80.53 255.943 79.9347 255.943 79.2V78.212C255.943 77.4267 255.728 76.8187 255.297 76.388C254.866 75.9573 254.258 75.742 253.473 75.742H252.048V74.032L255.487 70.688H249.863V69.13H257.216V70.84L253.511 74.431V74.222C254.778 74.222 255.785 74.583 256.532 75.305C257.279 76.027 257.653 76.996 257.653 78.212V79.2C257.653 79.998 257.476 80.6947 257.121 81.29C256.779 81.8853 256.291 82.354 255.658 82.696C255.025 83.0253 254.29 83.19 253.454 83.19ZM261.103 83V69.13H262.813V75.077H264.865L267.943 69.13H269.805L266.366 75.799L269.995 83H268.038L264.808 76.578H262.813V83H261.103Z" fill="#230F49"/>
</g>
<path id="250k" d="M26.104 82V80.896L28.78 78.052C29.236 77.564 29.568 77.132 29.776 76.756C29.984 76.372 30.088 76.004 30.088 75.652C30.088 75.164 29.952 74.78 29.68 74.5C29.416 74.22 29.052 74.08 28.588 74.08C28.076 74.08 27.672 74.224 27.376 74.512C27.088 74.8 26.944 75.196 26.944 75.7H25.864C25.88 75.172 26 74.716 26.224 74.332C26.456 73.94 26.772 73.64 27.172 73.432C27.58 73.224 28.052 73.12 28.588 73.12C29.116 73.12 29.572 73.224 29.956 73.432C30.348 73.632 30.648 73.92 30.856 74.296C31.064 74.672 31.168 75.12 31.168 75.64C31.168 76.136 31.036 76.628 30.772 77.116C30.508 77.604 30.076 78.16 29.476 78.784L27.316 81.016H31.312V82H26.104ZM35.7713 82.12C35.0593 82.12 34.4753 81.936 34.0193 81.568C33.5633 81.2 33.2953 80.704 33.2153 80.08H34.2953C34.3353 80.424 34.4833 80.692 34.7393 80.884C34.9953 81.068 35.3433 81.16 35.7833 81.16C36.2873 81.16 36.6633 81.024 36.9113 80.752C37.1673 80.48 37.2953 80.096 37.2953 79.6V78.748C37.2953 78.252 37.1673 77.868 36.9113 77.596C36.6633 77.324 36.2913 77.188 35.7953 77.188C35.4833 77.188 35.2113 77.272 34.9793 77.44C34.7473 77.6 34.5793 77.816 34.4753 78.088H33.3953L33.4553 73.24H38.0633V74.224H34.4993L34.4633 77.14H34.7993L34.4633 77.452C34.4633 77.076 34.6113 76.78 34.9073 76.564C35.2113 76.348 35.6153 76.24 36.1193 76.24C36.8313 76.232 37.3833 76.452 37.7753 76.9C38.1753 77.34 38.3753 77.956 38.3753 78.748V79.6C38.3753 80.376 38.1473 80.992 37.6913 81.448C37.2353 81.896 36.5953 82.12 35.7713 82.12ZM42.9906 82.12C42.4546 82.12 41.9866 82.016 41.5866 81.808C41.1946 81.592 40.8906 81.292 40.6746 80.908C40.4586 80.516 40.3506 80.06 40.3506 79.54V75.7C40.3506 75.172 40.4586 74.716 40.6746 74.332C40.8906 73.948 41.1946 73.652 41.5866 73.444C41.9866 73.228 42.4546 73.12 42.9906 73.12C43.5346 73.12 44.0026 73.228 44.3946 73.444C44.7866 73.652 45.0906 73.948 45.3066 74.332C45.5226 74.716 45.6306 75.172 45.6306 75.7V79.54C45.6306 80.06 45.5226 80.516 45.3066 80.908C45.0906 81.292 44.7826 81.592 44.3826 81.808C43.9906 82.016 43.5266 82.12 42.9906 82.12ZM42.9906 81.196C43.4706 81.196 43.8546 81.044 44.1426 80.74C44.4386 80.428 44.5866 80.028 44.5866 79.54V75.7C44.5866 75.212 44.4386 74.816 44.1426 74.512C43.8546 74.2 43.4706 74.044 42.9906 74.044C42.5106 74.044 42.1226 74.2 41.8266 74.512C41.5386 74.816 41.3946 75.212 41.3946 75.7V79.54C41.3946 80.028 41.5386 80.428 41.8266 80.74C42.1226 81.044 42.5106 81.196 42.9906 81.196ZM42.9906 78.328C42.7746 78.328 42.5986 78.26 42.4626 78.124C42.3346 77.988 42.2706 77.808 42.2706 77.584C42.2706 77.368 42.3346 77.196 42.4626 77.068C42.5986 76.932 42.7746 76.864 42.9906 76.864C43.2066 76.864 43.3786 76.932 43.5066 77.068C43.6426 77.196 43.7106 77.368 43.7106 77.584C43.7106 77.808 43.6426 77.988 43.5066 78.124C43.3786 78.26 43.2066 78.328 42.9906 78.328ZM47.6899 82V73.24H48.7699V76.996H50.0659L52.0099 73.24H53.1859L51.0139 77.452L53.3059 82H52.0699L50.0299 77.944H48.7699V82H47.6899Z" fill="#FFCB5E"/>
<path id="Line" opacity="0.2" d="M59.5 30.5H368.5" stroke="white" stroke-linecap="square"/>
<path id="Line_2" opacity="0.2" d="M59.5 77.5H368.5" stroke="white" stroke-linecap="square"/>
<path id="Line_3" opacity="0.2" d="M59.5 124.5H368.5" stroke="white" stroke-linecap="square"/>
<path id="Line_4" opacity="0.2" d="M59.5 171.5H368.5" stroke="white" stroke-linecap="square"/>
<path id="200k" d="M26.104 129V127.896L28.78 125.052C29.236 124.564 29.568 124.132 29.776 123.756C29.984 123.372 30.088 123.004 30.088 122.652C30.088 122.164 29.952 121.78 29.68 121.5C29.416 121.22 29.052 121.08 28.588 121.08C28.076 121.08 27.672 121.224 27.376 121.512C27.088 121.8 26.944 122.196 26.944 122.7H25.864C25.88 122.172 26 121.716 26.224 121.332C26.456 120.94 26.772 120.64 27.172 120.432C27.58 120.224 28.052 120.12 28.588 120.12C29.116 120.12 29.572 120.224 29.956 120.432C30.348 120.632 30.648 120.92 30.856 121.296C31.064 121.672 31.168 122.12 31.168 122.64C31.168 123.136 31.036 123.628 30.772 124.116C30.508 124.604 30.076 125.16 29.476 125.784L27.316 128.016H31.312V129H26.104ZM35.7953 129.12C35.2593 129.12 34.7913 129.016 34.3913 128.808C33.9993 128.592 33.6953 128.292 33.4793 127.908C33.2633 127.516 33.1553 127.06 33.1553 126.54V122.7C33.1553 122.172 33.2633 121.716 33.4793 121.332C33.6953 120.948 33.9993 120.652 34.3913 120.444C34.7913 120.228 35.2593 120.12 35.7953 120.12C36.3393 120.12 36.8073 120.228 37.1993 120.444C37.5913 120.652 37.8953 120.948 38.1113 121.332C38.3273 121.716 38.4353 122.172 38.4353 122.7V126.54C38.4353 127.06 38.3273 127.516 38.1113 127.908C37.8953 128.292 37.5873 128.592 37.1873 128.808C36.7953 129.016 36.3313 129.12 35.7953 129.12ZM35.7953 128.196C36.2753 128.196 36.6593 128.044 36.9473 127.74C37.2433 127.428 37.3913 127.028 37.3913 126.54V122.7C37.3913 122.212 37.2433 121.816 36.9473 121.512C36.6593 121.2 36.2753 121.044 35.7953 121.044C35.3153 121.044 34.9273 121.2 34.6313 121.512C34.3433 121.816 34.1993 122.212 34.1993 122.7V126.54C34.1993 127.028 34.3433 127.428 34.6313 127.74C34.9273 128.044 35.3153 128.196 35.7953 128.196ZM35.7953 125.328C35.5793 125.328 35.4033 125.26 35.2673 125.124C35.1393 124.988 35.0753 124.808 35.0753 124.584C35.0753 124.368 35.1393 124.196 35.2673 124.068C35.4033 123.932 35.5793 123.864 35.7953 123.864C36.0113 123.864 36.1833 123.932 36.3113 124.068C36.4473 124.196 36.5153 124.368 36.5153 124.584C36.5153 124.808 36.4473 124.988 36.3113 125.124C36.1833 125.26 36.0113 125.328 35.7953 125.328ZM42.9906 129.12C42.4546 129.12 41.9866 129.016 41.5866 128.808C41.1946 128.592 40.8906 128.292 40.6746 127.908C40.4586 127.516 40.3506 127.06 40.3506 126.54V122.7C40.3506 122.172 40.4586 121.716 40.6746 121.332C40.8906 120.948 41.1946 120.652 41.5866 120.444C41.9866 120.228 42.4546 120.12 42.9906 120.12C43.5346 120.12 44.0026 120.228 44.3946 120.444C44.7866 120.652 45.0906 120.948 45.3066 121.332C45.5226 121.716 45.6306 122.172 45.6306 122.7V126.54C45.6306 127.06 45.5226 127.516 45.3066 127.908C45.0906 128.292 44.7826 128.592 44.3826 128.808C43.9906 129.016 43.5266 129.12 42.9906 129.12ZM42.9906 128.196C43.4706 128.196 43.8546 128.044 44.1426 127.74C44.4386 127.428 44.5866 127.028 44.5866 126.54V122.7C44.5866 122.212 44.4386 121.816 44.1426 121.512C43.8546 121.2 43.4706 121.044 42.9906 121.044C42.5106 121.044 42.1226 121.2 41.8266 121.512C41.5386 121.816 41.3946 122.212 41.3946 122.7V126.54C41.3946 127.028 41.5386 127.428 41.8266 127.74C42.1226 128.044 42.5106 128.196 42.9906 128.196ZM42.9906 125.328C42.7746 125.328 42.5986 125.26 42.4626 125.124C42.3346 124.988 42.2706 124.808 42.2706 124.584C42.2706 124.368 42.3346 124.196 42.4626 124.068C42.5986 123.932 42.7746 123.864 42.9906 123.864C43.2066 123.864 43.3786 123.932 43.5066 124.068C43.6426 124.196 43.7106 124.368 43.7106 124.584C43.7106 124.808 43.6426 124.988 43.5066 125.124C43.3786 125.26 43.2066 125.328 42.9906 125.328ZM47.6899 129V120.24H48.7699V123.996H50.0659L52.0099 120.24H53.1859L51.0139 124.452L53.3059 129H52.0699L50.0299 124.944H48.7699V129H47.6899Z" fill="#FFCB5E"/>
<path id="150k" d="M26.08 176V175.016H28.456V168.14L26.08 169.916V168.716L28.06 167.24H29.536V175.016H31.48V176H26.08ZM35.7713 176.12C35.0593 176.12 34.4753 175.936 34.0193 175.568C33.5633 175.2 33.2953 174.704 33.2153 174.08H34.2953C34.3353 174.424 34.4833 174.692 34.7393 174.884C34.9953 175.068 35.3433 175.16 35.7833 175.16C36.2873 175.16 36.6633 175.024 36.9113 174.752C37.1673 174.48 37.2953 174.096 37.2953 173.6V172.748C37.2953 172.252 37.1673 171.868 36.9113 171.596C36.6633 171.324 36.2913 171.188 35.7953 171.188C35.4833 171.188 35.2113 171.272 34.9793 171.44C34.7473 171.6 34.5793 171.816 34.4753 172.088H33.3953L33.4553 167.24H38.0633V168.224H34.4993L34.4633 171.14H34.7993L34.4633 171.452C34.4633 171.076 34.6113 170.78 34.9073 170.564C35.2113 170.348 35.6153 170.24 36.1193 170.24C36.8313 170.232 37.3833 170.452 37.7753 170.9C38.1753 171.34 38.3753 171.956 38.3753 172.748V173.6C38.3753 174.376 38.1473 174.992 37.6913 175.448C37.2353 175.896 36.5953 176.12 35.7713 176.12ZM42.9906 176.12C42.4546 176.12 41.9866 176.016 41.5866 175.808C41.1946 175.592 40.8906 175.292 40.6746 174.908C40.4586 174.516 40.3506 174.06 40.3506 173.54V169.7C40.3506 169.172 40.4586 168.716 40.6746 168.332C40.8906 167.948 41.1946 167.652 41.5866 167.444C41.9866 167.228 42.4546 167.12 42.9906 167.12C43.5346 167.12 44.0026 167.228 44.3946 167.444C44.7866 167.652 45.0906 167.948 45.3066 168.332C45.5226 168.716 45.6306 169.172 45.6306 169.7V173.54C45.6306 174.06 45.5226 174.516 45.3066 174.908C45.0906 175.292 44.7826 175.592 44.3826 175.808C43.9906 176.016 43.5266 176.12 42.9906 176.12ZM42.9906 175.196C43.4706 175.196 43.8546 175.044 44.1426 174.74C44.4386 174.428 44.5866 174.028 44.5866 173.54V169.7C44.5866 169.212 44.4386 168.816 44.1426 168.512C43.8546 168.2 43.4706 168.044 42.9906 168.044C42.5106 168.044 42.1226 168.2 41.8266 168.512C41.5386 168.816 41.3946 169.212 41.3946 169.7V173.54C41.3946 174.028 41.5386 174.428 41.8266 174.74C42.1226 175.044 42.5106 175.196 42.9906 175.196ZM42.9906 172.328C42.7746 172.328 42.5986 172.26 42.4626 172.124C42.3346 171.988 42.2706 171.808 42.2706 171.584C42.2706 171.368 42.3346 171.196 42.4626 171.068C42.5986 170.932 42.7746 170.864 42.9906 170.864C43.2066 170.864 43.3786 170.932 43.5066 171.068C43.6426 171.196 43.7106 171.368 43.7106 171.584C43.7106 171.808 43.6426 171.988 43.5066 172.124C43.3786 172.26 43.2066 172.328 42.9906 172.328ZM47.6899 176V167.24H48.7699V170.996H50.0659L52.0099 167.24H53.1859L51.0139 171.452L53.3059 176H52.0699L50.0299 171.944H48.7699V176H47.6899Z" fill="#FFCB5E"/>
<path id="July" opacity="0.5" d="M55.7 197.1C55 197.1 54.45 196.903 54.05 196.51C53.65 196.117 53.45 195.58 53.45 194.9H54.35C54.35 195.347 54.4667 195.693 54.7 195.94C54.94 196.18 55.2733 196.3 55.7 196.3C56.1267 196.3 56.4567 196.18 56.69 195.94C56.93 195.693 57.05 195.347 57.05 194.9V190.52H55.3V189.7H57.95V194.9C57.95 195.58 57.7467 196.117 57.34 196.51C56.94 196.903 56.3933 197.1 55.7 197.1ZM61.9961 197.1C61.3161 197.1 60.7961 196.913 60.4361 196.54C60.0761 196.16 59.8961 195.647 59.8961 195V189.7H60.7961V195C60.7961 195.4 60.8928 195.717 61.0861 195.95C61.2861 196.183 61.5894 196.3 61.9961 196.3C62.3961 196.3 62.6961 196.183 62.8961 195.95C63.0961 195.717 63.1961 195.4 63.1961 195V189.7H64.0961V195C64.0961 195.653 63.9161 196.167 63.5561 196.54C63.2028 196.913 62.6828 197.1 61.9961 197.1ZM66.1422 197V189.7H67.0422V196.18H70.3422V197H66.1422ZM73.5383 197V194.27L71.3383 189.7H72.2683L73.7183 192.7C73.7983 192.867 73.8616 193.01 73.9083 193.13C73.9549 193.243 73.9849 193.327 73.9983 193.38C74.0116 193.327 74.0416 193.243 74.0883 193.13C74.1416 193.01 74.2083 192.867 74.2883 192.7L75.7083 189.7H76.6383L74.4383 194.27V197H73.5383Z" fill="white"/>
<path id="October" opacity="0.5" d="M146 197.1C145.56 197.1 145.18 197.017 144.86 196.85C144.547 196.683 144.303 196.443 144.13 196.13C143.963 195.81 143.88 195.433 143.88 195V191.7C143.88 191.26 143.963 190.883 144.13 190.57C144.303 190.257 144.547 190.017 144.86 189.85C145.18 189.683 145.56 189.6 146 189.6C146.44 189.6 146.817 189.683 147.13 189.85C147.45 190.017 147.693 190.257 147.86 190.57C148.033 190.883 148.12 191.257 148.12 191.69V195C148.12 195.433 148.033 195.81 147.86 196.13C147.693 196.443 147.45 196.683 147.13 196.85C146.817 197.017 146.44 197.1 146 197.1ZM146 196.29C146.393 196.29 146.693 196.18 146.9 195.96C147.113 195.733 147.22 195.413 147.22 195V191.7C147.22 191.287 147.113 190.97 146.9 190.75C146.693 190.523 146.393 190.41 146 190.41C145.613 190.41 145.313 190.523 145.1 190.75C144.887 190.97 144.78 191.287 144.78 191.7V195C144.78 195.413 144.887 195.733 145.1 195.96C145.313 196.18 145.613 196.29 146 196.29ZM152.036 197.1C151.596 197.1 151.213 197.017 150.886 196.85C150.566 196.683 150.316 196.443 150.136 196.13C149.963 195.81 149.876 195.433 149.876 195V191.7C149.876 191.26 149.963 190.883 150.136 190.57C150.316 190.257 150.566 190.017 150.886 189.85C151.213 189.683 151.596 189.6 152.036 189.6C152.476 189.6 152.856 189.687 153.176 189.86C153.496 190.027 153.743 190.267 153.916 190.58C154.089 190.893 154.176 191.267 154.176 191.7H153.276C153.276 191.287 153.166 190.97 152.946 190.75C152.733 190.523 152.429 190.41 152.036 190.41C151.643 190.41 151.333 190.52 151.106 190.74C150.886 190.96 150.776 191.277 150.776 191.69V195C150.776 195.413 150.886 195.733 151.106 195.96C151.333 196.18 151.643 196.29 152.036 196.29C152.429 196.29 152.733 196.18 152.946 195.96C153.166 195.733 153.276 195.413 153.276 195H154.176C154.176 195.427 154.089 195.8 153.916 196.12C153.743 196.433 153.496 196.677 153.176 196.85C152.856 197.017 152.476 197.1 152.036 197.1ZM157.542 197V190.51H155.542V189.69H160.442V190.51H158.442V197H157.542ZM163.988 197.1C163.548 197.1 163.168 197.017 162.848 196.85C162.535 196.683 162.292 196.443 162.118 196.13C161.952 195.81 161.868 195.433 161.868 195V191.7C161.868 191.26 161.952 190.883 162.118 190.57C162.292 190.257 162.535 190.017 162.848 189.85C163.168 189.683 163.548 189.6 163.988 189.6C164.428 189.6 164.805 189.683 165.118 189.85C165.438 190.017 165.682 190.257 165.848 190.57C166.022 190.883 166.108 191.257 166.108 191.69V195C166.108 195.433 166.022 195.81 165.848 196.13C165.682 196.443 165.438 196.683 165.118 196.85C164.805 197.017 164.428 197.1 163.988 197.1ZM163.988 196.29C164.382 196.29 164.682 196.18 164.888 195.96C165.102 195.733 165.208 195.413 165.208 195V191.7C165.208 191.287 165.102 190.97 164.888 190.75C164.682 190.523 164.382 190.41 163.988 190.41C163.602 190.41 163.302 190.523 163.088 190.75C162.875 190.97 162.768 191.287 162.768 191.7V195C162.768 195.413 162.875 195.733 163.088 195.96C163.302 196.18 163.602 196.29 163.988 196.29ZM167.914 197V189.7H169.984C170.651 189.7 171.171 189.867 171.544 190.2C171.924 190.533 172.114 190.997 172.114 191.59C172.114 191.923 172.044 192.213 171.904 192.46C171.764 192.707 171.564 192.897 171.304 193.03C171.051 193.163 170.744 193.227 170.384 193.22V193.07C170.771 193.063 171.104 193.137 171.384 193.29C171.671 193.443 171.891 193.663 172.044 193.95C172.204 194.237 172.284 194.577 172.284 194.97C172.284 195.383 172.198 195.743 172.024 196.05C171.851 196.357 171.604 196.593 171.284 196.76C170.964 196.92 170.581 197 170.134 197H167.914ZM168.794 196.19H170.034C170.454 196.19 170.784 196.08 171.024 195.86C171.271 195.633 171.394 195.327 171.394 194.94C171.394 194.54 171.271 194.217 171.024 193.97C170.784 193.717 170.454 193.59 170.034 193.59H168.794V196.19ZM168.794 192.81H169.974C170.361 192.81 170.664 192.707 170.884 192.5C171.111 192.293 171.224 192.013 171.224 191.66C171.224 191.307 171.114 191.027 170.894 190.82C170.674 190.613 170.371 190.51 169.984 190.51H168.794V192.81ZM173.98 197V189.7H178.18V190.52H174.87V192.78H177.83V193.59H174.87V196.18H178.18V197H173.98ZM179.897 197V189.7H182.157C182.59 189.7 182.97 189.79 183.297 189.97C183.623 190.143 183.877 190.387 184.057 190.7C184.237 191.013 184.327 191.38 184.327 191.8C184.327 192.293 184.197 192.717 183.937 193.07C183.683 193.423 183.337 193.667 182.897 193.8L184.427 197H183.367L181.967 193.9H180.797V197H179.897ZM180.797 193.09H182.157C182.53 193.09 182.83 192.973 183.057 192.74C183.283 192.5 183.397 192.187 183.397 191.8C183.397 191.407 183.283 191.093 183.057 190.86C182.83 190.627 182.53 190.51 182.157 190.51H180.797V193.09Z" fill="white"/>
<path id="2022" opacity="0.5" d="M252.92 197V196.08L255.15 193.71C255.53 193.303 255.807 192.943 255.98 192.63C256.153 192.31 256.24 192.003 256.24 191.71C256.24 191.303 256.127 190.983 255.9 190.75C255.68 190.517 255.377 190.4 254.99 190.4C254.563 190.4 254.227 190.52 253.98 190.76C253.74 191 253.62 191.33 253.62 191.75H252.72C252.733 191.31 252.833 190.93 253.02 190.61C253.213 190.283 253.477 190.033 253.81 189.86C254.15 189.687 254.543 189.6 254.99 189.6C255.43 189.6 255.81 189.687 256.13 189.86C256.457 190.027 256.707 190.267 256.88 190.58C257.053 190.893 257.14 191.267 257.14 191.7C257.14 192.113 257.03 192.523 256.81 192.93C256.59 193.337 256.23 193.8 255.73 194.32L253.93 196.18H257.26V197H252.92ZM260.996 197.1C260.549 197.1 260.159 197.013 259.826 196.84C259.499 196.66 259.246 196.41 259.066 196.09C258.886 195.763 258.796 195.383 258.796 194.95V191.75C258.796 191.31 258.886 190.93 259.066 190.61C259.246 190.29 259.499 190.043 259.826 189.87C260.159 189.69 260.549 189.6 260.996 189.6C261.449 189.6 261.839 189.69 262.166 189.87C262.493 190.043 262.746 190.29 262.926 190.61C263.106 190.93 263.196 191.31 263.196 191.75V194.95C263.196 195.383 263.106 195.763 262.926 196.09C262.746 196.41 262.489 196.66 262.156 196.84C261.829 197.013 261.443 197.1 260.996 197.1ZM260.996 196.33C261.396 196.33 261.716 196.203 261.956 195.95C262.203 195.69 262.326 195.357 262.326 194.95V191.75C262.326 191.343 262.203 191.013 261.956 190.76C261.716 190.5 261.396 190.37 260.996 190.37C260.596 190.37 260.273 190.5 260.026 190.76C259.786 191.013 259.666 191.343 259.666 191.75V194.95C259.666 195.357 259.786 195.69 260.026 195.95C260.273 196.203 260.596 196.33 260.996 196.33ZM260.996 193.94C260.816 193.94 260.669 193.883 260.556 193.77C260.449 193.657 260.396 193.507 260.396 193.32C260.396 193.14 260.449 192.997 260.556 192.89C260.669 192.777 260.816 192.72 260.996 192.72C261.176 192.72 261.319 192.777 261.426 192.89C261.539 192.997 261.596 193.14 261.596 193.32C261.596 193.507 261.539 193.657 261.426 193.77C261.319 193.883 261.176 193.94 260.996 193.94ZM264.912 197V196.08L267.142 193.71C267.522 193.303 267.799 192.943 267.972 192.63C268.146 192.31 268.232 192.003 268.232 191.71C268.232 191.303 268.119 190.983 267.892 190.75C267.672 190.517 267.369 190.4 266.982 190.4C266.556 190.4 266.219 190.52 265.972 190.76C265.732 191 265.612 191.33 265.612 191.75H264.712C264.726 191.31 264.826 190.93 265.012 190.61C265.206 190.283 265.469 190.033 265.802 189.86C266.142 189.687 266.536 189.6 266.982 189.6C267.422 189.6 267.802 189.687 268.122 189.86C268.449 190.027 268.699 190.267 268.872 190.58C269.046 190.893 269.132 191.267 269.132 191.7C269.132 192.113 269.022 192.523 268.802 192.93C268.582 193.337 268.222 193.8 267.722 194.32L265.922 196.18H269.252V197H264.912ZM270.908 197V196.08L273.138 193.71C273.518 193.303 273.795 192.943 273.968 192.63C274.142 192.31 274.228 192.003 274.228 191.71C274.228 191.303 274.115 190.983 273.888 190.75C273.668 190.517 273.365 190.4 272.978 190.4C272.552 190.4 272.215 190.52 271.968 190.76C271.728 191 271.608 191.33 271.608 191.75H270.708C270.722 191.31 270.822 190.93 271.008 190.61C271.202 190.283 271.465 190.033 271.798 189.86C272.138 189.687 272.532 189.6 272.978 189.6C273.418 189.6 273.798 189.687 274.118 189.86C274.445 190.027 274.695 190.267 274.868 190.58C275.042 190.893 275.128 191.267 275.128 191.7C275.128 192.113 275.018 192.523 274.798 192.93C274.578 193.337 274.218 193.8 273.718 194.32L271.918 196.18H275.248V197H270.908Z" fill="white"/>
<path id="April" opacity="0.5" d="M345.5 197L347.4 189.7H348.61L350.5 197H349.59L349.11 195.06H346.9L346.42 197H345.5ZM347.08 194.3H348.92L348.36 192.05C348.253 191.623 348.17 191.267 348.11 190.98C348.05 190.693 348.013 190.507 348 190.42C347.987 190.507 347.95 190.693 347.89 190.98C347.83 191.267 347.747 191.62 347.64 192.04L347.08 194.3ZM351.916 197V189.7H354.266C354.719 189.7 355.113 189.79 355.446 189.97C355.779 190.143 356.036 190.39 356.216 190.71C356.403 191.03 356.496 191.41 356.496 191.85C356.496 192.283 356.403 192.663 356.216 192.99C356.036 193.31 355.779 193.56 355.446 193.74C355.113 193.913 354.719 194 354.266 194H352.816V197H351.916ZM352.816 193.19H354.266C354.659 193.19 354.973 193.07 355.206 192.83C355.446 192.583 355.566 192.257 355.566 191.85C355.566 191.437 355.446 191.11 355.206 190.87C354.973 190.63 354.659 190.51 354.266 190.51H352.816V193.19ZM357.912 197V189.7H360.172C360.606 189.7 360.986 189.79 361.312 189.97C361.639 190.143 361.892 190.387 362.072 190.7C362.252 191.013 362.342 191.38 362.342 191.8C362.342 192.293 362.212 192.717 361.952 193.07C361.699 193.423 361.352 193.667 360.912 193.8L362.442 197H361.382L359.982 193.9H358.812V197H357.912ZM358.812 193.09H360.172C360.546 193.09 360.846 192.973 361.072 192.74C361.299 192.5 361.412 192.187 361.412 191.8C361.412 191.407 361.299 191.093 361.072 190.86C360.846 190.627 360.546 190.51 360.172 190.51H358.812V193.09ZM364.038 197V196.18H365.528V190.52H364.038V189.7H367.938V190.52H366.448V196.18H367.938V197H364.038ZM370.134 197V189.7H371.034V196.18H374.334V197H370.134Z" fill="white"/>
</g>
<defs>
<clipPath id="clip0_0_1174">
<rect width="80" height="30" fill="white" transform="translate(180 61)"/>
</clipPath>
</defs>
</svg>
