<?xml version="1.0" encoding="UTF-8"?>
<svg width="114px" height="22px" viewBox="0 0 114 22" version="1.1" xmlns="http://www.w3.org/2000/svg" xmlns:xlink="http://www.w3.org/1999/xlink">
    <title>automation</title>
    <g id="Page-1" stroke="none" stroke-width="1" fill="none" fill-rule="evenodd">
        <g id="Cryptomation-site-v3" transform="translate(-374.000000, -134.000000)" fill="#FFFFFF" fill-rule="nonzero">
            <g id="automation" transform="translate(374.638000, 134.700000)">
                <path d="M0,20.329 L4.089,0.029 L6.728,0.029 L10.759,20.329 L8.062,20.329 L7.279,16.53 L3.422,16.53 L2.697,20.329 L0,20.329 Z M3.944,13.862 L6.815,13.862 L5.423,6.641 L3.944,13.862 Z" id="Shape"></path>
                <path d="M15.363,20.3 C14.783,20.3 14.29,20.097 13.884,19.691 C13.478,19.285 13.275,18.792 13.275,18.212 L13.275,0 L15.972,0 L15.972,16.588 C15.972,16.8586667 16.0735,17.0955 16.2765,17.2985 C16.4795,17.5015 16.726,17.603 17.016,17.603 L20.293,17.603 C20.583,17.603 20.8295,17.5015 21.0325,17.2985 C21.2355,17.0955 21.337,16.8586667 21.337,16.588 L21.337,0 L24.034,0 L24.034,18.212 C24.034,18.792 23.831,19.285 23.425,19.691 C23.019,20.097 22.526,20.3 21.946,20.3 L15.363,20.3 Z" id="Path"></path>
                <polygon id="Path" points="29.015 20.3 29.015 2.697 24.984 2.697 24.984 0 35.743 0 35.743 2.697 31.712 2.697 31.712 20.3"></polygon>
                <path d="M38.723,20.3 C38.1816667,20.3 37.708,20.097 37.302,19.691 C36.896,19.285 36.693,18.7823333 36.693,18.183 L36.693,2.117 C36.693,1.51766667 36.896,1.015 37.302,0.609 C37.708,0.203 38.1816667,0 38.723,0 L45.306,0 C45.9246667,0 46.4321667,0.203 46.8285,0.609 C47.2248333,1.015 47.423,1.51766667 47.423,2.117 L47.423,18.183 C47.423,18.7823333 47.2248333,19.285 46.8285,19.691 C46.4321667,20.097 45.9246667,20.3 45.306,20.3 L38.723,20.3 Z M40.376,17.632 L43.653,17.632 C43.9816667,17.632 44.2475,17.5256667 44.4505,17.313 C44.6535,17.1003333 44.755,16.8393333 44.755,16.53 L44.755,3.77 C44.755,3.44133333 44.6535,3.1755 44.4505,2.9725 C44.2475,2.7695 43.9816667,2.668 43.653,2.668 L40.376,2.668 C40.1053333,2.668 39.8685,2.7695 39.6655,2.9725 C39.4625,3.1755 39.361,3.44133333 39.361,3.77 L39.361,16.53 C39.361,16.8393333 39.4625,17.1003333 39.6655,17.313 C39.8685,17.5256667 40.1053333,17.632 40.376,17.632 Z" id="Shape"></path>
                <polygon id="Path" points="49.069 20.3 49.069 0 51.766 0 55.797 12.383 59.828 0 62.525 0 62.525 20.3 59.828 20.3 59.828 8.236 57.131 16.501 54.463 16.501 51.766 8.236 51.766 20.3"></polygon>
                <path d="M63.591,20.329 L67.68,0.029 L70.319,0.029 L74.35,20.329 L71.653,20.329 L70.87,16.53 L67.013,16.53 L66.288,20.329 L63.591,20.329 Z M67.535,13.862 L70.406,13.862 L69.014,6.641 L67.535,13.862 Z" id="Shape"></path>
                <polygon id="Path" points="77.011 20.3 77.011 2.697 72.98 2.697 72.98 0 83.739 0 83.739 2.697 79.708 2.697 79.708 20.3"></polygon>
                <polygon id="Path" points="84.979 20.3 84.979 0 87.676 0 87.676 20.3"></polygon>
                <path d="M91.352,20.3 C90.8106667,20.3 90.337,20.097 89.931,19.691 C89.525,19.285 89.322,18.7823333 89.322,18.183 L89.322,2.117 C89.322,1.51766667 89.525,1.015 89.931,0.609 C90.337,0.203 90.8106667,0 91.352,0 L97.935,0 C98.5536667,0 99.0611667,0.203 99.4575,0.609 C99.8538333,1.015 100.052,1.51766667 100.052,2.117 L100.052,18.183 C100.052,18.7823333 99.8538333,19.285 99.4575,19.691 C99.0611667,20.097 98.5536667,20.3 97.935,20.3 L91.352,20.3 Z M93.005,17.632 L96.282,17.632 C96.6106667,17.632 96.8765,17.5256667 97.0795,17.313 C97.2825,17.1003333 97.384,16.8393333 97.384,16.53 L97.384,3.77 C97.384,3.44133333 97.2825,3.1755 97.0795,2.9725 C96.8765,2.7695 96.6106667,2.668 96.282,2.668 L93.005,2.668 C92.7343333,2.668 92.4975,2.7695 92.2945,2.9725 C92.0915,3.1755 91.99,3.44133333 91.99,3.77 L91.99,16.53 C91.99,16.8393333 92.0915,17.1003333 92.2945,17.313 C92.4975,17.5256667 92.7343333,17.632 93.005,17.632 Z" id="Shape"></path>
                <polygon id="Path" points="101.698 20.3 101.698 0 104.395 0 109.789 13.543 109.789 0 112.486 0 112.486 20.3 109.789 20.3 104.395 6.757 104.395 20.3"></polygon>
            </g>
        </g>
    </g>
</svg>