<svg width="20" height="20" viewBox="0 0 20 20" fill="none" xmlns="http://www.w3.org/2000/svg">
<path d="M19.5 10.2249C19.5 9.56659 19.4434 8.94159 19.3464 8.33325H10.2063V12.0916H15.4396C15.205 13.3249 14.5175 14.3666 13.4983 15.0749V17.5749H16.6205C18.4485 15.8333 19.5 13.2666 19.5 10.2249Z" fill="#4285F4"/>
<path d="M10.2063 20.0001C12.827 20.0001 15.019 19.1001 16.6205 17.5751L13.4983 15.0751C12.6248 15.6751 11.5166 16.0418 10.2063 16.0418C7.67458 16.0418 5.53111 14.2834 4.7627 11.9084H1.54346V14.4834C3.1369 17.7501 6.41276 20.0001 10.2063 20.0001Z" fill="#34A853"/>
<path d="M4.76266 11.9083C4.56045 11.3083 4.4553 10.6666 4.4553 9.99993C4.4553 9.33327 4.56854 8.6916 4.76266 8.0916V5.5166H1.54342C0.880162 6.8666 0.5 8.38327 0.5 9.99993C0.5 11.6166 0.880162 13.1333 1.54342 14.4833L4.76266 11.9083Z" fill="#FBBC05"/>
<path d="M10.2063 3.95833C11.638 3.95833 12.916 4.46667 13.927 5.45833L16.6933 2.60833C15.019 0.991667 12.827 0 10.2063 0C6.41276 0 3.1369 2.25 1.54346 5.51667L4.7627 8.09167C5.53111 5.71667 7.67458 3.95833 10.2063 3.95833Z" fill="#EA4335"/>
</svg>
