<?xml version="1.0" encoding="UTF-8"?>
<svg width="115px" height="22px" viewBox="0 0 115 22" version="1.1" xmlns="http://www.w3.org/2000/svg" xmlns:xlink="http://www.w3.org/1999/xlink">
    <title>integration</title>
    <g id="Page-1" stroke="none" stroke-width="1" fill="none" fill-rule="evenodd">
        <g id="Cryptomation-site-v3" transform="translate(-243.000000, -146.000000)" fill="#FFFFFF" fill-rule="nonzero">
            <g id="integration" transform="translate(243.798000, 146.700000)">
                <polygon id="Path" points="-4.54747351e-13 20.3 -4.54747351e-13 0 2.697 0 2.697 20.3"></polygon>
                <polygon id="Path" points="4.343 20.3 4.343 0 7.04 0 12.434 13.543 12.434 0 15.131 0 15.131 20.3 12.434 20.3 7.04 6.757 7.04 20.3"></polygon>
                <polygon id="Path" points="20.402 20.3 20.402 2.697 16.371 2.697 16.371 0 27.13 0 27.13 2.697 23.099 2.697 23.099 20.3"></polygon>
                <polygon id="Path" points="28.37 20.3 28.37 0 39.158 0 39.158 2.668 31.067 2.668 31.067 7.714 36.461 7.714 35.852 10.411 31.067 10.411 31.067 17.603 39.158 17.603 39.158 20.3"></polygon>
                <path d="M42.892,20.3 C42.312,20.3 41.819,20.097 41.413,19.691 C41.007,19.285 40.804,18.792 40.804,18.212 L40.804,2.059 C40.804,1.49833333 41.007,1.015 41.413,0.609 C41.819,0.203 42.312,0 42.892,0 L49.475,0 C50.055,0 50.548,0.203 50.954,0.609 C51.36,1.015 51.563,1.49833333 51.563,2.059 L51.563,6.583 L48.866,5.974 L48.866,3.712 C48.866,3.422 48.7645,3.1755 48.5615,2.9725 C48.3585,2.7695 48.112,2.668 47.822,2.668 L44.545,2.668 C44.255,2.668 44.0085,2.7695 43.8055,2.9725 C43.6025,3.1755 43.501,3.422 43.501,3.712 L43.501,16.559 C43.501,16.849 43.6025,17.0955 43.8055,17.2985 C44.0085,17.5015 44.255,17.603 44.545,17.603 L47.822,17.603 C48.112,17.603 48.3585,17.5015 48.5615,17.2985 C48.7645,17.0955 48.866,16.849 48.866,16.559 L48.866,13.746 L46.198,13.746 L46.807,11.049 L51.563,11.049 L51.563,18.212 C51.563,18.792 51.36,19.285 50.954,19.691 C50.548,20.097 50.055,20.3 49.475,20.3 L42.892,20.3 Z" id="Path"></path>
                <path d="M53.441,20.3 L53.441,0 L62.141,0 C62.7016667,0 63.185,0.203 63.591,0.609 C63.997,1.015 64.2,1.508 64.2,2.088 L64.2,8.323 C64.2,8.903 63.997,9.396 63.591,9.802 C63.185,10.208 62.7016667,10.411 62.141,10.411 L61.532,10.411 L64.2,20.3 L61.532,20.3 L58.835,10.411 L56.138,10.411 L56.138,20.3 L53.441,20.3 Z M56.138,7.714 L60.488,7.714 C60.7586667,7.714 61.0003333,7.6125 61.213,7.4095 C61.4256667,7.2065 61.532,6.96 61.532,6.67 L61.532,3.741 C61.532,3.451 61.4256667,3.2045 61.213,3.0015 C61.0003333,2.7985 60.7586667,2.697 60.488,2.697 L56.138,2.697 L56.138,7.714 Z" id="Shape"></path>
                <path d="M65.208,20.329 L69.297,0.029 L71.936,0.029 L75.967,20.329 L73.27,20.329 L72.487,16.53 L68.63,16.53 L67.905,20.329 L65.208,20.329 Z M69.152,13.862 L72.023,13.862 L70.631,6.641 L69.152,13.862 Z" id="Shape"></path>
                <polygon id="Path" points="78.628 20.3 78.628 2.697 74.597 2.697 74.597 0 85.356 0 85.356 2.697 81.325 2.697 81.325 20.3"></polygon>
                <polygon id="Path" points="86.596 20.3 86.596 0 89.293 0 89.293 20.3"></polygon>
                <path d="M92.969,20.3 C92.4276667,20.3 91.954,20.097 91.548,19.691 C91.142,19.285 90.939,18.7823333 90.939,18.183 L90.939,2.117 C90.939,1.51766667 91.142,1.015 91.548,0.609 C91.954,0.203 92.4276667,0 92.969,0 L99.552,0 C100.170667,0 100.678167,0.203 101.0745,0.609 C101.470833,1.015 101.669,1.51766667 101.669,2.117 L101.669,18.183 C101.669,18.7823333 101.470833,19.285 101.0745,19.691 C100.678167,20.097 100.170667,20.3 99.552,20.3 L92.969,20.3 Z M94.622,17.632 L97.899,17.632 C98.2276667,17.632 98.4935,17.5256667 98.6965,17.313 C98.8995,17.1003333 99.001,16.8393333 99.001,16.53 L99.001,3.77 C99.001,3.44133333 98.8995,3.1755 98.6965,2.9725 C98.4935,2.7695 98.2276667,2.668 97.899,2.668 L94.622,2.668 C94.3513333,2.668 94.1145,2.7695 93.9115,2.9725 C93.7085,3.1755 93.607,3.44133333 93.607,3.77 L93.607,16.53 C93.607,16.8393333 93.7085,17.1003333 93.9115,17.313 C94.1145,17.5256667 94.3513333,17.632 94.622,17.632 Z" id="Shape"></path>
                <polygon id="Path" points="103.315 20.3 103.315 0 106.012 0 111.406 13.543 111.406 0 114.103 0 114.103 20.3 111.406 20.3 106.012 6.757 106.012 20.3"></polygon>
            </g>
        </g>
    </g>
</svg>