<svg width="105" height="49" viewBox="0 0 105 49" fill="none" xmlns="http://www.w3.org/2000/svg">
<g id="logo_white">
<mask id="mask0_0_86" style="mask-type:alpha" maskUnits="userSpaceOnUse" x="0" y="0" width="105" height="49">
<rect id="Mask" width="105" height="49" fill="white"/>
</mask>
<g mask="url(#mask0_0_86)">
<g id="Group">
<g id="Crypto mation">
<path id="Path" d="M3.8861 22C3.34476 22 2.86143 21.797 2.4361 21.391C2.01076 20.985 1.7981 20.492 1.7981 19.912V3.78795C1.7981 3.22728 2.01076 2.73912 2.4361 2.32345C2.86143 1.90778 3.34476 1.69995 3.8861 1.69995H10.4691C11.0684 1.69995 11.5663 1.90778 11.9626 2.32345C12.3589 2.73912 12.5571 3.22728 12.5571 3.78795V7.55795L9.8601 8.16695V5.44095C9.8601 5.17028 9.76826 4.92862 9.5846 4.71595C9.40093 4.50328 9.15443 4.39695 8.8451 4.39695H5.5391C5.26843 4.39695 5.02676 4.50328 4.8141 4.71595C4.60143 4.92862 4.4951 5.17028 4.4951 5.44095V18.259C4.4951 18.5683 4.60143 18.8196 4.8141 19.013C5.02676 19.2063 5.26843 19.303 5.5391 19.303H8.8451C9.15443 19.303 9.40093 19.2063 9.5846 19.013C9.76826 18.8196 9.8601 18.5683 9.8601 18.259V16.142L12.5571 15.504V19.912C12.5571 20.492 12.3589 20.985 11.9626 21.391C11.5663 21.797 11.0684 22 10.4691 22H3.8861Z" fill="#230F49"/>
<path id="Shape" fill-rule="evenodd" clip-rule="evenodd" d="M14.4351 1.69995V22H17.1321V12.111H19.8291L22.5261 22H25.1941L22.5261 12.111H23.1351C23.6957 12.111 24.1791 11.908 24.5851 11.502C24.9911 11.096 25.1941 10.603 25.1941 10.023V3.78795C25.1941 3.20795 24.9911 2.71495 24.5851 2.30895C24.1791 1.90295 23.6957 1.69995 23.1351 1.69995H14.4351ZM21.4821 9.41395H17.1321V4.39695H21.4821C21.7527 4.39695 21.9944 4.49845 22.2071 4.70145C22.4197 4.90445 22.5261 5.15095 22.5261 5.44095V8.36995C22.5261 8.65995 22.4197 8.90645 22.2071 9.10945C21.9944 9.31245 21.7527 9.41395 21.4821 9.41395Z" fill="#230F49"/>
<path id="Path_2" d="M29.8851 22V12.14L25.9121 1.69995H28.6091L31.2481 8.63095L33.8581 1.69995H36.5551L32.5821 12.14V22H29.8851Z" fill="#230F49"/>
<path id="Shape_2" fill-rule="evenodd" clip-rule="evenodd" d="M39.6511 1.69995V22H42.3481V12.111H48.3511C48.9118 12.111 49.4 11.908 49.8156 11.502C50.2313 11.096 50.4391 10.603 50.4391 10.023V3.78795C50.4391 3.20795 50.2313 2.71495 49.8156 2.30895C49.4 1.90295 48.9118 1.69995 48.3511 1.69995H39.6511ZM46.6981 9.41395H42.3481V4.39695H46.6981C46.9881 4.39695 47.2346 4.49845 47.4376 4.70145C47.6406 4.90445 47.7421 5.14128 47.7421 5.41195V8.36995C47.7421 8.65995 47.6406 8.90645 47.4376 9.10945C47.2346 9.31245 46.9881 9.41395 46.6981 9.41395Z" fill="#230F49"/>
<path id="Path_3" d="M55.7102 22V4.39695H51.6792V1.69995H62.4382V4.39695H58.4072V22H55.7102Z" fill="#230F49"/>
<path id="Shape_3" fill-rule="evenodd" clip-rule="evenodd" d="M63.9972 21.391C64.4032 21.797 64.8769 22 65.4182 22H72.0012C72.6199 22 73.1273 21.797 73.5237 21.391C73.92 20.985 74.1182 20.4823 74.1182 19.883V3.81695C74.1182 3.21762 73.92 2.71495 73.5237 2.30895C73.1273 1.90295 72.6199 1.69995 72.0012 1.69995H65.4182C64.8769 1.69995 64.4032 1.90295 63.9972 2.30895C63.5912 2.71495 63.3882 3.21762 63.3882 3.81695V19.883C63.3882 20.4823 63.5912 20.985 63.9972 21.391ZM70.3482 19.332H67.0712C66.8005 19.332 66.5637 19.2256 66.3607 19.013C66.1577 18.8003 66.0562 18.5393 66.0562 18.23V5.46995C66.0562 5.14128 66.1577 4.87545 66.3607 4.67245C66.5637 4.46945 66.8005 4.36795 67.0712 4.36795H70.3482C70.6768 4.36795 70.9427 4.46945 71.1457 4.67245C71.3487 4.87545 71.4502 5.14128 71.4502 5.46995V18.23C71.4502 18.5393 71.3487 18.8003 71.1457 19.013C70.9427 19.2256 70.6768 19.332 70.3482 19.332Z" fill="#230F49"/>
<path id="Path_4" d="M1.7981 47V26.7H4.4951L8.5261 39.083L12.5571 26.7H15.2541V47H12.5571V34.936L9.8601 43.201H7.1921L4.4951 34.936V47H1.7981Z" fill="#230F49"/>
<path id="Shape_4" fill-rule="evenodd" clip-rule="evenodd" d="M20.4091 26.729L16.3201 47.029H19.0171L19.7421 43.23H23.5991L24.3821 47.029H27.0791L23.0481 26.729H20.4091ZM23.1351 40.562H20.2641L21.7431 33.341L23.1351 40.562Z" fill="#230F49"/>
<path id="Path_5" d="M29.74 47V29.397H25.709V26.7H36.468V29.397H32.437V47H29.74Z" fill="#230F49"/>
<path id="Path_6" d="M37.708 47V26.7H40.405V47H37.708Z" fill="#230F49"/>
<path id="Shape_5" fill-rule="evenodd" clip-rule="evenodd" d="M42.66 46.391C43.066 46.797 43.5397 47 44.081 47H50.664C51.2827 47 51.7902 46.797 52.1865 46.391C52.5829 45.985 52.781 45.4823 52.781 44.883V28.817C52.781 28.2176 52.5829 27.715 52.1865 27.309C51.7902 26.903 51.2827 26.7 50.664 26.7H44.081C43.5397 26.7 43.066 26.903 42.66 27.309C42.254 27.715 42.051 28.2176 42.051 28.817V44.883C42.051 45.4823 42.254 45.985 42.66 46.391ZM49.011 44.332H45.734C45.4634 44.332 45.2265 44.2256 45.0235 44.013C44.8205 43.8003 44.719 43.5393 44.719 43.23V30.47C44.719 30.1413 44.8205 29.8755 45.0235 29.6725C45.2265 29.4695 45.4634 29.368 45.734 29.368H49.011C49.3397 29.368 49.6055 29.4695 49.8085 29.6725C50.0115 29.8755 50.113 30.1413 50.113 30.47V43.23C50.113 43.5393 50.0115 43.8003 49.8085 44.013C49.6055 44.2256 49.3397 44.332 49.011 44.332Z" fill="#230F49"/>
<path id="Path_7" d="M54.427 47V26.7H57.124L62.518 40.243V26.7H65.215V47H62.518L57.124 33.457V47H54.427Z" fill="#230F49"/>
</g>
<rect id="Rectangle" x="69" y="42" width="5" height="5" fill="#FFCF5E"/>
</g>
<rect id="Rectangle_2" x="76" y="42" width="5" height="5" fill="#FF7340"/>
<rect id="Rectangle_3" x="83" y="42" width="5" height="5" fill="#20C4FF"/>
</g>
</g>
</svg>
