<?xml version="1.0" encoding="UTF-8"?>
<svg width="65px" height="22px" viewBox="0 0 65 22" version="1.1" xmlns="http://www.w3.org/2000/svg" xmlns:xlink="http://www.w3.org/1999/xlink">
    <title>mation</title>
    <g id="Page-1" stroke="none" stroke-width="1" fill="none" fill-rule="evenodd">
        <g id="Cryptomation-site-v3" transform="translate(-148.000000, -137.000000)" fill="#FFFFFF" fill-rule="nonzero">
            <g id="mation" transform="translate(148.798000, 137.700000)">
                <polygon id="Path" points="0 20.3 0 0 2.697 0 6.728 12.383 10.759 0 13.456 0 13.456 20.3 10.759 20.3 10.759 8.236 8.062 16.501 5.394 16.501 2.697 8.236 2.697 20.3"></polygon>
                <path d="M14.522,20.329 L18.611,0.029 L21.25,0.029 L25.281,20.329 L22.584,20.329 L21.801,16.53 L17.944,16.53 L17.219,20.329 L14.522,20.329 Z M18.466,13.862 L21.337,13.862 L19.945,6.641 L18.466,13.862 Z" id="Shape"></path>
                <polygon id="Path" points="27.942 20.3 27.942 2.697 23.911 2.697 23.911 0 34.67 0 34.67 2.697 30.639 2.697 30.639 20.3"></polygon>
                <polygon id="Path" points="35.91 20.3 35.91 0 38.607 0 38.607 20.3"></polygon>
                <path d="M42.283,20.3 C41.7416667,20.3 41.268,20.097 40.862,19.691 C40.456,19.285 40.253,18.7823333 40.253,18.183 L40.253,2.117 C40.253,1.51766667 40.456,1.015 40.862,0.609 C41.268,0.203 41.7416667,0 42.283,0 L48.866,0 C49.4846667,0 49.9921667,0.203 50.3885,0.609 C50.7848333,1.015 50.983,1.51766667 50.983,2.117 L50.983,18.183 C50.983,18.7823333 50.7848333,19.285 50.3885,19.691 C49.9921667,20.097 49.4846667,20.3 48.866,20.3 L42.283,20.3 Z M43.936,17.632 L47.213,17.632 C47.5416667,17.632 47.8075,17.5256667 48.0105,17.313 C48.2135,17.1003333 48.315,16.8393333 48.315,16.53 L48.315,3.77 C48.315,3.44133333 48.2135,3.1755 48.0105,2.9725 C47.8075,2.7695 47.5416667,2.668 47.213,2.668 L43.936,2.668 C43.6653333,2.668 43.4285,2.7695 43.2255,2.9725 C43.0225,3.1755 42.921,3.44133333 42.921,3.77 L42.921,16.53 C42.921,16.8393333 43.0225,17.1003333 43.2255,17.313 C43.4285,17.5256667 43.6653333,17.632 43.936,17.632 Z" id="Shape"></path>
                <polygon id="Path" points="52.629 20.3 52.629 0 55.326 0 60.72 13.543 60.72 0 63.417 0 63.417 20.3 60.72 20.3 55.326 6.757 55.326 20.3"></polygon>
            </g>
        </g>
    </g>
</svg>