<?xml version="1.0" encoding="UTF-8"?>
<svg width="163px" height="22px" viewBox="0 0 163 22" version="1.1" xmlns="http://www.w3.org/2000/svg" xmlns:xlink="http://www.w3.org/1999/xlink">
    <title>transformation</title>
    <g id="Page-1" stroke="none" stroke-width="1" fill="none" fill-rule="evenodd">
        <g id="Cryptomation-site-v3" transform="translate(-496.000000, -128.000000)" fill="#FFFFFF" fill-rule="nonzero">
            <g id="transformation" transform="translate(496.682000, 128.700000)">
                <polygon id="Path" points="4.031 20.3 4.031 2.697 0 2.697 0 0 10.759 0 10.759 2.697 6.728 2.697 6.728 20.3"></polygon>
                <path d="M11.941,20.3 L11.941,0 L20.641,0 C21.2016667,0 21.685,0.203 22.091,0.609 C22.497,1.015 22.7,1.508 22.7,2.088 L22.7,8.323 C22.7,8.903 22.497,9.396 22.091,9.802 C21.685,10.208 21.2016667,10.411 20.641,10.411 L20.032,10.411 L22.7,20.3 L20.032,20.3 L17.335,10.411 L14.638,10.411 L14.638,20.3 L11.941,20.3 Z M14.638,7.714 L18.988,7.714 C19.2586667,7.714 19.5003333,7.6125 19.713,7.4095 C19.9256667,7.2065 20.032,6.96 20.032,6.67 L20.032,3.741 C20.032,3.451 19.9256667,3.2045 19.713,3.0015 C19.5003333,2.7985 19.2586667,2.697 18.988,2.697 L14.638,2.697 L14.638,7.714 Z" id="Shape"></path>
                <path d="M23.708,20.329 L27.797,0.029 L30.436,0.029 L34.467,20.329 L31.77,20.329 L30.987,16.53 L27.13,16.53 L26.405,20.329 L23.708,20.329 Z M27.652,13.862 L30.523,13.862 L29.131,6.641 L27.652,13.862 Z" id="Shape"></path>
                <polygon id="Path" points="35.533 20.3 35.533 0 38.23 0 43.624 13.543 43.624 0 46.321 0 46.321 20.3 43.624 20.3 38.23 6.757 38.23 20.3"></polygon>
                <path d="M49.707,20.3 C49.127,20.3 48.634,20.097 48.228,19.691 C47.822,19.285 47.619,18.792 47.619,18.212 L47.619,13.717 L50.316,14.326 L50.316,16.559 C50.316,16.849 50.4175,17.0955 50.6205,17.2985 C50.8235,17.5015 51.0603333,17.603 51.331,17.603 L54.637,17.603 C54.927,17.603 55.1735,17.5015 55.3765,17.2985 C55.5795,17.0955 55.681,16.849 55.681,16.559 L55.681,11.455 C55.681,11.165 55.5795,10.9185 55.3765,10.7155 C55.1735,10.5125 54.927,10.411 54.637,10.411 L49.707,10.411 C49.127,10.411 48.634,10.208 48.228,9.802 C47.822,9.396 47.619,8.903 47.619,8.323 L47.619,2.088 C47.619,1.508 47.822,1.015 48.228,0.609 C48.634,0.203 49.127,0 49.707,0 L56.29,0 C56.87,0 57.363,0.203 57.769,0.609 C58.175,1.015 58.378,1.508 58.378,2.088 L58.378,5.22 L55.681,4.582 L55.681,3.741 C55.681,3.451 55.5795,3.2045 55.3765,3.0015 C55.1735,2.7985 54.927,2.697 54.637,2.697 L51.331,2.697 C51.0603333,2.697 50.8235,2.7985 50.6205,3.0015 C50.4175,3.2045 50.316,3.451 50.316,3.741 L50.316,6.67 C50.316,6.96 50.4175,7.2065 50.6205,7.4095 C50.8235,7.6125 51.0603333,7.714 51.331,7.714 L56.29,7.714 C56.87,7.714 57.363,7.917 57.769,8.323 C58.175,8.729 58.378,9.222 58.378,9.802 L58.378,18.212 C58.378,18.792 58.175,19.285 57.769,19.691 C57.363,20.097 56.87,20.3 56.29,20.3 L49.707,20.3 Z" id="Path"></path>
                <polygon id="Path" points="61.416 20.3 61.416 0 72.204 0 72.204 2.697 64.113 2.697 64.113 7.714 69.507 7.714 68.898 10.411 64.113 10.411 64.113 20.3"></polygon>
                <path d="M75.3,20.3 C74.7586667,20.3 74.285,20.097 73.879,19.691 C73.473,19.285 73.27,18.7823333 73.27,18.183 L73.27,2.117 C73.27,1.51766667 73.473,1.015 73.879,0.609 C74.285,0.203 74.7586667,0 75.3,0 L81.883,0 C82.5016667,0 83.0091667,0.203 83.4055,0.609 C83.8018333,1.015 84,1.51766667 84,2.117 L84,18.183 C84,18.7823333 83.8018333,19.285 83.4055,19.691 C83.0091667,20.097 82.5016667,20.3 81.883,20.3 L75.3,20.3 Z M76.953,17.632 L80.23,17.632 C80.5586667,17.632 80.8245,17.5256667 81.0275,17.313 C81.2305,17.1003333 81.332,16.8393333 81.332,16.53 L81.332,3.77 C81.332,3.44133333 81.2305,3.1755 81.0275,2.9725 C80.8245,2.7695 80.5586667,2.668 80.23,2.668 L76.953,2.668 C76.6823333,2.668 76.4455,2.7695 76.2425,2.9725 C76.0395,3.1755 75.938,3.44133333 75.938,3.77 L75.938,16.53 C75.938,16.8393333 76.0395,17.1003333 76.2425,17.313 C76.4455,17.5256667 76.6823333,17.632 76.953,17.632 Z" id="Shape"></path>
                <path d="M85.588,20.3 L85.588,0 L94.288,0 C94.8486667,0 95.332,0.203 95.738,0.609 C96.144,1.015 96.347,1.508 96.347,2.088 L96.347,8.323 C96.347,8.903 96.144,9.396 95.738,9.802 C95.332,10.208 94.8486667,10.411 94.288,10.411 L93.679,10.411 L96.347,20.3 L93.679,20.3 L90.982,10.411 L88.285,10.411 L88.285,20.3 L85.588,20.3 Z M88.285,7.714 L92.635,7.714 C92.9056667,7.714 93.1473333,7.6125 93.36,7.4095 C93.5726667,7.2065 93.679,6.96 93.679,6.67 L93.679,3.741 C93.679,3.451 93.5726667,3.2045 93.36,3.0015 C93.1473333,2.7985 92.9056667,2.697 92.635,2.697 L88.285,2.697 L88.285,7.714 Z" id="Shape"></path>
                <polygon id="Path" points="97.935 20.3 97.935 0 100.632 0 104.663 12.383 108.694 0 111.391 0 111.391 20.3 108.694 20.3 108.694 8.236 105.997 16.501 103.329 16.501 100.632 8.236 100.632 20.3"></polygon>
                <path d="M112.457,20.329 L116.546,0.029 L119.185,0.029 L123.216,20.329 L120.519,20.329 L119.736,16.53 L115.879,16.53 L115.154,20.329 L112.457,20.329 Z M116.401,13.862 L119.272,13.862 L117.88,6.641 L116.401,13.862 Z" id="Shape"></path>
                <polygon id="Path" points="125.877 20.3 125.877 2.697 121.846 2.697 121.846 0 132.605 0 132.605 2.697 128.574 2.697 128.574 20.3"></polygon>
                <polygon id="Path" points="133.845 20.3 133.845 0 136.542 0 136.542 20.3"></polygon>
                <path d="M140.218,20.3 C139.676667,20.3 139.203,20.097 138.797,19.691 C138.391,19.285 138.188,18.7823333 138.188,18.183 L138.188,2.117 C138.188,1.51766667 138.391,1.015 138.797,0.609 C139.203,0.203 139.676667,0 140.218,0 L146.801,0 C147.419667,0 147.927167,0.203 148.3235,0.609 C148.719833,1.015 148.918,1.51766667 148.918,2.117 L148.918,18.183 C148.918,18.7823333 148.719833,19.285 148.3235,19.691 C147.927167,20.097 147.419667,20.3 146.801,20.3 L140.218,20.3 Z M141.871,17.632 L145.148,17.632 C145.476667,17.632 145.7425,17.5256667 145.9455,17.313 C146.1485,17.1003333 146.25,16.8393333 146.25,16.53 L146.25,3.77 C146.25,3.44133333 146.1485,3.1755 145.9455,2.9725 C145.7425,2.7695 145.476667,2.668 145.148,2.668 L141.871,2.668 C141.600333,2.668 141.3635,2.7695 141.1605,2.9725 C140.9575,3.1755 140.856,3.44133333 140.856,3.77 L140.856,16.53 C140.856,16.8393333 140.9575,17.1003333 141.1605,17.313 C141.3635,17.5256667 141.600333,17.632 141.871,17.632 Z" id="Shape"></path>
                <polygon id="Path" points="150.564 20.3 150.564 0 153.261 0 158.655 13.543 158.655 0 161.352 0 161.352 20.3 158.655 20.3 153.261 6.757 153.261 20.3"></polygon>
            </g>
        </g>
    </g>
</svg>