<svg width="726" height="300" viewBox="0 0 726 300" fill="none" xmlns="http://www.w3.org/2000/svg">
<mask id="mask0_29_25" style="mask-type:alpha" maskUnits="userSpaceOnUse" x="0" y="0" width="726" height="300">
<rect width="726" height="300" fill="#D9D9D9"/>
</mask>
<g mask="url(#mask0_29_25)">
</g>
<path d="M262.5 226C262.5 218.991 262.5 213.764 262.839 209.621C263.177 205.483 263.85 202.469 265.17 199.877C267.519 195.267 271.267 191.519 275.877 189.17C278.469 187.85 281.483 187.177 285.621 186.839C289.764 186.5 294.991 186.5 302 186.5H424C431.009 186.5 436.236 186.5 440.379 186.839C444.517 187.177 447.531 187.85 450.123 189.17C454.733 191.519 458.481 195.267 460.83 199.877C462.15 202.469 462.823 205.483 463.161 209.621C463.5 213.764 463.5 218.991 463.5 226V260C463.5 267.009 463.5 272.236 463.161 276.379C462.823 280.517 462.15 283.531 460.83 286.123C458.481 290.733 454.733 294.481 450.123 296.83C447.531 298.15 444.517 298.823 440.379 299.161C436.236 299.5 431.009 299.5 424 299.5H302C294.991 299.5 289.764 299.5 285.621 299.161C281.483 298.823 278.469 298.15 275.877 296.83C271.267 294.481 267.519 290.733 265.17 286.123C263.85 283.531 263.177 280.517 262.839 276.379C262.5 272.236 262.5 267.009 262.5 260V226Z" stroke="#FFCB5E"/>
<path fill-rule="evenodd" clip-rule="evenodd" d="M0 129C0 116.882 0 110.823 2.05613 106.071C4.58147 100.236 9.2356 95.5815 15.0713 93.0561C19.8227 91 25.8818 91 38 91H164C176.118 91 182.177 91 186.929 93.0561C192.764 95.5815 197.419 100.236 199.944 106.071C202 110.823 202 116.882 202 129C202 141.118 202 147.177 199.944 151.929C197.419 157.764 192.764 162.419 186.929 164.944C182.177 167 176.118 167 164 167H38C25.8818 167 19.8227 167 15.0713 164.944C9.2356 162.419 4.58147 157.764 2.05613 151.929C0 147.177 0 141.118 0 129Z" fill="url(#paint0_linear_29_25)"/>
<path d="M314.458 231V229.524H317.968V222.576H314.908V221.1H319.588V229.524H322.918V231H314.458ZM318.598 219.318C318.202 219.318 317.89 219.216 317.662 219.012C317.434 218.808 317.32 218.532 317.32 218.184C317.32 217.824 317.434 217.542 317.662 217.338C317.89 217.122 318.202 217.014 318.598 217.014C318.994 217.014 319.306 217.122 319.534 217.338C319.762 217.542 319.876 217.824 319.876 218.184C319.876 218.532 319.762 218.808 319.534 219.012C319.306 219.216 318.994 219.318 318.598 219.318ZM327.038 231V223.566H324.158V222.09H327.038V220.38C327.038 219.6 327.284 218.988 327.776 218.544C328.268 218.088 328.946 217.86 329.81 217.86H332.708V219.336H329.81C329.438 219.336 329.15 219.426 328.946 219.606C328.754 219.774 328.658 220.032 328.658 220.38V222.09H332.708V223.566H328.658V231H327.038ZM345.034 231V221.1H346.654V222.99H346.996L346.654 223.368C346.654 222.588 346.888 221.988 347.356 221.568C347.824 221.136 348.472 220.92 349.3 220.92C350.296 220.92 351.088 221.226 351.676 221.838C352.264 222.45 352.558 223.284 352.558 224.34V231H350.938V224.52C350.938 223.812 350.746 223.272 350.362 222.9C349.99 222.516 349.48 222.324 348.832 222.324C348.16 222.324 347.626 222.528 347.23 222.936C346.846 223.344 346.654 223.932 346.654 224.7V231H345.034ZM358.928 231.18C358.148 231.18 357.464 231.024 356.876 230.712C356.3 230.4 355.85 229.962 355.526 229.398C355.214 228.822 355.058 228.156 355.058 227.4V224.7C355.058 223.932 355.214 223.266 355.526 222.702C355.85 222.138 356.3 221.7 356.876 221.388C357.464 221.076 358.148 220.92 358.928 220.92C359.708 220.92 360.386 221.076 360.962 221.388C361.55 221.7 362 222.138 362.312 222.702C362.636 223.266 362.798 223.932 362.798 224.7V226.446H356.642V227.4C356.642 228.18 356.84 228.78 357.236 229.2C357.632 229.608 358.196 229.812 358.928 229.812C359.552 229.812 360.056 229.704 360.44 229.488C360.824 229.26 361.058 228.924 361.142 228.48H362.762C362.654 229.308 362.246 229.968 361.538 230.46C360.842 230.94 359.972 231.18 358.928 231.18ZM361.214 225.366V224.7C361.214 223.92 361.016 223.32 360.62 222.9C360.236 222.48 359.672 222.27 358.928 222.27C358.196 222.27 357.632 222.48 357.236 222.9C356.84 223.32 356.642 223.92 356.642 224.7V225.222H361.34L361.214 225.366ZM370.159 231C369.307 231 368.641 230.772 368.161 230.316C367.693 229.86 367.459 229.218 367.459 228.39V222.576H364.669V221.1H367.459V218.31H369.079V221.1H373.039V222.576H369.079V228.39C369.079 229.146 369.439 229.524 370.159 229.524H372.859V231H370.159ZM376.043 231L374.459 221.1H375.899L376.889 228.12C376.925 228.384 376.961 228.672 376.997 228.984C377.045 229.284 377.081 229.536 377.105 229.74C377.129 229.536 377.165 229.284 377.213 228.984C377.273 228.672 377.321 228.384 377.357 228.12L378.455 221.1H380.003L381.101 228.12C381.137 228.384 381.179 228.672 381.227 228.984C381.287 229.284 381.329 229.536 381.353 229.74C381.377 229.536 381.413 229.284 381.461 228.984C381.521 228.672 381.569 228.384 381.605 228.12L382.631 221.1H383.999L382.343 231H380.561L379.499 224.16C379.451 223.824 379.397 223.488 379.337 223.152C379.277 222.816 379.235 222.552 379.211 222.36C379.187 222.552 379.151 222.816 379.103 223.152C379.055 223.488 379.001 223.824 378.941 224.16L377.825 231H376.043ZM389.379 231.144C388.587 231.144 387.903 230.994 387.327 230.694C386.751 230.394 386.301 229.962 385.977 229.398C385.665 228.822 385.509 228.144 385.509 227.364V224.736C385.509 223.944 385.665 223.266 385.977 222.702C386.301 222.138 386.751 221.706 387.327 221.406C387.903 221.106 388.587 220.956 389.379 220.956C390.171 220.956 390.855 221.106 391.431 221.406C392.007 221.706 392.451 222.138 392.763 222.702C393.087 223.266 393.249 223.938 393.249 224.718V227.364C393.249 228.144 393.087 228.822 392.763 229.398C392.451 229.962 392.007 230.394 391.431 230.694C390.855 230.994 390.171 231.144 389.379 231.144ZM389.379 229.704C390.087 229.704 390.639 229.506 391.035 229.11C391.431 228.714 391.629 228.132 391.629 227.364V224.736C391.629 223.968 391.431 223.386 391.035 222.99C390.639 222.594 390.087 222.396 389.379 222.396C388.683 222.396 388.131 222.594 387.723 222.99C387.327 223.386 387.129 223.968 387.129 224.736V227.364C387.129 228.132 387.327 228.714 387.723 229.11C388.131 229.506 388.683 229.704 389.379 229.704ZM396.127 231V221.1H397.711V222.99H398.089L397.567 224.16C397.567 223.092 397.795 222.288 398.251 221.748C398.719 221.196 399.409 220.92 400.321 220.92C401.365 220.92 402.193 221.25 402.805 221.91C403.429 222.558 403.741 223.44 403.741 224.556V225.15H402.121V224.7C402.121 223.92 401.929 223.326 401.545 222.918C401.173 222.498 400.639 222.288 399.943 222.288C399.259 222.288 398.719 222.498 398.323 222.918C397.939 223.338 397.747 223.932 397.747 224.7V231H396.127ZM405.989 231V217.86H407.609V225.186H409.517L412.397 221.1H414.251L410.921 225.816L414.305 231H412.415L409.535 226.59H407.609V231H405.989ZM349.983 241.62V240.18H357.723V241.62H349.983ZM349.983 245.94V244.5H357.723V245.94H349.983ZM370.284 241.62V240.18H378.024V241.62H370.284ZM370.284 245.94V244.5H378.024V245.94H370.284ZM329.809 270.24V257.1H331.429V258.99H331.753L331.429 259.368C331.429 258.612 331.675 258.018 332.167 257.586C332.671 257.142 333.331 256.92 334.147 256.92C335.143 256.92 335.935 257.25 336.523 257.91C337.123 258.558 337.423 259.452 337.423 260.592V263.49C337.423 264.246 337.285 264.9 337.009 265.452C336.745 266.004 336.367 266.43 335.875 266.73C335.395 267.03 334.819 267.18 334.147 267.18C333.343 267.18 332.689 266.958 332.185 266.514C331.681 266.07 331.429 265.476 331.429 264.732L331.753 265.11H331.393L331.429 267.36V270.24H329.809ZM333.607 265.776C334.291 265.776 334.825 265.572 335.209 265.164C335.605 264.756 335.803 264.168 335.803 263.4V260.7C335.803 259.932 335.605 259.344 335.209 258.936C334.825 258.528 334.291 258.324 333.607 258.324C332.947 258.324 332.419 258.534 332.023 258.954C331.627 259.374 331.429 259.956 331.429 260.7V263.4C331.429 264.144 331.627 264.726 332.023 265.146C332.419 265.566 332.947 265.776 333.607 265.776ZM343.703 267.144C342.911 267.144 342.227 266.994 341.651 266.694C341.075 266.394 340.625 265.962 340.301 265.398C339.989 264.822 339.833 264.144 339.833 263.364V260.736C339.833 259.944 339.989 259.266 340.301 258.702C340.625 258.138 341.075 257.706 341.651 257.406C342.227 257.106 342.911 256.956 343.703 256.956C344.495 256.956 345.179 257.106 345.755 257.406C346.331 257.706 346.775 258.138 347.087 258.702C347.411 259.266 347.573 259.938 347.573 260.718V263.364C347.573 264.144 347.411 264.822 347.087 265.398C346.775 265.962 346.331 266.394 345.755 266.694C345.179 266.994 344.495 267.144 343.703 267.144ZM343.703 265.704C344.411 265.704 344.963 265.506 345.359 265.11C345.755 264.714 345.953 264.132 345.953 263.364V260.736C345.953 259.968 345.755 259.386 345.359 258.99C344.963 258.594 344.411 258.396 343.703 258.396C343.007 258.396 342.455 258.594 342.047 258.99C341.651 259.386 341.453 259.968 341.453 260.736V263.364C341.453 264.132 341.651 264.714 342.047 265.11C342.455 265.506 343.007 265.704 343.703 265.704ZM355.203 267C354.627 267 354.123 266.886 353.691 266.658C353.259 266.43 352.923 266.106 352.683 265.686C352.443 265.266 352.323 264.774 352.323 264.21V255.336H348.993V253.86H353.943V264.21C353.943 264.618 354.057 264.942 354.285 265.182C354.513 265.41 354.819 265.524 355.203 265.524H358.353V267H355.203ZM361.808 270.24L363.266 266.388L359.594 257.1H361.394L363.698 263.22C363.782 263.424 363.86 263.67 363.932 263.958C364.004 264.234 364.064 264.468 364.112 264.66C364.16 264.468 364.22 264.234 364.292 263.958C364.364 263.67 364.436 263.424 364.508 263.22L366.668 257.1H368.414L363.536 270.24H361.808ZM371.652 270.24V268.764H374.802C375.306 268.764 375.672 268.65 375.9 268.422C376.14 268.194 376.26 267.84 376.26 267.36V266.1L376.296 264.3H375.972L376.278 264.03C376.278 264.75 376.038 265.32 375.558 265.74C375.078 266.16 374.436 266.37 373.632 266.37C372.612 266.37 371.808 266.04 371.22 265.38C370.632 264.708 370.338 263.808 370.338 262.68V260.592C370.338 259.464 370.632 258.57 371.22 257.91C371.808 257.25 372.612 256.92 373.632 256.92C374.436 256.92 375.078 257.13 375.558 257.55C376.038 257.97 376.278 258.54 376.278 259.26L375.972 258.99H376.278V257.1H377.88V267.36C377.88 268.248 377.604 268.95 377.052 269.466C376.512 269.982 375.756 270.24 374.784 270.24H371.652ZM374.118 264.966C374.79 264.966 375.318 264.756 375.702 264.336C376.086 263.916 376.278 263.334 376.278 262.59V260.7C376.278 259.956 376.086 259.374 375.702 258.954C375.318 258.534 374.79 258.324 374.118 258.324C373.434 258.324 372.9 258.528 372.516 258.936C372.144 259.344 371.958 259.932 371.958 260.7V262.59C371.958 263.358 372.144 263.946 372.516 264.354C372.9 264.762 373.434 264.966 374.118 264.966ZM384.304 267.144C383.512 267.144 382.828 266.994 382.252 266.694C381.676 266.394 381.226 265.962 380.902 265.398C380.59 264.822 380.434 264.144 380.434 263.364V260.736C380.434 259.944 380.59 259.266 380.902 258.702C381.226 258.138 381.676 257.706 382.252 257.406C382.828 257.106 383.512 256.956 384.304 256.956C385.096 256.956 385.78 257.106 386.356 257.406C386.932 257.706 387.376 258.138 387.688 258.702C388.012 259.266 388.174 259.938 388.174 260.718V263.364C388.174 264.144 388.012 264.822 387.688 265.398C387.376 265.962 386.932 266.394 386.356 266.694C385.78 266.994 385.096 267.144 384.304 267.144ZM384.304 265.704C385.012 265.704 385.564 265.506 385.96 265.11C386.356 264.714 386.554 264.132 386.554 263.364V260.736C386.554 259.968 386.356 259.386 385.96 258.99C385.564 258.594 385.012 258.396 384.304 258.396C383.608 258.396 383.056 258.594 382.648 258.99C382.252 259.386 382.054 259.968 382.054 260.736V263.364C382.054 264.132 382.252 264.714 382.648 265.11C383.056 265.506 383.608 265.704 384.304 265.704ZM390.71 267V257.1H392.33V258.99H392.672L392.33 259.368C392.33 258.588 392.564 257.988 393.032 257.568C393.5 257.136 394.148 256.92 394.976 256.92C395.972 256.92 396.764 257.226 397.352 257.838C397.94 258.45 398.234 259.284 398.234 260.34V267H396.614V260.52C396.614 259.812 396.422 259.272 396.038 258.9C395.666 258.516 395.156 258.324 394.508 258.324C393.836 258.324 393.302 258.528 392.906 258.936C392.522 259.344 392.33 259.932 392.33 260.7V267H390.71Z" fill="#FFCB5E"/>
<circle cx="261" cy="242" r="4" fill="#5EAE45" stroke="white"/>
<path d="M101 158C101 158 118.809 242 255 242" stroke="url(#paint1_linear_29_25)" stroke-linecap="round" stroke-linejoin="round" stroke-dasharray="4"/>
<circle cx="175.5" cy="231.5" r="26.5" fill="#5EAE45"/>
<path d="M168.411 236V230.56L166.219 224.8H167.707L169.163 228.624L170.603 224.8H172.091L169.899 230.56V236H168.411ZM172.453 236V224.8H178.405V226.272H173.941V229.056H176.917L176.581 230.544H173.941V234.512H178.405V236H172.453ZM180.026 236C179.706 236 179.434 235.888 179.21 235.664C178.986 235.44 178.874 235.168 178.874 234.848V232.368L180.362 232.704V233.936C180.362 234.096 180.415 234.235 180.522 234.352C180.639 234.459 180.773 234.512 180.922 234.512H182.746C182.906 234.512 183.039 234.459 183.146 234.352C183.263 234.235 183.322 234.096 183.322 233.936V231.12C183.322 230.96 183.263 230.827 183.146 230.72C183.039 230.603 182.906 230.544 182.746 230.544H180.026C179.706 230.544 179.434 230.432 179.21 230.208C178.986 229.984 178.874 229.712 178.874 229.392V225.952C178.874 225.632 178.986 225.36 179.21 225.136C179.434 224.912 179.706 224.8 180.026 224.8H183.658C183.978 224.8 184.25 224.912 184.474 225.136C184.698 225.36 184.81 225.632 184.81 225.952V227.68L183.322 227.328V226.864C183.322 226.704 183.263 226.571 183.146 226.464C183.039 226.347 182.906 226.288 182.746 226.288H180.922C180.773 226.288 180.639 226.347 180.522 226.464C180.415 226.571 180.362 226.704 180.362 226.864V228.48C180.362 228.64 180.415 228.779 180.522 228.896C180.639 229.003 180.773 229.056 180.922 229.056H183.658C183.978 229.056 184.25 229.168 184.474 229.392C184.698 229.616 184.81 229.888 184.81 230.208V234.848C184.81 235.168 184.698 235.44 184.474 235.664C184.25 235.888 183.978 236 183.658 236H180.026Z" fill="white"/>
<circle r="4" transform="matrix(-1 0 0 1 464 242)" fill="#E84142" stroke="white"/>
<path d="M624 158C624 158 606.191 242 470 242" stroke="url(#paint2_linear_29_25)" stroke-linecap="round" stroke-linejoin="round" stroke-dasharray="4"/>
<circle cx="550.5" cy="231.5" r="26.5" fill="#E84142"/>
<path d="M544.219 236V224.8H545.707L548.683 232.272V224.8H550.171V236H548.683L545.707 228.528V236H544.219ZM551.979 236C551.681 236 551.419 235.888 551.195 235.664C550.971 235.44 550.859 235.163 550.859 234.832V225.968C550.859 225.637 550.971 225.36 551.195 225.136C551.419 224.912 551.681 224.8 551.979 224.8H555.611C555.953 224.8 556.23 224.912 556.443 225.136C556.667 225.36 556.779 225.637 556.779 225.968V234.832C556.779 235.163 556.667 235.44 556.443 235.664C556.23 235.888 555.953 236 555.611 236H551.979ZM552.891 234.528H554.699C554.881 234.528 555.025 234.469 555.131 234.352C555.249 234.235 555.307 234.091 555.307 233.92V226.88C555.307 226.699 555.249 226.555 555.131 226.448C555.025 226.331 554.881 226.272 554.699 226.272H552.891C552.742 226.272 552.609 226.331 552.491 226.448C552.385 226.555 552.331 226.699 552.331 226.88V233.92C552.331 234.091 552.385 234.235 552.491 234.352C552.609 234.469 552.742 234.528 552.891 234.528Z" fill="white"/>
<path d="M21.288 125V114.78H22.548V117.3V118.77H22.814L22.548 119.064C22.548 118.457 22.73 117.991 23.094 117.664C23.458 117.328 23.962 117.16 24.606 117.16C25.3807 117.16 25.9967 117.398 26.454 117.874C26.9113 118.35 27.14 118.999 27.14 119.82V125H25.88V119.96C25.88 119.409 25.7307 118.985 25.432 118.686C25.1427 118.378 24.746 118.224 24.242 118.224C23.7193 118.224 23.304 118.387 22.996 118.714C22.6973 119.041 22.548 119.503 22.548 120.1V125H21.288ZM32.9345 125C32.2719 125 31.7539 124.823 31.3805 124.468C31.0165 124.113 30.8345 123.614 30.8345 122.97V118.448H28.6645V117.3H30.8345V115.13H32.0945V117.3H35.1745V118.448H32.0945V122.97C32.0945 123.558 32.3745 123.852 32.9345 123.852H35.0345V125H32.9345ZM40.8291 125C40.1664 125 39.6484 124.823 39.2751 124.468C38.9111 124.113 38.7291 123.614 38.7291 122.97V118.448H36.5591V117.3H38.7291V115.13H39.9891V117.3H43.0691V118.448H39.9891V122.97C39.9891 123.558 40.2691 123.852 40.8291 123.852H42.9291V125H40.8291ZM44.9716 127.52V117.3H46.2316V118.77H46.4836L46.2316 119.064C46.2316 118.476 46.4229 118.014 46.8056 117.678C47.1976 117.333 47.7109 117.16 48.3456 117.16C49.1203 117.16 49.7363 117.417 50.1936 117.93C50.6603 118.434 50.8936 119.129 50.8936 120.016V122.27C50.8936 122.858 50.7863 123.367 50.5716 123.796C50.3663 124.225 50.0723 124.557 49.6896 124.79C49.3163 125.023 48.8683 125.14 48.3456 125.14C47.7203 125.14 47.2116 124.967 46.8196 124.622C46.4276 124.277 46.2316 123.815 46.2316 123.236L46.4836 123.53H46.2036L46.2316 125.28V127.52H44.9716ZM47.9256 124.048C48.4576 124.048 48.8729 123.889 49.1716 123.572C49.4796 123.255 49.6336 122.797 49.6336 122.2V120.1C49.6336 119.503 49.4796 119.045 49.1716 118.728C48.8729 118.411 48.4576 118.252 47.9256 118.252C47.4123 118.252 47.0016 118.415 46.6936 118.742C46.3856 119.069 46.2316 119.521 46.2316 120.1V122.2C46.2316 122.779 46.3856 123.231 46.6936 123.558C47.0016 123.885 47.4123 124.048 47.9256 124.048ZM63.4347 125.112C62.912 125.112 62.4547 125.033 62.0627 124.874C61.68 124.706 61.372 124.473 61.1387 124.174C60.9147 123.875 60.7793 123.521 60.7327 123.11H61.9927C62.0487 123.381 62.198 123.595 62.4407 123.754C62.6927 123.913 63.024 123.992 63.4347 123.992H64.0227C64.5173 123.992 64.886 123.894 65.1287 123.698C65.3713 123.493 65.4927 123.222 65.4927 122.886C65.4927 122.559 65.3807 122.303 65.1567 122.116C64.942 121.92 64.62 121.789 64.1907 121.724L63.1547 121.556C62.3987 121.425 61.834 121.192 61.4607 120.856C61.0967 120.511 60.9147 120.011 60.9147 119.358C60.9147 118.667 61.134 118.135 61.5727 117.762C62.0113 117.379 62.6693 117.188 63.5467 117.188H64.0787C64.816 117.188 65.4087 117.361 65.8567 117.706C66.3047 118.051 66.5753 118.518 66.6687 119.106H65.4087C65.3527 118.863 65.2127 118.672 64.9887 118.532C64.7647 118.383 64.4613 118.308 64.0787 118.308H63.5467C63.0707 118.308 62.7207 118.397 62.4967 118.574C62.282 118.751 62.1747 119.017 62.1747 119.372C62.1747 119.689 62.268 119.923 62.4547 120.072C62.6413 120.221 62.9353 120.329 63.3367 120.394L64.3727 120.562C65.2033 120.693 65.8053 120.935 66.1787 121.29C66.5613 121.645 66.7527 122.158 66.7527 122.83C66.7527 123.539 66.524 124.099 66.0667 124.51C65.6187 124.911 64.9373 125.112 64.0227 125.112H63.4347ZM71.5672 125.14C70.9605 125.14 70.4285 125.019 69.9712 124.776C69.5232 124.533 69.1732 124.193 68.9212 123.754C68.6785 123.306 68.5572 122.788 68.5572 122.2V120.1C68.5572 119.503 68.6785 118.985 68.9212 118.546C69.1732 118.107 69.5232 117.767 69.9712 117.524C70.4285 117.281 70.9605 117.16 71.5672 117.16C72.1739 117.16 72.7012 117.281 73.1492 117.524C73.6065 117.767 73.9565 118.107 74.1992 118.546C74.4512 118.985 74.5772 119.503 74.5772 120.1V121.458H69.7892V122.2C69.7892 122.807 69.9432 123.273 70.2512 123.6C70.5592 123.917 70.9979 124.076 71.5672 124.076C72.0525 124.076 72.4445 123.992 72.7432 123.824C73.0419 123.647 73.2239 123.385 73.2892 123.04H74.5492C74.4652 123.684 74.1479 124.197 73.5972 124.58C73.0559 124.953 72.3792 125.14 71.5672 125.14ZM73.3452 120.618V120.1C73.3452 119.493 73.1912 119.027 72.8832 118.7C72.5845 118.373 72.1459 118.21 71.5672 118.21C70.9979 118.21 70.5592 118.373 70.2512 118.7C69.9432 119.027 69.7892 119.493 69.7892 120.1V120.506H73.4432L73.3452 120.618ZM76.5497 125V117.3H77.8097V118.77H78.0757L77.8097 119.064C77.8097 118.457 77.9917 117.991 78.3557 117.664C78.7197 117.328 79.2237 117.16 79.8677 117.16C80.6424 117.16 81.2584 117.398 81.7157 117.874C82.1731 118.35 82.4017 118.999 82.4017 119.82V125H81.1417V119.96C81.1417 119.409 80.9924 118.989 80.6937 118.7C80.4044 118.401 80.0077 118.252 79.5037 118.252C78.9811 118.252 78.5657 118.411 78.2577 118.728C77.9591 119.045 77.8097 119.503 77.8097 120.1V125H76.5497ZM88.1963 125C87.5336 125 87.0156 124.823 86.6423 124.468C86.2783 124.113 86.0963 123.614 86.0963 122.97V118.448H83.9263V117.3H86.0963V115.13H87.3563V117.3H90.4363V118.448H87.3563V122.97C87.3563 123.558 87.6363 123.852 88.1963 123.852H90.2963V125H88.1963ZM25.04 143C24.3773 143 23.8593 142.823 23.486 142.468C23.122 142.113 22.94 141.614 22.94 140.97V136.448H20.77V135.3H22.94V133.13H24.2V135.3H27.28V136.448H24.2V140.97C24.2 141.558 24.48 141.852 25.04 141.852H27.14V143H25.04ZM32.0945 143.112C31.4785 143.112 30.9465 142.995 30.4985 142.762C30.0505 142.529 29.7005 142.193 29.4485 141.754C29.2059 141.306 29.0845 140.779 29.0845 140.172V138.128C29.0845 137.512 29.2059 136.985 29.4485 136.546C29.7005 136.107 30.0505 135.771 30.4985 135.538C30.9465 135.305 31.4785 135.188 32.0945 135.188C32.7105 135.188 33.2425 135.305 33.6905 135.538C34.1385 135.771 34.4839 136.107 34.7265 136.546C34.9785 136.985 35.1045 137.507 35.1045 138.114V140.172C35.1045 140.779 34.9785 141.306 34.7265 141.754C34.4839 142.193 34.1385 142.529 33.6905 142.762C33.2425 142.995 32.7105 143.112 32.0945 143.112ZM32.0945 141.992C32.6452 141.992 33.0745 141.838 33.3825 141.53C33.6905 141.222 33.8445 140.769 33.8445 140.172V138.128C33.8445 137.531 33.6905 137.078 33.3825 136.77C33.0745 136.462 32.6452 136.308 32.0945 136.308C31.5532 136.308 31.1239 136.462 30.8065 136.77C30.4985 137.078 30.3445 137.531 30.3445 138.128V140.172C30.3445 140.769 30.4985 141.222 30.8065 141.53C31.1239 141.838 31.5532 141.992 32.0945 141.992ZM45.4056 143L44.1736 135.3H45.2936L46.0636 140.76C46.0916 140.965 46.1196 141.189 46.1476 141.432C46.1849 141.665 46.2129 141.861 46.2316 142.02C46.2503 141.861 46.2783 141.665 46.3156 141.432C46.3623 141.189 46.3996 140.965 46.4276 140.76L47.2816 135.3H48.4856L49.3396 140.76C49.3676 140.965 49.4003 141.189 49.4376 141.432C49.4843 141.665 49.5169 141.861 49.5356 142.02C49.5543 141.861 49.5823 141.665 49.6196 141.432C49.6663 141.189 49.7036 140.965 49.7316 140.76L50.5296 135.3H51.5936L50.3056 143H48.9196L48.0936 137.68C48.0563 137.419 48.0143 137.157 47.9676 136.896C47.9209 136.635 47.8883 136.429 47.8696 136.28C47.8509 136.429 47.8229 136.635 47.7856 136.896C47.7483 137.157 47.7063 137.419 47.6596 137.68L46.7916 143H45.4056ZM55.7781 143.14C55.1715 143.14 54.6395 143.019 54.1821 142.776C53.7341 142.533 53.3841 142.193 53.1321 141.754C52.8895 141.306 52.7681 140.788 52.7681 140.2V138.1C52.7681 137.503 52.8895 136.985 53.1321 136.546C53.3841 136.107 53.7341 135.767 54.1821 135.524C54.6395 135.281 55.1715 135.16 55.7781 135.16C56.3848 135.16 56.9121 135.281 57.3601 135.524C57.8175 135.767 58.1675 136.107 58.4101 136.546C58.6621 136.985 58.7881 137.503 58.7881 138.1V139.458H54.0001V140.2C54.0001 140.807 54.1541 141.273 54.4621 141.6C54.7701 141.917 55.2088 142.076 55.7781 142.076C56.2635 142.076 56.6555 141.992 56.9541 141.824C57.2528 141.647 57.4348 141.385 57.5001 141.04H58.7601C58.6761 141.684 58.3588 142.197 57.8081 142.58C57.2668 142.953 56.5901 143.14 55.7781 143.14ZM57.5561 138.618V138.1C57.5561 137.493 57.4021 137.027 57.0941 136.7C56.7955 136.373 56.3568 136.21 55.7781 136.21C55.2088 136.21 54.7701 136.373 54.4621 136.7C54.1541 137.027 54.0001 137.493 54.0001 138.1V138.506H57.6541L57.5561 138.618ZM64.1207 143.14C63.486 143.14 62.9773 142.972 62.5947 142.636C62.212 142.291 62.0207 141.824 62.0207 141.236L62.2727 141.53H62.0207V143H60.7607V132.78H62.0207V135.02L61.9927 136.77H62.2727L62.0207 137.064C62.0207 136.485 62.212 136.023 62.5947 135.678C62.9867 135.333 63.4953 135.16 64.1207 135.16C64.8953 135.16 65.516 135.417 65.9827 135.93C66.4493 136.443 66.6827 137.143 66.6827 138.03V140.284C66.6827 141.161 66.4493 141.857 65.9827 142.37C65.516 142.883 64.8953 143.14 64.1207 143.14ZM63.7007 142.048C64.2327 142.048 64.6527 141.889 64.9607 141.572C65.2687 141.255 65.4227 140.797 65.4227 140.2V138.1C65.4227 137.503 65.2687 137.045 64.9607 136.728C64.6527 136.411 64.2327 136.252 63.7007 136.252C63.1873 136.252 62.7767 136.415 62.4687 136.742C62.17 137.069 62.0207 137.521 62.0207 138.1V140.2C62.0207 140.779 62.17 141.231 62.4687 141.558C62.7767 141.885 63.1873 142.048 63.7007 142.048ZM68.6552 143V132.78H69.9152V135.3V136.77H70.1812L69.9152 137.064C69.9152 136.457 70.0972 135.991 70.4612 135.664C70.8252 135.328 71.3292 135.16 71.9732 135.16C72.7479 135.16 73.3639 135.398 73.8212 135.874C74.2785 136.35 74.5072 136.999 74.5072 137.82V143H73.2472V137.96C73.2472 137.409 73.0979 136.985 72.7992 136.686C72.5099 136.378 72.1132 136.224 71.6092 136.224C71.0865 136.224 70.6712 136.387 70.3632 136.714C70.0645 137.041 69.9152 137.503 69.9152 138.1V143H68.6552ZM79.4617 143.112C78.8457 143.112 78.3137 142.995 77.8657 142.762C77.4177 142.529 77.0677 142.193 76.8157 141.754C76.5731 141.306 76.4517 140.779 76.4517 140.172V138.128C76.4517 137.512 76.5731 136.985 76.8157 136.546C77.0677 136.107 77.4177 135.771 77.8657 135.538C78.3137 135.305 78.8457 135.188 79.4617 135.188C80.0777 135.188 80.6097 135.305 81.0577 135.538C81.5057 135.771 81.8511 136.107 82.0937 136.546C82.3457 136.985 82.4717 137.507 82.4717 138.114V140.172C82.4717 140.779 82.3457 141.306 82.0937 141.754C81.8511 142.193 81.5057 142.529 81.0577 142.762C80.6097 142.995 80.0777 143.112 79.4617 143.112ZM79.4617 141.992C80.0124 141.992 80.4417 141.838 80.7497 141.53C81.0577 141.222 81.2117 140.769 81.2117 140.172V138.128C81.2117 137.531 81.0577 137.078 80.7497 136.77C80.4417 136.462 80.0124 136.308 79.4617 136.308C78.9204 136.308 78.4911 136.462 78.1737 136.77C77.8657 137.078 77.7117 137.531 77.7117 138.128V140.172C77.7117 140.769 77.8657 141.222 78.1737 141.53C78.4911 141.838 78.9204 141.992 79.4617 141.992ZM87.1183 143.112C86.5956 143.112 86.1383 143.033 85.7463 142.874C85.3636 142.706 85.0556 142.473 84.8223 142.174C84.5983 141.875 84.4629 141.521 84.4163 141.11H85.6763C85.7323 141.381 85.8816 141.595 86.1243 141.754C86.3763 141.913 86.7076 141.992 87.1183 141.992H87.7063C88.2009 141.992 88.5696 141.894 88.8123 141.698C89.0549 141.493 89.1763 141.222 89.1763 140.886C89.1763 140.559 89.0643 140.303 88.8403 140.116C88.6256 139.92 88.3036 139.789 87.8743 139.724L86.8383 139.556C86.0823 139.425 85.5176 139.192 85.1443 138.856C84.7803 138.511 84.5983 138.011 84.5983 137.358C84.5983 136.667 84.8176 136.135 85.2563 135.762C85.6949 135.379 86.3529 135.188 87.2303 135.188H87.7623C88.4996 135.188 89.0923 135.361 89.5403 135.706C89.9883 136.051 90.2589 136.518 90.3522 137.106H89.0923C89.0363 136.863 88.8963 136.672 88.6723 136.532C88.4483 136.383 88.1449 136.308 87.7623 136.308H87.2303C86.7543 136.308 86.4043 136.397 86.1803 136.574C85.9656 136.751 85.8583 137.017 85.8583 137.372C85.8583 137.689 85.9516 137.923 86.1383 138.072C86.3249 138.221 86.6189 138.329 87.0203 138.394L88.0563 138.562C88.8869 138.693 89.4889 138.935 89.8623 139.29C90.2449 139.645 90.4363 140.158 90.4363 140.83C90.4363 141.539 90.2076 142.099 89.7503 142.51C89.3023 142.911 88.6209 143.112 87.7063 143.112H87.1183ZM96.0908 143C95.4281 143 94.9101 142.823 94.5368 142.468C94.1728 142.113 93.9908 141.614 93.9908 140.97V136.448H91.8208V135.3H93.9908V133.13H95.2508V135.3H98.3308V136.448H95.2508V140.97C95.2508 141.558 95.5308 141.852 96.0908 141.852H98.1908V143H96.0908Z" fill="#FFCB5E"/>
<circle cx="624.5" cy="128.5" r="34.5" fill="url(#paint3_linear_29_25)"/>
<path d="M612.47 135V121H619.91V122.84H614.33V126.32H618.05L617.63 128.18H614.33V133.14H619.91V135H612.47ZM620.346 135L623.126 128L620.346 121H622.206L624.066 125.66L625.926 121H627.766L624.986 128L627.766 135H625.926L624.066 130.34L622.206 135H620.346ZM628.814 135V121H630.674V135H628.814ZM633.963 135V122.86H631.183V121H638.603V122.86H635.823V135H633.963Z" fill="#FFCB5E"/>
<path d="M363.5 67L364 111.5" stroke="url(#paint4_linear_29_25)" stroke-linecap="round" stroke-linejoin="round" stroke-dasharray="4"/>
<path d="M363.5 180L364 135.5" stroke="url(#paint5_linear_29_25)" stroke-linecap="round" stroke-linejoin="round" stroke-dasharray="4"/>
<path fill-rule="evenodd" clip-rule="evenodd" d="M306 120C306 117.2 306 115.8 306.545 114.73C307.024 113.789 307.789 113.024 308.73 112.545C309.8 112 311.2 112 314 112H412C414.8 112 416.2 112 417.27 112.545C418.211 113.024 418.976 113.789 419.455 114.73C420 115.8 420 117.2 420 120V127C420 129.8 420 131.2 419.455 132.27C418.976 133.211 418.211 133.976 417.27 134.455C416.2 135 414.8 135 412 135H314C311.2 135 309.8 135 308.73 134.455C307.789 133.976 307.024 133.211 306.545 132.27C306 131.2 306 129.8 306 127V120Z" fill="url(#paint6_linear_29_25)"/>
<path d="M317.172 129V117.8H318.66L321.636 125.272V117.8H323.124V129H321.636L318.66 121.528V129H317.172ZM323.969 129V117.8H329.921V119.272H325.457V122.056H328.433L328.097 123.544H325.457V127.512H329.921V129H323.969ZM332.641 129L330.449 117.8H331.937L333.425 125.368L334.913 117.8H336.401L337.873 125.368L339.361 117.8H340.849L338.657 129H337.105L335.649 121.576L334.193 129H332.641ZM346.066 129V119.288H343.842V117.8H349.778V119.288H347.554V129H346.066ZM350.218 129V117.8H355.018C355.327 117.8 355.594 117.912 355.818 118.136C356.042 118.36 356.154 118.632 356.154 118.952V122.392C356.154 122.712 356.042 122.984 355.818 123.208C355.594 123.432 355.327 123.544 355.018 123.544H354.682L356.154 129H354.682L353.194 123.544H351.706V129H350.218ZM351.706 122.056H354.106C354.255 122.056 354.388 122.003 354.506 121.896C354.623 121.779 354.682 121.64 354.682 121.48V119.864C354.682 119.704 354.623 119.571 354.506 119.464C354.388 119.347 354.255 119.288 354.106 119.288H351.706V122.056ZM356.485 129.016L358.741 117.816H360.197L362.421 129.016H360.933L360.501 126.92H358.373L357.973 129.016H356.485ZM358.661 125.448H360.245L359.477 121.464L358.661 125.448ZM362.781 129V117.8H364.269L367.245 125.272V117.8H368.733V129H367.245L364.269 121.528V129H362.781ZM370.385 129C370.065 129 369.793 128.888 369.569 128.664C369.345 128.44 369.233 128.168 369.233 127.848V125.368L370.721 125.704V126.936C370.721 127.096 370.775 127.235 370.881 127.352C370.999 127.459 371.132 127.512 371.281 127.512H373.105C373.265 127.512 373.399 127.459 373.505 127.352C373.623 127.235 373.681 127.096 373.681 126.936V124.12C373.681 123.96 373.623 123.827 373.505 123.72C373.399 123.603 373.265 123.544 373.105 123.544H370.385C370.065 123.544 369.793 123.432 369.569 123.208C369.345 122.984 369.233 122.712 369.233 122.392V118.952C369.233 118.632 369.345 118.36 369.569 118.136C369.793 117.912 370.065 117.8 370.385 117.8H374.017C374.337 117.8 374.609 117.912 374.833 118.136C375.057 118.36 375.169 118.632 375.169 118.952V120.68L373.681 120.328V119.864C373.681 119.704 373.623 119.571 373.505 119.464C373.399 119.347 373.265 119.288 373.105 119.288H371.281C371.132 119.288 370.999 119.347 370.881 119.464C370.775 119.571 370.721 119.704 370.721 119.864V121.48C370.721 121.64 370.775 121.779 370.881 121.896C370.999 122.003 371.132 122.056 371.281 122.056H374.017C374.337 122.056 374.609 122.168 374.833 122.392C375.057 122.616 375.169 122.888 375.169 123.208V127.848C375.169 128.168 375.057 128.44 374.833 128.664C374.609 128.888 374.337 129 374.017 129H370.385ZM375.344 129.016L377.6 117.816H379.056L381.28 129.016H379.792L379.36 126.92H377.232L376.832 129.016H375.344ZM377.52 125.448H379.104L378.336 121.464L377.52 125.448ZM383.433 129C383.134 129 382.868 128.888 382.633 128.664C382.398 128.44 382.281 128.168 382.281 127.848V118.952C382.281 118.643 382.398 118.376 382.633 118.152C382.868 117.917 383.134 117.8 383.433 117.8H387.065C387.396 117.8 387.668 117.917 387.881 118.152C388.105 118.376 388.217 118.643 388.217 118.952V121.032L386.729 121.368V119.864C386.729 119.715 386.676 119.581 386.569 119.464C386.473 119.347 386.34 119.288 386.169 119.288H384.345C384.196 119.288 384.062 119.347 383.945 119.464C383.828 119.581 383.769 119.715 383.769 119.864V126.936C383.769 127.107 383.828 127.245 383.945 127.352C384.062 127.459 384.196 127.512 384.345 127.512H386.169C386.34 127.512 386.473 127.459 386.569 127.352C386.676 127.245 386.729 127.107 386.729 126.936V125.768L388.217 125.416V127.848C388.217 128.168 388.105 128.44 387.881 128.664C387.668 128.888 387.396 129 387.065 129H383.433ZM390.91 129V119.288H388.686V117.8H394.622V119.288H392.398V129H390.91ZM395.094 129V117.8H396.582V129H395.094ZM398.385 129C398.087 129 397.825 128.888 397.601 128.664C397.377 128.44 397.265 128.163 397.265 127.832V118.968C397.265 118.637 397.377 118.36 397.601 118.136C397.825 117.912 398.087 117.8 398.385 117.8H402.017C402.359 117.8 402.636 117.912 402.849 118.136C403.073 118.36 403.185 118.637 403.185 118.968V127.832C403.185 128.163 403.073 128.44 402.849 128.664C402.636 128.888 402.359 129 402.017 129H398.385ZM399.297 127.528H401.105C401.287 127.528 401.431 127.469 401.537 127.352C401.655 127.235 401.713 127.091 401.713 126.92V119.88C401.713 119.699 401.655 119.555 401.537 119.448C401.431 119.331 401.287 119.272 401.105 119.272H399.297C399.148 119.272 399.015 119.331 398.897 119.448C398.791 119.555 398.737 119.699 398.737 119.88V126.92C398.737 127.091 398.791 127.235 398.897 127.352C399.015 127.469 399.148 127.528 399.297 127.528ZM403.875 129V117.8H405.363L408.339 125.272V117.8H409.827V129H408.339L405.363 121.528V129H403.875Z" fill="#FFCB5E"/>
<g filter="url(#filter0_b_29_25)">
<circle cx="363.5" cy="34.5" r="34.5" fill="black"/>
</g>
<path d="M363.496 14L363.223 14.9116V41.3604L363.496 41.6281L375.992 34.3711L363.496 14Z" fill="#343434"/>
<path d="M363.496 14L351 34.3711L363.496 41.6281V28.7906V14Z" fill="#BCBCBC"/>
<path d="M363.496 43.9526L363.342 44.137V53.5585L363.496 54L376 36.6993L363.496 43.9526Z" fill="#3C3C3B"/>
<path d="M363.496 54V43.9526L351 36.6993L363.496 54Z" fill="#BCBCBC"/>
<path d="M363.496 41.6281L375.992 34.3711L363.496 28.7906V41.6281Z" fill="#141414"/>
<path d="M351 34.3711L363.496 41.6281V28.7906L351 34.3711Z" fill="#393939"/>
<defs>
<filter id="filter0_b_29_25" x="301.817" y="-27.1828" width="123.366" height="123.366" filterUnits="userSpaceOnUse" color-interpolation-filters="sRGB">
<feFlood flood-opacity="0" result="BackgroundImageFix"/>
<feGaussianBlur in="BackgroundImage" stdDeviation="13.5914"/>
<feComposite in2="SourceAlpha" operator="in" result="effect1_backgroundBlur_29_25"/>
<feBlend mode="normal" in="SourceGraphic" in2="effect1_backgroundBlur_29_25" result="shape"/>
</filter>
<linearGradient id="paint0_linear_29_25" x1="-144.912" y1="92.1795" x2="-144.025" y2="277.248" gradientUnits="userSpaceOnUse">
<stop stop-color="#50104C"/>
<stop offset="1" stop-color="#11073B"/>
</linearGradient>
<linearGradient id="paint1_linear_29_25" x1="255" y1="242" x2="255" y2="158" gradientUnits="userSpaceOnUse">
<stop stop-color="white"/>
<stop offset="0.514733" stop-color="white" stop-opacity="0.903398"/>
<stop offset="1" stop-color="#390B34" stop-opacity="0.01"/>
</linearGradient>
<linearGradient id="paint2_linear_29_25" x1="470" y1="242" x2="470" y2="158" gradientUnits="userSpaceOnUse">
<stop stop-color="white"/>
<stop offset="0.514733" stop-color="white" stop-opacity="0.903398"/>
<stop offset="1" stop-color="#390B34" stop-opacity="0.01"/>
</linearGradient>
<linearGradient id="paint3_linear_29_25" x1="540.5" y1="95.0708" x2="542.642" y2="263.07" gradientUnits="userSpaceOnUse">
<stop stop-color="#50104C"/>
<stop offset="1" stop-color="#11073B"/>
</linearGradient>
<linearGradient id="paint4_linear_29_25" x1="363" y1="112" x2="363" y2="67" gradientUnits="userSpaceOnUse">
<stop stop-color="#FFCA5E"/>
<stop offset="0.514733" stop-color="#FFC85E" stop-opacity="0.902664"/>
<stop offset="1" stop-color="#FFBE5E" stop-opacity="0.01"/>
</linearGradient>
<linearGradient id="paint5_linear_29_25" x1="363" y1="135" x2="363" y2="180" gradientUnits="userSpaceOnUse">
<stop stop-color="#FFCA5E"/>
<stop offset="0.514733" stop-color="#FFC85E" stop-opacity="0.902664"/>
<stop offset="1" stop-color="#FFBE5E" stop-opacity="0.01"/>
</linearGradient>
<linearGradient id="paint6_linear_29_25" x1="224.218" y1="112.357" x2="224.362" y2="168.366" gradientUnits="userSpaceOnUse">
<stop stop-color="#50104C"/>
<stop offset="1" stop-color="#11073B"/>
</linearGradient>
</defs>
</svg>
