<svg width="710" height="460" viewBox="0 0 710 460" fill="none" xmlns="http://www.w3.org/2000/svg">
<mask id="mask0_0_645" style="mask-type:alpha" maskUnits="userSpaceOnUse" x="0" y="0" width="710" height="460">
<rect width="710" height="460" fill="white"/>
</mask>
<g mask="url(#mask0_0_645)">
<g filter="url(#filter0_f_0_645)">
<path fill-rule="evenodd" clip-rule="evenodd" d="M283 77.5L310.269 62L337.537 77.5L310.269 93L283 77.5Z" fill="#FF9B61"/>
</g>
<path opacity="0.05" fill-rule="evenodd" clip-rule="evenodd" d="M136 132.5L184.5 106.5L218.5 114.5L252 132.5L212.5 178.5L136 132.5Z" fill="url(#paint0_linear_0_645)"/>
<path opacity="0.05" fill-rule="evenodd" clip-rule="evenodd" d="M272 230.5L301.5 255.5L320 265.5L397 221L381 200L355.5 185.5L309.5 210L272 230.5Z" fill="url(#paint1_linear_0_645)"/>
<path opacity="0.5" d="M374 196L355.5 185.5L287.5 223.5" stroke="url(#paint2_linear_0_645)" stroke-linecap="round" stroke-linejoin="round" stroke-dasharray="4"/>
<path opacity="0.5" d="M323 76L357.5 96.5L289.5 134.5" stroke="url(#paint3_linear_0_645)" stroke-linecap="round" stroke-linejoin="round" stroke-dasharray="4"/>
<path opacity="0.5" d="M212.5 166.5V178.5L136 132.5L164 116.5V106.5" stroke="url(#paint4_linear_0_645)" stroke-linecap="round" stroke-linejoin="round" stroke-dasharray="4"/>
<path opacity="0.5" d="M215 355L194.5 369.5L29.5 275.5L95 239.5" stroke="url(#paint5_linear_0_645)" stroke-linecap="round" stroke-linejoin="round" stroke-dasharray="4"/>
<g filter="url(#filter1_f_0_645)">
<path fill-rule="evenodd" clip-rule="evenodd" d="M144 111L191.5 84L239 111L191.5 138L144 111Z" fill="#27BFFF"/>
</g>
<g filter="url(#filter2_f_0_645)">
<path fill-rule="evenodd" clip-rule="evenodd" d="M591 260.5L634 236L677 260.5L634 285L591 260.5Z" fill="#FFC85E"/>
</g>
<g filter="url(#filter3_f_0_645)">
<path fill-rule="evenodd" clip-rule="evenodd" d="M73 238L120.5 211L168 238L120.5 265L73 238Z" fill="#FF9B61"/>
</g>
<g filter="url(#filter4_f_0_645)">
<path fill-rule="evenodd" clip-rule="evenodd" d="M193 246.5L263.5 206L334 246.5L263.5 287L193 246.5Z" fill="#FFC85E"/>
</g>
<path fill-rule="evenodd" clip-rule="evenodd" d="M192 20L239.5 47.3248V102.675L192 130L144.5 102.675V47.3248L192 20Z" fill="#FF9C2A"/>
<path fill-rule="evenodd" clip-rule="evenodd" d="M192 74.6497L239.5 47.3248V102.675L192 130V74.6497Z" fill="url(#paint6_linear_0_645)"/>
<path opacity="0.2" fill-rule="evenodd" clip-rule="evenodd" d="M197.588 92.1733C197.588 91.9612 197.588 91.8551 197.619 91.7602C197.647 91.6762 197.691 91.599 197.75 91.5334C197.817 91.4594 197.909 91.4066 198.093 91.3009L233.802 70.804C234.297 70.5201 234.544 70.3782 234.747 70.3998C234.924 70.4187 235.085 70.5118 235.189 70.6558C235.309 70.8209 235.309 71.1061 235.309 71.6764V81.0901C235.309 81.3023 235.309 81.4083 235.278 81.5032C235.251 81.5872 235.206 81.6645 235.147 81.73C235.08 81.8041 234.988 81.8569 234.804 81.9625L199.095 102.459C198.6 102.743 198.353 102.885 198.15 102.864C197.973 102.845 197.813 102.752 197.708 102.608C197.588 102.442 197.588 102.157 197.588 101.587V92.1733Z" fill="url(#paint7_linear_0_645)"/>
<path fill-rule="evenodd" clip-rule="evenodd" d="M200.732 80.206L204.704 77.9159V82.5548L200.732 84.8449V80.206Z" fill="url(#paint8_linear_0_645)"/>
<path opacity="0.3" fill-rule="evenodd" clip-rule="evenodd" d="M211.419 75.381L208.904 76.8535V79.1757L211.419 77.7032V75.381ZM213.934 73.9085V76.2306L216.449 74.7581V72.436L213.934 73.9085ZM221.478 71.8131L218.963 73.2856V70.9635L221.478 69.491V71.8131ZM223.993 70.3406L233.108 65.0028V62.6807L223.993 68.0185V70.3406Z" fill="url(#paint9_linear_0_645)"/>
<path fill-rule="evenodd" clip-rule="evenodd" d="M200.732 93.6462L204.704 91.3561V95.995L200.732 98.285V93.6462Z" fill="url(#paint10_linear_0_645)"/>
<path opacity="0.3" fill-rule="evenodd" clip-rule="evenodd" d="M216.449 85.8762L208.904 90.2937V92.6158L216.449 88.1983V85.8762ZM218.963 84.4037V86.7258L221.478 85.2533V82.9312L218.963 84.4037ZM226.507 82.3083L223.993 83.7808V81.4587L226.507 79.9862V82.3083ZM229.022 80.8358L233.108 78.443V76.1208L229.022 78.5137V80.8358Z" fill="url(#paint11_linear_0_645)"/>
<path fill-rule="evenodd" clip-rule="evenodd" d="M192 74.6497L144.5 47.3248V102.675L192 130V74.6497Z" fill="url(#paint12_linear_0_645)"/>
<path fill-rule="evenodd" clip-rule="evenodd" d="M157.601 87.9C157.167 87.6258 156.78 87.1525 156.439 86.4803C156.098 85.808 155.927 85.1455 155.927 84.4929V66.3491C155.927 65.7182 156.098 65.2766 156.439 65.0243C156.78 64.772 157.167 64.7829 157.601 65.0571L162.878 68.3912C163.359 68.6948 163.758 69.1808 164.075 69.8492C164.393 70.5177 164.552 71.1674 164.552 71.7983V76.0405L162.39 75.3599V72.2924C162.39 71.9878 162.316 71.6694 162.169 71.337C162.022 71.0047 161.824 70.7602 161.576 70.6035L158.926 68.9291C158.709 68.792 158.515 68.7893 158.345 68.9209C158.174 69.0525 158.089 69.2706 158.089 69.5751V83.9988C158.089 84.3469 158.174 84.6835 158.345 85.0088C158.515 85.3341 158.709 85.5652 158.926 85.7023L161.576 87.3767C161.824 87.5334 162.022 87.5495 162.169 87.425C162.316 87.3004 162.39 87.0641 162.39 86.716V84.3339L164.552 84.9819V89.9421C164.552 90.5947 164.393 91.0491 164.075 91.3052C163.758 91.5614 163.359 91.5377 162.878 91.2341L157.601 87.9ZM166.801 93.7128V70.8699L168.963 72.2359L172.195 88.2117L175.426 76.3191L177.588 77.6851V100.528L175.426 99.162V85.5868L173.264 93.5212L171.125 92.1699L168.963 81.5036V95.0788L166.801 93.7128ZM161.7 95.1185L156.089 91.5732V99.45L161.7 102.995V95.1185ZM164.105 96.638L169.717 100.183V108.06L164.105 104.515V96.638ZM177.733 105.248L172.122 101.703V109.58L177.733 113.125V105.248Z" fill="#269BD3"/>
<path fill-rule="evenodd" clip-rule="evenodd" d="M144.5 47.3248L192 20L239.5 47.3248L192 74.6497L144.5 47.3248Z" fill="url(#paint13_linear_0_645)"/>
<path fill-rule="evenodd" clip-rule="evenodd" d="M158.471 47.6751L191.651 28.4076L224.831 47.6751L191.651 66.9426L158.471 47.6751Z" fill="url(#paint14_linear_0_645)"/>
<path opacity="0.5" fill-rule="evenodd" clip-rule="evenodd" d="M191.651 28.4076L158.471 47.6751L159.677 48.3757L191.651 29.8089L223.624 48.3757L224.831 47.6751L191.651 28.4076Z" fill="url(#paint15_linear_0_645)"/>
<path fill-rule="evenodd" clip-rule="evenodd" d="M168.948 48.0254L173.838 45.2229L178.728 48.0254L173.838 50.828L168.948 48.0254Z" fill="url(#paint16_linear_0_645)"/>
<path fill-rule="evenodd" clip-rule="evenodd" d="M186.412 57.1337L191.301 54.3312L196.191 57.1337L191.301 59.9363L186.412 57.1337Z" fill="url(#paint17_linear_0_645)"/>
<path fill-rule="evenodd" clip-rule="evenodd" d="M204.573 47.3249L209.463 44.5223L214.353 47.3249L209.463 50.1274L204.573 47.3249Z" fill="url(#paint18_linear_0_645)"/>
<path fill-rule="evenodd" clip-rule="evenodd" d="M186.412 38.9172L191.301 36.1146L196.191 38.9172L191.301 41.7197L186.412 38.9172Z" fill="url(#paint19_linear_0_645)"/>
<path opacity="0.5" d="M218.5 114.5L248 130" stroke="url(#paint20_linear_0_645)" stroke-linecap="round" stroke-linejoin="round" stroke-dasharray="4"/>
<path fill-rule="evenodd" clip-rule="evenodd" d="M264 119L332 158V237L264 276L196 237V158L264 119Z" fill="#FF9C2A"/>
<path fill-rule="evenodd" clip-rule="evenodd" d="M264 197L332 158V237L264 276V197Z" fill="url(#paint21_linear_0_645)"/>
<path opacity="0.5" fill-rule="evenodd" clip-rule="evenodd" d="M272 226.098C272 225.794 272 225.642 272.044 225.506C272.084 225.385 272.148 225.275 272.233 225.181C272.329 225.075 272.461 224.999 272.725 224.848L323.845 195.593C324.552 195.188 324.906 194.986 325.196 195.017C325.45 195.044 325.679 195.178 325.829 195.384C326 195.62 326 196.028 326 196.843V210.272C326 210.576 326 210.728 325.956 210.864C325.916 210.984 325.852 211.095 325.767 211.189C325.671 211.295 325.539 211.37 325.275 211.521L274.155 240.776C273.448 241.181 273.094 241.384 272.804 241.352C272.55 241.325 272.321 241.192 272.171 240.986C272 240.749 272 240.342 272 239.526V226.098Z" fill="url(#paint22_linear_0_645)"/>
<path fill-rule="evenodd" clip-rule="evenodd" d="M276.5 209.013L282.187 205.745V212.366L276.5 215.634V209.013Z" fill="#FFCD5E"/>
<path opacity="0.6" fill-rule="evenodd" clip-rule="evenodd" d="M291.8 202.127L288.2 204.229V207.543L291.8 205.441V202.127ZM295.4 200.025V203.34L299 201.238V197.924L295.4 200.025ZM306.2 197.035L302.6 199.136V195.822L306.2 193.72V197.035ZM309.8 194.933L322.85 187.314V184L309.8 191.619V194.933Z" fill="#FFCB5E"/>
<path fill-rule="evenodd" clip-rule="evenodd" d="M276.5 228.196L282.187 224.928V231.549L276.5 234.817V228.196Z" fill="#FFCD5E"/>
<path opacity="0.5" fill-rule="evenodd" clip-rule="evenodd" d="M299 217.106L288.2 223.411V226.726L299 220.421V217.106ZM302.6 215.005V218.319L306.2 216.217V212.903L302.6 215.005ZM313.4 212.014L309.8 214.116V210.801L313.4 208.7V212.014ZM317 209.912L322.85 206.497V203.183L317 206.598V209.912Z" fill="#FFCB5E"/>
<path fill-rule="evenodd" clip-rule="evenodd" d="M276.5 247.379L282.187 244.11V250.731L276.5 254V247.379Z" fill="#FFCD5E"/>
<path opacity="0.7" fill-rule="evenodd" clip-rule="evenodd" d="M299 236.289L288.2 242.594V245.909L299 239.604V236.289ZM302.6 234.188V237.502L306.2 235.4V232.086L302.6 234.188ZM313.4 231.197L309.8 233.299V229.984L313.4 227.883V231.197ZM317 229.095L322.85 225.68V222.366L317 225.781V229.095Z" fill="#FFCB5E"/>
<path fill-rule="evenodd" clip-rule="evenodd" d="M264 197L196 158V237L264 276V197Z" fill="url(#paint23_linear_0_645)"/>
<path fill-rule="evenodd" clip-rule="evenodd" d="M214.755 215.912C214.134 215.52 213.579 214.845 213.091 213.885C212.603 212.926 212.359 211.98 212.359 211.049V185.153C212.359 184.252 212.603 183.622 213.091 183.262C213.579 182.902 214.134 182.917 214.755 183.309L222.31 188.067C222.997 188.501 223.569 189.194 224.024 190.148C224.478 191.103 224.706 192.03 224.706 192.93V198.985L221.611 198.014V193.636C221.611 193.201 221.505 192.746 221.295 192.272C221.084 191.798 220.801 191.449 220.446 191.225L216.652 188.835C216.341 188.64 216.064 188.636 215.82 188.823C215.576 189.011 215.454 189.323 215.454 189.757V210.344C215.454 210.841 215.576 211.321 215.82 211.785C216.064 212.25 216.341 212.579 216.652 212.775L220.446 215.165C220.801 215.389 221.084 215.412 221.295 215.234C221.505 215.056 221.611 214.719 221.611 214.222V210.822L224.706 211.747V218.826C224.706 219.758 224.478 220.406 224.024 220.772C223.569 221.138 222.997 221.104 222.31 220.671L214.755 215.912ZM227.926 224.208V191.605L231.021 193.555L235.647 216.357L240.273 199.383L243.368 201.332V233.935L240.273 231.986V212.61L237.178 223.935L234.116 222.006L231.021 206.782V226.158L227.926 224.208ZM220.624 226.215L212.591 221.154V232.397L220.624 237.457V226.215ZM224.067 228.383L232.1 233.443V244.686L224.067 239.626V228.383ZM243.576 240.672L235.543 235.612V246.855L243.576 251.915V240.672Z" fill="#FFC75E"/>
<path fill-rule="evenodd" clip-rule="evenodd" d="M196 158L264 119L332 158L264 197L196 158Z" fill="url(#paint24_linear_0_645)"/>
<path opacity="0.5" fill-rule="evenodd" clip-rule="evenodd" d="M216 158.5L263.5 131L311 158.5L263.5 186L216 158.5Z" fill="url(#paint25_linear_0_645)"/>
<path opacity="0.5" fill-rule="evenodd" clip-rule="evenodd" d="M263.5 131L216 158.5L217.727 159.5L263.5 133L309.273 159.5L311 158.5L263.5 131Z" fill="url(#paint26_linear_0_645)"/>
<path fill-rule="evenodd" clip-rule="evenodd" d="M231 159L238 155L245 159L238 163L231 159Z" fill="url(#paint27_linear_0_645)"/>
<path fill-rule="evenodd" clip-rule="evenodd" d="M256 172L263 168L270 172L263 176L256 172Z" fill="url(#paint28_linear_0_645)"/>
<path fill-rule="evenodd" clip-rule="evenodd" d="M282 158L289 154L296 158L289 162L282 158Z" fill="url(#paint29_linear_0_645)"/>
<path fill-rule="evenodd" clip-rule="evenodd" d="M256 146L263 142L270 146L263 150L256 146Z" fill="url(#paint30_linear_0_645)"/>
<path fill-rule="evenodd" clip-rule="evenodd" d="M120.5 145L168 172.325V227.675L120.5 255L73 227.675V172.325L120.5 145Z" fill="#FF9C2A"/>
<path fill-rule="evenodd" clip-rule="evenodd" d="M120.5 199.65L168 172.325V227.675L120.5 255V199.65Z" fill="url(#paint31_linear_0_645)"/>
<path opacity="0.3" fill-rule="evenodd" clip-rule="evenodd" d="M126.088 217.173C126.088 216.961 126.088 216.855 126.119 216.76C126.147 216.676 126.191 216.599 126.25 216.533C126.317 216.459 126.409 216.407 126.593 216.301L162.302 195.804C162.797 195.52 163.044 195.378 163.247 195.4C163.424 195.419 163.585 195.512 163.689 195.656C163.809 195.821 163.809 196.106 163.809 196.676V206.09C163.809 206.302 163.809 206.408 163.778 206.503C163.751 206.587 163.706 206.664 163.647 206.73C163.58 206.804 163.488 206.857 163.304 206.962L127.595 227.459C127.1 227.743 126.853 227.885 126.65 227.864C126.473 227.845 126.313 227.752 126.208 227.608C126.088 227.442 126.088 227.157 126.088 226.587V217.173Z" fill="url(#paint32_linear_0_645)"/>
<path fill-rule="evenodd" clip-rule="evenodd" d="M129.232 205.206L133.204 202.916V207.555L129.232 209.845V205.206Z" fill="url(#paint33_linear_0_645)"/>
<path opacity="0.5" fill-rule="evenodd" clip-rule="evenodd" d="M139.919 200.381L137.404 201.854V204.176L139.919 202.703V200.381ZM142.434 198.909V201.231L144.949 199.758V197.436L142.434 198.909ZM149.978 196.813L147.463 198.286V195.964L149.978 194.491V196.813ZM152.493 195.341L161.608 190.003V187.681L152.493 193.019V195.341Z" fill="url(#paint34_linear_0_645)"/>
<path fill-rule="evenodd" clip-rule="evenodd" d="M129.232 232.206L133.204 229.916V234.555L129.232 236.845V232.206Z" fill="url(#paint35_linear_0_645)"/>
<path opacity="0.5" fill-rule="evenodd" clip-rule="evenodd" d="M139.919 227.381L137.404 228.854V231.176L139.919 229.703V227.381ZM142.434 225.909V228.231L144.949 226.758V224.436L142.434 225.909ZM149.978 223.813L147.463 225.286V222.964L149.978 221.491V223.813ZM152.493 222.341L161.608 217.003V214.681L152.493 220.019V222.341Z" fill="url(#paint36_linear_0_645)"/>
<path fill-rule="evenodd" clip-rule="evenodd" d="M129.232 218.646L133.204 216.356V220.995L129.232 223.285V218.646Z" fill="url(#paint37_linear_0_645)"/>
<path opacity="0.7" fill-rule="evenodd" clip-rule="evenodd" d="M144.949 210.876L137.404 215.294V217.616L144.949 213.198V210.876ZM147.463 209.404V211.726L149.978 210.253V207.931L147.463 209.404ZM155.007 207.308L152.493 208.781V206.459L155.007 204.986V207.308ZM157.522 205.836L161.608 203.443V201.121L157.522 203.514V205.836Z" fill="url(#paint38_linear_0_645)"/>
<path fill-rule="evenodd" clip-rule="evenodd" d="M120.5 199.65L73 172.325V227.675L120.5 255V199.65Z" fill="url(#paint39_linear_0_645)"/>
<path fill-rule="evenodd" clip-rule="evenodd" d="M86.1009 212.9C85.667 212.626 85.2795 212.153 84.9386 211.48C84.5976 210.808 84.4271 210.146 84.4271 209.493V191.349C84.4271 190.718 84.5976 190.277 84.9386 190.024C85.2795 189.772 85.667 189.783 86.1009 190.057L91.3781 193.391C91.8585 193.695 92.2576 194.181 92.5753 194.849C92.893 195.518 93.0519 196.167 93.0519 196.798V201.041L90.8899 200.36V197.292C90.8899 196.988 90.8162 196.669 90.669 196.337C90.5218 196.005 90.3242 195.76 90.0762 195.604L87.426 193.929C87.209 193.792 87.0153 193.789 86.8448 193.921C86.6744 194.052 86.5891 194.271 86.5891 194.575V208.999C86.5891 209.347 86.6744 209.684 86.8448 210.009C87.0153 210.334 87.209 210.565 87.426 210.702L90.0762 212.377C90.3242 212.533 90.5218 212.549 90.669 212.425C90.8162 212.3 90.8899 212.064 90.8899 211.716V209.334L93.0519 209.982V214.942C93.0519 215.595 92.893 216.049 92.5753 216.305C92.2576 216.561 91.8585 216.538 91.3781 216.234L86.1009 212.9ZM95.3012 218.713V195.87L97.4632 197.236L100.695 213.212L103.926 201.319L106.088 202.685V225.528L103.926 224.162V210.587L101.764 218.521L99.6252 217.17L97.4632 206.504V220.079L95.3012 218.713ZM90.2005 220.119L84.5891 216.573V224.45L90.2005 227.995V220.119ZM92.6054 221.638L98.2168 225.183V233.06L92.6054 229.515V221.638ZM106.233 230.248L100.622 226.703V234.58L106.233 238.125V230.248Z" fill="#FF9A60"/>
<path fill-rule="evenodd" clip-rule="evenodd" d="M73 172.325L120.5 145L168 172.325L120.5 199.65L73 172.325Z" fill="url(#paint40_linear_0_645)"/>
<path fill-rule="evenodd" clip-rule="evenodd" d="M86.9706 172.675L120.151 153.408L153.331 172.675L120.151 191.943L86.9706 172.675Z" fill="url(#paint41_linear_0_645)"/>
<path fill-rule="evenodd" clip-rule="evenodd" d="M120.151 153.408L86.9706 172.675L88.1771 173.376L120.151 154.809L152.124 173.376L153.331 172.675L120.151 153.408Z" fill="url(#paint42_linear_0_645)"/>
<path fill-rule="evenodd" clip-rule="evenodd" d="M97.4485 173.025L102.338 170.223L107.228 173.025L102.338 175.828L97.4485 173.025Z" fill="url(#paint43_linear_0_645)"/>
<path fill-rule="evenodd" clip-rule="evenodd" d="M114.912 182.134L119.801 179.331L124.691 182.134L119.801 184.936L114.912 182.134Z" fill="url(#paint44_linear_0_645)"/>
<path fill-rule="evenodd" clip-rule="evenodd" d="M133.073 172.325L137.963 169.522L142.853 172.325L137.963 175.127L133.073 172.325Z" fill="url(#paint45_linear_0_645)"/>
<path fill-rule="evenodd" clip-rule="evenodd" d="M114.912 163.917L119.801 161.115L124.691 163.917L119.801 166.72L114.912 163.917Z" fill="url(#paint46_linear_0_645)"/>
<path fill-rule="evenodd" clip-rule="evenodd" d="M310.5 28L334.5 41.9108V70.0892L310.5 84L286.5 70.0892V41.9108L310.5 28Z" fill="#FF9C2A"/>
<path fill-rule="evenodd" clip-rule="evenodd" d="M310.5 55.8217L334.5 41.9109V70.0892L310.5 84.0001V55.8217Z" fill="url(#paint47_linear_0_645)"/>
<path opacity="0.3" fill-rule="evenodd" clip-rule="evenodd" d="M313.323 64.7394C313.323 64.6326 313.323 64.5792 313.339 64.5314C313.353 64.4891 313.375 64.4501 313.405 64.4171C313.439 64.3797 313.485 64.353 313.577 64.2995L331.62 53.8647C331.87 53.7199 331.995 53.6476 332.098 53.6583C332.187 53.6677 332.269 53.7146 332.322 53.7875C332.382 53.871 332.382 54.0155 332.382 54.3046V59.1037C332.382 59.2106 332.382 59.264 332.367 59.3118C332.353 59.3541 332.331 59.393 332.301 59.4261C332.267 59.4635 332.221 59.4902 332.129 59.5437L314.086 69.9785C313.836 70.1232 313.711 70.1956 313.608 70.1849C313.519 70.1755 313.437 70.1285 313.384 70.0557C313.323 69.9722 313.323 69.8276 313.323 69.5385V64.7394Z" fill="url(#paint48_linear_0_645)"/>
<path fill-rule="evenodd" clip-rule="evenodd" d="M314.912 58.6502L316.919 57.4844V59.846L314.912 61.0118V58.6502Z" fill="url(#paint49_linear_0_645)"/>
<path opacity="0.5" fill-rule="evenodd" clip-rule="evenodd" d="M320.312 56.1939L319.041 56.9436V58.1257L320.312 57.3761V56.1939ZM321.582 55.4443V56.6264L322.853 55.8768V54.6946L321.582 55.4443ZM325.394 54.3775L324.123 55.1272V53.945L325.394 53.1954V54.3775ZM326.665 53.6279L331.271 50.9104V49.7283L326.665 52.4457V53.6279Z" fill="url(#paint50_linear_0_645)"/>
<path fill-rule="evenodd" clip-rule="evenodd" d="M314.912 72.3957L316.919 71.2299V73.5915L314.912 74.7573V72.3957Z" fill="url(#paint51_linear_0_645)"/>
<path opacity="0.5" fill-rule="evenodd" clip-rule="evenodd" d="M320.312 69.9394L319.041 70.689V71.8712L320.312 71.1216V69.9394ZM321.582 69.1898V70.3719L322.853 69.6223V68.4401L321.582 69.1898ZM325.394 68.123L324.123 68.8726V67.6905L325.394 66.9408V68.123ZM326.665 67.3734L331.271 64.6559V63.4738L326.665 66.1912V67.3734Z" fill="url(#paint52_linear_0_645)"/>
<path fill-rule="evenodd" clip-rule="evenodd" d="M314.912 65.4925L316.919 64.3267V66.6883L314.912 67.8541V65.4925Z" fill="url(#paint53_linear_0_645)"/>
<path opacity="0.7" fill-rule="evenodd" clip-rule="evenodd" d="M322.853 61.5369L319.041 63.7858V64.968L322.853 62.7191V61.5369ZM324.123 60.7873V61.9694L325.394 61.2198V60.0376L324.123 60.7873ZM327.935 59.7205L326.665 60.4702V59.288L327.935 58.5384V59.7205ZM329.206 58.9709L331.271 57.7527V56.5706L329.206 57.7887V58.9709Z" fill="url(#paint54_linear_0_645)"/>
<path fill-rule="evenodd" clip-rule="evenodd" d="M310.5 55.8217L286.5 41.9109V70.0892L310.5 84.0001V55.8217Z" fill="url(#paint55_linear_0_645)"/>
<path fill-rule="evenodd" clip-rule="evenodd" d="M293.119 62.5672C292.9 62.4277 292.704 62.1867 292.532 61.8445C292.36 61.5022 292.274 61.165 292.274 60.8327V51.5959C292.274 51.2747 292.36 51.0499 292.532 50.9214C292.704 50.793 292.9 50.7986 293.119 50.9381L295.786 52.6355C296.028 52.7901 296.23 53.0375 296.391 53.3778C296.551 53.7181 296.631 54.0488 296.631 54.37V56.5297L295.539 56.1832V54.6216C295.539 54.4665 295.502 54.3044 295.427 54.1352C295.353 53.966 295.253 53.8415 295.128 53.7618L293.789 52.9094C293.679 52.8396 293.581 52.8382 293.495 52.9052C293.409 52.9722 293.366 53.0832 293.366 53.2382V60.5812C293.366 60.7584 293.409 60.9298 293.495 61.0954C293.581 61.261 293.679 61.3787 293.789 61.4484L295.128 62.3009C295.253 62.3806 295.353 62.3888 295.427 62.3254C295.502 62.262 295.539 62.1417 295.539 61.9645V60.7518L296.631 61.0817V63.6069C296.631 63.9391 296.551 64.1705 296.391 64.3008C296.23 64.4312 296.028 64.4192 295.786 64.2646L293.119 62.5672ZM297.768 65.5265V53.8974L298.86 54.5928L300.493 62.7259L302.126 56.6715L303.218 57.367V68.9961L302.126 68.3007V61.3896L301.033 65.4289L299.953 64.741L298.86 59.3109V66.2219L297.768 65.5265ZM295.191 66.2422L292.355 64.4372V68.4473L295.191 70.2522V66.2422ZM296.406 67.0157L299.241 68.8206V72.8306L296.406 71.0257V67.0157ZM303.291 71.399L300.456 69.5941V73.6042L303.291 75.4091V71.399Z" fill="#FF9A60"/>
<path fill-rule="evenodd" clip-rule="evenodd" d="M286.5 41.9108L310.5 28L334.5 41.9108L310.5 55.8217L286.5 41.9108Z" fill="url(#paint56_linear_0_645)"/>
<path fill-rule="evenodd" clip-rule="evenodd" d="M293.559 42.0892L310.324 32.2803L327.088 42.0892L310.324 51.8981L293.559 42.0892Z" fill="url(#paint57_linear_0_645)"/>
<path fill-rule="evenodd" clip-rule="evenodd" d="M310.324 32.2803L293.559 42.0892L294.168 42.4459L310.324 32.9936L326.479 42.4459L327.088 42.0892L310.324 32.2803Z" fill="url(#paint58_linear_0_645)"/>
<path fill-rule="evenodd" clip-rule="evenodd" d="M307.677 41.6306L310.147 40.2039L312.618 41.6306L310.147 43.0574L307.677 41.6306Z" fill="url(#paint59_linear_0_645)"/>
<g filter="url(#filter5_f_0_645)">
<path fill-rule="evenodd" clip-rule="evenodd" d="M373 224.5L410.5 203L448 224.5L410.5 246L373 224.5Z" fill="#27BFFF"/>
</g>
<path fill-rule="evenodd" clip-rule="evenodd" d="M408.5 159L442.5 178.624V218.376L408.5 238L374.5 218.376V178.624L408.5 159Z" fill="#FF9C2A"/>
<path fill-rule="evenodd" clip-rule="evenodd" d="M408.5 198.248L442.5 178.624V218.376L408.5 238V198.248Z" fill="url(#paint60_linear_0_645)"/>
<path opacity="0.2" fill-rule="evenodd" clip-rule="evenodd" d="M412.5 220.886C412.5 220.734 412.5 220.659 412.522 220.591C412.542 220.531 412.574 220.476 412.616 220.429C412.664 220.376 412.729 220.338 412.861 220.262L438.421 205.542C438.775 205.338 438.952 205.236 439.097 205.251C439.224 205.264 439.339 205.331 439.414 205.434C439.5 205.552 439.5 205.757 439.5 206.166V212.931C439.5 213.082 439.5 213.158 439.478 213.226C439.458 213.286 439.426 213.341 439.384 213.388C439.336 213.441 439.271 213.479 439.139 213.554L413.579 228.275C413.225 228.479 413.048 228.581 412.903 228.566C412.776 228.552 412.661 228.486 412.586 228.382C412.5 228.264 412.5 228.06 412.5 227.651V220.886Z" fill="url(#paint61_linear_0_645)"/>
<path fill-rule="evenodd" clip-rule="evenodd" d="M414.75 212.293L417.594 210.649V213.98L414.75 215.625V212.293Z" fill="url(#paint62_linear_0_645)"/>
<path opacity="0.3" fill-rule="evenodd" clip-rule="evenodd" d="M422.4 208.828L420.6 209.886V211.553L422.4 210.496V208.828ZM424.2 207.771V209.438L426 208.381V206.713L424.2 207.771ZM429.6 206.266L427.8 207.323V205.656L429.6 204.598V206.266ZM431.4 205.208L437.925 201.375V199.707L431.4 203.541V205.208Z" fill="url(#paint63_linear_0_645)"/>
<path fill-rule="evenodd" clip-rule="evenodd" d="M414.75 221.946L417.594 220.301V223.633L414.75 225.277V221.946Z" fill="url(#paint64_linear_0_645)"/>
<path opacity="0.3" fill-rule="evenodd" clip-rule="evenodd" d="M426 216.366L420.6 219.538V221.206L426 218.033V216.366ZM427.8 215.308V216.976L429.6 215.918V214.251L427.8 215.308ZM433.2 213.803L431.4 214.861V213.193L433.2 212.136V213.803ZM435 212.746L437.925 211.027V209.359L435 211.078V212.746Z" fill="url(#paint65_linear_0_645)"/>
<path fill-rule="evenodd" clip-rule="evenodd" d="M408.5 198.248L374.5 178.624V218.376L408.5 238V198.248Z" fill="url(#paint66_linear_0_645)"/>
<path fill-rule="evenodd" clip-rule="evenodd" d="M383.878 207.764C383.567 207.568 383.29 207.228 383.046 206.745C382.801 206.262 382.679 205.786 382.679 205.318V192.287C382.679 191.834 382.801 191.517 383.046 191.336C383.29 191.154 383.567 191.162 383.878 191.359L387.655 193.754C387.999 193.972 388.284 194.321 388.512 194.801C388.739 195.281 388.853 195.747 388.853 196.201V199.247L387.305 198.758V196.555C387.305 196.337 387.253 196.108 387.147 195.869C387.042 195.631 386.9 195.455 386.723 195.343L384.826 194.14C384.671 194.042 384.532 194.04 384.41 194.134C384.288 194.229 384.227 194.385 384.227 194.604V204.963C384.227 205.213 384.288 205.455 384.41 205.688C384.532 205.922 384.671 206.088 384.826 206.186L386.723 207.389C386.9 207.501 387.042 207.513 387.147 207.423C387.253 207.334 387.305 207.164 387.305 206.914V205.203L388.853 205.669V209.231C388.853 209.7 388.739 210.026 388.512 210.21C388.284 210.394 387.999 210.377 387.655 210.159L383.878 207.764ZM390.463 211.939V195.534L392.011 196.515L394.324 207.988L396.637 199.447L398.184 200.428V216.834L396.637 215.853V206.103L395.089 211.802L393.558 210.831L392.011 203.171V212.92L390.463 211.939ZM386.812 212.949L382.795 210.403V216.06L386.812 218.606V212.949ZM388.533 214.04L392.55 216.586V222.243L388.533 219.697V214.04ZM398.288 220.224L394.271 217.677V223.334L398.288 225.881V220.224Z" fill="#269BD3"/>
<path fill-rule="evenodd" clip-rule="evenodd" d="M374.5 178.624L408.5 159L442.5 178.624L408.5 198.248L374.5 178.624Z" fill="url(#paint67_linear_0_645)"/>
<path fill-rule="evenodd" clip-rule="evenodd" d="M384.5 178.876L408.25 165.038L432 178.876L408.25 192.713L384.5 178.876Z" fill="url(#paint68_linear_0_645)"/>
<path opacity="0.5" fill-rule="evenodd" clip-rule="evenodd" d="M408.25 165.038L384.5 178.876L385.364 179.379L408.25 166.045L431.136 179.379L432 178.876L408.25 165.038Z" fill="url(#paint69_linear_0_645)"/>
<path fill-rule="evenodd" clip-rule="evenodd" d="M392 179.127L395.5 177.115L399 179.127L395.5 181.14L392 179.127Z" fill="url(#paint70_linear_0_645)"/>
<path fill-rule="evenodd" clip-rule="evenodd" d="M404.5 185.669L408 183.656L411.5 185.669L408 187.681L404.5 185.669Z" fill="url(#paint71_linear_0_645)"/>
<path fill-rule="evenodd" clip-rule="evenodd" d="M417.5 178.624L421 176.611L424.5 178.624L421 180.637L417.5 178.624Z" fill="url(#paint72_linear_0_645)"/>
<path fill-rule="evenodd" clip-rule="evenodd" d="M404.5 172.586L408 170.573L411.5 172.586L408 174.599L404.5 172.586Z" fill="url(#paint73_linear_0_645)"/>
<path fill-rule="evenodd" clip-rule="evenodd" d="M634.5 182L675.5 205.599V253.401L634.5 277L593.5 253.401V205.599L634.5 182Z" fill="#FF9C2A"/>
<path fill-rule="evenodd" clip-rule="evenodd" d="M634.5 229.197L675.5 205.599V253.401L634.5 277V229.197Z" fill="url(#paint74_linear_0_645)"/>
<path opacity="0.5" fill-rule="evenodd" clip-rule="evenodd" d="M639.323 246.802C639.323 246.619 639.323 246.527 639.35 246.445C639.374 246.373 639.412 246.306 639.463 246.25C639.521 246.186 639.601 246.14 639.759 246.049L670.582 228.347C671.009 228.102 671.222 227.979 671.397 227.998C671.55 228.014 671.689 228.094 671.779 228.219C671.882 228.361 671.882 228.607 671.882 229.1V237.231C671.882 237.414 671.882 237.505 671.856 237.587C671.832 237.66 671.793 237.726 671.742 237.783C671.685 237.847 671.605 237.892 671.446 237.984L640.624 255.686C640.197 255.931 639.984 256.053 639.809 256.035C639.656 256.018 639.517 255.938 639.427 255.814C639.323 255.671 639.323 255.425 639.323 254.933V246.802Z" fill="url(#paint75_linear_0_645)"/>
<path fill-rule="evenodd" clip-rule="evenodd" d="M642.037 236.467L645.466 234.489V238.495L642.037 240.473V236.467Z" fill="#FFCD5E"/>
<path opacity="0.6" fill-rule="evenodd" clip-rule="evenodd" d="M651.262 232.3L649.091 233.571V235.577L651.262 234.305V232.3ZM653.432 231.028V233.033L655.603 231.762V229.756L653.432 231.028ZM659.944 229.218L657.774 230.49V228.485L659.944 227.213V229.218ZM662.115 227.947L669.983 223.337V221.331L662.115 225.941V227.947Z" fill="#FFCB5E"/>
<path fill-rule="evenodd" clip-rule="evenodd" d="M642.037 248.074L645.466 246.096V250.103L642.037 252.08V248.074Z" fill="#FFCD5E"/>
<path opacity="0.5" fill-rule="evenodd" clip-rule="evenodd" d="M655.603 241.364L649.091 245.179V247.184L655.603 243.369V241.364ZM657.774 240.092V242.097L659.944 240.826V238.82L657.774 240.092ZM664.285 238.282L662.115 239.554V237.549L664.285 236.277V238.282ZM666.456 237.011L669.983 234.944V232.939L666.456 235.005V237.011Z" fill="#FFCB5E"/>
<path fill-rule="evenodd" clip-rule="evenodd" d="M642.037 259.682L645.466 257.704V261.71L642.037 263.688V259.682Z" fill="#FFCD5E"/>
<path opacity="0.7" fill-rule="evenodd" clip-rule="evenodd" d="M655.603 252.971L649.091 256.786V258.792L655.603 254.977V252.971ZM657.774 251.7V253.705L659.944 252.433V250.428L657.774 251.7ZM664.285 249.89L662.115 251.162V249.156L664.285 247.884V249.89ZM666.456 248.618L669.983 246.552V244.546L666.456 246.613V248.618Z" fill="#FFCB5E"/>
<path fill-rule="evenodd" clip-rule="evenodd" d="M634.5 229.197L593.5 205.599V253.401L634.5 277V229.197Z" fill="url(#paint76_linear_0_645)"/>
<path fill-rule="evenodd" clip-rule="evenodd" d="M604.808 240.641C604.434 240.404 604.099 239.995 603.805 239.415C603.511 238.834 603.363 238.262 603.363 237.698V222.029C603.363 221.484 603.511 221.103 603.805 220.885C604.099 220.667 604.434 220.676 604.808 220.913L609.363 223.792C609.778 224.055 610.122 224.474 610.397 225.052C610.671 225.629 610.808 226.19 610.808 226.735V230.399L608.942 229.811V227.162C608.942 226.899 608.878 226.624 608.751 226.337C608.624 226.05 608.453 225.838 608.239 225.703L605.952 224.257C605.765 224.139 605.597 224.136 605.45 224.25C605.303 224.364 605.23 224.552 605.23 224.815V237.272C605.23 237.572 605.303 237.863 605.45 238.144C605.597 238.425 605.765 238.625 605.952 238.743L608.239 240.189C608.453 240.324 608.624 240.338 608.751 240.231C608.878 240.123 608.942 239.919 608.942 239.618V237.561L610.808 238.121V242.405C610.808 242.968 610.671 243.361 610.397 243.582C610.122 243.803 609.778 243.783 609.363 243.52L604.808 240.641ZM612.749 245.661V225.933L614.616 227.113L617.405 240.91L620.194 230.639L622.06 231.819V251.547L620.194 250.367V238.643L618.328 245.496L616.482 244.329L614.616 235.117V246.841L612.749 245.661ZM608.347 246.875L603.503 243.813V250.616L608.347 253.678V246.875ZM610.423 248.187L615.266 251.249V258.052L610.423 254.99V248.187ZM622.185 255.623L617.342 252.562V259.364L622.185 262.426V255.623Z" fill="#FFC75E"/>
<path fill-rule="evenodd" clip-rule="evenodd" d="M593.5 205.599L634.5 182L675.5 205.599L634.5 229.197L593.5 205.599Z" fill="url(#paint77_linear_0_645)"/>
<path opacity="0.5" fill-rule="evenodd" clip-rule="evenodd" d="M605.559 205.901L634.199 189.261L662.838 205.901L634.199 222.541L605.559 205.901Z" fill="url(#paint78_linear_0_645)"/>
<path opacity="0.5" fill-rule="evenodd" clip-rule="evenodd" d="M634.199 189.261L605.559 205.901L606.6 206.506L634.199 190.471L661.797 206.506L662.838 205.901L634.199 189.261Z" fill="url(#paint79_linear_0_645)"/>
<path fill-rule="evenodd" clip-rule="evenodd" d="M629.677 206.07L633.897 203.65L638.118 206.07L633.897 208.49L629.677 206.07Z" fill="url(#paint80_linear_0_645)"/>
<path opacity="0.5" d="M144.5 241L196 269.5L224 253.5" stroke="url(#paint81_linear_0_645)" stroke-linecap="round" stroke-linejoin="round" stroke-dasharray="4"/>
<path opacity="0.5" d="M427.5 225L548.5 296L609.5 260" stroke="url(#paint82_linear_0_645)" stroke-linecap="round" stroke-linejoin="round" stroke-dasharray="4"/>
<path opacity="0.5" d="M301.5 255L320 265.5L388 227.5V223.5" stroke="url(#paint83_linear_0_645)" stroke-linecap="round" stroke-linejoin="round" stroke-dasharray="4"/>
<path opacity="0.05" fill-rule="evenodd" clip-rule="evenodd" d="M244.5 354L255 332.5L317.5 296L378 331L317.5 371L298.5 383L244.5 354Z" fill="url(#paint84_linear_0_645)"/>
<path opacity="0.5" d="M391 341.5V337L317 296L231 346.5" stroke="url(#paint85_linear_0_645)" stroke-linecap="round" stroke-linejoin="round" stroke-dasharray="4"/>
<g filter="url(#filter6_f_0_645)">
<path fill-rule="evenodd" clip-rule="evenodd" d="M351 387.5L394 363L437 387.5L394 412L351 387.5Z" fill="#FFC85E"/>
</g>
<path fill-rule="evenodd" clip-rule="evenodd" d="M391 310L432 333.599V381.401L391 405L350 381.401V333.599L391 310Z" fill="#FF9C2A"/>
<path fill-rule="evenodd" clip-rule="evenodd" d="M391 357.197L432 333.599V381.401L391 405V357.197Z" fill="url(#paint86_linear_0_645)"/>
<path opacity="0.5" fill-rule="evenodd" clip-rule="evenodd" d="M395.823 374.802C395.823 374.619 395.823 374.527 395.85 374.445C395.874 374.373 395.912 374.306 395.963 374.25C396.021 374.186 396.101 374.14 396.259 374.049L427.082 356.347C427.509 356.102 427.722 355.979 427.897 355.998C428.05 356.014 428.189 356.094 428.279 356.219C428.382 356.361 428.382 356.607 428.382 357.1V365.231C428.382 365.414 428.382 365.505 428.356 365.587C428.332 365.66 428.293 365.726 428.242 365.783C428.185 365.847 428.105 365.892 427.946 365.984L397.124 383.686C396.697 383.931 396.484 384.053 396.309 384.035C396.156 384.018 396.017 383.938 395.927 383.814C395.823 383.671 395.823 383.425 395.823 382.933V374.802Z" fill="url(#paint87_linear_0_645)"/>
<path fill-rule="evenodd" clip-rule="evenodd" d="M398.537 364.467L401.966 362.489V366.495L398.537 368.473V364.467Z" fill="#FFCD5E"/>
<path opacity="0.6" fill-rule="evenodd" clip-rule="evenodd" d="M407.762 360.3L405.591 361.571V363.577L407.762 362.305V360.3ZM409.932 359.028V361.033L412.103 359.762V357.756L409.932 359.028ZM416.444 357.218L414.274 358.49V356.485L416.444 355.213V357.218ZM418.615 355.947L426.483 351.337V349.331L418.615 353.941V355.947Z" fill="#FFCB5E"/>
<path fill-rule="evenodd" clip-rule="evenodd" d="M398.537 376.074L401.966 374.096V378.103L398.537 380.08V376.074Z" fill="#FFCD5E"/>
<path opacity="0.5" fill-rule="evenodd" clip-rule="evenodd" d="M412.103 369.364L405.591 373.179V375.184L412.103 371.369V369.364ZM414.274 368.092V370.097L416.444 368.826V366.82L414.274 368.092ZM420.785 366.282L418.615 367.554V365.549L420.785 364.277V366.282ZM422.956 365.011L426.483 362.944V360.939L422.956 363.005V365.011Z" fill="#FFCB5E"/>
<path fill-rule="evenodd" clip-rule="evenodd" d="M398.537 387.682L401.966 385.704V389.71L398.537 391.688V387.682Z" fill="#FFCD5E"/>
<path opacity="0.7" fill-rule="evenodd" clip-rule="evenodd" d="M412.103 380.971L405.591 384.786V386.792L412.103 382.977V380.971ZM414.274 379.7V381.705L416.444 380.433V378.428L414.274 379.7ZM420.785 377.89L418.615 379.162V377.156L420.785 375.884V377.89ZM422.956 376.618L426.483 374.552V372.546L422.956 374.613V376.618Z" fill="#FFCB5E"/>
<path fill-rule="evenodd" clip-rule="evenodd" d="M391 357.197L350 333.599V381.401L391 405V357.197Z" fill="url(#paint88_linear_0_645)"/>
<path fill-rule="evenodd" clip-rule="evenodd" d="M361.308 368.641C360.934 368.404 360.599 367.995 360.305 367.415C360.011 366.834 359.863 366.262 359.863 365.698V350.029C359.863 349.484 360.011 349.103 360.305 348.885C360.599 348.667 360.934 348.676 361.308 348.913L365.863 351.792C366.278 352.055 366.622 352.474 366.897 353.052C367.171 353.629 367.308 354.19 367.308 354.735V358.399L365.442 357.811V355.162C365.442 354.899 365.378 354.624 365.251 354.337C365.124 354.05 364.953 353.838 364.739 353.703L362.452 352.257C362.265 352.139 362.097 352.136 361.95 352.25C361.803 352.364 361.73 352.552 361.73 352.815V365.272C361.73 365.572 361.803 365.863 361.95 366.144C362.097 366.425 362.265 366.625 362.452 366.743L364.739 368.189C364.953 368.324 365.124 368.338 365.251 368.231C365.378 368.123 365.442 367.919 365.442 367.618V365.561L367.308 366.121V370.405C367.308 370.968 367.171 371.361 366.897 371.582C366.622 371.803 366.278 371.783 365.863 371.52L361.308 368.641ZM369.249 373.661V353.933L371.116 355.113L373.905 368.91L376.694 358.639L378.56 359.819V379.547L376.694 378.367V366.643L374.828 373.496L372.982 372.329L371.116 363.117V374.841L369.249 373.661ZM364.847 374.875L360.003 371.813V378.616L364.847 381.678V374.875ZM366.923 376.187L371.766 379.249V386.052L366.923 382.99V376.187ZM378.685 383.623L373.842 380.562V387.364L378.685 390.426V383.623Z" fill="#FFC75E"/>
<path fill-rule="evenodd" clip-rule="evenodd" d="M350 333.599L391 310L432 333.599L391 357.197L350 333.599Z" fill="url(#paint89_linear_0_645)"/>
<path opacity="0.5" fill-rule="evenodd" clip-rule="evenodd" d="M362.059 333.901L390.699 317.261L419.338 333.901L390.699 350.541L362.059 333.901Z" fill="url(#paint90_linear_0_645)"/>
<path opacity="0.5" fill-rule="evenodd" clip-rule="evenodd" d="M390.699 317.261L362.059 333.901L363.1 334.506L390.699 318.471L418.297 334.506L419.338 333.901L390.699 317.261Z" fill="url(#paint91_linear_0_645)"/>
<path fill-rule="evenodd" clip-rule="evenodd" d="M371.103 334.204L375.323 331.783L379.544 334.204L375.323 336.624L371.103 334.204Z" fill="url(#paint92_linear_0_645)"/>
<path fill-rule="evenodd" clip-rule="evenodd" d="M386.177 342.07L390.397 339.65L394.618 342.07L390.397 344.49L386.177 342.07Z" fill="url(#paint93_linear_0_645)"/>
<path fill-rule="evenodd" clip-rule="evenodd" d="M401.853 333.599L406.073 331.178L410.294 333.599L406.073 336.019L401.853 333.599Z" fill="url(#paint94_linear_0_645)"/>
<path fill-rule="evenodd" clip-rule="evenodd" d="M386.177 326.338L390.397 323.917L394.618 326.338L390.397 328.758L386.177 326.338Z" fill="url(#paint95_linear_0_645)"/>
<g filter="url(#filter7_f_0_645)">
<path fill-rule="evenodd" clip-rule="evenodd" d="M201 354L231 337L261 354L231 371L201 354Z" fill="#27BFFF"/>
</g>
<path fill-rule="evenodd" clip-rule="evenodd" d="M231 301L258 316.65V348.35L231 364L204 348.35V316.65L231 301Z" fill="#FF9C2A"/>
<path fill-rule="evenodd" clip-rule="evenodd" d="M231 332.299L258 316.65V348.35L231 364V332.299Z" fill="url(#paint96_linear_0_645)"/>
<path opacity="0.2" fill-rule="evenodd" clip-rule="evenodd" d="M234.177 350.35C234.177 350.23 234.177 350.17 234.194 350.116C234.209 350.068 234.235 350.025 234.268 349.987C234.306 349.945 234.358 349.915 234.462 349.855L254.76 338.116C255.041 337.953 255.182 337.872 255.298 337.884C255.398 337.894 255.49 337.947 255.549 338.029C255.618 338.123 255.618 338.286 255.618 338.611V344.01C255.618 344.13 255.618 344.19 255.6 344.244C255.585 344.292 255.559 344.335 255.526 344.373C255.488 344.415 255.436 344.445 255.332 344.505L235.035 356.244C234.753 356.407 234.612 356.488 234.497 356.476C234.396 356.466 234.304 356.413 234.245 356.331C234.177 356.237 234.177 356.074 234.177 355.749V350.35Z" fill="url(#paint97_linear_0_645)"/>
<path fill-rule="evenodd" clip-rule="evenodd" d="M235.963 343.5L238.221 342.188V344.845L235.963 346.157V343.5Z" fill="url(#paint98_linear_0_645)"/>
<path opacity="0.3" fill-rule="evenodd" clip-rule="evenodd" d="M242.038 340.736L240.609 341.58V342.91L242.038 342.066V340.736ZM243.468 339.893V341.223L244.897 340.38V339.05L243.468 339.893ZM247.756 338.693L246.327 339.536V338.206L247.756 337.363V338.693ZM249.185 337.85L254.367 334.792V333.463L249.185 336.52V337.85Z" fill="url(#paint99_linear_0_645)"/>
<path fill-rule="evenodd" clip-rule="evenodd" d="M235.963 351.197L238.221 349.886V352.543L235.963 353.854V351.197Z" fill="url(#paint100_linear_0_645)"/>
<path opacity="0.3" fill-rule="evenodd" clip-rule="evenodd" d="M244.897 346.747L240.609 349.277V350.607L244.897 348.077V346.747ZM246.327 345.904V347.234L247.756 346.391V345.061L246.327 345.904ZM250.615 344.704L249.185 345.547V344.217L250.615 343.374V344.704ZM252.044 343.861L254.367 342.49V341.16L252.044 342.531V343.861Z" fill="url(#paint101_linear_0_645)"/>
<path fill-rule="evenodd" clip-rule="evenodd" d="M231 332.299L204 316.65V348.35L231 364V332.299Z" fill="url(#paint102_linear_0_645)"/>
<path fill-rule="evenodd" clip-rule="evenodd" d="M211.447 339.888C211.2 339.731 210.98 339.46 210.786 339.075C210.592 338.69 210.495 338.311 210.495 337.937V327.545C210.495 327.184 210.592 326.931 210.786 326.787C210.98 326.642 211.2 326.648 211.447 326.805L214.446 328.715C214.72 328.889 214.946 329.167 215.127 329.55C215.308 329.933 215.398 330.305 215.398 330.666V333.096L214.169 332.706V330.949C214.169 330.775 214.127 330.592 214.043 330.402C213.96 330.212 213.847 330.072 213.706 329.982L212.2 329.023C212.077 328.945 211.967 328.943 211.87 329.018C211.773 329.094 211.724 329.219 211.724 329.393V337.654C211.724 337.853 211.773 338.046 211.87 338.232C211.967 338.419 212.077 338.551 212.2 338.63L213.706 339.588C213.847 339.678 213.96 339.687 214.043 339.616C214.127 339.545 214.169 339.409 214.169 339.21V337.846L215.398 338.217V341.058C215.398 341.432 215.308 341.692 215.127 341.838C214.946 341.985 214.72 341.972 214.446 341.798L211.447 339.888ZM216.676 343.217V330.135L217.905 330.917L219.742 340.067L221.579 333.255L222.808 334.038V347.121L221.579 346.338V338.563L220.35 343.108L219.134 342.334L217.905 336.225V344L216.676 343.217ZM213.777 344.022L210.587 341.992V346.503L213.777 348.534V344.022ZM215.144 344.893L218.334 346.923V351.434L215.144 349.404V344.893ZM222.89 349.824L219.701 347.793V352.305L222.89 354.335V349.824Z" fill="#269BD3"/>
<path fill-rule="evenodd" clip-rule="evenodd" d="M204 316.65L231 301L258 316.65L231 332.299L204 316.65Z" fill="url(#paint103_linear_0_645)"/>
<path fill-rule="evenodd" clip-rule="evenodd" d="M211.941 316.85L230.801 305.815L249.662 316.85L230.801 327.885L211.941 316.85Z" fill="url(#paint104_linear_0_645)"/>
<path opacity="0.5" fill-rule="evenodd" clip-rule="evenodd" d="M230.801 305.815L211.941 316.85L212.627 317.252L230.801 306.618L248.976 317.252L249.662 316.85L230.801 305.815Z" fill="url(#paint105_linear_0_645)"/>
<path fill-rule="evenodd" clip-rule="evenodd" d="M228.823 317.268L231.603 315.662L234.382 317.268L231.603 318.873L228.823 317.268Z" fill="url(#paint106_linear_0_645)"/>
<g filter="url(#filter8_f_0_645)">
<path fill-rule="evenodd" clip-rule="evenodd" d="M306 414.5L349 390L392 414.5L349 439L306 414.5Z" fill="#FFC85E"/>
</g>
<path fill-rule="evenodd" clip-rule="evenodd" d="M346 337L387 360.599V408.401L346 432L305 408.401V360.599L346 337Z" fill="#FF9C2A"/>
<path fill-rule="evenodd" clip-rule="evenodd" d="M346 384.197L387 360.599V408.401L346 432V384.197Z" fill="url(#paint107_linear_0_645)"/>
<path opacity="0.5" fill-rule="evenodd" clip-rule="evenodd" d="M350.823 401.802C350.823 401.619 350.823 401.527 350.85 401.445C350.874 401.373 350.912 401.306 350.963 401.25C351.021 401.186 351.101 401.14 351.259 401.049L382.082 383.347C382.509 383.102 382.722 382.979 382.897 382.998C383.05 383.014 383.189 383.094 383.279 383.219C383.382 383.361 383.382 383.607 383.382 384.1V392.231C383.382 392.414 383.382 392.505 383.356 392.587C383.332 392.66 383.293 392.726 383.242 392.783C383.185 392.847 383.105 392.892 382.946 392.984L352.124 410.686C351.697 410.931 351.484 411.053 351.309 411.035C351.156 411.018 351.017 410.938 350.927 410.814C350.823 410.671 350.823 410.425 350.823 409.933V401.802Z" fill="url(#paint108_linear_0_645)"/>
<path fill-rule="evenodd" clip-rule="evenodd" d="M353.537 391.467L356.966 389.489V393.495L353.537 395.473V391.467Z" fill="#FFCD5E"/>
<path opacity="0.6" fill-rule="evenodd" clip-rule="evenodd" d="M362.762 387.3L360.591 388.571V390.577L362.762 389.305V387.3ZM364.932 386.028V388.033L367.103 386.762V384.756L364.932 386.028ZM371.444 384.218L369.274 385.49V383.485L371.444 382.213V384.218ZM373.615 382.947L381.483 378.337V376.331L373.615 380.941V382.947Z" fill="#FFCB5E"/>
<path fill-rule="evenodd" clip-rule="evenodd" d="M353.537 403.074L356.966 401.096V405.103L353.537 407.08V403.074Z" fill="#FFCD5E"/>
<path opacity="0.5" fill-rule="evenodd" clip-rule="evenodd" d="M367.103 396.364L360.591 400.179V402.184L367.103 398.369V396.364ZM369.274 395.092V397.097L371.444 395.826V393.82L369.274 395.092ZM375.785 393.282L373.615 394.554V392.549L375.785 391.277V393.282ZM377.956 392.011L381.483 389.944V387.939L377.956 390.005V392.011Z" fill="#FFCB5E"/>
<path fill-rule="evenodd" clip-rule="evenodd" d="M353.537 414.682L356.966 412.704V416.71L353.537 418.688V414.682Z" fill="#FFCD5E"/>
<path opacity="0.7" fill-rule="evenodd" clip-rule="evenodd" d="M367.103 407.971L360.591 411.786V413.792L367.103 409.977V407.971ZM369.274 406.7V408.705L371.444 407.433V405.428L369.274 406.7ZM375.785 404.89L373.615 406.162V404.156L375.785 402.884V404.89ZM377.956 403.618L381.483 401.552V399.546L377.956 401.613V403.618Z" fill="#FFCB5E"/>
<path fill-rule="evenodd" clip-rule="evenodd" d="M346 384.197L305 360.599V408.401L346 432V384.197Z" fill="url(#paint109_linear_0_645)"/>
<path fill-rule="evenodd" clip-rule="evenodd" d="M316.308 395.641C315.934 395.404 315.599 394.995 315.305 394.415C315.011 393.834 314.863 393.262 314.863 392.698V377.029C314.863 376.484 315.011 376.103 315.305 375.885C315.599 375.667 315.934 375.676 316.308 375.913L320.863 378.792C321.278 379.055 321.622 379.474 321.897 380.052C322.171 380.629 322.308 381.19 322.308 381.735V385.399L320.442 384.811V382.162C320.442 381.899 320.378 381.624 320.251 381.337C320.124 381.05 319.953 380.838 319.739 380.703L317.452 379.257C317.265 379.139 317.097 379.136 316.95 379.25C316.803 379.364 316.73 379.552 316.73 379.815V392.272C316.73 392.572 316.803 392.863 316.95 393.144C317.097 393.425 317.265 393.625 317.452 393.743L319.739 395.189C319.953 395.324 320.124 395.338 320.251 395.231C320.378 395.123 320.442 394.919 320.442 394.618V392.561L322.308 393.121V397.405C322.308 397.968 322.171 398.361 321.897 398.582C321.622 398.803 321.278 398.783 320.863 398.52L316.308 395.641ZM324.249 400.661V380.933L326.116 382.113L328.905 395.91L331.694 385.639L333.56 386.819V406.547L331.694 405.367V393.643L329.828 400.496L327.982 399.329L326.116 390.117V401.841L324.249 400.661ZM319.847 401.875L315.003 398.813V405.616L319.847 408.678V401.875ZM321.923 403.187L326.766 406.249V413.052L321.923 409.99V403.187ZM333.685 410.623L328.842 407.562V414.364L333.685 417.426V410.623Z" fill="#FFC75E"/>
<path fill-rule="evenodd" clip-rule="evenodd" d="M305 360.599L346 337L387 360.599L346 384.197L305 360.599Z" fill="url(#paint110_linear_0_645)"/>
<path opacity="0.5" fill-rule="evenodd" clip-rule="evenodd" d="M317.059 360.901L345.699 344.261L374.338 360.901L345.699 377.541L317.059 360.901Z" fill="url(#paint111_linear_0_645)"/>
<path opacity="0.5" fill-rule="evenodd" clip-rule="evenodd" d="M345.699 344.261L317.059 360.901L318.1 361.506L345.699 345.471L373.297 361.506L374.338 360.901L345.699 344.261Z" fill="url(#paint112_linear_0_645)"/>
<path fill-rule="evenodd" clip-rule="evenodd" d="M341.177 361.338L345.397 358.917L349.618 361.338L345.397 363.758L341.177 361.338Z" fill="url(#paint113_linear_0_645)"/>
<path opacity="0.5" d="M245.5 355L297 383.5L325 367.5" stroke="url(#paint114_linear_0_645)" stroke-linecap="round" stroke-linejoin="round" stroke-dasharray="4"/>
<path opacity="0.5" d="M367.5 418L386 428.5L430.27 401.643L411.5 392" stroke="url(#paint115_linear_0_645)" stroke-linecap="round" stroke-linejoin="round" stroke-dasharray="4"/>
</g>
<defs>
<filter id="filter0_f_0_645" x="255.817" y="34.8172" width="108.903" height="85.3656" filterUnits="userSpaceOnUse" color-interpolation-filters="sRGB">
<feFlood flood-opacity="0" result="BackgroundImageFix"/>
<feBlend mode="normal" in="SourceGraphic" in2="BackgroundImageFix" result="shape"/>
<feGaussianBlur stdDeviation="13.5914" result="effect1_foregroundBlur_0_645"/>
</filter>
<filter id="filter1_f_0_645" x="103.226" y="43.2258" width="176.548" height="135.548" filterUnits="userSpaceOnUse" color-interpolation-filters="sRGB">
<feFlood flood-opacity="0" result="BackgroundImageFix"/>
<feBlend mode="normal" in="SourceGraphic" in2="BackgroundImageFix" result="shape"/>
<feGaussianBlur stdDeviation="20.3871" result="effect1_foregroundBlur_0_645"/>
</filter>
<filter id="filter2_f_0_645" x="563.817" y="208.817" width="140.366" height="103.366" filterUnits="userSpaceOnUse" color-interpolation-filters="sRGB">
<feFlood flood-opacity="0" result="BackgroundImageFix"/>
<feBlend mode="normal" in="SourceGraphic" in2="BackgroundImageFix" result="shape"/>
<feGaussianBlur stdDeviation="13.5914" result="effect1_foregroundBlur_0_645"/>
</filter>
<filter id="filter3_f_0_645" x="45.8172" y="183.817" width="149.366" height="108.366" filterUnits="userSpaceOnUse" color-interpolation-filters="sRGB">
<feFlood flood-opacity="0" result="BackgroundImageFix"/>
<feBlend mode="normal" in="SourceGraphic" in2="BackgroundImageFix" result="shape"/>
<feGaussianBlur stdDeviation="13.5914" result="effect1_foregroundBlur_0_645"/>
</filter>
<filter id="filter4_f_0_645" x="152.226" y="165.226" width="222.548" height="162.548" filterUnits="userSpaceOnUse" color-interpolation-filters="sRGB">
<feFlood flood-opacity="0" result="BackgroundImageFix"/>
<feBlend mode="normal" in="SourceGraphic" in2="BackgroundImageFix" result="shape"/>
<feGaussianBlur stdDeviation="20.3871" result="effect1_foregroundBlur_0_645"/>
</filter>
<filter id="filter5_f_0_645" x="348.535" y="178.535" width="123.929" height="91.9291" filterUnits="userSpaceOnUse" color-interpolation-filters="sRGB">
<feFlood flood-opacity="0" result="BackgroundImageFix"/>
<feBlend mode="normal" in="SourceGraphic" in2="BackgroundImageFix" result="shape"/>
<feGaussianBlur stdDeviation="12.2323" result="effect1_foregroundBlur_0_645"/>
</filter>
<filter id="filter6_f_0_645" x="323.817" y="335.817" width="140.366" height="103.366" filterUnits="userSpaceOnUse" color-interpolation-filters="sRGB">
<feFlood flood-opacity="0" result="BackgroundImageFix"/>
<feBlend mode="normal" in="SourceGraphic" in2="BackgroundImageFix" result="shape"/>
<feGaussianBlur stdDeviation="13.5914" result="effect1_foregroundBlur_0_645"/>
</filter>
<filter id="filter7_f_0_645" x="173.817" y="309.817" width="114.366" height="88.3656" filterUnits="userSpaceOnUse" color-interpolation-filters="sRGB">
<feFlood flood-opacity="0" result="BackgroundImageFix"/>
<feBlend mode="normal" in="SourceGraphic" in2="BackgroundImageFix" result="shape"/>
<feGaussianBlur stdDeviation="13.5914" result="effect1_foregroundBlur_0_645"/>
</filter>
<filter id="filter8_f_0_645" x="278.817" y="362.817" width="140.366" height="103.366" filterUnits="userSpaceOnUse" color-interpolation-filters="sRGB">
<feFlood flood-opacity="0" result="BackgroundImageFix"/>
<feBlend mode="normal" in="SourceGraphic" in2="BackgroundImageFix" result="shape"/>
<feGaussianBlur stdDeviation="13.5914" result="effect1_foregroundBlur_0_645"/>
</filter>
<linearGradient id="paint0_linear_0_645" x1="252" y1="106.5" x2="136" y2="106.5" gradientUnits="userSpaceOnUse">
<stop stop-color="#FF9D62"/>
<stop offset="1" stop-color="#269BD3"/>
</linearGradient>
<linearGradient id="paint1_linear_0_645" x1="397" y1="185.5" x2="272" y2="185.5" gradientUnits="userSpaceOnUse">
<stop stop-color="#269BD3"/>
<stop offset="1" stop-color="#FF9D62"/>
</linearGradient>
<linearGradient id="paint2_linear_0_645" x1="287.5" y1="223.5" x2="374" y2="223.5" gradientUnits="userSpaceOnUse">
<stop stop-color="#FFC55E"/>
<stop offset="1" stop-color="#2FC2FF"/>
</linearGradient>
<linearGradient id="paint3_linear_0_645" x1="341.606" y1="122.748" x2="347" y2="78.8907" gradientUnits="userSpaceOnUse">
<stop stop-color="#FFC65E"/>
<stop offset="1" stop-color="#FF9158"/>
</linearGradient>
<linearGradient id="paint4_linear_0_645" x1="212.5" y1="106.5" x2="136" y2="106.5" gradientUnits="userSpaceOnUse">
<stop stop-color="#FFC15E"/>
<stop offset="1" stop-color="#3AC5FF"/>
</linearGradient>
<linearGradient id="paint5_linear_0_645" x1="270.31" y1="304.037" x2="171.862" y2="174.584" gradientUnits="userSpaceOnUse">
<stop stop-color="#3AC5FF"/>
<stop offset="1" stop-color="#FFC15E"/>
</linearGradient>
<linearGradient id="paint6_linear_0_645" x1="192.207" y1="89.1158" x2="230.603" y2="110.727" gradientUnits="userSpaceOnUse">
<stop stop-color="#005895"/>
<stop offset="1" stop-color="#2575A8"/>
</linearGradient>
<linearGradient id="paint7_linear_0_645" x1="197.588" y1="69.9392" x2="197.588" y2="103.324" gradientUnits="userSpaceOnUse">
<stop stop-color="#01B2FF"/>
<stop offset="1" stop-color="#59D0FF"/>
</linearGradient>
<linearGradient id="paint8_linear_0_645" x1="200.732" y1="77.9159" x2="200.732" y2="84.8449" gradientUnits="userSpaceOnUse">
<stop stop-color="#01B2FF"/>
<stop offset="1" stop-color="#59D0FF"/>
</linearGradient>
<linearGradient id="paint9_linear_0_645" x1="208.904" y1="62.6807" x2="208.904" y2="79.1757" gradientUnits="userSpaceOnUse">
<stop stop-color="#01B2FF"/>
<stop offset="1" stop-color="#59D0FF"/>
</linearGradient>
<linearGradient id="paint10_linear_0_645" x1="200.732" y1="91.3561" x2="200.732" y2="98.285" gradientUnits="userSpaceOnUse">
<stop stop-color="#01B2FF"/>
<stop offset="1" stop-color="#59D0FF"/>
</linearGradient>
<linearGradient id="paint11_linear_0_645" x1="208.904" y1="76.1208" x2="208.904" y2="92.6158" gradientUnits="userSpaceOnUse">
<stop stop-color="#01B2FF"/>
<stop offset="1" stop-color="#59D0FF"/>
</linearGradient>
<linearGradient id="paint12_linear_0_645" x1="187.477" y1="93.9813" x2="146.89" y2="109.477" gradientUnits="userSpaceOnUse">
<stop stop-color="#0177B4"/>
<stop offset="1" stop-color="#1C8EC3"/>
</linearGradient>
<linearGradient id="paint13_linear_0_645" x1="144.5" y1="20" x2="144.5" y2="74.6497" gradientUnits="userSpaceOnUse">
<stop stop-color="#01B2FF"/>
<stop offset="1" stop-color="#59D0FF"/>
</linearGradient>
<linearGradient id="paint14_linear_0_645" x1="158.471" y1="28.4076" x2="158.471" y2="66.9426" gradientUnits="userSpaceOnUse">
<stop stop-color="#1083BC"/>
<stop offset="1" stop-color="#269BD3"/>
</linearGradient>
<linearGradient id="paint15_linear_0_645" x1="158.759" y1="38.5007" x2="164.848" y2="58.3258" gradientUnits="userSpaceOnUse">
<stop stop-color="#055C98"/>
<stop offset="1" stop-color="#0E82BB"/>
</linearGradient>
<linearGradient id="paint16_linear_0_645" x1="168.948" y1="45.2229" x2="168.948" y2="50.828" gradientUnits="userSpaceOnUse">
<stop stop-color="#01B2FF"/>
<stop offset="1" stop-color="#59D0FF"/>
</linearGradient>
<linearGradient id="paint17_linear_0_645" x1="186.412" y1="54.3312" x2="186.412" y2="59.9363" gradientUnits="userSpaceOnUse">
<stop stop-color="#01B2FF"/>
<stop offset="1" stop-color="#59D0FF"/>
</linearGradient>
<linearGradient id="paint18_linear_0_645" x1="204.573" y1="44.5223" x2="204.573" y2="50.1274" gradientUnits="userSpaceOnUse">
<stop stop-color="#01B2FF"/>
<stop offset="1" stop-color="#59D0FF"/>
</linearGradient>
<linearGradient id="paint19_linear_0_645" x1="186.412" y1="36.1146" x2="186.412" y2="41.7197" gradientUnits="userSpaceOnUse">
<stop stop-color="#01B2FF"/>
<stop offset="1" stop-color="#59D0FF"/>
</linearGradient>
<linearGradient id="paint20_linear_0_645" x1="248" y1="114.5" x2="218.5" y2="114.5" gradientUnits="userSpaceOnUse">
<stop stop-color="#FFCD5E"/>
<stop offset="1" stop-color="#3BC6FF"/>
</linearGradient>
<linearGradient id="paint21_linear_0_645" x1="264.296" y1="217.647" x2="319.184" y2="248.633" gradientUnits="userSpaceOnUse">
<stop stop-color="#FF961D"/>
<stop offset="1" stop-color="#FFAC48"/>
</linearGradient>
<linearGradient id="paint22_linear_0_645" x1="272.235" y1="218.446" x2="297.981" y2="247.029" gradientUnits="userSpaceOnUse">
<stop stop-color="#FF831D"/>
<stop offset="1" stop-color="#FF9131"/>
</linearGradient>
<linearGradient id="paint23_linear_0_645" x1="257.524" y1="224.591" x2="199.465" y2="246.824" gradientUnits="userSpaceOnUse">
<stop stop-color="#FFAB46"/>
<stop offset="1" stop-color="#FFC05E"/>
</linearGradient>
<linearGradient id="paint24_linear_0_645" x1="196" y1="119" x2="196" y2="197" gradientUnits="userSpaceOnUse">
<stop stop-color="#FFB55E"/>
<stop offset="1" stop-color="#FFCF5E"/>
</linearGradient>
<linearGradient id="paint25_linear_0_645" x1="216.413" y1="158.802" x2="242.588" y2="203.093" gradientUnits="userSpaceOnUse">
<stop stop-color="#FF831D"/>
<stop offset="1" stop-color="#FF9131"/>
</linearGradient>
<linearGradient id="paint26_linear_0_645" x1="216.413" y1="145.406" x2="225.083" y2="173.718" gradientUnits="userSpaceOnUse">
<stop stop-color="#FF831D"/>
<stop offset="1" stop-color="#FF9131"/>
</linearGradient>
<linearGradient id="paint27_linear_0_645" x1="231" y1="155" x2="231" y2="163" gradientUnits="userSpaceOnUse">
<stop stop-color="#FFB55E"/>
<stop offset="1" stop-color="#FFCF5E"/>
</linearGradient>
<linearGradient id="paint28_linear_0_645" x1="256" y1="168" x2="256" y2="176" gradientUnits="userSpaceOnUse">
<stop stop-color="#FFB55E"/>
<stop offset="1" stop-color="#FFCF5E"/>
</linearGradient>
<linearGradient id="paint29_linear_0_645" x1="282" y1="154" x2="282" y2="162" gradientUnits="userSpaceOnUse">
<stop stop-color="#FFB55E"/>
<stop offset="1" stop-color="#FFCF5E"/>
</linearGradient>
<linearGradient id="paint30_linear_0_645" x1="256" y1="142" x2="256" y2="150" gradientUnits="userSpaceOnUse">
<stop stop-color="#FFB55E"/>
<stop offset="1" stop-color="#FFCF5E"/>
</linearGradient>
<linearGradient id="paint31_linear_0_645" x1="120.707" y1="214.116" x2="159.103" y2="235.727" gradientUnits="userSpaceOnUse">
<stop stop-color="#EC4E00"/>
<stop offset="1" stop-color="#FF7743"/>
</linearGradient>
<linearGradient id="paint32_linear_0_645" x1="126.088" y1="194.939" x2="126.088" y2="228.324" gradientUnits="userSpaceOnUse">
<stop stop-color="#FF7340"/>
<stop offset="1" stop-color="#FFA669"/>
</linearGradient>
<linearGradient id="paint33_linear_0_645" x1="129.232" y1="202.916" x2="129.232" y2="209.845" gradientUnits="userSpaceOnUse">
<stop stop-color="#FF7340"/>
<stop offset="1" stop-color="#FFA669"/>
</linearGradient>
<linearGradient id="paint34_linear_0_645" x1="137.404" y1="187.681" x2="137.404" y2="204.176" gradientUnits="userSpaceOnUse">
<stop stop-color="#FF7340"/>
<stop offset="1" stop-color="#FFA669"/>
</linearGradient>
<linearGradient id="paint35_linear_0_645" x1="129.232" y1="229.916" x2="129.232" y2="236.845" gradientUnits="userSpaceOnUse">
<stop stop-color="#FF7340"/>
<stop offset="1" stop-color="#FFA669"/>
</linearGradient>
<linearGradient id="paint36_linear_0_645" x1="137.404" y1="214.681" x2="137.404" y2="231.176" gradientUnits="userSpaceOnUse">
<stop stop-color="#FF7340"/>
<stop offset="1" stop-color="#FFA669"/>
</linearGradient>
<linearGradient id="paint37_linear_0_645" x1="129.232" y1="216.356" x2="129.232" y2="223.285" gradientUnits="userSpaceOnUse">
<stop stop-color="#FF7340"/>
<stop offset="1" stop-color="#FFA669"/>
</linearGradient>
<linearGradient id="paint38_linear_0_645" x1="137.404" y1="201.121" x2="137.404" y2="217.616" gradientUnits="userSpaceOnUse">
<stop stop-color="#FF7340"/>
<stop offset="1" stop-color="#FFA669"/>
</linearGradient>
<linearGradient id="paint39_linear_0_645" x1="115.977" y1="218.981" x2="75.3896" y2="234.477" gradientUnits="userSpaceOnUse">
<stop stop-color="#FF6921"/>
<stop offset="1" stop-color="#FFA166"/>
</linearGradient>
<linearGradient id="paint40_linear_0_645" x1="73" y1="145" x2="73" y2="199.65" gradientUnits="userSpaceOnUse">
<stop stop-color="#FF7340"/>
<stop offset="1" stop-color="#FFA669"/>
</linearGradient>
<linearGradient id="paint41_linear_0_645" x1="77.8328" y1="158.97" x2="84.64" y2="199.575" gradientUnits="userSpaceOnUse">
<stop stop-color="#EC4E00"/>
<stop offset="1" stop-color="#FF7743"/>
</linearGradient>
<linearGradient id="paint42_linear_0_645" x1="230.606" y1="193.004" x2="226.856" y2="147.046" gradientUnits="userSpaceOnUse">
<stop stop-color="#FF7743"/>
<stop offset="1" stop-color="#EC4E00"/>
</linearGradient>
<linearGradient id="paint43_linear_0_645" x1="97.4485" y1="170.223" x2="97.4485" y2="175.828" gradientUnits="userSpaceOnUse">
<stop stop-color="#FF7340"/>
<stop offset="1" stop-color="#FFA669"/>
</linearGradient>
<linearGradient id="paint44_linear_0_645" x1="114.912" y1="179.331" x2="114.912" y2="184.936" gradientUnits="userSpaceOnUse">
<stop stop-color="#FF7340"/>
<stop offset="1" stop-color="#FFA669"/>
</linearGradient>
<linearGradient id="paint45_linear_0_645" x1="133.073" y1="169.522" x2="133.073" y2="175.127" gradientUnits="userSpaceOnUse">
<stop stop-color="#FF7340"/>
<stop offset="1" stop-color="#FFA669"/>
</linearGradient>
<linearGradient id="paint46_linear_0_645" x1="114.912" y1="161.115" x2="114.912" y2="166.72" gradientUnits="userSpaceOnUse">
<stop stop-color="#FF7340"/>
<stop offset="1" stop-color="#FFA669"/>
</linearGradient>
<linearGradient id="paint47_linear_0_645" x1="310.604" y1="63.1863" x2="330.075" y2="74.0626" gradientUnits="userSpaceOnUse">
<stop stop-color="#EC4E00"/>
<stop offset="1" stop-color="#FF7743"/>
</linearGradient>
<linearGradient id="paint48_linear_0_645" x1="313.323" y1="53.4236" x2="313.323" y2="70.4196" gradientUnits="userSpaceOnUse">
<stop stop-color="#FF7340"/>
<stop offset="1" stop-color="#FFA669"/>
</linearGradient>
<linearGradient id="paint49_linear_0_645" x1="314.912" y1="57.4844" x2="314.912" y2="61.0118" gradientUnits="userSpaceOnUse">
<stop stop-color="#FF7340"/>
<stop offset="1" stop-color="#FFA669"/>
</linearGradient>
<linearGradient id="paint50_linear_0_645" x1="319.041" y1="49.7283" x2="319.041" y2="58.1257" gradientUnits="userSpaceOnUse">
<stop stop-color="#FF7340"/>
<stop offset="1" stop-color="#FFA669"/>
</linearGradient>
<linearGradient id="paint51_linear_0_645" x1="314.912" y1="71.2299" x2="314.912" y2="74.7573" gradientUnits="userSpaceOnUse">
<stop stop-color="#FF7340"/>
<stop offset="1" stop-color="#FFA669"/>
</linearGradient>
<linearGradient id="paint52_linear_0_645" x1="319.041" y1="63.4738" x2="319.041" y2="71.8712" gradientUnits="userSpaceOnUse">
<stop stop-color="#FF7340"/>
<stop offset="1" stop-color="#FFA669"/>
</linearGradient>
<linearGradient id="paint53_linear_0_645" x1="314.912" y1="64.3267" x2="314.912" y2="67.8541" gradientUnits="userSpaceOnUse">
<stop stop-color="#FF7340"/>
<stop offset="1" stop-color="#FFA669"/>
</linearGradient>
<linearGradient id="paint54_linear_0_645" x1="319.041" y1="56.5706" x2="319.041" y2="64.968" gradientUnits="userSpaceOnUse">
<stop stop-color="#FF7340"/>
<stop offset="1" stop-color="#FFA669"/>
</linearGradient>
<linearGradient id="paint55_linear_0_645" x1="308.215" y1="65.6633" x2="287.668" y2="73.4486" gradientUnits="userSpaceOnUse">
<stop stop-color="#FF6921"/>
<stop offset="1" stop-color="#FFA166"/>
</linearGradient>
<linearGradient id="paint56_linear_0_645" x1="286.5" y1="28" x2="286.5" y2="55.8217" gradientUnits="userSpaceOnUse">
<stop stop-color="#FF7340"/>
<stop offset="1" stop-color="#FFA669"/>
</linearGradient>
<linearGradient id="paint57_linear_0_645" x1="288.942" y1="35.112" x2="292.432" y2="55.7753" gradientUnits="userSpaceOnUse">
<stop stop-color="#EC4E00"/>
<stop offset="1" stop-color="#FF7743"/>
</linearGradient>
<linearGradient id="paint58_linear_0_645" x1="366.133" y1="52.4392" x2="364.209" y2="29.0437" gradientUnits="userSpaceOnUse">
<stop stop-color="#FF7743"/>
<stop offset="1" stop-color="#EC4E00"/>
</linearGradient>
<linearGradient id="paint59_linear_0_645" x1="307.677" y1="40.2039" x2="307.677" y2="43.0574" gradientUnits="userSpaceOnUse">
<stop stop-color="#FF7340"/>
<stop offset="1" stop-color="#FFA669"/>
</linearGradient>
<linearGradient id="paint60_linear_0_645" x1="408.648" y1="208.638" x2="436.176" y2="224.08" gradientUnits="userSpaceOnUse">
<stop stop-color="#005895"/>
<stop offset="1" stop-color="#2575A8"/>
</linearGradient>
<linearGradient id="paint61_linear_0_645" x1="412.5" y1="204.92" x2="412.5" y2="228.897" gradientUnits="userSpaceOnUse">
<stop stop-color="#01B2FF"/>
<stop offset="1" stop-color="#59D0FF"/>
</linearGradient>
<linearGradient id="paint62_linear_0_645" x1="414.75" y1="210.649" x2="414.75" y2="215.625" gradientUnits="userSpaceOnUse">
<stop stop-color="#01B2FF"/>
<stop offset="1" stop-color="#59D0FF"/>
</linearGradient>
<linearGradient id="paint63_linear_0_645" x1="420.6" y1="199.707" x2="420.6" y2="211.553" gradientUnits="userSpaceOnUse">
<stop stop-color="#01B2FF"/>
<stop offset="1" stop-color="#59D0FF"/>
</linearGradient>
<linearGradient id="paint64_linear_0_645" x1="414.75" y1="220.301" x2="414.75" y2="225.277" gradientUnits="userSpaceOnUse">
<stop stop-color="#01B2FF"/>
<stop offset="1" stop-color="#59D0FF"/>
</linearGradient>
<linearGradient id="paint65_linear_0_645" x1="420.6" y1="209.359" x2="420.6" y2="221.206" gradientUnits="userSpaceOnUse">
<stop stop-color="#01B2FF"/>
<stop offset="1" stop-color="#59D0FF"/>
</linearGradient>
<linearGradient id="paint66_linear_0_645" x1="405.262" y1="212.132" x2="376.186" y2="223.196" gradientUnits="userSpaceOnUse">
<stop stop-color="#0177B4"/>
<stop offset="1" stop-color="#1C8EC3"/>
</linearGradient>
<linearGradient id="paint67_linear_0_645" x1="374.5" y1="159" x2="374.5" y2="198.248" gradientUnits="userSpaceOnUse">
<stop stop-color="#01B2FF"/>
<stop offset="1" stop-color="#59D0FF"/>
</linearGradient>
<linearGradient id="paint68_linear_0_645" x1="384.5" y1="165.038" x2="384.5" y2="192.713" gradientUnits="userSpaceOnUse">
<stop stop-color="#1083BC"/>
<stop offset="1" stop-color="#269BD3"/>
</linearGradient>
<linearGradient id="paint69_linear_0_645" x1="384.707" y1="172.287" x2="389.092" y2="186.518" gradientUnits="userSpaceOnUse">
<stop stop-color="#055C98"/>
<stop offset="1" stop-color="#0E82BB"/>
</linearGradient>
<linearGradient id="paint70_linear_0_645" x1="392" y1="177.115" x2="392" y2="181.14" gradientUnits="userSpaceOnUse">
<stop stop-color="#01B2FF"/>
<stop offset="1" stop-color="#59D0FF"/>
</linearGradient>
<linearGradient id="paint71_linear_0_645" x1="404.5" y1="183.656" x2="404.5" y2="187.681" gradientUnits="userSpaceOnUse">
<stop stop-color="#01B2FF"/>
<stop offset="1" stop-color="#59D0FF"/>
</linearGradient>
<linearGradient id="paint72_linear_0_645" x1="417.5" y1="176.611" x2="417.5" y2="180.637" gradientUnits="userSpaceOnUse">
<stop stop-color="#01B2FF"/>
<stop offset="1" stop-color="#59D0FF"/>
</linearGradient>
<linearGradient id="paint73_linear_0_645" x1="404.5" y1="170.573" x2="404.5" y2="174.599" gradientUnits="userSpaceOnUse">
<stop stop-color="#01B2FF"/>
<stop offset="1" stop-color="#59D0FF"/>
</linearGradient>
<linearGradient id="paint74_linear_0_645" x1="634.678" y1="241.691" x2="667.829" y2="260.339" gradientUnits="userSpaceOnUse">
<stop stop-color="#FF961D"/>
<stop offset="1" stop-color="#FFAC48"/>
</linearGradient>
<linearGradient id="paint75_linear_0_645" x1="639.465" y1="242.174" x2="655.049" y2="259.415" gradientUnits="userSpaceOnUse">
<stop stop-color="#FF831D"/>
<stop offset="1" stop-color="#FF9131"/>
</linearGradient>
<linearGradient id="paint76_linear_0_645" x1="630.596" y1="245.893" x2="595.558" y2="259.263" gradientUnits="userSpaceOnUse">
<stop stop-color="#FFAB46"/>
<stop offset="1" stop-color="#FFC05E"/>
</linearGradient>
<linearGradient id="paint77_linear_0_645" x1="593.5" y1="182" x2="593.5" y2="229.197" gradientUnits="userSpaceOnUse">
<stop stop-color="#FFB55E"/>
<stop offset="1" stop-color="#FFCF5E"/>
</linearGradient>
<linearGradient id="paint78_linear_0_645" x1="605.808" y1="206.084" x2="621.674" y2="232.834" gradientUnits="userSpaceOnUse">
<stop stop-color="#FF831D"/>
<stop offset="1" stop-color="#FF9131"/>
</linearGradient>
<linearGradient id="paint79_linear_0_645" x1="605.808" y1="197.978" x2="611.069" y2="215.098" gradientUnits="userSpaceOnUse">
<stop stop-color="#FF831D"/>
<stop offset="1" stop-color="#FF9131"/>
</linearGradient>
<linearGradient id="paint80_linear_0_645" x1="629.677" y1="203.65" x2="629.677" y2="208.49" gradientUnits="userSpaceOnUse">
<stop stop-color="#FFB55E"/>
<stop offset="1" stop-color="#FFCF5E"/>
</linearGradient>
<linearGradient id="paint81_linear_0_645" x1="224" y1="241" x2="144.5" y2="241" gradientUnits="userSpaceOnUse">
<stop stop-color="#FFCD5E"/>
<stop offset="1" stop-color="#FF9B5F"/>
</linearGradient>
<linearGradient id="paint82_linear_0_645" x1="609.5" y1="225" x2="427.5" y2="225" gradientUnits="userSpaceOnUse">
<stop stop-color="#FFC85E"/>
<stop offset="1" stop-color="#45CAFF"/>
</linearGradient>
<linearGradient id="paint83_linear_0_645" x1="388" y1="223.5" x2="301.5" y2="223.5" gradientUnits="userSpaceOnUse">
<stop stop-color="#3BC6FF"/>
<stop offset="1" stop-color="#FFCD5E"/>
</linearGradient>
<linearGradient id="paint84_linear_0_645" x1="378" y1="296" x2="244.5" y2="296" gradientUnits="userSpaceOnUse">
<stop stop-color="#FFC15E"/>
<stop offset="1" stop-color="#269BD3"/>
</linearGradient>
<linearGradient id="paint85_linear_0_645" x1="231" y1="346.5" x2="391" y2="346.5" gradientUnits="userSpaceOnUse">
<stop stop-color="#26BFFF"/>
<stop offset="1" stop-color="#FF8E56"/>
</linearGradient>
<linearGradient id="paint86_linear_0_645" x1="391.178" y1="369.691" x2="424.329" y2="388.339" gradientUnits="userSpaceOnUse">
<stop stop-color="#FF961D"/>
<stop offset="1" stop-color="#FFAC48"/>
</linearGradient>
<linearGradient id="paint87_linear_0_645" x1="395.965" y1="370.174" x2="411.549" y2="387.415" gradientUnits="userSpaceOnUse">
<stop stop-color="#FF831D"/>
<stop offset="1" stop-color="#FF9131"/>
</linearGradient>
<linearGradient id="paint88_linear_0_645" x1="387.096" y1="373.893" x2="352.058" y2="387.263" gradientUnits="userSpaceOnUse">
<stop stop-color="#FFAB46"/>
<stop offset="1" stop-color="#FFC05E"/>
</linearGradient>
<linearGradient id="paint89_linear_0_645" x1="350" y1="310" x2="350" y2="357.197" gradientUnits="userSpaceOnUse">
<stop stop-color="#FFB55E"/>
<stop offset="1" stop-color="#FFCF5E"/>
</linearGradient>
<linearGradient id="paint90_linear_0_645" x1="362.308" y1="334.084" x2="378.174" y2="360.834" gradientUnits="userSpaceOnUse">
<stop stop-color="#FF831D"/>
<stop offset="1" stop-color="#FF9131"/>
</linearGradient>
<linearGradient id="paint91_linear_0_645" x1="362.308" y1="325.978" x2="367.569" y2="343.098" gradientUnits="userSpaceOnUse">
<stop stop-color="#FF831D"/>
<stop offset="1" stop-color="#FF9131"/>
</linearGradient>
<linearGradient id="paint92_linear_0_645" x1="371.103" y1="331.783" x2="371.103" y2="336.624" gradientUnits="userSpaceOnUse">
<stop stop-color="#FFB55E"/>
<stop offset="1" stop-color="#FFCF5E"/>
</linearGradient>
<linearGradient id="paint93_linear_0_645" x1="386.177" y1="339.65" x2="386.177" y2="344.49" gradientUnits="userSpaceOnUse">
<stop stop-color="#FFB55E"/>
<stop offset="1" stop-color="#FFCF5E"/>
</linearGradient>
<linearGradient id="paint94_linear_0_645" x1="401.853" y1="331.178" x2="401.853" y2="336.019" gradientUnits="userSpaceOnUse">
<stop stop-color="#FFB55E"/>
<stop offset="1" stop-color="#FFCF5E"/>
</linearGradient>
<linearGradient id="paint95_linear_0_645" x1="386.177" y1="323.917" x2="386.177" y2="328.758" gradientUnits="userSpaceOnUse">
<stop stop-color="#FFB55E"/>
<stop offset="1" stop-color="#FFCF5E"/>
</linearGradient>
<linearGradient id="paint96_linear_0_645" x1="231.117" y1="340.584" x2="253.022" y2="352.82" gradientUnits="userSpaceOnUse">
<stop stop-color="#005895"/>
<stop offset="1" stop-color="#2575A8"/>
</linearGradient>
<linearGradient id="paint97_linear_0_645" x1="234.177" y1="337.62" x2="234.177" y2="356.74" gradientUnits="userSpaceOnUse">
<stop stop-color="#01B2FF"/>
<stop offset="1" stop-color="#59D0FF"/>
</linearGradient>
<linearGradient id="paint98_linear_0_645" x1="235.963" y1="342.188" x2="235.963" y2="346.157" gradientUnits="userSpaceOnUse">
<stop stop-color="#01B2FF"/>
<stop offset="1" stop-color="#59D0FF"/>
</linearGradient>
<linearGradient id="paint99_linear_0_645" x1="240.609" y1="333.463" x2="240.609" y2="342.91" gradientUnits="userSpaceOnUse">
<stop stop-color="#01B2FF"/>
<stop offset="1" stop-color="#59D0FF"/>
</linearGradient>
<linearGradient id="paint100_linear_0_645" x1="235.963" y1="349.886" x2="235.963" y2="353.854" gradientUnits="userSpaceOnUse">
<stop stop-color="#01B2FF"/>
<stop offset="1" stop-color="#59D0FF"/>
</linearGradient>
<linearGradient id="paint101_linear_0_645" x1="240.609" y1="341.16" x2="240.609" y2="350.607" gradientUnits="userSpaceOnUse">
<stop stop-color="#01B2FF"/>
<stop offset="1" stop-color="#59D0FF"/>
</linearGradient>
<linearGradient id="paint102_linear_0_645" x1="228.429" y1="343.371" x2="205.314" y2="352.13" gradientUnits="userSpaceOnUse">
<stop stop-color="#0177B4"/>
<stop offset="1" stop-color="#1C8EC3"/>
</linearGradient>
<linearGradient id="paint103_linear_0_645" x1="204" y1="301" x2="204" y2="332.299" gradientUnits="userSpaceOnUse">
<stop stop-color="#01B2FF"/>
<stop offset="1" stop-color="#59D0FF"/>
</linearGradient>
<linearGradient id="paint104_linear_0_645" x1="211.941" y1="305.815" x2="211.941" y2="327.885" gradientUnits="userSpaceOnUse">
<stop stop-color="#1083BC"/>
<stop offset="1" stop-color="#269BD3"/>
</linearGradient>
<linearGradient id="paint105_linear_0_645" x1="212.105" y1="311.596" x2="215.615" y2="322.936" gradientUnits="userSpaceOnUse">
<stop stop-color="#055C98"/>
<stop offset="1" stop-color="#0E82BB"/>
</linearGradient>
<linearGradient id="paint106_linear_0_645" x1="228.823" y1="315.662" x2="228.823" y2="318.873" gradientUnits="userSpaceOnUse">
<stop stop-color="#01B2FF"/>
<stop offset="1" stop-color="#59D0FF"/>
</linearGradient>
<linearGradient id="paint107_linear_0_645" x1="346.178" y1="396.691" x2="379.329" y2="415.339" gradientUnits="userSpaceOnUse">
<stop stop-color="#FF961D"/>
<stop offset="1" stop-color="#FFAC48"/>
</linearGradient>
<linearGradient id="paint108_linear_0_645" x1="350.965" y1="397.174" x2="366.549" y2="414.415" gradientUnits="userSpaceOnUse">
<stop stop-color="#FF831D"/>
<stop offset="1" stop-color="#FF9131"/>
</linearGradient>
<linearGradient id="paint109_linear_0_645" x1="342.096" y1="400.893" x2="307.058" y2="414.263" gradientUnits="userSpaceOnUse">
<stop stop-color="#FFAB46"/>
<stop offset="1" stop-color="#FFC05E"/>
</linearGradient>
<linearGradient id="paint110_linear_0_645" x1="305" y1="337" x2="305" y2="384.197" gradientUnits="userSpaceOnUse">
<stop stop-color="#FFB55E"/>
<stop offset="1" stop-color="#FFCF5E"/>
</linearGradient>
<linearGradient id="paint111_linear_0_645" x1="317.308" y1="361.084" x2="333.174" y2="387.834" gradientUnits="userSpaceOnUse">
<stop stop-color="#FF831D"/>
<stop offset="1" stop-color="#FF9131"/>
</linearGradient>
<linearGradient id="paint112_linear_0_645" x1="317.308" y1="352.978" x2="322.569" y2="370.098" gradientUnits="userSpaceOnUse">
<stop stop-color="#FF831D"/>
<stop offset="1" stop-color="#FF9131"/>
</linearGradient>
<linearGradient id="paint113_linear_0_645" x1="341.177" y1="358.917" x2="341.177" y2="363.758" gradientUnits="userSpaceOnUse">
<stop stop-color="#FFB55E"/>
<stop offset="1" stop-color="#FFCF5E"/>
</linearGradient>
<linearGradient id="paint114_linear_0_645" x1="325" y1="355" x2="245.5" y2="355" gradientUnits="userSpaceOnUse">
<stop stop-color="#FFBD5E"/>
<stop offset="1" stop-color="#45C9FF"/>
</linearGradient>
<linearGradient id="paint115_linear_0_645" x1="430.27" y1="392" x2="367.5" y2="392" gradientUnits="userSpaceOnUse">
<stop stop-color="#FFC65E"/>
<stop offset="0.360998" stop-color="#FFC65E"/>
<stop offset="1" stop-color="#FFCD5E"/>
</linearGradient>
</defs>
</svg>
