<svg width="44" height="44" viewBox="0 0 44 44" fill="none" xmlns="http://www.w3.org/2000/svg">
<g id="account">
<g id="vuesax/linear/profile-circle">
<g id="profile-circle">
<path id="Vector" d="M21.78 23.43C18.5533 23.32 15.9866 20.68 15.9866 17.435C15.9866 14.1166 18.6633 11.4216 22 11.4216C25.3183 11.4216 28.0133 14.1166 28.0133 17.435C27.995 20.68 25.4466 23.32 22.22 23.43C22.0916 23.4116 21.9266 23.4116 21.78 23.43Z" stroke="#FFCB5E" stroke-width="1.5" stroke-linecap="round" stroke-linejoin="round"/>
<path id="Vector_2" d="M22 40.3334C17.2334 40.3334 12.9067 38.5184 9.64337 35.5301C9.8267 33.8068 10.9267 32.1201 12.8884 30.8001C17.9117 27.4634 26.125 27.4634 31.1117 30.8001C33.0734 32.1201 34.1734 33.8068 34.3567 35.5301C31.0934 38.5184 26.7667 40.3334 22 40.3334Z" stroke="#FFCB5E" stroke-width="1.5" stroke-linecap="round" stroke-linejoin="round"/>
<path id="Vector_3" fill-rule="evenodd" clip-rule="evenodd" d="M22 40.3334C11.8748 40.3334 3.66669 32.1253 3.66669 22.0001C3.66669 11.8749 11.8748 3.66675 22 3.66675C32.1252 3.66675 40.3334 11.8749 40.3334 22.0001C40.3334 32.1253 32.1252 40.3334 22 40.3334Z" stroke="#FFCB5E" stroke-width="1.5" stroke-linecap="round" stroke-linejoin="round"/>
</g>
</g>
</g>
</svg>
