<svg width="44" height="44" viewBox="0 0 44 44" fill="none" xmlns="http://www.w3.org/2000/svg">
<g id="analyse">
<g id="vuesax/linear/favorite-chart">
<g id="favorite-chart">
<path id="Vector" d="M40.3334 23.8334V16.5001C40.3334 7.33341 36.6667 3.66675 27.5 3.66675H16.5C7.33335 3.66675 3.66669 7.33341 3.66669 16.5001V27.5001C3.66669 36.6667 7.33335 40.3334 16.5 40.3334H23.8334" stroke="#FFCB5E" stroke-width="1.5" stroke-linecap="round" stroke-linejoin="round"/>
<path id="Vector_2" d="M13.4385 26.5651L17.8018 20.9001C18.4252 20.0934 19.5802 19.9467 20.3868 20.5701L23.7419 23.2101C24.5485 23.8334 25.7035 23.6867 26.3268 22.8984L30.5619 17.4351" stroke="#FFCB5E" stroke-width="1.5" stroke-linecap="round" stroke-linejoin="round"/>
<g id="Group">
<path id="Vector_3" fill-rule="evenodd" clip-rule="evenodd" d="M36.2266 30.0481C36.4833 30.5615 37.1249 31.0381 37.6933 31.1481L38.3899 31.2581C40.4799 31.6065 40.9749 33.1465 39.4716 34.6681L38.8299 35.3098C38.4083 35.7498 38.17 36.5931 38.2983 37.1798L38.3899 37.5648C38.9583 40.0948 37.6199 41.0665 35.4199 39.7465L34.9433 39.4715C34.3749 39.1415 33.4583 39.1415 32.8899 39.4715L32.4133 39.7465C30.1949 41.0848 28.8566 40.0948 29.4433 37.5648L29.5349 37.1798C29.6632 36.5931 29.4249 35.7498 29.0033 35.3098L28.3616 34.6681C26.8583 33.1465 27.3533 31.6065 29.4433 31.2581L30.1399 31.1481C30.6899 31.0565 31.3499 30.5615 31.6066 30.0481L32.1199 29.0031C33.1099 27.0048 34.7233 27.0048 35.7133 29.0031L36.2266 30.0481Z" stroke="#FFCB5E" stroke-width="1.5" stroke-linecap="round" stroke-linejoin="round"/>
</g>
</g>
</g>
</g>
</svg>
