<svg width="44" height="44" viewBox="0 0 44 44" fill="none" xmlns="http://www.w3.org/2000/svg">
<g id="calculate">
<g id="vuesax/linear/receipt-2">
<g id="receipt-2">
<path id="Vector" fill-rule="evenodd" clip-rule="evenodd" d="M17.4534 36.3918L19.305 38.8667C20.79 40.8284 23.1917 40.8284 24.6767 38.8667L26.5284 36.3918C27.8484 34.6318 30.14 34.5034 31.6434 36.1167C34.9067 39.6001 37.565 38.4451 37.565 33.5684V12.9067C37.5834 5.51841 35.86 3.66675 28.93 3.66675H15.07C8.14002 3.66675 6.41669 5.51841 6.41669 12.9067V33.5501C6.41669 38.4451 9.09335 39.5817 12.3384 36.1167C13.8417 34.5034 16.1334 34.6318 17.4534 36.3918Z" stroke="#FFCB5E" stroke-width="1.5" stroke-linecap="round" stroke-linejoin="round"/>
<path id="Vector_2" d="M14.8428 20.1667H14.8593" stroke="#FFCB5E" stroke-width="2" stroke-linecap="round" stroke-linejoin="round"/>
<path id="Vector_3" d="M19.9805 20.1667H30.0638" stroke="#FFCB5E" stroke-width="1.5" stroke-linecap="round" stroke-linejoin="round"/>
<path id="Vector_4" d="M14.8428 12.8334H14.8593" stroke="#FFCB5E" stroke-width="2" stroke-linecap="round" stroke-linejoin="round"/>
<path id="Vector_5" d="M19.9805 12.8333H30.0638" stroke="#FFCB5E" stroke-width="1.5" stroke-linecap="round" stroke-linejoin="round"/>
</g>
</g>
</g>
</svg>
